<svg xmlns="http://www.w3.org/2000/svg" xmlns:xlink="http://www.w3.org/1999/xlink" id="Warstwa_1" x="0" y="0" enable-background="new 0 0 200 172" version="1.1" viewBox="0 0 200 172" xml:space="preserve"><polygon points="19.6 62 19.6 46.1 18.5 46.1 18.5 62 18.1 62 18.1 67.1 20 67.1 20 62" enable-background="new" opacity=".3"/><polygon points="9.4 62 9.4 46.1 8.5 46.1 8.5 62 8 62 8 67.1 9.9 67.1 9.9 62" enable-background="new" opacity=".3"/><linearGradient id="SVGID_1_" x1="97.45" x2="97.45" y1="842" y2="695.084" gradientTransform="matrix(1 0 0 1 0 -670)" gradientUnits="userSpaceOnUse"><stop offset="0" style="stop-color:#1d7ee8"/><stop offset="1" style="stop-color:#2ea7db"/></linearGradient><path fill="url(#SVGID_1_)" d="M11.9,111l0.1,61h171l-0.3-61.7c0-49.1-41.6-88.5-91.5-85C46.4,28.4,11.9,66.1,11.9,111z"/><polygon points="174 123.4 173 122.9 173 121 162 121 162 89 139.9 89 140.2 107.7 129 108 129.1 76.8 110 64 110 109 107 109 107 84 87 84 87 96 70 96 70 57 55 57 55 96 49 96 49 75 37 63 37 106.6 28.3 106.6 28.3 84.8 5.9 84.8 5.9 121.5 5.9 150.8 5.9 172.4 173.6 172.4 173.6 150.8 174 150.8" enable-background="new" opacity=".2"/><rect width="172" height="14" x="7.5" y="158" enable-background="new" opacity=".2"/><linearGradient id="SVGID_2_" x1="12649.999" x2="12652.759" y1="794.7" y2="794.7" gradientTransform="matrix(-1 0 0 1 12795.5801 -670)" gradientUnits="userSpaceOnUse"><stop offset="0" style="stop-color:#2e42bf"/><stop offset="1" style="stop-color:#593192"/></linearGradient><polygon fill="url(#SVGID_2_)" points="145.6 108.5 145.6 146.8 142.8 146.8 142.8 102.6"/><polygon points="145.6 108.5 145.6 146.8 142.8 146.8 142.8 102.6" enable-background="new" opacity=".15"/><linearGradient id="SVGID_3_" x1="12649.999" x2="12652.362" y1="816.15" y2="816.15" gradientTransform="matrix(-1 0 0 1 12795.5801 -670)" gradientUnits="userSpaceOnUse"><stop offset="0" style="stop-color:#2e40bf"/><stop offset="1" style="stop-color:#593192"/></linearGradient><polyline fill="url(#SVGID_3_)" points="145.6 135.3 145.6 162.9 143.2 162.9 143.2 129.4"/><polygon points="145.6 135.3 145.6 162.9 143.2 162.9 143.2 129.4" enable-background="new" opacity=".15"/><linearGradient id="SVGID_4_" x1="12147.37" x2="12188.67" y1="807.55" y2="807.55" gradientTransform="matrix(-1 0 0 1 12221.5703 -670)" gradientUnits="userSpaceOnUse"><stop offset="0" style="stop-color:#2e60e8"/><stop offset="1" style="stop-color:#2e74db"/></linearGradient><rect width="41.3" height="64.3" x="32.9" y="105.4" fill="url(#SVGID_4_)"/><rect width="41" height="65" x="33" y="105" enable-background="new" opacity=".15"/><rect width="1.8" height="1.8" x="36.1" y="164.6" fill="#FFF" enable-background="new" opacity=".5"/><rect width="1.8" height="1.8" x="36.1" y="158.2" fill="#FFF" enable-background="new" opacity=".5"/><rect width="1.8" height="1.8" x="36.1" y="151.8" fill="#FFF" enable-background="new" opacity=".5"/><rect width="1.8" height="1.8" x="36.1" y="145.3" fill="#FFF" enable-background="new" opacity=".5"/><rect width="1.8" height="1.8" x="36.1" y="138.9" fill="#FFF"/><rect width="1.8" height="1.8" x="36.1" y="132.5" fill="#FFF" enable-background="new" opacity=".5"/><rect width="1.8" height="1.8" x="36.1" y="125.6" fill="#FFF" enable-background="new" opacity=".5"/><rect width="1.8" height="1.8" x="36.1" y="119.2" fill="#FFF" enable-background="new" opacity=".5"/><rect width="1.8" height="1.8" x="36.1" y="112.8" fill="#FFF" enable-background="new" opacity=".5"/><rect width="41" height="3" x="33.5" y="105" enable-background="new" opacity=".2"/><polyline fill="#373E9B" points="3 67 0 70.1 0 172.5 3.7 172.5 3.7 67.6"/><linearGradient id="SVGID_5_" x1="43.023" x2="2.023" y1="119.532" y2="119.464" gradientUnits="userSpaceOnUse"><stop offset="0" style="stop-color:#2e60e8"/><stop offset="1" style="stop-color:#2e74db"/></linearGradient><polygon fill="url(#SVGID_5_)" points="3 67 3 131 3 172 43 172 43 131 44 131 44 67"/><rect width="8" height="4" x="8" y="89" fill="#FFF" enable-background="new" opacity=".1"/><rect width="8" height="4" x="8" y="96" fill="#FFF" enable-background="new" opacity=".1"/><rect width="8" height="4" x="8" y="103" fill="#FFF" enable-background="new" opacity=".1"/><rect width="8" height="4" x="8" y="75" fill="#FFF" enable-background="new" opacity=".1"/><rect width="8" height="4" x="8" y="82" fill="#FFF" enable-background="new" opacity=".1"/><rect width="8" height="4" x="19" y="89" fill="#FFF" enable-background="new" opacity=".1"/><rect width="8" height="4" x="19" y="96" fill="#FFF" enable-background="new" opacity=".1"/><rect width="8" height="4" x="19" y="103" fill="#FFF" enable-background="new" opacity=".1"/><rect width="8" height="4" x="19" y="75" fill="#FFF" enable-background="new" opacity=".1"/><rect width="8" height="4" x="19" y="82" fill="#FFF" enable-background="new" opacity=".1"/><rect width="8" height="4" x="31" y="89" fill="#FFF" enable-background="new" opacity=".1"/><rect width="8" height="4" x="31" y="96" fill="#FFF" enable-background="new" opacity=".1"/><rect width="8" height="4" x="31" y="103" fill="#FFF" enable-background="new" opacity=".1"/><rect width="8" height="4" x="31" y="75" fill="#FFF" enable-background="new" opacity=".1"/><rect width="8" height="4" x="31" y="82" fill="#FFF" enable-background="new" opacity=".1"/><rect width="8" height="4" x="8" y="123" fill="#FFF" enable-background="new" opacity=".1"/><rect width="8" height="4" x="8" y="130" fill="#FFF" enable-background="new" opacity=".1"/><rect width="8" height="4" x="8" y="137" fill="#FFF" enable-background="new" opacity=".1"/><rect width="8" height="4" x="8" y="110" fill="#FFF" enable-background="new" opacity=".1"/><rect width="8" height="4" x="8" y="116" fill="#FFF" enable-background="new" opacity=".1"/><rect width="8" height="4" x="19" y="123" fill="#FFF" enable-background="new" opacity=".1"/><rect width="8" height="4" x="19" y="130" fill="#FFF" enable-background="new" opacity=".1"/><rect width="8" height="4" x="19" y="137" fill="#FFF" enable-background="new" opacity=".1"/><rect width="8" height="4" x="19" y="110" fill="#FFF" enable-background="new" opacity=".1"/><rect width="8" height="4" x="19" y="116" fill="#FFF" enable-background="new" opacity=".1"/><rect width="8" height="4" x="31" y="123" fill="#FFF" enable-background="new" opacity=".1"/><rect width="8" height="4" x="31" y="130" fill="#FFF" enable-background="new" opacity=".1"/><rect width="8" height="4" x="31" y="137" fill="#FFF" enable-background="new" opacity=".1"/><rect width="8" height="4" x="31" y="110" fill="#FFF" enable-background="new" opacity=".1"/><rect width="8" height="4" x="31" y="116" fill="#FFF" enable-background="new" opacity=".1"/><rect width="8" height="4" x="8" y="158" fill="#FFF" enable-background="new" opacity=".1"/><rect width="8" height="4" x="8" y="165" fill="#FFF" enable-background="new" opacity=".1"/><rect width="8" height="4" x="8" y="144" fill="#FFF" enable-background="new" opacity=".1"/><rect width="8" height="4" x="8" y="151" fill="#FFF" enable-background="new" opacity=".1"/><rect width="8" height="4" x="20" y="158" fill="#FFF" enable-background="new" opacity=".1"/><rect width="8" height="4" x="19" y="165" fill="#FFF" enable-background="new" opacity=".1"/><rect width="8" height="4" x="19" y="144" fill="#FFF" enable-background="new" opacity=".1"/><rect width="8.3" height="3.7" x="19.5" y="151.3" fill="#FFF" enable-background="new" opacity=".1"/><rect width="8" height="4" x="31" y="158" fill="#FFF" enable-background="new" opacity=".1"/><rect width="8" height="4" x="31" y="165" fill="#FFF" enable-background="new" opacity=".1"/><rect width="8.3" height="3.7" x="31" y="144.5" fill="#FFF" enable-background="new" opacity=".1"/><rect width="8.3" height="3.7" x="31" y="151.3" fill="#FFF" enable-background="new" opacity=".1"/><linearGradient id="SVGID_6_" x1="153.957" x2="163.9" y1="766.85" y2="766.85" gradientTransform="matrix(1 0 0 1 0 -670)" gradientUnits="userSpaceOnUse"><stop offset="0" style="stop-color:#451088"/><stop offset="1" style="stop-color:#593179"/></linearGradient><polygon fill="url(#SVGID_6_)" points="154 29.8 154 163.9 163.9 163.9 163.8 45.9"/><linearGradient id="SVGID_7_" x1="118" x2="154" y1="766.85" y2="766.85" gradientTransform="matrix(1 0 0 1 0 -670)" gradientUnits="userSpaceOnUse"><stop offset="0" style="stop-color:#2e59bf"/><stop offset=".04" style="stop-color:#3057bd"/><stop offset="1" style="stop-color:#593192"/></linearGradient><path fill="url(#SVGID_7_)" d="M118,69v95h36V29.7c0,0-3,12-17.1,25.8C131.3,60.8,125,65.5,118,69z"/><linearGradient id="SVGID_8_" x1="154" x2="164" y1="767" y2="767" gradientTransform="matrix(1 0 0 1 0 -670)" gradientUnits="userSpaceOnUse"><stop offset="0" style="stop-color:#451088"/><stop offset="1" style="stop-color:#593179"/></linearGradient><polygon fill="url(#SVGID_8_)" points="154 30 154 164 164 164 164 46"/><g><g><defs><path id="SVGID_9_" d="M118,83.1v74.3h35.7v-105c0,0-3.1,9.2-16.9,20.1C128.4,79.3,118,83.1,118,83.1z"/></defs><clipPath id="SVGID_10_"><use overflow="visible" xlink:href="#SVGID_9_"/></clipPath><g clip-path="url(#SVGID_10_)"><path d="M119.7,88.1v2.7c0,0,9.7-3.7,17.7-9.8c10.9-8.3,14.7-15.2,14.7-15.2v-4 c0,0-2.8,6.9-15.4,16.8C129.1,84.6,119.7,88.1,119.7,88.1z" enable-background="new" opacity=".3"/><path d="M119.7,94.4v2.7c0,0,9.7-3.7,17.7-9.8c10.9-8.3,14.7-15.2,14.7-15.2v-4 c0,0-2.8,6.9-15.4,16.8C129.1,91,119.7,94.4,119.7,94.4z" enable-background="new" opacity=".3"/><path d="M119.7,100.7v2.7c0,0,9.7-3.7,17.7-9.8c10.9-8.3,14.7-15.2,14.7-15.2v-4 c0,0-2.8,6.9-15.4,16.8C129.1,97.3,119.7,100.7,119.7,100.7z" enable-background="new" opacity=".3"/><path d="M119.7,107.1v2.7c0,0,9.7-3.7,17.7-9.8c10.9-8.3,14.7-15.2,14.7-15.2v-4 c0,0-2.8,6.9-15.4,16.8C129.1,103.6,119.7,107.1,119.7,107.1z" enable-background="new" opacity=".3"/><path d="M119.7,113.4v2.7c0,0,9.7-3.6,17.7-9.8c10.9-8.3,14.7-15.2,14.7-15.2v-4 c0,0-2.8,6.9-15.4,16.8C129.1,110,119.7,113.4,119.7,113.4z" enable-background="new" opacity=".3"/><path d="M119.7,119.7v2.7c0,0,9.7-3.6,17.7-9.8c10.9-8.3,14.7-15.2,14.7-15.2v-4 c0,0-2.8,6.9-15.4,16.8C129.1,116.3,119.7,119.7,119.7,119.7z" enable-background="new" opacity=".3"/><path d="M119.7,126.1v2.7c0,0,9.7-3.6,17.7-9.8c10.9-8.3,14.7-15.2,14.7-15.2v-4 c0,0-2.8,6.9-15.4,16.8C129.1,122.6,119.7,126.1,119.7,126.1z" enable-background="new" opacity=".3"/><path d="M119.7,132.4v2.7c0,0,9.7-3.7,17.7-9.8c10.9-8.3,14.7-15.2,14.7-15.2v-4 c0,0-2.8,6.9-15.4,16.8C129.1,129,119.7,132.4,119.7,132.4z" enable-background="new" opacity=".3"/><path d="M119.7,138.7v2.7c0,0,9.7-3.7,17.7-9.8c10.9-8.3,14.7-15.2,14.7-15.2v-4 c0,0-2.8,6.9-15.4,16.8C129.1,135.3,119.7,138.7,119.7,138.7z" enable-background="new" opacity=".3"/><path d="M119.7,145.1v2.7c0,0,9.7-3.7,17.7-9.8c10.9-8.3,14.7-15.2,14.7-15.2v-4 c0,0-2.8,6.9-15.4,16.8C129.1,141.6,119.7,145.1,119.7,145.1z" enable-background="new" opacity=".3"/><path d="M119.7,151.4v2.7c0,0,9.7-3.7,17.7-9.8c10.9-8.3,14.7-15.2,14.7-15.2v-4 c0,0-2.8,6.9-15.4,16.8C129.1,147.9,119.7,151.4,119.7,151.4z" enable-background="new" opacity=".3"/><path d="M119.7,157.7v2.7c0,0,9.7-3.6,17.7-9.8c10.9-8.3,14.7-15.2,14.7-15.2v-4 c0,0-2.8,6.9-15.4,16.8C129.1,154.3,119.7,157.7,119.7,157.7z" enable-background="new" opacity=".3"/><path d="M119.7,164v2.7c0,0,9.7-3.6,17.7-9.8c10.9-8.3,14.7-15.2,14.7-15.2v-4 c0,0-2.8,6.9-15.4,16.8C129.1,160.6,119.7,164,119.7,164z" enable-background="new" opacity=".3"/><path d="M119.7,170.4v2.7c0,0,9.7-3.6,17.7-9.8c10.9-8.3,14.7-15.2,14.7-15.2v-4 c0,0-2.8,6.9-15.4,16.8C129.1,166.9,119.7,170.4,119.7,170.4z" enable-background="new" opacity=".3"/><path d="M119.7,176.7v2.7c0,0,9.7-3.7,17.7-9.8c10.9-8.3,14.7-15.2,14.7-15.2v-4 c0,0-2.8,6.9-15.4,16.8C129.1,173.3,119.7,176.7,119.7,176.7z" enable-background="new" opacity=".3"/></g></g></g><g opacity=".3"><path d="M118,69v4c0,0,12-5.2,21.2-14.3C149.6,48.5,154,37.1,154,37.1v-7.5c0,0-3,12-17.1,25.8C131.3,60.8,125,65.5,118,69z"/><polygon points="154 29.8 154 37.1 164 52 164 46"/></g><linearGradient id="SVGID_11_" x1="15205.255" x2="15233.357" y1="990.1" y2="990.1" gradientTransform="matrix(1 0 0 1 -15189.2803 -834)" gradientUnits="userSpaceOnUse"><stop offset="0" style="stop-color:#2e3192"/><stop offset="1" style="stop-color:#2f0b81"/></linearGradient><path fill="url(#SVGID_11_)" d="M25.1,161.1c0.1-0.3,0.1-0.6,0-0.9l-0.5-1.1l0.9,1.3c0.3,0.5,1,0.6,1.5,0.3s1.1-0.7,1.6-1	s0.7-1,0.4-1.6c0,0,0-0.1-0.1-0.1l-0.2-0.2l0.2,0.1c0.5,0.3,1.2,0.2,1.5-0.4l0,0c0-0.1,0.1-0.1,0.1-0.2l0.1-0.3	c3.1,4.7,5.5,9.7,7.2,15h4.1c-2.3-5.9-5.7-11.3-10-15.8l0.3,0.3c0.3,0.2,0.6,0.3,0.9,0.3c0.3,0,0.6-0.2,0.8-0.5l0.1-0.2l-0.1,0.3	c-0.1,0.6,0.3,1.2,0.9,1.3h0.1c0.6,0,1.3,0.1,1.9,0.2c0.6,0,1.1-0.4,1.2-0.9l0.2-1.5l0.1,1.2c0,0.3,0.2,0.6,0.4,0.8	c0.3,0.2,0.6,0.3,0.9,0.2c1.4-0.2,2.7-0.5,4-0.9c-2.5-5.9-7.8-5.7-10.5-5.2c0.9-0.7,1.9-1.3,3-1.6l0,0c0.3-0.1,0.4-0.3,0.4-0.6	l-0.1-0.9l0.3,0.8c0.1,0.3,0.4,0.4,0.6,0.3c0.9-0.2,1.9-0.3,2.8-0.3c0.3,0,0.6-0.2,0.6-0.5l0,0v-0.9l0.2,1.2c0,0.2,0.2,0.4,0.5,0.5	c0.8,0.2,1.6,0.4,2.4,0.8c-0.1-0.4-0.2-0.8-0.3-1.2c-1.4-3.8-5.6-5.8-9.4-4.4c-0.7,0.2-1.3,0.6-1.9,1c1-2.7-0.2-5.6-0.2-5.6	s-3,1.3-4.2,4.1c-0.4,1.2-0.6,2.4-0.4,3.6c-0.5-1.1-1.3-2.1-2.3-2.9c-2.4-1.7-5.7-1.3-5.7-1.3s0.6,3.3,3,5c0.3,0.2,0.7,0.4,1.1,0.6	c-4-0.3-7.6,2.6-7.9,6.7l0,0c-0.1,1,0,2.1,0.4,3.1c0.2,0.4,0.3,0.8,0.5,1.2c0.4-0.8,0.8-1.5,1.4-2.1c0.2-0.2,0.2-0.4,0.1-0.6l-0.6-1	l0.6,0.7c0.2,0.2,0.6,0.2,0.8,0c0.7-0.6,1.5-1.2,2.3-1.6c0.3-0.1,0.4-0.4,0.3-0.7l0,0l-0.3-0.8l0.4,0.8c0.1,0.2,0.4,0.3,0.6,0.2l0,0	c0.8-0.3,1.7-0.5,2.6-0.6c-2.5,1.2-5.2,3.7-4.9,8.5c1.4-0.2,2.7-0.6,4-0.9C24.7,161.6,25,161.4,25.1,161.1z"/><linearGradient id="SVGID_12_" x1="118" x2="103" y1="822" y2="822" gradientTransform="matrix(1 0 0 1 0 -670)" gradientUnits="userSpaceOnUse"><stop offset="0" style="stop-color:#451088"/><stop offset="1" style="stop-color:#593179"/></linearGradient><rect width="15" height="40" x="103" y="132" fill="url(#SVGID_12_)"/><linearGradient id="SVGID_13_" x1="102" x2="119" y1="795.5" y2="795.5" gradientTransform="matrix(1 0 0 1 0 -670)" gradientUnits="userSpaceOnUse"><stop offset="0" style="stop-color:#451088"/><stop offset="1" style="stop-color:#593179"/></linearGradient><polygon fill="url(#SVGID_13_)" points="102.9 132 102 128 103 119 104.5 119 105.6 119 116.3 119 118 119 119 128 118 132"/><polygon fill="#FFF" points="102 128 103 119 118 119 119 128" enable-background="new" opacity=".1"/><linearGradient id="SVGID_14_" x1="118.885" x2="102.166" y1="779.7" y2="779.7" gradientTransform="matrix(1 0 0 1 0 -670)" gradientUnits="userSpaceOnUse"><stop offset="0" style="stop-color:#451088"/><stop offset="1" style="stop-color:#593179"/></linearGradient><path fill="url(#SVGID_14_)" d="M111,117.4h-7.3c-1-1.1-1.6-2.5-1.5-4c0.2-3.9,5.2-5.6,5.2-5.6l0.1-0.5l1.9-0.9l1.3-4.4h0.1l1,4.4	l1.9,0.9l0.1,0.5c0,0,4.6,1.3,5.2,5.6c0.3,2.3-1.8,4-1.8,4H111z"/><path fill="#FFF" d="M110.8,117.4h-4.3c-0.7-1.2-1-2.6-0.9-4	c0.1-2.3,1.2-4.4,3.1-5.6l0.1-0.5l1.1-0.9l0.8-4.4l0,0l0.6,4.4l1.1,0.9l0.1,0.5c0,0,2.7,1.3,3.1,5.6c0.1,1.4-0.3,2.8-1,4H110.8z" enable-background="new" opacity=".15"/><linearGradient id="SVGID_15_" x1="105.613" x2="115.436" y1="812.2" y2="812.2" gradientTransform="matrix(1 0 0 1 0 -670)" gradientUnits="userSpaceOnUse"><stop offset="0" style="stop-color:#451088"/><stop offset="1" style="stop-color:#593179"/></linearGradient><circle cx="110.5" cy="142.2" r="4.9" fill="url(#SVGID_15_)"/><circle cx="110.5" cy="142.2" r="4.9" fill="#FFF" enable-background="new" opacity=".1"/><path d="M114,159v-6.1c0-1.7-1.8-2.9-3.5-2.9s-3.5,1.3-3.5,3v6h-1v1h9v-1H114z" enable-background="new" opacity=".3"/><linearGradient id="SVGID_16_" x1="14481.73" x2="14472.73" y1="744" y2="744" gradientTransform="matrix(-1 0 0 1 14669.7305 -670)" gradientUnits="userSpaceOnUse"><stop offset="0" style="stop-color:#3651bf"/><stop offset="1" style="stop-color:#2e5bdb"/></linearGradient><polygon fill="url(#SVGID_16_)" points="193 53 193 77 197 80 197 97 193 97 193 78 188 78 188 51"/><linearGradient id="SVGID_17_" x1="14472.772" x2="14469.73" y1="781.05" y2="781.05" gradientTransform="matrix(-1 0 0 1 14669.7305 -670)" gradientUnits="userSpaceOnUse"><stop offset="0" style="stop-color:#3651bf"/><stop offset="1" style="stop-color:#2e5bdb"/></linearGradient><polygon fill="url(#SVGID_17_)" points="200 125.2 197 125.2 197 96.9 200 99.3"/><linearGradient id="SVGID_18_" x1="-121.15" x2="-87.15" y1="774.35" y2="774.35" gradientTransform="matrix(1 0 0 1 284.15 -670)" gradientUnits="userSpaceOnUse"><stop offset="0" style="stop-color:#3651bf"/><stop offset="1" style="stop-color:#2e5bdb"/></linearGradient><path fill="url(#SVGID_18_)" d="M193,96V77h-5V51h-5l-0.1-3.9h0.4c0.1,0,0.2-0.1,0.2-0.3s-0.1-0.3-0.2-0.3h-0.6v-9.7h-0.5v9.8h-0.4	c-0.1,0-0.2,0.2-0.2,0.3s0.1,0.3,0.2,0.3h0.3V51h-5.9v-3.3h0.1c0.2,0,0.3-0.1,0.3-0.3s-0.1-0.3-0.3-0.3H176v-8.2h-0.5v8.2H175	c-0.2,0-0.3,0.1-0.3,0.3s0.1,0.2,0.3,0.2h0.1v3.3h-7v26h-5v95h34V96H193z"/><linearGradient id="SVGID_19_" x1="14473.73" x2="14501.73" y1="795" y2="795" gradientTransform="matrix(-1 0 0 1 14669.7305 -670)" gradientUnits="userSpaceOnUse"><stop offset="0" style="stop-color:#3651bf"/><stop offset="1" style="stop-color:#2e5bdb"/></linearGradient><polygon fill="url(#SVGID_19_)" points="168 78 185 78 185 120 191.8 120 195 120 196 120 196 172 168 172"/><linearGradient id="SVGID_20_" x1="-84.15" x2="-88.15" y1="816" y2="816" gradientTransform="matrix(1 0 0 1 284.15 -670)" gradientUnits="userSpaceOnUse"><stop offset="0" style="stop-color:#3651bf"/><stop offset="1" style="stop-color:#2e5bdb"/></linearGradient><polygon fill="url(#SVGID_20_)" points="200 172 196 172 196 120 200 122.2"/><rect width="17" height="2" x="168" y="78" enable-background="new" opacity=".3"/><polygon points="188 78 188 120 196 120 196 122 185 122 185 119 185 78" enable-background="new" opacity=".3"/><path d="M175,51v-3.3h-0.1c-0.2,0-0.3-0.1-0.3-0.3l0,0c0-0.2,0.1-0.3,0.3-0.3h0.5v-8.2	h0.5v8.2h0.4c0.2,0,0.2,0.1,0.2,0.3s-0.2,0.3-0.2,0.3h-0.2V51h5.9v-3.9h-0.3c-0.1,0-0.2-0.2-0.2-0.3s0.1-0.3,0.2-0.3h0.4v-9.8h0.5	v9.8h0.6c0.1,0,0.2,0.2,0.2,0.3s-0.1,0.3-0.2,0.3h-0.3L183,51h5l5,2v24l4,3v16.9l3,2.4v23l0,0V172h-4v-52l3.9,2.2L196,120V96h-3V78	h-5V54h-20v-3H175z" enable-background="new" opacity=".3"/><rect width="13" height="2" x="172" y="57" fill="#FFF" enable-background="new" opacity=".2"/><rect width="13" height="2" x="172" y="61" fill="#FFF" enable-background="new" opacity=".2"/><rect width="13" height="2" x="172" y="65" fill="#FFF" enable-background="new" opacity=".2"/><rect width="13" height="2" x="172" y="69" fill="#FFF" enable-background="new" opacity=".2"/><rect width="13" height="2" x="172" y="73" fill="#FFF" enable-background="new" opacity=".2"/><rect width="12" height="3" x="170" y="86" fill="#FFF" enable-background="new" opacity=".1"/><rect width="12" height="3" x="170" y="92" fill="#FFF" enable-background="new" opacity=".1"/><rect width="12" height="3" x="170" y="98" fill="#FFF" enable-background="new" opacity=".1"/><rect width="12" height="3" x="170" y="104" fill="#FFF" enable-background="new" opacity=".1"/><rect width="12" height="3" x="170" y="110" fill="#FFF" enable-background="new" opacity=".1"/><rect width="12" height="3" x="170" y="117" fill="#FFF" enable-background="new" opacity=".1"/><rect width="12" height="3" x="170" y="123" fill="#FFF" enable-background="new" opacity=".1"/><rect width="12" height="3" x="170" y="129" fill="#FFF" enable-background="new" opacity=".1"/><rect width="12" height="3" x="170" y="135" fill="#FFF" enable-background="new" opacity=".1"/><rect width="12" height="3" x="170" y="141" fill="#FFF" enable-background="new" opacity=".1"/><rect width="12" height="3" x="170" y="147" fill="#FFF" enable-background="new" opacity=".1"/><rect width="12" height="3" x="170" y="153" fill="#FFF" enable-background="new" opacity=".1"/><rect width="12" height="3" x="170" y="159" fill="#FFF" enable-background="new" opacity=".1"/><linearGradient id="SVGID_21_" x1="14898.386" x2="14926.488" y1="989.7" y2="989.7" gradientTransform="matrix(-1 0 0 1 15043.1396 -834)" gradientUnits="userSpaceOnUse"><stop offset="0" style="stop-color:#2e3192"/><stop offset="1" style="stop-color:#2f0b81"/></linearGradient><path fill="url(#SVGID_21_)" d="M135.6,160.7c-0.1-0.3-0.1-0.6,0-0.9l0.5-1.1l-0.9,1.3c-0.3,0.5-1,0.6-1.5,0.3s-1.1-0.7-1.6-1	s-0.7-1-0.4-1.6c0,0,0-0.1,0.1-0.1l0.2-0.2l-0.2,0.1c-0.5,0.3-1.2,0.2-1.5-0.4l0,0c0-0.1-0.1-0.1-0.1-0.2l-0.1-0.3	c-3.1,4.7-5.5,9.7-7.2,15h-4.1c2.3-5.9,5.7-11.3,10-15.8l-0.3,0.3c-0.3,0.2-0.6,0.3-0.9,0.3s-0.6-0.2-0.8-0.5l-0.1-0.2l0.1,0.3	c0.1,0.6-0.3,1.2-0.9,1.3h-0.1c-0.6,0-1.3,0.1-1.9,0.2c-0.6,0-1.1-0.4-1.2-0.9l-0.2-1.5l-0.1,1.2c0,0.3-0.2,0.6-0.4,0.8	c-0.3,0.2-0.6,0.3-0.9,0.2c-1.3-0.2-2.7-0.5-4-0.9c2.5-5.9,7.8-5.7,10.5-5.2c-0.9-0.7-1.9-1.3-3-1.6l0,0c-0.3-0.1-0.4-0.3-0.4-0.6	l0.1-0.9l-0.3,0.8c-0.1,0.3-0.4,0.4-0.6,0.3c-0.9-0.2-1.9-0.3-2.9-0.3c-0.3,0-0.6-0.2-0.6-0.5l0,0v-0.9l-0.2,1.2	c0,0.2-0.2,0.4-0.5,0.5c-0.8,0.2-1.6,0.4-2.4,0.8c0.1-0.4,0.2-0.8,0.3-1.2c1.4-3.8,5.6-5.8,9.4-4.4c0.7,0.2,1.3,0.6,1.9,1	c-1-2.7,0.2-5.6,0.2-5.6s3,1.3,4.2,4.1c0.4,1.2,0.6,2.4,0.4,3.6c0.5-1.1,1.3-2.1,2.3-2.9c2.4-1.7,5.7-1.3,5.7-1.3s-0.6,3.3-3,5	c-0.3,0.2-0.7,0.4-1.1,0.6c4-0.3,7.5,2.7,7.9,6.7c0.1,1,0,2.1-0.4,3.1c-0.2,0.4-0.3,0.8-0.5,1.2c-0.4-0.8-0.8-1.5-1.4-2.1	c-0.2-0.2-0.2-0.4-0.1-0.6l0.6-1l-0.6,0.7c-0.2,0.2-0.6,0.2-0.8,0c-0.7-0.6-1.5-1.2-2.4-1.6c-0.3-0.1-0.4-0.4-0.3-0.7l0,0l0.3-0.8	l-0.5,0.8c-0.1,0.2-0.4,0.3-0.6,0.2l0,0c-0.8-0.3-1.7-0.5-2.6-0.6c2.5,1.2,5.2,3.7,4.9,8.5c-1.3-0.2-2.7-0.5-4-0.9	C136,161.3,135.7,161,135.6,160.7z"/><linearGradient id="SVGID_22_" x1="102" x2="119" y1="788" y2="788" gradientTransform="matrix(1 0 0 1 0 -670)" gradientUnits="userSpaceOnUse"><stop offset="0" style="stop-color:#451088"/><stop offset="1" style="stop-color:#593179"/></linearGradient><rect width="17" height="2" x="102" y="117" fill="url(#SVGID_22_)"/><rect width="7" height="2" x="107" y="117" fill="#FFF" enable-background="new" opacity=".15"/><linearGradient id="SVGID_23_" x1="58" x2="43" y1="822" y2="822" gradientTransform="matrix(1 0 0 1 0 -670)" gradientUnits="userSpaceOnUse"><stop offset="0" style="stop-color:#451088"/><stop offset="1" style="stop-color:#593179"/></linearGradient><rect width="15" height="40" x="43" y="132" fill="url(#SVGID_23_)"/><linearGradient id="SVGID_24_" x1="42" x2="59" y1="795.5" y2="795.5" gradientTransform="matrix(1 0 0 1 0 -670)" gradientUnits="userSpaceOnUse"><stop offset="0" style="stop-color:#451088"/><stop offset="1" style="stop-color:#593179"/></linearGradient><polygon fill="url(#SVGID_24_)" points="42.9 132 42 128 43 119 44.5 119 45.6 119 56.3 119 58 119 59 128 58 132"/><polygon fill="#FFF" points="42 128 43 119 58 119 59 128" enable-background="new" opacity=".1"/><linearGradient id="SVGID_25_" x1="58.885" x2="42.166" y1="779.7" y2="779.7" gradientTransform="matrix(1 0 0 1 0 -670)" gradientUnits="userSpaceOnUse"><stop offset="0" style="stop-color:#451088"/><stop offset="1" style="stop-color:#593179"/></linearGradient><path fill="url(#SVGID_25_)" d="M51,117.4h-7.3c-1-1.1-1.6-2.5-1.5-4c0.2-3.9,5.2-5.6,5.2-5.6l0.1-0.5l1.9-0.9l1.3-4.4h0.1l1,4.4	l1.9,0.9l0.1,0.5c0,0,4.6,1.3,5.2,5.6c0.3,2.3-1.8,4-1.8,4H51z"/><path fill="#FFF" d="M50.8,117.4h-4.3c-0.7-1.2-1-2.6-0.9-4c0.1-2.3,1.2-4.4,3.1-5.6	l0.1-0.5l1.1-0.9l0.8-4.4l0,0l0.6,4.4l1.1,0.9l0.1,0.5c0,0,2.7,1.3,3.1,5.6c0.1,1.4-0.3,2.8-1,4H50.8z" enable-background="new" opacity=".15"/><circle cx="50.5" cy="142.2" r="4.9" fill="#FFF" enable-background="new" opacity=".1"/><path d="M54,159v-6.1c0-1.7-1.8-2.9-3.5-2.9s-3.5,1.3-3.5,3v6h-1v1h9v-1H54z" enable-background="new" opacity=".3"/><linearGradient id="SVGID_26_" x1="42" x2="59" y1="788" y2="788" gradientTransform="matrix(1 0 0 1 0 -670)" gradientUnits="userSpaceOnUse"><stop offset="0" style="stop-color:#451088"/><stop offset="1" style="stop-color:#593179"/></linearGradient><rect width="17" height="2" x="42" y="117" fill="url(#SVGID_26_)"/><rect width="7" height="2" x="47" y="117" fill="#FFF" enable-background="new" opacity=".15"/><g><linearGradient id="SVGID_27_" x1="77.072" x2="84.092" y1="751.3" y2="751.3" gradientTransform="matrix(1 0 0 1 0 -670)" gradientUnits="userSpaceOnUse"><stop offset="0" style="stop-color:#451088"/><stop offset="1" style="stop-color:#593179"/></linearGradient><path fill="url(#SVGID_27_)" d="M84.1,79.9L83,77.7l-1.3,1.1L81.2,79l0.1-0.2l0.2-1.3l0.8-0.5h-0.8l-1-0.1l-1,0.1l-0.7,0.2l0.7,0.4 l0.2,1.3l0.2,0.2l-0.6-0.3L78,77.7l-1,2.4l1.1,0.5v3.1l1.6,1.8c0.2,0.2,0.5,0.2,0.7,0.2c1,0,1.1-0.5,1.1-0.5l1.6-1.6l-0.1-3 L84.1,79.9z"/><linearGradient id="SVGID_28_" x1="55" x2="106" y1="808" y2="808" gradientTransform="matrix(1 0 0 1 0 -670)" gradientUnits="userSpaceOnUse"><stop offset="0" style="stop-color:#451088"/><stop offset="1" style="stop-color:#593179"/></linearGradient><polygon fill="url(#SVGID_28_)" points="57 164 57 133 56 133 55 131 59 127 64 127 64 112 97 112 97 127 102 127 106 131 105 133 104 133 104 164"/><linearGradient id="SVGID_29_" x1="94.15" x2="67.024" y1="769.95" y2="769.95" gradientTransform="matrix(1 0 0 1 0 -670)" gradientUnits="userSpaceOnUse"><stop offset="0" style="stop-color:#451088"/><stop offset="1" style="stop-color:#593179"/></linearGradient><path fill="url(#SVGID_29_)" d="M81.3,110.2H69.5c0,0-2.7-2.4-2.5-6.2c0.3-6,8.4-8.7,8.4-8.7l0.2-0.8l2-1.4v-3.4h5.9v3.4l2,1.4 l0.2,0.8c0,0,7.4,2,8.4,8.7c0.5,3.6-2.9,6.2-2.9,6.2H81.3z"/><linearGradient id="SVGID_30_" x1="69" x2="91" y1="781" y2="781" gradientTransform="matrix(1 0 0 1 0 -670)" gradientUnits="userSpaceOnUse"><stop offset="0" style="stop-color:#451088"/><stop offset="1" style="stop-color:#593179"/></linearGradient><rect width="22" height="2" x="69" y="110" fill="url(#SVGID_30_)"/><rect width="1" height="2" x="70" y="110" enable-background="new" opacity=".3"/><rect width="1" height="2" x="72" y="110" enable-background="new" opacity=".3"/><rect width="1" height="2" x="74" y="110" enable-background="new" opacity=".3"/><rect width="1" height="2" x="76" y="110" enable-background="new" opacity=".3"/><rect width="1" height="2" x="78" y="110" enable-background="new" opacity=".3"/><rect width="1" height="2" x="80" y="110" enable-background="new" opacity=".3"/><rect width="1" height="2" x="82" y="110" enable-background="new" opacity=".3"/><rect width="1" height="2" x="84" y="110" enable-background="new" opacity=".3"/><rect width="1" height="2" x="86" y="110" enable-background="new" opacity=".3"/><rect width="1" height="2" x="88" y="110" enable-background="new" opacity=".3"/><rect width="1" height="2" x="90" y="110" enable-background="new" opacity=".3"/><path fill="#FFF" d="M80.9,110.2h-5.6c0,0-1.3-2.4-1.2-6.2c0.2-6,4-8.7,4-8.7 l0.1-0.8L79,93v-3h3v3l0.9,1.5l0.1,0.8c0,0,3.5,2,4,8.7c0.2,2.1-0.3,4.3-1.4,6.2H80.9z" enable-background="new" opacity=".1"/><rect width="46.3" height="31.2" x="57.5" y="132.8" enable-background="new" opacity=".3"/><linearGradient id="SVGID_31_" x1="77" x2="84" y1="757.5" y2="757.5" gradientTransform="matrix(1 0 0 1 0 -670)" gradientUnits="userSpaceOnUse"><stop offset="0" style="stop-color:#451088"/><stop offset="1" style="stop-color:#593179"/></linearGradient><rect width="7" height="5" x="77" y="85" fill="url(#SVGID_31_)"/><path fill="#FFF" d="M76.6,86h7.8c0.3,0,0.6,0.3,0.6,0.6v1.9c0,0.3-0.3,0.6-0.6,0.6 h-7.8c-0.3,0-0.6-0.3-0.6-0.6v-1.9C76,86.3,76.2,86,76.6,86z" enable-background="new" opacity=".1"/><polygon fill="#FFF" points="55 131 59 127 102 127 106 131" enable-background="new" opacity=".15"/><rect width="17" height="15" x="72" y="112" fill="#FFF" enable-background="new" opacity=".1"/><path d="M68,127v-10c0-1.5-0.3-3-1-3s-1,1.5-1,3v10H68z" enable-background="new" opacity=".3"/><path d="M72,127v-10c0-1.5-0.3-3-1-3s-1,1.5-1,3v10H72z" enable-background="new" opacity=".3"/><path d="M76,127v-10c0-1.5-0.3-3-1-3s-1,1.5-1,3v10H76z" enable-background="new" opacity=".3"/><path d="M80,127v-10c0-1.5-0.3-3-1-3s-1,1.5-1,3v10H80z" enable-background="new" opacity=".3"/><path d="M84,127v-10c0-1.5-0.3-3-1-3s-1,1.5-1,3v10H84z" enable-background="new" opacity=".3"/><path d="M88,127v-10c0-1.5-0.3-3-1-3s-1,1.5-1,3v10H88z" enable-background="new" opacity=".3"/><path d="M91,127v-10c0-1.5-0.3-3-1-3s-1,1.5-1,3v10H91z" enable-background="new" opacity=".3"/><path d="M95,127v-10c0-1.5-0.3-3-1-3s-1,1.5-1,3v10H95z" enable-background="new" opacity=".3"/><linearGradient id="SVGID_32_" x1="109" x2="52" y1="837.5" y2="837.5" gradientTransform="matrix(1 0 0 1 0 -670)" gradientUnits="userSpaceOnUse"><stop offset="0" style="stop-color:#451088"/><stop offset="1" style="stop-color:#593179"/></linearGradient><polygon fill="url(#SVGID_32_)" points="56 163 52 172 109 172 105 163"/><linearGradient id="SVGID_33_" x1="75.971" x2="85.019" y1="757.55" y2="757.55" gradientTransform="matrix(1 0 0 1 0 -670)" gradientUnits="userSpaceOnUse"><stop offset="0" style="stop-color:#451088"/><stop offset="1" style="stop-color:#593179"/></linearGradient><path fill="url(#SVGID_33_)" d="M76.6,86h7.8c0.3,0,0.6,0.3,0.6,0.6v1.9c0,0.3-0.3,0.6-0.6,0.6h-7.8c-0.3,0-0.6-0.3-0.6-0.6v-1.9 C76,86.3,76.2,86,76.6,86z"/><linearGradient id="SVGID_34_" x1="102.52" x2="97.456" y1="793" y2="793" gradientTransform="matrix(1 0 0 1 0 -670)" gradientUnits="userSpaceOnUse"><stop offset="0" style="stop-color:#451088"/><stop offset="1" style="stop-color:#593179"/></linearGradient><path fill="url(#SVGID_34_)" d="M100.1,126h-2.2c-0.3-0.5-0.5-1-0.5-1.6c0.1-1.5,1.6-2.2,1.6-2.2v-0.2l0.6-0.4l0.4-1.7l0,0l0.3,1.7 l0.6,0.4v0.2c0.9,0.4,1.5,1.2,1.6,2.2c0,0.6-0.2,1.1-0.5,1.6H100.1z"/><linearGradient id="SVGID_35_" x1="101.895" x2="97.858" y1="796.518" y2="796.479" gradientTransform="matrix(1 0 0 1 0 -670)" gradientUnits="userSpaceOnUse"><stop offset="0" style="stop-color:#451088"/><stop offset="1" style="stop-color:#593179"/></linearGradient><rect width="4" height="1" x="98" y="126" fill="url(#SVGID_35_)"/><linearGradient id="SVGID_36_" x1="82.512" x2="77.444" y1="793" y2="793" gradientTransform="matrix(1 0 0 1 0 -670)" gradientUnits="userSpaceOnUse"><stop offset="0" style="stop-color:#451088"/><stop offset="1" style="stop-color:#593179"/></linearGradient><path fill="url(#SVGID_36_)" d="M80.1,126h-2.2c-0.3-0.5-0.5-1-0.5-1.6c0.1-1.5,1.6-2.2,1.6-2.2v-0.2l0.6-0.4l0.4-1.7l0,0l0.3,1.7 l0.6,0.4v0.2c0.9,0.4,1.5,1.2,1.6,2.2c0,0.6-0.1,1.1-0.5,1.6H80.1z"/><linearGradient id="SVGID_37_" x1="81.98" x2="77.938" y1="796.465" y2="796.536" gradientTransform="matrix(1 0 0 1 0 -670)" gradientUnits="userSpaceOnUse"><stop offset="0" style="stop-color:#451088"/><stop offset="1" style="stop-color:#593179"/></linearGradient><rect width="4" height="1" x="78" y="126" fill="url(#SVGID_37_)"/><linearGradient id="SVGID_38_" x1="63.55" x2="58.49" y1="793" y2="793" gradientTransform="matrix(1 0 0 1 0 -670)" gradientUnits="userSpaceOnUse"><stop offset="0" style="stop-color:#451088"/><stop offset="1" style="stop-color:#593179"/></linearGradient><path fill="url(#SVGID_38_)" d="M61.2,126H59c-0.3-0.5-0.5-1-0.5-1.6c0.1-1.5,1.6-2.2,1.6-2.2v-0.2l0.6-0.4l0.4-1.7l0,0l0.3,1.7 l0.6,0.4v0.2c0.9,0.4,1.5,1.2,1.6,2.2c0,0.6-0.2,1.1-0.5,1.6H61.2z"/><linearGradient id="SVGID_39_" x1="63.001" x2="58.952" y1="796.503" y2="796.497" gradientTransform="matrix(1 0 0 1 0 -670)" gradientUnits="userSpaceOnUse"><stop offset="0" style="stop-color:#451088"/><stop offset="1" style="stop-color:#593179"/></linearGradient><rect width="4" height="1" x="59" y="126" fill="url(#SVGID_39_)"/><g><linearGradient id="SVGID_40_" x1="106" x2="100" y1="818" y2="818" gradientTransform="matrix(1 0 0 1 0 -670)" gradientUnits="userSpaceOnUse"><stop offset="0" style="stop-color:#451088"/><stop offset="1" style="stop-color:#593179"/></linearGradient><polygon fill="url(#SVGID_40_)" points="105 137 105 136 106 136 106 133 100 133 100 136 101 136 101 137 102 137 102 159 101 159 101 160 100 160 100 163 106 163 106 160 105 160 105 159 104 159 104 137"/><linearGradient id="SVGID_41_" x1="100" x2="94" y1="818" y2="818" gradientTransform="matrix(1 0 0 1 0 -670)" gradientUnits="userSpaceOnUse"><stop offset="0" style="stop-color:#451088"/><stop offset="1" style="stop-color:#593179"/></linearGradient><polygon fill="url(#SVGID_41_)" points="99 137 99 136 100 136 100 133 94 133 94 136 95 136 95 137 96 137 96 159 95 159 95 160 94 160 94 163 100 163 100 160 99 160 99 159 98 159 98 137"/><linearGradient id="SVGID_42_" x1="93" x2="87" y1="818" y2="818" gradientTransform="matrix(1 0 0 1 0 -670)" gradientUnits="userSpaceOnUse"><stop offset="0" style="stop-color:#451088"/><stop offset="1" style="stop-color:#593179"/></linearGradient><polygon fill="url(#SVGID_42_)" points="92 137 92 136 93 136 93 133 87 133 87 136 88 136 88 137 89 137 89 159 88 159 88 160 87 160 87 163 93 163 93 160 92 160 92 159 91 159 91 137"/><linearGradient id="SVGID_43_" x1="87" x2="81" y1="818" y2="818" gradientTransform="matrix(1 0 0 1 0 -670)" gradientUnits="userSpaceOnUse"><stop offset="0" style="stop-color:#451088"/><stop offset="1" style="stop-color:#593179"/></linearGradient><polygon fill="url(#SVGID_43_)" points="86 137 86 136 87 136 87 133 81 133 81 136 82 136 82 137 83 137 83 159 82 159 82 160 81 160 81 163 87 163 87 160 86 160 86 159 85 159 85 137"/><linearGradient id="SVGID_44_" x1="80" x2="74" y1="818" y2="818" gradientTransform="matrix(1 0 0 1 0 -670)" gradientUnits="userSpaceOnUse"><stop offset="0" style="stop-color:#451088"/><stop offset="1" style="stop-color:#593179"/></linearGradient><polygon fill="url(#SVGID_44_)" points="79 137 79 136 80 136 80 133 74 133 74 136 75 136 75 137 76 137 76 159 75 159 75 160 74 160 74 163 80 163 80 160 79 160 79 159 78 159 78 137"/><linearGradient id="SVGID_45_" x1="74" x2="68" y1="818" y2="818" gradientTransform="matrix(1 0 0 1 0 -670)" gradientUnits="userSpaceOnUse"><stop offset="0" style="stop-color:#451088"/><stop offset="1" style="stop-color:#593179"/></linearGradient><polygon fill="url(#SVGID_45_)" points="73 137 73 136 74 136 74 133 68 133 68 136 69 136 69 137 70 137 70 159 69 159 69 160 68 160 68 163 74 163 74 160 73 160 73 159 72 159 72 137"/><linearGradient id="SVGID_46_" x1="67" x2="61" y1="818" y2="818" gradientTransform="matrix(1 0 0 1 0 -670)" gradientUnits="userSpaceOnUse"><stop offset="0" style="stop-color:#451088"/><stop offset="1" style="stop-color:#593179"/></linearGradient><polygon fill="url(#SVGID_46_)" points="66 137 66 136 67 136 67 133 61 133 61 136 62 136 62 137 63 137 63 159 62 159 62 160 61 160 61 163 67 163 67 160 66 160 66 159 65 159 65 137"/><linearGradient id="SVGID_47_" x1="61" x2="55" y1="818" y2="818" gradientTransform="matrix(1 0 0 1 0 -670)" gradientUnits="userSpaceOnUse"><stop offset="0" style="stop-color:#451088"/><stop offset="1" style="stop-color:#593179"/></linearGradient><polygon fill="url(#SVGID_47_)" points="60 137 60 136 61 136 61 133 55 133 55 136 56 136 56 137 57 137 57 159 56 159 56 160 55 160 55 163 61 163 61 160 60 160 60 159 59 159 59 137"/></g><g opacity=".15"><polygon fill="#FFF" points="105 137 105 136 106 136 106 133 100 133 100 136 101 136 101 137 102 137 102 159 101 159 101 160 100 160 100 163 106 163 106 160 105 160 105 159 104 159 104 137"/><polygon fill="#FFF" points="99 137 99 136 100 136 100 133 94 133 94 136 95 136 95 137 96 137 96 159 95 159 95 160 94 160 94 163 100 163 100 160 99 160 99 159 98 159 98 137"/><polygon fill="#FFF" points="92 137 92 136 93 136 93 133 87 133 87 136 88 136 88 137 89 137 89 159 88 159 88 160 87 160 87 163 93 163 93 160 92 160 92 159 91 159 91 137"/><polygon fill="#FFF" points="86 137 86 136 87 136 87 133 81 133 81 136 82 136 82 137 83 137 83 159 82 159 82 160 81 160 81 163 87 163 87 160 86 160 86 159 85 159 85 137"/><polygon fill="#FFF" points="79 137 79 136 80 136 80 133 74 133 74 136 75 136 75 137 76 137 76 159 75 159 75 160 74 160 74 163 80 163 80 160 79 160 79 159 78 159 78 137"/><polygon fill="#FFF" points="73 137 73 136 74 136 74 133 68 133 68 136 69 136 69 137 70 137 70 159 69 159 69 160 68 160 68 163 74 163 74 160 73 160 73 159 72 159 72 137"/><polygon fill="#FFF" points="66 137 66 136 67 136 67 133 61 133 61 136 62 136 62 137 63 137 63 159 62 159 62 160 61 160 61 163 67 163 67 160 66 160 66 159 65 159 65 137"/><polygon fill="#FFF" points="60 137 60 136 61 136 61 133 55 133 55 136 56 136 56 137 57 137 57 159 56 159 56 160 55 160 55 163 61 163 61 160 60 160 60 159 59 159 59 137"/></g><g><path fill="#FFF" d="M100.9,122.2V122l-0.6-0.4L100,120l-0.4,1.7L99,122v0.2c0,0-1.5,0.7-1.6,2.2 c0,0.6,0.2,1.1,0.5,1.6H98v1h4v-1c0.3-0.5,0.5-1,0.5-1.6C102.4,123.5,101.8,122.7,100.9,122.2z" opacity=".15"/><path fill="#FFF" d="M81,122.2V122l-0.6-0.4L80,120l-0.4,1.7L79,122v0.2c0,0-1.5,0.7-1.6,2.2 c0,0.6,0.2,1.1,0.5,1.6h0v1h4v-1h0c0.4-0.5,0.5-1,0.5-1.6C82.5,123.5,81.8,122.7,81,122.2z" opacity=".15"/><path fill="#FFF" d="M62,122.2V122l-0.6-0.4L61,120l-0.4,1.7L60,122v0.2c0,0-1.5,0.7-1.6,2.2 c0,0.6,0.2,1.1,0.5,1.6h0v1h4v-1h0c0.3-0.5,0.5-1,0.5-1.6C63.5,123.5,62.8,122.7,62,122.2z" opacity=".15"/></g></g><rect width="41" height="3" x="3" y="67" enable-background="new" opacity=".3"/></svg>