<svg id="Warstwa_1" data-name="Warstwa 1" xmlns="http://www.w3.org/2000/svg" xmlns:xlink="http://www.w3.org/1999/xlink" viewBox="0 0 200 172"><defs><style>.cls-1,.cls-41,.cls-42,.cls-43,.cls-44,.cls-45{fill:none;}.cls-2{fill:#bde6ff;opacity:0.8;}.cls-10,.cls-12,.cls-14,.cls-2,.cls-24,.cls-4,.cls-41,.cls-42,.cls-43,.cls-44,.cls-7,.cls-8{isolation:isolate;}.cls-3{fill:url(#Gradient_bez_nazwy);}.cls-24,.cls-4{opacity:0.2;}.cls-5{fill:#373e9b;}.cls-6{fill:url(#Gradient_bez_nazwy_2);}.cls-7{opacity:0.3;}.cls-14,.cls-24,.cls-40,.cls-8{fill:#fff;}.cls-10,.cls-8{opacity:0.1;}.cls-9{fill:url(#Gradient_bez_nazwy_3);}.cls-11{fill:url(#Gradient_bez_nazwy_4);}.cls-12{opacity:0.05;}.cls-13{fill:url(#Gradient_bez_nazwy_5);}.cls-14{opacity:0.15;}.cls-15{fill:url(#Gradient_bez_nazwy_6);}.cls-16{fill:url(#Gradient_bez_nazwy_7);}.cls-17{fill:url(#Gradient_bez_nazwy_8);}.cls-18{fill:url(#Gradient_bez_nazwy_9);}.cls-19{fill:url(#Gradient_bez_nazwy_10);}.cls-20{fill:url(#Gradient_bez_nazwy_11);}.cls-21{fill:url(#Gradient_bez_nazwy_12);}.cls-22{fill:url(#Gradient_bez_nazwy_13);}.cls-23{fill:url(#Gradient_bez_nazwy_14);}.cls-25{fill:url(#Gradient_bez_nazwy_15);}.cls-26{fill:url(#Gradient_bez_nazwy_16);}.cls-27{fill:url(#Gradient_bez_nazwy_17);}.cls-28{fill:url(#Gradient_bez_nazwy_18);}.cls-29{fill:url(#Gradient_bez_nazwy_19);}.cls-30{fill:url(#Gradient_bez_nazwy_20);}.cls-31{fill:url(#Gradient_bez_nazwy_21);}.cls-32{fill:url(#Gradient_bez_nazwy_22);}.cls-33{fill:url(#Gradient_bez_nazwy_23);}.cls-34{fill:url(#Gradient_bez_nazwy_24);}.cls-35{fill:url(#Gradient_bez_nazwy_25);}.cls-36{fill:url(#Gradient_bez_nazwy_26);}.cls-37{clip-path:url(#clip-path);}.cls-38{fill:url(#Gradient_bez_nazwy_27);}.cls-39{opacity:0.95;}.cls-41,.cls-42,.cls-43,.cls-44,.cls-45{stroke-linecap:round;stroke-linejoin:round;}.cls-41,.cls-42,.cls-43,.cls-44{stroke-width:0.3px;opacity:0.4;}.cls-41{stroke:url(#Gradient_bez_nazwy_28);}.cls-42{stroke:url(#Gradient_bez_nazwy_29);}.cls-43{stroke:url(#Gradient_bez_nazwy_30);}.cls-44{stroke:url(#Gradient_bez_nazwy_31);}.cls-45{stroke-width:0.31px;stroke:url(#Gradient_bez_nazwy_32);}.cls-46{fill:url(#Gradient_bez_nazwy_33);}.cls-47{fill:url(#Gradient_bez_nazwy_34);}.cls-48{fill:url(#Gradient_bez_nazwy_35);}.cls-49{fill:url(#Gradient_bez_nazwy_36);}.cls-50{fill:url(#Gradient_bez_nazwy_37);}.cls-51{fill:url(#Gradient_bez_nazwy_38);}.cls-52{fill:url(#Gradient_bez_nazwy_39);}.cls-53{fill:url(#Gradient_bez_nazwy_40);}.cls-54{fill:url(#Gradient_bez_nazwy_41);}.cls-55{fill:url(#Gradient_bez_nazwy_42);}.cls-56{fill:url(#Gradient_bez_nazwy_43);}.cls-57{fill:url(#Gradient_bez_nazwy_44);}</style><linearGradient id="Gradient_bez_nazwy" x1="0.2" y1="34.47" x2="199.9" y2="34.47" gradientTransform="translate(0 76)" gradientUnits="userSpaceOnUse"><stop offset="0" stop-color="#1d7ee8"/><stop offset="1" stop-color="#2ea7db"/></linearGradient><linearGradient id="Gradient_bez_nazwy_2" x1="2536.02" y1="37" x2="2561.02" y2="37" gradientTransform="matrix(-1, 0, 0, 1, 2701.02, 76)" gradientUnits="userSpaceOnUse"><stop offset="0" stop-color="#2e60e8"/><stop offset="1" stop-color="#2e74db"/></linearGradient><linearGradient id="Gradient_bez_nazwy_3" x1="174" y1="-26" x2="194" y2="-26" gradientTransform="translate(0 76)" gradientUnits="userSpaceOnUse"><stop offset="0" stop-color="#3651bf"/><stop offset="1" stop-color="#2e5bdb"/></linearGradient><linearGradient id="Gradient_bez_nazwy_4" x1="169" y1="36" x2="200" y2="36" xlink:href="#Gradient_bez_nazwy_3"/><linearGradient id="Gradient_bez_nazwy_5" x1="-3749.82" y1="37.5" x2="-3736.82" y2="37.5" gradientTransform="matrix(-1, 0, 0, 1, -3567.82, 76)" xlink:href="#Gradient_bez_nazwy_3"/><linearGradient id="Gradient_bez_nazwy_6" x1="36.84" y1="36" x2="40" y2="36" xlink:href="#Gradient_bez_nazwy_3"/><linearGradient id="Gradient_bez_nazwy_7" x1="0" y1="36" x2="37" y2="36" gradientTransform="translate(0 76)" xlink:href="#Gradient_bez_nazwy_2"/><linearGradient id="Gradient_bez_nazwy_8" x1="11" y1="44" x2="26" y2="44" xlink:href="#Gradient_bez_nazwy_3"/><linearGradient id="Gradient_bez_nazwy_9" x1="3" y1="39" x2="34" y2="39" xlink:href="#Gradient_bez_nazwy_3"/><linearGradient id="Gradient_bez_nazwy_10" x1="77" y1="42" x2="79" y2="42" xlink:href="#Gradient_bez_nazwy_3"/><linearGradient id="Gradient_bez_nazwy_11" x1="46" y1="42" x2="77" y2="42" gradientTransform="translate(0 76)" xlink:href="#Gradient_bez_nazwy_2"/><linearGradient id="Gradient_bez_nazwy_12" x1="55" y1="48.5" x2="68" y2="48.5" xlink:href="#Gradient_bez_nazwy_3"/><linearGradient id="Gradient_bez_nazwy_13" x1="49" y1="44.5" x2="74" y2="44.5" xlink:href="#Gradient_bez_nazwy_3"/><linearGradient id="Gradient_bez_nazwy_14" x1="2596.17" y1="65.95" x2="2656.45" y2="65.95" gradientTransform="matrix(-1, 0, 0, 1, 2688.56, 76)" gradientUnits="userSpaceOnUse"><stop offset="0" stop-color="#451088"/><stop offset="1" stop-color="#593179"/></linearGradient><linearGradient id="Gradient_bez_nazwy_15" x1="2650.56" y1="72.5" x2="2652.56" y2="72.5" xlink:href="#Gradient_bez_nazwy_14"/><linearGradient id="Gradient_bez_nazwy_16" x1="2596.35" y1="78.35" x2="2637.35" y2="78.35" xlink:href="#Gradient_bez_nazwy_14"/><linearGradient id="Gradient_bez_nazwy_17" x1="2596.35" y1="61.3" x2="2637.35" y2="61.3" xlink:href="#Gradient_bez_nazwy_14"/><linearGradient id="Gradient_bez_nazwy_18" x1="2642.66" y1="40.5" x2="2647.22" y2="40.5" xlink:href="#Gradient_bez_nazwy_14"/><linearGradient id="Gradient_bez_nazwy_19" x1="121" y1="65.9" x2="181.2" y2="65.9" gradientTransform="translate(0 76)" xlink:href="#Gradient_bez_nazwy_14"/><linearGradient id="Gradient_bez_nazwy_20" x1="88.35" y1="59" x2="124.74" y2="59" gradientTransform="translate(0 76)" xlink:href="#Gradient_bez_nazwy_14"/><linearGradient id="Gradient_bez_nazwy_21" x1="175" y1="72.5" x2="177" y2="72.5" gradientTransform="translate(0 76)" xlink:href="#Gradient_bez_nazwy_14"/><linearGradient id="Gradient_bez_nazwy_22" x1="3957.54" y1="92.3" x2="3964.19" y2="92.3" gradientTransform="matrix(-1, 0, 0, 1, 4052.54, 76)" xlink:href="#Gradient_bez_nazwy_14"/><linearGradient id="Gradient_bez_nazwy_23" x1="101.08" y1="30.8" x2="112.2" y2="30.8" gradientTransform="translate(0 76)" xlink:href="#Gradient_bez_nazwy_14"/><linearGradient id="Gradient_bez_nazwy_24" x1="120.86" y1="78.5" x2="161.87" y2="78.5" gradientTransform="translate(0 76)" xlink:href="#Gradient_bez_nazwy_14"/><linearGradient id="Gradient_bez_nazwy_25" x1="120.86" y1="61.25" x2="161.87" y2="61.25" gradientTransform="translate(0 76)" xlink:href="#Gradient_bez_nazwy_14"/><linearGradient id="Gradient_bez_nazwy_26" x1="94.8" y1="62.05" x2="118.3" y2="62.05" gradientTransform="translate(0 76)" xlink:href="#Gradient_bez_nazwy_14"/><clipPath id="clip-path"><polygon class="cls-1" points="117.6 164.7 106.8 164.7 106.3 164.7 95.5 164.7 92.4 172.1 106.3 172.1 106.8 172.1 120.7 172.1 117.6 164.7"/></clipPath><linearGradient id="Gradient_bez_nazwy_27" x1="167.18" y1="40.5" x2="171.74" y2="40.5" gradientTransform="translate(0 76)" xlink:href="#Gradient_bez_nazwy_14"/><linearGradient id="Gradient_bez_nazwy_28" x1="-523.61" y1="-8766.96" x2="-523.11" y2="-8766.96" gradientTransform="translate(8873.56 -420.5) rotate(-90)" gradientUnits="userSpaceOnUse"><stop offset="0" stop-color="#4531a7"/><stop offset="1" stop-color="#423179"/></linearGradient><linearGradient id="Gradient_bez_nazwy_29" x1="-531.34" y1="-8766.96" x2="-530.84" y2="-8766.96" xlink:href="#Gradient_bez_nazwy_28"/><linearGradient id="Gradient_bez_nazwy_30" x1="8381.62" y1="21.4" x2="8382.79" y2="21.4" gradientTransform="translate(8493.06 128) rotate(180)" xlink:href="#Gradient_bez_nazwy_28"/><linearGradient id="Gradient_bez_nazwy_31" x1="8389.5" y1="21.4" x2="8390.56" y2="21.4" gradientTransform="translate(8493.06 128) rotate(180)" xlink:href="#Gradient_bez_nazwy_28"/><linearGradient id="Gradient_bez_nazwy_32" x1="-9221.67" y1="30.45" x2="-9219.85" y2="30.45" gradientTransform="translate(9328.06 76)" xlink:href="#Gradient_bez_nazwy_28"/><linearGradient id="Gradient_bez_nazwy_33" x1="106" y1="11.5" x2="107" y2="11.5" gradientTransform="translate(0 76)" xlink:href="#Gradient_bez_nazwy_14"/><linearGradient id="Gradient_bez_nazwy_34" x1="101" y1="3.15" x2="107" y2="3.15" gradientTransform="translate(0 76)" xlink:href="#Gradient_bez_nazwy_14"/><linearGradient id="Gradient_bez_nazwy_35" x1="94.8" y1="79.95" x2="118.3" y2="79.95" gradientTransform="translate(0 76)" xlink:href="#Gradient_bez_nazwy_14"/><linearGradient id="Gradient_bez_nazwy_36" x1="88" y1="95" x2="93" y2="95" gradientTransform="translate(0 76)" xlink:href="#Gradient_bez_nazwy_14"/><linearGradient id="Gradient_bez_nazwy_37" x1="118" y1="92.3" x2="124.74" y2="92.3" gradientTransform="translate(0 76)" xlink:href="#Gradient_bez_nazwy_14"/><linearGradient id="Gradient_bez_nazwy_38" x1="120" y1="95" x2="125" y2="95" gradientTransform="translate(0 76)" xlink:href="#Gradient_bez_nazwy_14"/><linearGradient id="Gradient_bez_nazwy_39" x1="2636.56" y1="72.5" x2="2639.56" y2="72.5" xlink:href="#Gradient_bez_nazwy_14"/><linearGradient id="Gradient_bez_nazwy_40" x1="92" y1="68.5" x2="95" y2="68.5" gradientTransform="translate(0 76)" xlink:href="#Gradient_bez_nazwy_14"/><linearGradient id="Gradient_bez_nazwy_41" x1="118" y1="68.5" x2="121" y2="68.5" gradientTransform="translate(0 76)" xlink:href="#Gradient_bez_nazwy_14"/><linearGradient id="Gradient_bez_nazwy_42" x1="161" y1="72.5" x2="164" y2="72.5" gradientTransform="translate(0 76)" xlink:href="#Gradient_bez_nazwy_14"/><linearGradient id="Gradient_bez_nazwy_43" x1="11117.8" y1="244.55" x2="11145.79" y2="244.55" gradientTransform="translate(-11106.57 -88)" gradientUnits="userSpaceOnUse"><stop offset="0" stop-color="#2e3192"/><stop offset="1" stop-color="#2f0b81"/></linearGradient><linearGradient id="Gradient_bez_nazwy_44" x1="13120.41" y1="244.55" x2="13148.4" y2="244.55" gradientTransform="matrix(-1, 0, 0, 1, 13320.34, -88)" xlink:href="#Gradient_bez_nazwy_43"/></defs><path class="cls-2" d="M72.8,51.4c12.4,6.5,20.7.9,22.6-.5s12.4,0,19.3,2.8c4.6,1.8,11.9-.4,16.8-3.1-6.3-6.9-11.9-12.8-15.9-16.8-18.9-19-41.5,0-41.5,0L56.9,48.7A26.56,26.56,0,0,1,72.8,51.4Z"/><path class="cls-3" d="M25.9,75.2l31-26.5a26.07,26.07,0,0,1,15.9,2.8c12.4,6.5,20.7.9,22.6-.5s12.4,0,19.3,2.8c4.6,1.8,11.9-.4,16.8-3.1,23.8,25.9,58.3,65.2,58.3,65.2l10.1,8.8v47.8H.2V89.8Z"/><polygon class="cls-4" points="0 122.5 29 122.5 29 89.5 51 89.5 51 108.5 57 108.5 57 76.5 76 76.5 76 108.5 87 108.5 87 84.5 103 84.5 103 96.5 112 96.5 112 57.5 127 57.5 127 96.5 133 96.5 133 75.5 145 75.5 145 106.5 162 106.5 162 96.5 184 96.5 184 121.5 200 150.5 200 172.5 0 172.5 0 151.5 0 122.5"/><rect class="cls-4" x="0.1" y="156" width="199.5" height="16.3"/><polyline class="cls-5" points="140 77.5 137 79.4 137 148.5 140 148.5 140 77.5"/><rect class="cls-6" x="140" y="77.5" width="25" height="71"/><rect class="cls-7" x="140" y="77.5" width="25" height="3"/><rect class="cls-8" x="143" y="83.5" width="8" height="3"/><rect class="cls-8" x="143" y="88.5" width="8" height="3"/><rect class="cls-8" x="143" y="93.5" width="8" height="3"/><rect class="cls-8" x="143" y="98.5" width="8" height="3"/><rect class="cls-8" x="143" y="103.5" width="8" height="3"/><rect class="cls-8" x="143" y="108.5" width="8" height="3"/><rect class="cls-8" x="143" y="113.5" width="8" height="3"/><rect class="cls-8" x="143" y="118.5" width="8" height="3"/><rect class="cls-8" x="143" y="123.5" width="8" height="3"/><rect class="cls-8" x="154" y="83.5" width="8" height="3"/><rect class="cls-8" x="154" y="88.5" width="8" height="3"/><rect class="cls-8" x="154" y="93.5" width="8" height="3"/><rect class="cls-8" x="154" y="98.5" width="8" height="3"/><rect class="cls-8" x="154" y="103.5" width="8" height="3"/><rect class="cls-8" x="154" y="108.5" width="8" height="3"/><rect class="cls-8" x="154" y="113.5" width="8" height="3"/><rect class="cls-8" x="154" y="118.5" width="8" height="3"/><rect class="cls-8" x="154" y="123.5" width="8" height="3"/><path class="cls-9" d="M184,43.5c-8.1,0-10,4.9-10,4.9v8.1h20.1V48.4C194,48.4,192.1,43.5,184,43.5Z"/><path class="cls-10" d="M193,51.5h-7v-5h5s2,.5,2,1.7Z"/><path class="cls-10" d="M175,51.5h6.9l.1-5h-4.9s-2.1.5-2.1,1.7Z"/><polygon class="cls-11" points="169.9 51.5 169 54.5 169 172.5 169 172.5 200 172.5 200 54.5 199 51.5 169.9 51.5"/><rect class="cls-10" x="183" y="163.5" width="2" height="1"/><polygon class="cls-12" points="200 54.5 186 54.5 186 172.5 200 172.5 200 54.5"/><rect class="cls-13" x="169" y="54.5" width="13" height="118"/><rect class="cls-12" x="169" y="54.5" width="13" height="118"/><polygon class="cls-7" points="169 54.5 182 54.5 182 51.5 169.9 51.5 169 54.5"/><rect class="cls-8" x="169" y="54.5" width="1" height="118"/><polygon class="cls-14" points="183.9 45.2 182 46.9 182 172.5 183 172.5 183 47 184 46 185 47 185 172.5 186 172.5 186 46.9 183.9 45.2"/><rect class="cls-10" x="183" y="158.5" width="2" height="1"/><rect class="cls-10" x="183" y="152.5" width="2" height="1"/><rect class="cls-10" x="183" y="147.5" width="2" height="1"/><rect class="cls-10" x="183" y="142.5" width="2" height="1"/><rect class="cls-10" x="183" y="137.5" width="2" height="1"/><rect class="cls-10" x="183" y="131.5" width="2" height="1"/><rect class="cls-10" x="183" y="126.5" width="2" height="1"/><rect class="cls-10" x="183" y="121.5" width="2" height="1"/><rect class="cls-10" x="183" y="116.5" width="2" height="1"/><rect class="cls-10" x="183" y="110.5" width="2" height="1"/><rect class="cls-10" x="183" y="105.5" width="2" height="1"/><rect class="cls-10" x="183" y="100.5" width="2" height="1"/><rect class="cls-10" x="183" y="95.5" width="2" height="1"/><rect class="cls-10" x="183" y="89.5" width="2" height="1"/><rect class="cls-10" x="183" y="84.5" width="2" height="1"/><rect class="cls-10" x="183" y="79.5" width="2" height="1"/><rect class="cls-10" x="183" y="74.5" width="2" height="1"/><rect class="cls-10" x="183" y="68.5" width="2" height="1"/><rect class="cls-10" x="183" y="63.5" width="2" height="1"/><rect class="cls-10" x="183" y="58.5" width="2" height="1"/><rect class="cls-10" x="183" y="52.5" width="2" height="1"/><rect class="cls-10" x="183" y="47.5" width="2" height="1"/><rect class="cls-8" x="199" y="54.5" width="1" height="118"/><rect class="cls-8" x="172" y="56.5" width="8" height="3"/><rect class="cls-8" x="172" y="61.5" width="8" height="3"/><rect class="cls-8" x="172" y="66.5" width="8" height="3"/><rect class="cls-8" x="172" y="71.5" width="8" height="3"/><rect class="cls-8" x="172" y="76.5" width="8" height="3"/><rect class="cls-8" x="172" y="81.5" width="8" height="3"/><rect class="cls-8" x="172" y="86.5" width="8" height="3"/><rect class="cls-8" x="172" y="91.5" width="8" height="3"/><rect class="cls-8" x="172" y="96.5" width="8" height="3"/><rect class="cls-8" x="172" y="101.5" width="8" height="3"/><rect class="cls-8" x="172" y="106.5" width="8" height="3"/><rect class="cls-8" x="172" y="111.5" width="8" height="3"/><rect class="cls-8" x="172" y="116.5" width="8" height="3"/><rect class="cls-8" x="172" y="121.5" width="8" height="3"/><rect class="cls-8" x="172" y="126.5" width="8" height="3"/><rect class="cls-8" x="172" y="131.5" width="8" height="3"/><rect class="cls-8" x="172" y="136.5" width="8" height="3"/><rect class="cls-8" x="172" y="141.5" width="8" height="3"/><rect class="cls-8" x="172" y="146.5" width="8" height="3"/><polygon class="cls-7" points="200 54.5 186 54.5 186 51.5 199 51.5 200 54.5"/><rect class="cls-8" x="188" y="56.5" width="8" height="3"/><rect class="cls-8" x="188" y="61.5" width="8" height="3"/><rect class="cls-8" x="188" y="66.5" width="8" height="3"/><rect class="cls-8" x="188" y="71.5" width="8" height="3"/><rect class="cls-8" x="188" y="76.5" width="8" height="3"/><rect class="cls-8" x="188" y="81.5" width="8" height="3"/><rect class="cls-8" x="188" y="86.5" width="8" height="3"/><rect class="cls-8" x="188" y="91.5" width="8" height="3"/><rect class="cls-8" x="188" y="96.5" width="8" height="3"/><rect class="cls-8" x="188" y="101.5" width="8" height="3"/><rect class="cls-8" x="188" y="106.5" width="8" height="3"/><rect class="cls-8" x="188" y="111.5" width="8" height="3"/><rect class="cls-8" x="188" y="116.5" width="8" height="3"/><rect class="cls-8" x="188" y="121.5" width="8" height="3"/><rect class="cls-8" x="188" y="126.5" width="8" height="3"/><rect class="cls-8" x="188" y="131.5" width="8" height="3"/><rect class="cls-8" x="188" y="136.5" width="8" height="3"/><rect class="cls-8" x="188" y="141.5" width="8" height="3"/><rect class="cls-8" x="188" y="146.5" width="8" height="3"/><rect class="cls-8" x="188" y="151.5" width="8" height="3"/><rect class="cls-8" x="188" y="156.5" width="8" height="3"/><rect class="cls-8" x="188" y="161.5" width="8" height="3"/><rect class="cls-8" x="188" y="166.5" width="8" height="3"/><polygon class="cls-15" points="37 51.5 40 54.9 40 172.5 36.8 172.5 36.8 52.1 37 51.5"/><rect class="cls-16" y="51.5" width="37" height="121"/><polygon class="cls-8" points="9 64.5 9 172.5 11 172.5 11 67.5 26 67.5 26 172.5 28 172.5 28 64.5 9 64.5"/><polygon class="cls-17" points="11 67.5 11 172.5 14 172.5 14 70.5 23 70.5 23 172.5 26 172.5 26 67.5 11 67.5"/><polygon class="cls-10" points="11 67.5 11 172.5 14 172.5 14 70.5 23 70.5 23 172.5 26 172.5 26 67.5 11 67.5"/><rect class="cls-8" x="15" y="71.5" width="7" height="3"/><rect class="cls-8" x="15" y="76.5" width="7" height="3"/><rect class="cls-8" x="15" y="81.5" width="7" height="3"/><rect class="cls-8" x="15" y="86.5" width="7" height="3"/><polygon class="cls-18" points="3 57.5 3 172.5 7 172.5 7 61.5 30 61.5 30 172.5 34 172.5 34 57.5 3 57.5"/><polygon class="cls-10" points="3 57.5 3 172.5 7 172.5 7 61.5 30 61.5 30 172.5 34 172.5 34 57.5 3 57.5"/><polygon class="cls-8" points="0 51.5 0 172.4 3 172.5 3 57.5 34 57.5 34 172.5 37 172.5 37 51.5 0 51.5"/><rect class="cls-8" x="15" y="91.5" width="7" height="3"/><rect class="cls-8" x="15" y="96.5" width="7" height="3"/><rect class="cls-8" x="15" y="101.5" width="7" height="3"/><rect class="cls-8" x="15" y="106.5" width="7" height="3"/><rect class="cls-8" x="15" y="111.5" width="7" height="3"/><rect class="cls-8" x="15" y="116.5" width="7" height="3"/><rect class="cls-8" x="15" y="121.5" width="7" height="3"/><rect class="cls-8" x="15" y="126.5" width="7" height="3"/><rect class="cls-8" x="15" y="131.5" width="7" height="3"/><rect class="cls-8" x="15" y="136.5" width="7" height="3"/><rect class="cls-8" x="15" y="141.5" width="7" height="3"/><rect class="cls-8" x="15" y="146.5" width="7" height="3"/><rect class="cls-8" x="15" y="151.5" width="7" height="3"/><rect class="cls-8" x="15" y="156.5" width="7" height="3"/><rect class="cls-8" x="15" y="161.5" width="7" height="3"/><rect class="cls-8" x="15" y="166.5" width="7" height="3"/><polygon class="cls-19" points="77 68.5 79 71.2 79 167.5 77 167.5 77 68.5"/><rect class="cls-20" x="46" y="68.5" width="31" height="99"/><polygon class="cls-8" points="53 77.5 53 168.5 55 168.5 55 80.5 68 80.5 68 168.5 70 168.5 70 77.5 53 77.5"/><polygon class="cls-21" points="55 80.5 55 168.5 57 168.4 57 83.5 66 83.5 66 168.4 68 168.5 68 80.5 55 80.5"/><polygon class="cls-10" points="55 80.5 55 168.5 57 168.4 57 83.5 66 83.5 66 168.4 68 168.5 68 80.5 55 80.5"/><rect class="cls-8" x="58" y="85.5" width="7" height="2"/><rect class="cls-8" x="58" y="89.5" width="7" height="2"/><rect class="cls-8" x="58" y="93.5" width="7" height="2"/><rect class="cls-8" x="58" y="97.5" width="7" height="2"/><rect class="cls-8" x="58" y="101.5" width="7" height="2"/><rect class="cls-8" x="58" y="105.5" width="7" height="2"/><rect class="cls-8" x="58" y="109.5" width="7" height="2"/><rect class="cls-8" x="58" y="113.5" width="7" height="2"/><rect class="cls-8" x="58" y="117.5" width="7" height="2"/><polygon class="cls-22" points="49 72.5 49 168.5 52 168.5 52 75.5 71 75.5 71 168.5 74 168.5 74 72.5 49 72.5"/><polygon class="cls-10" points="49 72.5 49 168.5 52 168.5 52 75.5 71 75.5 71 168.5 74 168.5 74 72.5 49 72.5"/><polygon class="cls-8" points="46 68.5 46 168.5 49 168.5 49 72.5 74 72.5 74 168.5 77 168.5 77 68.5 46 68.5"/><path class="cls-23" d="M35.9,129.1,32.1,125l3.8-.2-.2-2.4.5-1.8a26.21,26.21,0,0,0,3.9-3.4,9.5,9.5,0,0,0,1.1-3.6L39,111.4H49.7l4.9,4.5-2.2,1.2h1.7a2.55,2.55,0,0,1,.6,2.1,13,13,0,0,1-.7,3.3H92.3L92,164.6l-1,7.9H35.5v-6h-1l1.4-2.7Z"/><path class="cls-4" d="M53.4,117.2v4.1l-1,.9-2.2-1.6h-3l-1.8-1.8s.6-4.6-1.9-4.4a2.1,2.1,0,0,0-1.9,2.7l-.1,1.1-1.8,2.3H36.2a23.14,23.14,0,0,0,3.9-3.5,8.9,8.9,0,0,0,1-3.5l-2.2-2.2H49.6l4.9,4.5L52.3,117Z"/><path class="cls-24" d="M42.8,167.8v-.4h1.3v.4a2.93,2.93,0,0,1,2.1,1.2v3.4h-.8v-2.6a2.57,2.57,0,0,0-1.9-.9,2.65,2.65,0,0,0-2,.9v2.6h-.8V169A2.65,2.65,0,0,1,42.8,167.8Z"/><path class="cls-8" d="M42.4,130.5a4,4,0,0,0-1.3.7c-.6.4-1.1.8-1.1.8v-1.5Z"/><path class="cls-14" d="M39,142.1v.4l.4.4h.4v.4h.4v.8h.4l.4-.8h4.8l.4.8h.4v-.8H47v-.4h.4l.4-.4v-.4H46.6v-1.2h.8v-.8h-.8v-2h.8v-.8h-.8v-1.6h.8v-.8h-.6s-.1-.4-.2-.9l-.3-.6.3-.4-.6-.8-.4.2a9.27,9.27,0,0,0-1.5-1V131H42.5v.4a9.27,9.27,0,0,0-1.5,1l-.4-.2-.6.8.3.4a1.36,1.36,0,0,0-.3.6,1.59,1.59,0,0,0-.1.9h-.6v.8h.8v1.6h-.8v.8h.8v2h-.8v.8h.8v1.2Zm6.4,0h-4v-7.4a2.55,2.55,0,0,1,2-1.4,2.53,2.53,0,0,1,2,1.3Z"/><path class="cls-8" d="M44.4,130.5a4,4,0,0,1,1.3.7c.6.4,1.1.8,1.1.8v-1.5Z"/><path class="cls-4" d="M83.3,161.5H92V150.4a10.13,10.13,0,0,0-4.4-.7,10.13,10.13,0,0,0-4.4.7v11.1Z"/><path class="cls-4" d="M72.9,161.5h8.8V150.4a10.13,10.13,0,0,0-4.4-.7,10.13,10.13,0,0,0-4.4.7Z"/><path class="cls-4" d="M62.5,161.5h8.8V150.4a10.13,10.13,0,0,0-4.4-.7,10.13,10.13,0,0,0-4.4.7Z"/><path class="cls-4" d="M52.2,161.5H61V150.4a10.13,10.13,0,0,0-4.4-.7,10.13,10.13,0,0,0-4.4.7Z"/><polygon class="cls-25" points="36 172.5 38 172.5 38 124.5 36 124.5 36 172.5"/><path class="cls-4" d="M41.4,142.1h4v-7.4a2.13,2.13,0,0,0-4,0Z"/><path class="cls-4" d="M41.4,172.3h4v-2.6a2.67,2.67,0,0,0-4,0Z"/><rect class="cls-8" x="51" y="144.5" width="41" height="2"/><rect class="cls-8" x="51" y="161.5" width="41" height="2"/><rect class="cls-8" x="43" y="168.8" width="0.8" height="3.6"/><path class="cls-24" d="M56.3,167.8v-.4h1.3v.4a2.93,2.93,0,0,1,2.1,1.2v3.4H59v-2.6a2.57,2.57,0,0,0-1.9-.9,2.65,2.65,0,0,0-2,.9v2.6h-.8V169C54.2,169,54.8,168,56.3,167.8Z"/><path class="cls-4" d="M55,172.3h4v-2.6a2.67,2.67,0,0,0-4,0Z"/><rect class="cls-8" x="56.5" y="168.9" width="0.8" height="3.4"/><path class="cls-24" d="M66.3,167.8v-.4h1.3v.4a2.93,2.93,0,0,1,2.1,1.2v3.4h-.8v-2.6a2.57,2.57,0,0,0-1.9-.9,2.65,2.65,0,0,0-2,.9v2.6h-.8V169A2.65,2.65,0,0,1,66.3,167.8Z"/><path class="cls-4" d="M64.9,172.3h4v-2.6a2.67,2.67,0,0,0-4,0Z"/><rect class="cls-8" x="66.5" y="168.9" width="0.8" height="3.4"/><path class="cls-24" d="M76.6,167.8v-.4h1.3v.4A2.93,2.93,0,0,1,80,169v3.4h-.8v-2.6a2.57,2.57,0,0,0-1.9-.9,2.65,2.65,0,0,0-2,.9v2.6h-.8V169A2.93,2.93,0,0,1,76.6,167.8Z"/><path class="cls-4" d="M75.3,172.3h4v-2.6a2.41,2.41,0,0,0-2-.9,2.65,2.65,0,0,0-2,.9Z"/><rect class="cls-8" x="76.9" y="168.9" width="0.8" height="3.4"/><path class="cls-24" d="M87.4,167.8v-.4h1.3v.4a2.93,2.93,0,0,1,2.1,1.2v3.4H90v-2.6a2.57,2.57,0,0,0-1.9-.9,2.65,2.65,0,0,0-2,.9v2.6h-.8V169A2.65,2.65,0,0,1,87.4,167.8Z"/><path class="cls-4" d="M86,172.3h4v-2.6a2.41,2.41,0,0,0-2-.9,2.65,2.65,0,0,0-2,.9Z"/><rect class="cls-8" x="87.6" y="168.9" width="0.8" height="3.4"/><polygon class="cls-8" points="41.4 137.3 43 137.3 43 133.3 43.8 133.3 43.8 137.3 45.4 137.3 45.4 138.1 43.8 138.1 43.8 142.1 43 142.1 43 138.1 41.4 138.1 41.4 137.3"/><path class="cls-14" d="M39,161.2v.4l.4.4h.4v.4h.4v.8h.4l.4-.8h4.8l.4.8h.4v-.8H47V162h.4l.4-.4v-.4H46.6V160h.8v-.8h-.8v-2h.8v-.8h-.8v-1.6h.8V154h-.6s-.1-.4-.2-.9l-.3-.6.3-.4-.6-.8-.4.2a9.27,9.27,0,0,0-1.5-1v-.4H42.5v.4a9.27,9.27,0,0,0-1.5,1l-.4-.2-.6.8.3.4a1.36,1.36,0,0,0-.3.6,1.59,1.59,0,0,0-.1.9h-.6v.8h.8v1.6h-.8v.8h.8v2h-.8v.8h.8v1.2Zm6.4,0h-4v-7.4a2.55,2.55,0,0,1,2-1.4,2.53,2.53,0,0,1,2,1.3Z"/><path class="cls-4" d="M41.4,161.1h4v-7.4a2.13,2.13,0,0,0-4,0Z"/><polygon class="cls-8" points="41.4 156.4 43 156.4 43 152.4 43.8 152.4 43.8 156.4 45.4 156.4 45.4 157.2 43.8 157.2 43.8 161.2 43 161.2 43 157.2 41.4 157.2 41.4 156.4"/><path class="cls-26" d="M51.2,148.8a15.92,15.92,0,0,1,4.2-.8v-.8h1.2v.8a22.6,22.6,0,0,1,4.7.8h.4a15.92,15.92,0,0,1,4.2-.8v-.8H67v.8a22.6,22.6,0,0,1,4.7.8H72a15.92,15.92,0,0,1,4.2-.8v-.8h1.2v.8a22.6,22.6,0,0,1,4.7.8h.3a15.92,15.92,0,0,1,4.2-.8v-.8h1.2v.8a17.35,17.35,0,0,1,4.3.8c.5.2,0,1.5,0,1.5a14,14,0,0,0-5-.8c-2.7,0-3.5.7-3.5.7a1.2,1.2,0,0,1,.3.8c0,.5-.6.7-.6.7v7.7l.4.4v.4h-.4v1.2H81.7v-1.2h-.4v-.4l.4-.5v-7.7s-.6-.3-.6-.7a1.1,1.1,0,0,1,.3-.7s-1.3-.7-4.8-.8c-2.7,0-3.5.7-3.5.7a1.2,1.2,0,0,1,.3.8c0,.5-.6.7-.6.7v7.7l.4.4v.4h-.4v1.2H71.2v-1.2h-.4v-.4l.4-.5v-7.7s-.6-.3-.6-.7a1.1,1.1,0,0,1,.3-.7l-.1-.1a14.86,14.86,0,0,0-4.6-.7c-2.7,0-3.5.7-3.5.7a1.2,1.2,0,0,1,.3.8c0,.5-.6.7-.6.7v7.7l.4.4v.4h-.4v1.2H61V160h-.4v-.4l.4-.1v-7.7s-.6-.3-.6-.7a1.1,1.1,0,0,1,.3-.7h0s-1.3-.7-4.8-.8c-2.7,0-3.5.7-3.5.7a1.2,1.2,0,0,1,.3.8c0,.5-.6.7-.6.7v7.7l.4.4v.4h-.4v1.2h-.9C51.3,161.5,51.2,148.9,51.2,148.8Z"/><path class="cls-4" d="M83.3,144.5H92V133.2a10.13,10.13,0,0,0-4.4-.7,10.13,10.13,0,0,0-4.4.7v11.3Z"/><path class="cls-4" d="M72.9,144.5h8.8V133.2a10.13,10.13,0,0,0-4.4-.7,10.13,10.13,0,0,0-4.4.7Z"/><path class="cls-4" d="M62.5,144.5h8.8V133.2a10.13,10.13,0,0,0-4.4-.7,10.13,10.13,0,0,0-4.4.7Z"/><path class="cls-4" d="M52.2,144.5H61V133.2a10.13,10.13,0,0,0-4.4-.7,10.13,10.13,0,0,0-4.4.7Z"/><path class="cls-27" d="M51.2,131.7a15.92,15.92,0,0,1,4.2-.8v-.8h1.2v.8a22.6,22.6,0,0,1,4.7.8h.4a15.92,15.92,0,0,1,4.2-.8v-.8H67v.8a22.6,22.6,0,0,1,4.7.8H72a15.92,15.92,0,0,1,4.2-.8v-.8h1.2v.8a22.6,22.6,0,0,1,4.7.8h.3a15.92,15.92,0,0,1,4.2-.8v-.8h1.2v.8a17.35,17.35,0,0,1,4.3.8c.5.2,0,1.5,0,1.5a14,14,0,0,0-5-.8c-2.7,0-3.5.7-3.5.7a1.2,1.2,0,0,1,.3.8c0,.5-.6.8-.6.8v7.7l.4.4v.4h-.4v1.2H81.7v-1.2h-.4v-.4l.4-.5v-7.7s-.6-.3-.6-.7a.84.84,0,0,1,.3-.7s-1.3-.7-4.8-.8c-2.7,0-3.5.7-3.5.7a1.2,1.2,0,0,1,.3.8c0,.5-.6.8-.6.8v7.7l.4.4v.4h-.4v1.2H71.2v-1.2h-.4v-.4l.4-.5v-7.7s-.6-.3-.6-.7a.84.84,0,0,1,.3-.7l-.1-.1a14.86,14.86,0,0,0-4.6-.7c-2.7,0-3.5.7-3.5.7a1.2,1.2,0,0,1,.3.8c0,.5-.6.8-.6.8v7.7l.4.4v.4h-.4v1.2H61v-1.2h-.4v-.4l.4-.3v-7.7s-.6-.3-.6-.7a.84.84,0,0,1,.3-.7h0s-1.3-.9-4.7-.9c-2.7,0-3.5.7-3.5.7a1.2,1.2,0,0,1,.3.8c0,.5-.6.8-.6.8v7.7l.4.4v.4h-.4v1.2h-.9Z"/><circle class="cls-28" cx="43.6" cy="116.5" r="2.3"/><circle class="cls-8" cx="43.6" cy="116.5" r="2.3"/><path class="cls-29" d="M177,129l4.2-4.4h-4v-2.4l-.5-1.7a24.49,24.49,0,0,1-3.8-3.3,9.5,9.5,0,0,1-1.1-3.6l2.2-2.2H163.2l-5,4.5,2.2,1.2h-1.7a2.55,2.55,0,0,0-.6,2.1c.2,1.3.7,3.2.7,3.2H121v42l1,8h56v-6l.6-.1-1.6-2.7Z"/><path class="cls-30" d="M121,121.5V110l2-2.5h-1.9l.5-2h-4.1a10.64,10.64,0,0,1-1.3-3.5,32,32,0,0,1,.8-4.5H95.9a28.77,28.77,0,0,1,.9,4.5,10.64,10.64,0,0,1-1.3,3.5H91.4l.2,2H90.1l1.8,2.5v54.8l-1.1,5-2.5,2.7h36.3v-2.9l-2.7.2-1.1-5.3Z"/><path class="cls-4" d="M159.7,117.2v4.1l1,.9,1.8-1.6h3.4l1.8-1.8s-.6-4.6,1.9-4.4a2.1,2.1,0,0,1,1.9,2.7l.1,1.1,1.8,2.3H177a19.76,19.76,0,0,1-3.9-3.5,8.9,8.9,0,0,1-1-3.5l2.2-2.2H163.5l-5,4.5,2.2,1.2Z"/><path class="cls-4" d="M117.5,142.9h-3.2V132.8a2,2,0,0,1,3.2,0Z"/><path class="cls-4" d="M113.5,142.9h-1.6V132.8a.83.83,0,0,1,1.6,0Z"/><path class="cls-24" d="M170.3,167.8v-.4H169v.4a2.93,2.93,0,0,0-2.1,1.2v3.4h.8v-2.6a2.57,2.57,0,0,1,1.9-.9,2.65,2.65,0,0,1,2,.9v2.6h.8V169A2.93,2.93,0,0,0,170.3,167.8Z"/><path class="cls-8" d="M170.6,130.5a4,4,0,0,1,1.3.7c.6.4,1.1.8,1.1.8v-1.5Z"/><path class="cls-14" d="M172.8,142.1v-1.2h.8v-.8h-.8v-2h.8v-.8h-.8v-1.6h.8v-.8H173a5.1,5.1,0,0,0-.1-.9l-.3-.6.3-.4-.6-.8-.4.2a9.27,9.27,0,0,0-1.5-1V131h-1.6v.4a9.27,9.27,0,0,0-1.5,1l-.4-.2-.6.8.3.4-.3.6a2.31,2.31,0,0,0-.2.9h-.6v.8h.8v1.6h-.8v.8h.8v2h-.8v.8h.8v1.2h-1.2v.4l.4.4h.4v.4h.4v.8h.4l.4-.8h4.8l.4.8h.4v-.8h.4v-.4h.4l.4-.4v-.4Zm-5.1-7.5a2.16,2.16,0,0,1,4,.1v7.4h-4Z"/><path class="cls-14" d="M166.1,145.5v3h7v-3Zm6.2,2h-5.4v-1h5.4Z"/><path class="cls-8" d="M168.6,130.5a4,4,0,0,0-1.3.7c-.6.4-1.1.8-1.1.8v-1.5Z"/><path class="cls-4" d="M129.8,161.5H121V150.4a10.13,10.13,0,0,1,4.4-.7,10.13,10.13,0,0,1,4.4.7Z"/><path class="cls-4" d="M140.2,161.5h-8.8V150.4a14.18,14.18,0,0,1,8.8,0v11.1Z"/><path class="cls-4" d="M150.5,161.5h-8.8V150.4a14.18,14.18,0,0,1,8.8,0v11.1Z"/><path class="cls-4" d="M160.9,161.5h-8.8V150.4a14.18,14.18,0,0,1,8.8,0v11.1Z"/><rect class="cls-31" x="175" y="124.5" width="2" height="48"/><path class="cls-4" d="M117.5,164.8h-3.2V149.5a2,2,0,0,1,3.2,0Z"/><path class="cls-4" d="M113.5,164.8h-1.6V149.5s.2-.8.8-.8.8.8.8.8Z"/><path class="cls-4" d="M117.5,105.5a11.85,11.85,0,0,1-1-1.9,9.25,9.25,0,0,1,0-3.4H96.6a9.15,9.15,0,0,1,0,3.4,11.85,11.85,0,0,1-1,1.9H91.5l.2,2h9.7a4.87,4.87,0,0,1,1.1-3.8,6.82,6.82,0,0,1,4.1-2.2,6.82,6.82,0,0,1,4.1,2.2,4.62,4.62,0,0,1,1.1,3.7h9.4l.5-2h-4.2Z"/><path class="cls-4" d="M95.6,142.9h3.2V132.8a1.66,1.66,0,0,0-1.5-.8,1.93,1.93,0,0,0-1.6.8l-.1,10.1Z"/><path class="cls-4" d="M106.5,131.7a10,10,0,0,0-4.6.8v10.4h9.3V132.5A11.35,11.35,0,0,0,106.5,131.7Z"/><path class="cls-4" d="M99.6,142.9h1.6V132.8a.83.83,0,0,0-1.6,0Z"/><path class="cls-4" d="M95.6,164.8h3.2V149.5a1.78,1.78,0,0,0-3.2,0Z"/><path class="cls-4" d="M106.8,148h-.4a7.87,7.87,0,0,0-4.4,1.4v15.4h9.3V149.5A9,9,0,0,0,106.8,148Z"/><path class="cls-4" d="M99.6,164.8h1.6V149.5s-.2-.8-.8-.8-.8.8-.8.8Z"/><polygon class="cls-32" points="95 164.5 95 165.2 92.4 172.1 88.3 172.1 88.3 170 90.5 170 92 164.5 95 164.5"/><polygon class="cls-14" points="92 170.7 95 164.5 92 164.5 90.4 170.6 92 170.7"/><circle class="cls-33" cx="106.6" cy="106.8" r="5.6"/><path class="cls-4" d="M171.6,142.1h-4v-7.4a2.13,2.13,0,0,1,4,0Z"/><path class="cls-4" d="M171.6,172.4h-4v-2.6a2.41,2.41,0,0,1,2-.9,2.65,2.65,0,0,1,2,.9Z"/><rect class="cls-8" x="121" y="144.5" width="41" height="2"/><rect class="cls-8" x="120.9" y="161.5" width="41" height="2"/><rect class="cls-8" x="169.2" y="168.9" width="0.8" height="3.5"/><path class="cls-24" d="M156.8,167.8v-.4h-1.3v.4a2.93,2.93,0,0,0-2.1,1.2v3.4h.8v-2.6a2.57,2.57,0,0,1,1.9-.9,2.65,2.65,0,0,1,2,.9v2.6h.8V169A2.93,2.93,0,0,0,156.8,167.8Z"/><path class="cls-4" d="M158.1,172.3h-4v-2.6a2.67,2.67,0,0,1,4,0Z"/><rect class="cls-8" x="155.7" y="168.9" width="0.8" height="3.5"/><path class="cls-24" d="M146.8,167.8v-.4h-1.3v.4a2.93,2.93,0,0,0-2.1,1.2v3.4h.8v-2.6a2.57,2.57,0,0,1,1.9-.9,2.65,2.65,0,0,1,2,.9v2.6h.8V169A2.93,2.93,0,0,0,146.8,167.8Z"/><path class="cls-4" d="M148.1,172.3h-4v-2.6a2.67,2.67,0,0,1,4,0Z"/><rect class="cls-8" x="145.8" y="168.9" width="0.8" height="3.5"/><path class="cls-24" d="M136.4,167.8v-.4h-1.3v.4A2.93,2.93,0,0,0,133,169v3.4h.8v-2.6a2.57,2.57,0,0,1,1.9-.9,2.65,2.65,0,0,1,2,.9v2.6h.8V169A2.65,2.65,0,0,0,136.4,167.8Z"/><path class="cls-4" d="M137.8,172.3h-4v-2.6a2.67,2.67,0,0,1,4,0Z"/><rect class="cls-8" x="135.4" y="168.9" width="0.8" height="3.5"/><path class="cls-24" d="M125.7,167.8v-.4h-1.3v.4a2.93,2.93,0,0,0-2.1,1.2v3.4h.8v-2.6a2.57,2.57,0,0,1,1.9-.9,2.65,2.65,0,0,1,2,.9v2.6h.8V169A2.93,2.93,0,0,0,125.7,167.8Z"/><path class="cls-4" d="M127,172.3h-4v-2.6a2.41,2.41,0,0,1,2-.9,2.65,2.65,0,0,1,2,.9Z"/><rect class="cls-8" x="124.6" y="168.9" width="0.8" height="3.5"/><polygon class="cls-8" points="171.6 137.3 170 137.3 170 133.3 169.2 133.3 169.2 137.3 167.7 137.3 167.7 138.1 169.2 138.1 169.2 142.1 170 142.1 170.1 138.1 171.6 138.1 171.6 137.3"/><path class="cls-14" d="M172.8,161.2V160h.8v-.8h-.8v-2h.8v-.8h-.8v-1.6h.8V154H173a5.1,5.1,0,0,0-.1-.9l-.3-.6.3-.4-.6-.8-.4.2a9.27,9.27,0,0,0-1.5-1v-.4h-1.6v.4a9.27,9.27,0,0,0-1.5,1l-.4-.2-.6.8.3.4-.3.6a2.31,2.31,0,0,0-.2.9h-.6v.8h.8v1.6h-.8v.8h.8v2h-.8v.8h.8v1.2h-1.2v.4l.4.4h.4v.4h.4v.8h.4l.4-.8h4.8l.4.8h.4v-.8h.4V162h.4l.4-.4v-.4Zm-5.1-7.5a2.16,2.16,0,0,1,4,.1v7.4h-4Z"/><path class="cls-4" d="M171.6,161.1h-4v-7.4a2.13,2.13,0,0,1,4,0Z"/><polygon class="cls-8" points="171.6 156.4 170 156.4 170 152.4 169.2 152.4 169.2 156.4 167.7 156.4 167.7 157.2 169.2 157.2 169.2 161.2 170 161.2 170.1 157.2 171.6 157.2 171.6 156.4"/><path class="cls-34" d="M161.9,149a15.92,15.92,0,0,0-4.2-.8v-.7h-1.2v.8a22.6,22.6,0,0,0-4.7.8h-.4a15.92,15.92,0,0,0-4.2-.8v-.8H146v.8a22.6,22.6,0,0,0-4.7.8H141a15.92,15.92,0,0,0-4.2-.8v-.8h-1.2v.8a22.6,22.6,0,0,0-4.7.8h-.3a15.92,15.92,0,0,0-4.2-.8v-.8h-1.2v.8a17.35,17.35,0,0,0-4.3.8c-.5.2,0,1.5,0,1.5a13,13,0,0,1,5-.7c2.7,0,3.5.7,3.5.7a1.2,1.2,0,0,0-.3.8c0,.5.6.7.6.7v7.5l-.4.4v.4h.4v1.1h1.6v-1.1h.4V160l-.4-.5V152s.6-.3.6-.7a1.1,1.1,0,0,0-.3-.7s1.3-.7,4.8-.7c2.7,0,3.5.7,3.5.7a1.2,1.2,0,0,0-.3.8c0,.5.6.7.6.7v7.5l-.4.4v.4h.4v1.1h1.6v-1.1h.4V160l-.4-.5V152s.6-.3.6-.7a1.1,1.1,0,0,0-.3-.7l.1-.1a14.86,14.86,0,0,1,4.6-.7c2.7,0,3.5.7,3.5.7a1.2,1.2,0,0,0-.3.8c0,.5.6.7.6.7v7.5l-.4.4v.4h.4v1.1h1.6v-1.1h.4v-.4l-.4-.5v-7.5s.6-.3.6-.7a1.1,1.1,0,0,0-.3-.7h0s1.3-.7,4.8-.7c2.7,0,3.5.7,3.5.7a1.2,1.2,0,0,0-.3.8c0,.5.6.7.6.7v7.5l-.4.4v.4h.4v1.1h.9C161.8,161.5,161.9,149.1,161.9,149Z"/><path class="cls-4" d="M129.8,144.5H121V133.2a10.13,10.13,0,0,1,4.4-.7,10.13,10.13,0,0,1,4.4.7Z"/><path class="cls-4" d="M140.2,144.5h-8.8V133.2a14.18,14.18,0,0,1,8.8,0v11.3Z"/><path class="cls-4" d="M150.5,144.5h-8.8V133.2a14.18,14.18,0,0,1,8.8,0v11.3Z"/><path class="cls-4" d="M160.9,144.5h-8.8V133.2a14.18,14.18,0,0,1,8.8,0v11.3Z"/><path class="cls-35" d="M161.9,131.7a15.92,15.92,0,0,0-4.2-.8v-.8h-1.2v.8a22.6,22.6,0,0,0-4.7.8h-.4a15.92,15.92,0,0,0-4.2-.8v-.8H146v.8a22.6,22.6,0,0,0-4.7.8H141a15.92,15.92,0,0,0-4.2-.8v-.8h-1.2v.8a22.6,22.6,0,0,0-4.7.8h-.3a15.92,15.92,0,0,0-4.2-.8v-.8h-1.2v.8a17.35,17.35,0,0,0-4.3.8c-.5.2,0,1.5,0,1.5a14,14,0,0,1,5-.8c2.7,0,3.5.7,3.5.7a1.2,1.2,0,0,0-.3.8c0,.5.6.8.6.8v7.7l-.4.4v.4h.4v1.2h1.6v-1.2h.4v-.4l-.4-.5v-7.7s.6-.3.6-.7a.84.84,0,0,0-.3-.7s1.3-.7,4.8-.8c2.7,0,3.5.7,3.5.7a1.2,1.2,0,0,0-.3.8c0,.5.6.8.6.8v7.7l-.4.4v.4h.4v1.2h1.6v-1.2h.4v-.4l-.4-.5v-7.7s.6-.3.6-.7a.84.84,0,0,0-.3-.7l.1-.1a14.86,14.86,0,0,1,4.6-.7c2.7,0,3.5.7,3.5.7a1.2,1.2,0,0,0-.3.8c0,.5.6.8.6.8v7.7l-.4.4v.4h.4v1.2h1.6v-1.2h.4v-.4l-.4-.5v-7.7s.6-.3.6-.7a.84.84,0,0,0-.3-.7h0s1.3-.7,4.8-.8c2.7,0,3.5.7,3.5.7a1.2,1.2,0,0,0-.3.8c0,.5.6.8.6.8v7.7l-.4.4v.4h.4v1.2h.9C161.8,144.5,161.9,131.7,161.9,131.7Z"/><path class="cls-36" d="M118.3,142.9V132.1a4.35,4.35,0,0,0-2.6-.8,2.63,2.63,0,0,0-1.8.7,2.05,2.05,0,0,0-1.3-.7c-.7,0-1.2.8-1.2.8a9.06,9.06,0,0,0-4.9-1.3,9.52,9.52,0,0,0-4.9,1.3s-.6-.8-1.2-.8a1.71,1.71,0,0,0-1.2.7s-.4-.6-1.8-.7a4.7,4.7,0,0,0-2.6.8v10.8h.8V132.8a2.34,2.34,0,0,1,1.8-.7,2.21,2.21,0,0,1,1.4.6v.6h-.6l.2.8h.4v8.8h-4v2.4h23.5v-2.4h-4v-8.8h.4l.2-.8h-.6v-.6a2.1,2.1,0,0,1,1.4-.7,2.84,2.84,0,0,1,1.8.6v10.1Zm-18.7,0v-8.8h.4l.4-.8h-.8v-.5s.3-.6.8-.6.8.6.8.6v.6h-.6l.2.8h.4V143H99.6Zm11.5-10.1v.6h-.6l.2.8h.4V143h-9.2v-8.8h.4l.2-.8h-.6v-.6c-.3,0,1.8-1,4.6-1A12.29,12.29,0,0,1,111.1,132.8Zm2.4.5h-.7l.3.8h.4v8.8h-1.6v-8.8h.4l.3-.8h-.7v-.6h0s.3-.6.8-.6.8.6.8.6h0v.6Z"/><path class="cls-4" d="M116.3,121h-3.2v-6a1.67,1.67,0,0,1,3.2,0Z"/><path class="cls-14" d="M114.7,113a3,3,0,0,0-2.4,1.6V121h.8v-6s.6-1.2,1.6-1.2,1.6,1.2,1.6,1.2v6h.8v-6.4A3,3,0,0,0,114.7,113Z"/><rect class="cls-14" x="113.1" y="117.4" width="3.2" height="0.4"/><g class="cls-37"><polygon class="cls-14" points="106.8 171.5 120.4 171.5 120.4 170.5 106.8 170.5 106.3 170.5 92.6 170.5 92.6 171.5 106.3 171.5 106.8 171.5"/><polygon class="cls-14" points="106.8 169.6 120.4 169.6 120.4 168.6 106.8 168.6 106.3 168.6 92.6 168.6 92.6 169.6 106.3 169.6 106.8 169.6"/><polygon class="cls-14" points="106.8 167.7 120.4 167.7 120.4 166.7 106.8 166.7 106.3 166.7 92.6 166.7 92.6 167.7 106.3 167.7 106.8 167.7"/><polygon class="cls-14" points="106.8 165.7 120.4 165.7 120.4 164.8 106.8 164.8 106.3 164.8 92.6 164.8 92.6 165.7 106.3 165.7 106.8 165.7"/></g><circle class="cls-14" cx="106.6" cy="106.8" r="5.6"/><circle class="cls-38" cx="169.5" cy="116.5" r="2.3"/><g class="cls-39"><circle class="cls-40" cx="106.6" cy="106.8" r="4.4"/><path class="cls-41" d="M106.6,103v0Z"/><path class="cls-42" d="M106.6,110.7v0Z"/><path class="cls-43" d="M110.6,106.6h0Z"/><path class="cls-44" d="M102.9,106.6h0Z"/><polyline class="cls-45" points="106.5 104.6 106.5 106.8 108.1 108.3"/></g><circle class="cls-8" cx="169.5" cy="116.5" r="2.3"/><rect class="cls-46" x="106" y="77" width="1" height="21"/><path class="cls-47" d="M101,76.8s.8,1.5,2.2,1.1a36.44,36.44,0,0,0,3.8-1.5v4.5a12.53,12.53,0,0,1-3.8,1c-1.5,0-2.2-.8-2.2-1.1Z"/><path class="cls-4" d="M107,80.5v.4a11.59,11.59,0,0,1-3.7,1c-1.7-.1-2.7-1.2-1.8-1-.7-.2,2.6.8,3.2-.6S107,80.5,107,80.5Z"/><path class="cls-4" d="M110.7,121h-3.2v-6a1.67,1.67,0,0,1,3.2,0Z"/><path class="cls-14" d="M109.1,113a3,3,0,0,0-2.4,1.6V121h.8v-6s.6-1.2,1.6-1.2,1.6,1.2,1.6,1.2v6h.8v-6.4A3,3,0,0,0,109.1,113Z"/><rect class="cls-14" x="107.5" y="117.4" width="3.2" height="0.4"/><path class="cls-4" d="M105.1,121h-3.2v-6a1.67,1.67,0,0,1,3.2,0Z"/><path class="cls-14" d="M103.5,113a3,3,0,0,0-2.4,1.6V121h.8v-6s.6-1.2,1.6-1.2,1.6,1.2,1.6,1.2v6h.8v-6.4A3,3,0,0,0,103.5,113Z"/><rect class="cls-14" x="101.9" y="117.4" width="3.2" height="0.4"/><path class="cls-4" d="M99.6,121H96.4v-6a1.67,1.67,0,0,1,3.2,0Z"/><path class="cls-14" d="M98,113a3,3,0,0,0-2.4,1.6V121h.8v-6s.6-1.2,1.6-1.2,1.6,1.2,1.6,1.2v6h.8v-6.4A3.17,3.17,0,0,0,98,113Z"/><rect class="cls-14" x="96.4" y="117.4" width="3.2" height="0.4"/><path class="cls-14" d="M40,145.5v3h7v-3Zm6.2,2H40.8v-1h5.4Z"/><polygon class="cls-8" points="92 124.5 121 124.5 121 125.5 160 125.5 160.9 124.5 177 124.5 177.2 122.2 176.8 120.5 173.3 120.5 172.8 121.5 166 121.5 165.9 120.5 163 120.5 161.8 121.4 160.7 122.5 92 122.5 92 124.5"/><polygon class="cls-8" points="121 124.5 92 124.5 92 125.5 53 125.5 52 124.5 36 124.5 35.7 122.4 36.3 120.6 39.8 120.6 40.3 121.4 47 121.4 47.3 120.6 50.2 120.6 51.3 121.4 52.1 122.5 121 122.5 121 124.5"/><path class="cls-14" d="M118.3,142.9V132.1a4.35,4.35,0,0,0-2.6-.8,2.63,2.63,0,0,0-1.8.7,2.05,2.05,0,0,0-1.3-.7c-.7,0-1.2.8-1.2.8a9.06,9.06,0,0,0-4.9-1.3,9.52,9.52,0,0,0-4.9,1.3s-.6-.8-1.2-.8a1.71,1.71,0,0,0-1.2.7s-.4-.6-1.8-.7a4.7,4.7,0,0,0-2.6.8v10.8h.8V132.8a2.34,2.34,0,0,1,1.8-.7,2.21,2.21,0,0,1,1.4.6v.6h-.6l.2.8h.4v8.8h-4v2.4h23.5v-2.4h-4v-8.8h.4l.2-.8h-.6v-.6a2.1,2.1,0,0,1,1.4-.7,2.84,2.84,0,0,1,1.8.6v10.1Zm-18.7,0v-8.8h.4l.4-.8h-.8v-.5s.3-.6.8-.6.8.6.8.6v.6h-.6l.2.8h.4V143H99.6Zm11.5-10.1v.6h-.6l.2.8h.4V143h-9.2v-8.8h.4l.2-.8h-.6v-.6c-.3,0,1.8-1,4.6-1A12.29,12.29,0,0,1,111.1,132.8Zm2.4.5h-.7l.3.8h.4v8.8h-1.6v-8.8h.4l.3-.8h-.7v-.6h0s.3-.6.8-.6.8.6.8.6h0v.6Z"/><path class="cls-48" d="M114.3,164.8V151.3h.4l.4-1.2h-.8v-.6a2,2,0,0,1,1.4-.8,2.34,2.34,0,0,1,1.8.8v15.3h.8V148.7a4,4,0,0,0-2.6-1,2.44,2.44,0,0,0-1.8.8s-.6-.9-1.3-.8-1.2,1-1.2,1a7.77,7.77,0,0,0-4.9-1.6,8.14,8.14,0,0,0-4.9,1.6s-.6-.9-1.2-1-1.2.8-1.2.8a2.17,2.17,0,0,0-1.8-.8,4.28,4.28,0,0,0-2.6,1v16h.8V149.5a2.34,2.34,0,0,1,1.8-.8,2,2,0,0,1,1.4.8v.6H98l.3,1.2h.4v13.5h.8V151.3h.4l.4-1.2h-.8v-.5s.3-.8.8-.8.8.7.8.7v.6h-.6l.2,1.2h.4v13.5h.8V151.3h.4l.3-1.2h-.7v-.6c-.3,0,1.8-1.5,4.6-1.5a11.63,11.63,0,0,1,4.6,1.5v.5h-.8l.4,1.2h.4v13.5h.8V151.2h.4l.3-1.2h-.7v-.5h0s.3-.7.8-.7.8.7.8.7h0v.6h-.7l.3,1.2h.4v13.5Z"/><path class="cls-14" d="M114.3,164.8V151.3h.4l.4-1.2h-.8v-.6a2,2,0,0,1,1.4-.8,2.34,2.34,0,0,1,1.8.8v15.3h.8V148.7a4,4,0,0,0-2.6-1,2.44,2.44,0,0,0-1.8.8s-.6-.9-1.3-.8-1.2,1-1.2,1a7.77,7.77,0,0,0-4.9-1.6,8.14,8.14,0,0,0-4.9,1.6s-.6-.9-1.2-1-1.2.8-1.2.8a2.17,2.17,0,0,0-1.8-.8,4.28,4.28,0,0,0-2.6,1v16h.8V149.5a2.34,2.34,0,0,1,1.8-.8,2,2,0,0,1,1.4.8v.6H98l.3,1.2h.4v13.5h.8V151.3h.4l.4-1.2h-.8v-.5s.3-.8.8-.8.8.7.8.7v.6h-.6l.2,1.2h.4v13.5h.8V151.3h.4l.3-1.2h-.7v-.6c-.3,0,1.8-1.5,4.6-1.5a11.63,11.63,0,0,1,4.6,1.5v.5h-.8l.4,1.2h.4v13.5h.8V151.2h.4l.3-1.2h-.7v-.5h0s.3-.7.8-.7.8.7.8.7h0v.6h-.7l.3,1.2h.4v13.5Z"/><rect class="cls-24" x="175" y="124.5" width="2" height="48"/><rect class="cls-24" x="36" y="124.5" width="2" height="48"/><path class="cls-14" d="M161.9,149a15.92,15.92,0,0,0-4.2-.8v-.7h-1.2v.8a22.6,22.6,0,0,0-4.7.8h-.4a15.92,15.92,0,0,0-4.2-.8v-.8H146v.8a22.6,22.6,0,0,0-4.7.8H141a15.92,15.92,0,0,0-4.2-.8v-.8h-1.2v.8a22.6,22.6,0,0,0-4.7.8h-.3a15.92,15.92,0,0,0-4.2-.8v-.8h-1.2v.8a17.35,17.35,0,0,0-4.3.8c-.5.2,0,1.5,0,1.5a13,13,0,0,1,5-.7c2.7,0,3.5.7,3.5.7a1.2,1.2,0,0,0-.3.8c0,.5.6.7.6.7v7.5l-.4.4v.4h.4v1.1h1.6v-1.1h.4V160l-.4-.5V152s.6-.3.6-.7a1.1,1.1,0,0,0-.3-.7s1.3-.7,4.8-.7c2.7,0,3.5.7,3.5.7a1.2,1.2,0,0,0-.3.8c0,.5.6.7.6.7v7.5l-.4.4v.4h.4v1.1h1.6v-1.1h.4V160l-.4-.5V152s.6-.3.6-.7a1.1,1.1,0,0,0-.3-.7l.1-.1a14.86,14.86,0,0,1,4.6-.7c2.7,0,3.5.7,3.5.7a1.2,1.2,0,0,0-.3.8c0,.5.6.7.6.7v7.5l-.4.4v.4h.4v1.1h1.6v-1.1h.4v-.4l-.4-.5v-7.5s.6-.3.6-.7a1.1,1.1,0,0,0-.3-.7h0s1.3-.7,4.8-.7c2.7,0,3.5.7,3.5.7a1.2,1.2,0,0,0-.3.8c0,.5.6.7.6.7v7.5l-.4.4v.4h.4v1.1h.9C161.8,161.5,161.9,149.1,161.9,149Z"/><path class="cls-14" d="M161.9,131.7a15.92,15.92,0,0,0-4.2-.8v-.8h-1.2v.8a22.6,22.6,0,0,0-4.7.8h-.4a15.92,15.92,0,0,0-4.2-.8v-.8H146v.8a22.6,22.6,0,0,0-4.7.8H141a15.92,15.92,0,0,0-4.2-.8v-.8h-1.2v.8a22.6,22.6,0,0,0-4.7.8h-.3a15.92,15.92,0,0,0-4.2-.8v-.8h-1.2v.8a17.35,17.35,0,0,0-4.3.8c-.5.2,0,1.5,0,1.5a14,14,0,0,1,5-.8c2.7,0,3.5.7,3.5.7a1.2,1.2,0,0,0-.3.8c0,.5.6.8.6.8v7.7l-.4.4v.4h.4v1.2h1.6v-1.2h.4v-.4l-.4-.5v-7.7s.6-.3.6-.7a.84.84,0,0,0-.3-.7s1.3-.7,4.8-.8c2.7,0,3.5.7,3.5.7a1.2,1.2,0,0,0-.3.8c0,.5.6.8.6.8v7.7l-.4.4v.4h.4v1.2h1.6v-1.2h.4v-.4l-.4-.5v-7.7s.6-.3.6-.7a.84.84,0,0,0-.3-.7l.1-.1a14.86,14.86,0,0,1,4.6-.7c2.7,0,3.5.7,3.5.7a1.2,1.2,0,0,0-.3.8c0,.5.6.8.6.8v7.7l-.4.4v.4h.4v1.2h1.6v-1.2h.4v-.4l-.4-.5v-7.7s.6-.3.6-.7a.84.84,0,0,0-.3-.7h0s1.3-.7,4.8-.8c2.7,0,3.5.7,3.5.7a1.2,1.2,0,0,0-.3.8c0,.5.6.8.6.8v7.7l-.4.4v.4h.4v1.2h.9C161.8,144.5,161.9,131.7,161.9,131.7Z"/><path class="cls-14" d="M51.2,148.8a15.92,15.92,0,0,1,4.2-.8v-.8h1.2v.8a22.6,22.6,0,0,1,4.7.8h.4a15.92,15.92,0,0,1,4.2-.8v-.8H67v.8a22.6,22.6,0,0,1,4.7.8H72a15.92,15.92,0,0,1,4.2-.8v-.8h1.2v.8a22.6,22.6,0,0,1,4.7.8h.3a15.92,15.92,0,0,1,4.2-.8v-.8h1.2v.8a17.35,17.35,0,0,1,4.3.8c.5.2,0,1.5,0,1.5a14,14,0,0,0-5-.8c-2.7,0-3.5.7-3.5.7a1.2,1.2,0,0,1,.3.8c0,.5-.6.7-.6.7v7.7l.4.4v.4h-.4v1.2H81.7v-1.2h-.4v-.4l.4-.5v-7.7s-.6-.3-.6-.7a1.1,1.1,0,0,1,.3-.7s-1.3-.7-4.8-.8c-2.7,0-3.5.7-3.5.7a1.2,1.2,0,0,1,.3.8c0,.5-.6.7-.6.7v7.7l.4.4v.4h-.4v1.2H71.2v-1.2h-.4v-.4l.4-.5v-7.7s-.6-.3-.6-.7a1.1,1.1,0,0,1,.3-.7l-.1-.1a14.86,14.86,0,0,0-4.6-.7c-2.7,0-3.5.7-3.5.7a1.2,1.2,0,0,1,.3.8c0,.5-.6.7-.6.7v7.7l.4.4v.4h-.4v1.2H61V160h-.4v-.4l.4-.1v-7.7s-.6-.3-.6-.7a1.1,1.1,0,0,1,.3-.7h0s-1.3-.7-4.8-.8c-2.7,0-3.5.7-3.5.7a1.2,1.2,0,0,1,.3.8c0,.5-.6.7-.6.7v7.7l.4.4v.4h-.4v1.2h-.9C51.3,161.5,51.2,148.9,51.2,148.8Z"/><path class="cls-14" d="M51.2,131.7a15.92,15.92,0,0,1,4.2-.8v-.8h1.2v.8a22.6,22.6,0,0,1,4.7.8h.4a15.92,15.92,0,0,1,4.2-.8v-.8H67v.8a22.6,22.6,0,0,1,4.7.8H72a15.92,15.92,0,0,1,4.2-.8v-.8h1.2v.8a22.6,22.6,0,0,1,4.7.8h.3a15.92,15.92,0,0,1,4.2-.8v-.8h1.2v.8a17.35,17.35,0,0,1,4.3.8c.5.2,0,1.5,0,1.5a14,14,0,0,0-5-.8c-2.7,0-3.5.7-3.5.7a1.2,1.2,0,0,1,.3.8c0,.5-.6.8-.6.8v7.7l.4.4v.4h-.4v1.2H81.7v-1.2h-.4v-.4l.4-.5v-7.7s-.6-.3-.6-.7a.84.84,0,0,1,.3-.7s-1.3-.7-4.8-.8c-2.7,0-3.5.7-3.5.7a1.2,1.2,0,0,1,.3.8c0,.5-.6.8-.6.8v7.7l.4.4v.4h-.4v1.2H71.2v-1.2h-.4v-.4l.4-.5v-7.7s-.6-.3-.6-.7a.84.84,0,0,1,.3-.7l-.1-.1a14.86,14.86,0,0,0-4.6-.7c-2.7,0-3.5.7-3.5.7a1.2,1.2,0,0,1,.3.8c0,.5-.6.8-.6.8v7.7l.4.4v.4h-.4v1.2H61v-1.2h-.4v-.4l.4-.3v-7.7s-.6-.3-.6-.7a.84.84,0,0,1,.3-.7h0s-1.3-.9-4.7-.9c-2.7,0-3.5.7-3.5.7a1.2,1.2,0,0,1,.3.8c0,.5-.6.8-.6.8v7.7l.4.4v.4h-.4v1.2h-.9Z"/><polygon class="cls-49" points="88 172.5 93 172.5 93 169.5 88 169.5 88 172.5"/><rect class="cls-14" x="88" y="169.5" width="5" height="3"/><polygon class="cls-50" points="118 164.5 118 165.4 120.7 172.1 124.7 172.1 124.7 170 122.6 170 121 164.5 118 164.5"/><polygon class="cls-14" points="121.1 170.7 118 164.5 121 164.5 122.7 170.6 121.1 170.7"/><rect class="cls-51" x="120" y="169.5" width="5" height="3"/><rect class="cls-14" x="120" y="169.5" width="5" height="3"/><polygon class="cls-52" points="49 172.5 52 172.5 52 124.5 49 124.5 49 172.5"/><rect class="cls-24" x="49" y="124.5" width="3" height="48"/><polygon class="cls-53" points="92 164.5 95 164.5 95 124.5 92 124.5 92 164.5"/><rect class="cls-54" x="118" y="124.5" width="3" height="40"/><rect class="cls-24" x="92" y="124.5" width="3" height="40"/><rect class="cls-24" x="118" y="124.5" width="3" height="40"/><rect class="cls-55" x="161" y="124.5" width="3" height="48"/><rect class="cls-24" x="161" y="124.5" width="3" height="48"/><path class="cls-56" d="M20.4,161.6a1.39,1.39,0,0,0,0-.9l-.5-1.1.9,1.2a1.1,1.1,0,0,0,1.5.3c.5-.3,1.1-.7,1.6-1a1.13,1.13,0,0,0,.4-1.5.1.1,0,0,0-.1-.1l-.2-.2.2.1a1,1,0,0,0,1.5-.4c0-.1.1-.1.1-.2l.1-.3a64,64,0,0,1,7.2,14.9h4.1a48.87,48.87,0,0,0-10-15.7l.3.3a1.61,1.61,0,0,0,.9.3c.3,0,.6-.3.8-.5l.1-.2-.1.3a1.13,1.13,0,0,0,.9,1.3h.1a12.25,12.25,0,0,1,1.9.2,1.2,1.2,0,0,0,1.2-.9l.2-1.5.1,1.2a1.23,1.23,0,0,0,.4.8,1,1,0,0,0,.9.2c1.4-.2,2.7-.6,4-.9-2.5-5.9-7.8-5.7-10.5-5.2a10.24,10.24,0,0,1,2.9-1.6h0a.55.55,0,0,0,.4-.6l-.1-.9.3.8a.45.45,0,0,0,.6.3,13.33,13.33,0,0,1,2.8-.3.56.56,0,0,0,.6-.5h0v-.9l.2,1.2c0,.2.2.4.5.5a9.68,9.68,0,0,1,2.4.8l-.3-1.2a7.32,7.32,0,0,0-9.3-4.4,5.24,5.24,0,0,0-1.8,1,8.6,8.6,0,0,0-.2-5.6,9,9,0,0,0-4.2,4,6.32,6.32,0,0,0-.4,3.6,8,8,0,0,0-2.3-2.9,8.78,8.78,0,0,0-5.7-1.2,9,9,0,0,0,3,5,3.88,3.88,0,0,0,1.1.6,7.35,7.35,0,0,0-7.9,6.6,6.5,6.5,0,0,0,.4,3.1c.2.4.3.8.5,1.2a7.71,7.71,0,0,1,1.4-2.1.47.47,0,0,0,.1-.6l-.6-1,.6.7a.61.61,0,0,0,.8,0,11.87,11.87,0,0,1,2.3-1.6.52.52,0,0,0,.3-.7l-.3-.8.5.8c.2.2.4.3.6.2h0a11,11,0,0,1,2.6-.6,8.23,8.23,0,0,0-4.8,8.5c1.4-.2,2.7-.6,4-.9A4.5,4.5,0,0,0,20.4,161.6Z"/><path class="cls-57" d="M190.8,161.6a1.39,1.39,0,0,1,0-.9l.5-1.1-.9,1.2a1.1,1.1,0,0,1-1.5.3c-.5-.3-1.1-.7-1.6-1a1.13,1.13,0,0,1-.4-1.5.1.1,0,0,1,.1-.1l.2-.2-.2.1a1,1,0,0,1-1.5-.4c0-.1-.1-.1-.1-.2l-.1-.3a64,64,0,0,0-7.2,14.9H174a48.87,48.87,0,0,1,10-15.7l-.3.3a1.61,1.61,0,0,1-.9.3c-.3,0-.6-.3-.8-.5l-.1-.2.1.3a1.13,1.13,0,0,1-.9,1.3H181a12.25,12.25,0,0,0-1.9.2,1.2,1.2,0,0,1-1.2-.9l-.2-1.5-.1,1.2a1.23,1.23,0,0,1-.4.8,1,1,0,0,1-.9.2c-1.4-.2-2.7-.6-4-.9,2.5-5.9,7.8-5.7,10.5-5.2a10.24,10.24,0,0,0-2.9-1.6h0a.55.55,0,0,1-.4-.6l.1-.9-.3.8a.45.45,0,0,1-.6.3,13.33,13.33,0,0,0-2.8-.3.56.56,0,0,1-.6-.5h0v-.9l-.2,1.2c0,.2-.2.4-.5.5a9.68,9.68,0,0,0-2.4.8l.3-1.2a7.32,7.32,0,0,1,9.3-4.4,5.24,5.24,0,0,1,1.8,1,8.6,8.6,0,0,1,.2-5.6,9,9,0,0,1,4.2,4,6.32,6.32,0,0,1,.4,3.6,8,8,0,0,1,2.3-2.9,8.78,8.78,0,0,1,5.7-1.2,9,9,0,0,1-3,5,3.88,3.88,0,0,1-1.1.6,7.35,7.35,0,0,1,7.9,6.6,6.5,6.5,0,0,1-.4,3.1c-.2.4-.3.8-.5,1.2a7.71,7.71,0,0,0-1.4-2.1.47.47,0,0,1-.1-.6l.6-1-.6.7a.61.61,0,0,1-.8,0,11.87,11.87,0,0,0-2.3-1.6.52.52,0,0,1-.3-.7l.3-.8-.5.8c-.2.2-.4.3-.6.2h0a11,11,0,0,0-2.6-.6,8.23,8.23,0,0,1,4.8,8.5c-1.4-.2-2.7-.6-4-.9C191.1,162.1,190.9,161.9,190.8,161.6Z"/></svg>