<svg xmlns="http://www.w3.org/2000/svg" xmlns:xlink="http://www.w3.org/1999/xlink" id="Warstwa_1" x="0" y="0" version="1.1" viewBox="0 0 200 172" style="enable-background:new 0 0 200 172" xml:space="preserve"><style type="text/css">.st0{opacity:.8;fill:#bde6ff;enable-background:new}.st1{fill:url(#SVGID_1_)}.st2{opacity:.2}.st5{opacity:.1;fill:#fff}.st7{opacity:.3}.st8{fill:#373e9b}.st20,.st36{fill:#fff}.st36{opacity:.3}</style><g><path d="M73.5,49.4c12.6,6.6,21,0.9,22.9-0.5c1.9-1.4,12.6,0,19.6,2.8c4.6,1.9,12.1-0.4,17-3.2c-6.4-7-12.1-13-16.1-17 c-19.2-19.3-42.1,0-42.1,0l-17.6,15C61.8,46,67.5,46.2,73.5,49.4z" class="st0"/><linearGradient id="SVGID_1_" x1="26" x2="192" y1="109.158" y2="109.158" gradientUnits="userSpaceOnUse"><stop offset="0" style="stop-color:#1d7ee8"/><stop offset="1" style="stop-color:#2ea7db"/></linearGradient><path d="M26,73.5l31.4-26.9c4.4-0.6,10.2-0.3,16.2,2.8c12.6,6.6,21,0.9,22.9-0.5c1.9-1.4,12.6,0,19.6,2.8 c4.6,1.9,12.1-0.4,17-3.2c24.1,26.2,58.9,66.1,58.9,66.1V172H26V73.5z" class="st1"/><polygon points="31 172 31 78 54 78 54 112 68 112 68 101 74 95 94 95 94 112 102 112 111.6 73.9 124 112 143 112 143 80 158 80 158 109 162 109 162 96 170 96 170 172" class="st2"/><rect width="172.5" height="17" x="12.3" y="155" class="st2"/><g><linearGradient id="SVGID_00000173875705145035050680000002835873713293877398_" x1="284.609" x2="316.019" y1="107.802" y2="107.802" gradientTransform="matrix(-1 0 0 1 316.0187 0)" gradientUnits="userSpaceOnUse"><stop offset="0" style="stop-color:#3651bf"/><stop offset="1" style="stop-color:#2e5bdb"/></linearGradient><polygon style="fill:url(#SVGID_00000173875705145035050680000002835873713293877398_)" points="26.6 59.6 15.7 50.1 5.3 43.6 0 172 31.4 172"/><polygon points="26.6 59.6 15.7 50.1 10.9 172 31.7 172" class="st2"/><g><defs><polygon id="SVGID_00000083793560638218159160000000090107363382078139_" points="26.6 59.6 15.7 50.1 10.9 172 31.3 172"/></defs><clipPath id="SVGID_00000145758027067760655030000010613656327063506565_"><use xlink:href="#SVGID_00000083793560638218159160000000090107363382078139_" style="overflow:visible"/></clipPath><g style="clip-path:url(#SVGID_00000145758027067760655030000010613656327063506565_)"><g><polygon points="11.5 52.3 30.6 56.9 30.6 53.8 11.5 49.3" class="st5"/></g><g><polygon points="11.5 58.2 30.6 62.7 30.6 59.7 11.5 55.1" class="st5"/></g><g><polygon points="11.5 64.4 30.6 68.9 30.6 65.9 11.5 61.4" class="st5"/></g><g><polygon points="11.5 70.2 30.6 74.7 30.6 71.7 11.5 67.2" class="st5"/></g><g><polygon points="11.5 76.6 30.6 81.2 30.6 78.1 11.5 73.6" class="st5"/></g><g><polygon points="11.5 82.5 30.6 87 30.6 84 11.5 79.4" class="st5"/></g><g><polygon points="11.5 88.5 30.6 93 30.6 90 11.5 85.5" class="st5"/></g><g><polygon points="11.5 94.7 30.6 99.2 30.6 96.2 11.5 91.7" class="st5"/></g><g><polygon points="11.5 100.7 30.6 105.2 30.6 102.2 11.5 97.7" class="st5"/></g><g><polygon points="11.5 106.5 30.6 111.1 30.6 108 11.5 103.5" class="st5"/></g><g><polygon points="11.5 112.8 30.6 117.3 30.6 114.3 11.5 109.8" class="st5"/></g><g><polygon points="11.5 118.8 30.6 123.3 30.6 120.3 11.5 115.8" class="st5"/></g><g><polygon points="11.5 125 30.6 129.5 30.6 126.5 11.5 122" class="st5"/></g><g><polygon points="11.5 131 30.6 135.5 30.6 132.5 11.5 128" class="st5"/></g><g><polygon points="11.5 136.9 30.6 141.4 30.6 138.4 11.5 133.9" class="st5"/></g><g><polygon points="11.5 142.9 30.6 147.4 30.6 144.4 11.5 139.9" class="st5"/></g><g><polygon points="11.5 148.9 30.6 153.4 30.6 150.4 11.5 145.9" class="st5"/></g><g><polygon points="11.5 154.8 30.6 159.3 30.6 156.3 11.5 151.8" class="st5"/></g><g><polygon points="11.5 160.8 30.6 165.4 30.6 162.3 11.5 157.8" class="st5"/></g><g><polygon points="11.5 167.3 30.6 171.8 30.6 168.8 11.5 164.3" class="st5"/></g><g><polygon points="11.5 173.3 30.6 177.8 30.6 174.8 11.5 170.3" class="st5"/></g></g></g><g><defs><polygon id="SVGID_00000047019861878924154610000016446949162362656685_" points="15.7 50.1 5 43.4 0 172 10.9 172"/></defs><clipPath id="SVGID_00000119113812213748289600000009649475807331209638_"><use xlink:href="#SVGID_00000047019861878924154610000016446949162362656685_" style="overflow:visible"/></clipPath><g style="clip-path:url(#SVGID_00000119113812213748289600000009649475807331209638_)"><g><rect width="19.4" height="3" x="-2" y="50" class="st5" transform="matrix(-1 -4.642610e-11 4.642610e-11 -1 15.3998 103)"/></g><g><rect width="19.4" height="3" x="-2" y="56" class="st5" transform="matrix(-1 -4.637902e-11 4.637902e-11 -1 15.3998 115)"/></g><g><rect width="19.4" height="3" x="-2" y="62" class="st5" transform="matrix(-1 -4.647317e-11 4.647317e-11 -1 15.3998 127)"/></g><g><rect width="19.4" height="3" x="-2" y="68" class="st5" transform="matrix(-1 -4.642610e-11 4.642610e-11 -1 15.3998 139)"/></g><g><rect width="19.4" height="3" x="-2" y="74" class="st5" transform="matrix(-1 -4.642610e-11 4.642610e-11 -1 15.3998 151)"/></g><g><rect width="19.4" height="3" x="-2" y="80" class="st5" transform="matrix(-1 -4.637902e-11 4.637902e-11 -1 15.3998 163)"/></g><g><rect width="19.4" height="3" x="-2" y="86" class="st5" transform="matrix(-1 -4.642610e-11 4.642610e-11 -1 15.3998 175)"/></g><g><rect width="19.4" height="3" x="-2" y="92" class="st5" transform="matrix(-1 -4.642610e-11 4.642610e-11 -1 15.3998 187)"/></g><g><rect width="19.4" height="3" x="-2" y="98" class="st5" transform="matrix(-1 -4.642610e-11 4.642610e-11 -1 15.3998 199)"/></g><g><rect width="19.4" height="3" x="-2" y="104" class="st5" transform="matrix(-1 -4.642610e-11 4.642610e-11 -1 15.3998 211)"/></g><g><rect width="19.4" height="3" x="-2" y="110" class="st5" transform="matrix(-1 -4.633195e-11 4.633195e-11 -1 15.3998 223)"/></g><g><rect width="19.4" height="3" x="-2" y="116" class="st5" transform="matrix(-1 -4.633195e-11 4.633195e-11 -1 15.3998 235)"/></g><g><rect width="19.4" height="3" x="-2" y="122" class="st5" transform="matrix(-1 -4.642610e-11 4.642610e-11 -1 15.3998 247)"/></g><g><rect width="19.4" height="3" x="-2" y="128" class="st5" transform="matrix(-1 -4.633195e-11 4.633195e-11 -1 15.3998 259)"/></g><g><rect width="19.4" height="3" x="-2" y="134" class="st5" transform="matrix(-1 -4.633195e-11 4.633195e-11 -1 15.3998 271)"/></g><g><rect width="19.4" height="3" x="-2" y="140" class="st5" transform="matrix(-1 -4.633195e-11 4.633195e-11 -1 15.3998 283)"/></g><g><rect width="19.4" height="3" x="-2" y="146" class="st5" transform="matrix(-1 -4.633195e-11 4.633195e-11 -1 15.3998 295)"/></g><g><rect width="19.4" height="3" x="-2" y="152" class="st5" transform="matrix(-1 -4.642610e-11 4.642610e-11 -1 15.3998 307)"/></g><g><rect width="19.4" height="3" x="-2" y="158" class="st5" transform="matrix(-1 -4.642610e-11 4.642610e-11 -1 15.3998 319)"/></g><g><rect width="19.4" height="3" x="-2" y="164" class="st5" transform="matrix(-1 -4.633195e-11 4.633195e-11 -1 15.3998 331)"/></g></g></g></g><g><polygon points="90.6 68 90.6 53.7 91.4 53.7 91.4 68 92 68 92 72.2 90 72.2 90 68" class="st7"/><polygon points="82.6 68 82.6 53.7 83.4 53.7 83.4 68 84 68 84 72.2 82 72.2 82 68" class="st7"/><g><polyline points="94 72 98 74.4 98 163 94 163 94 72" class="st8"/><linearGradient id="SVGID_00000034770691046645041140000012100908726651682744_" x1="63" x2="94" y1="117.5" y2="117.5" gradientUnits="userSpaceOnUse"><stop offset="0" style="stop-color:#2e60e8"/><stop offset="1" style="stop-color:#2e74db"/></linearGradient><rect x="63" y="72" style="fill:url(#SVGID_00000034770691046645041140000012100908726651682744_)" width="31" height="91"/><rect width="31" height="4" x="63" y="72" class="st7"/></g><g><rect width="7" height="3" x="66" y="79" class="st5" transform="matrix(-1 -4.313628e-11 4.313628e-11 -1 139 161)"/><g><rect width="7" height="3" x="66" y="85" class="st5" transform="matrix(-1 -4.313628e-11 4.313628e-11 -1 139 173)"/></g><g><rect width="7" height="3" x="66" y="91" class="st5" transform="matrix(-1 -4.313628e-11 4.313628e-11 -1 139 185)"/><g><rect width="7" height="3" x="66" y="97" class="st5" transform="matrix(-1 -4.313628e-11 4.313628e-11 -1 139 197)"/></g></g><g><rect width="7" height="3" x="66" y="103" class="st5" transform="matrix(-1 -4.313628e-11 4.313628e-11 -1 139 209)"/><g><rect width="7" height="3" x="66" y="109" class="st5" transform="matrix(-1 -4.313628e-11 4.313628e-11 -1 139 221)"/></g><g><rect width="7" height="3" x="66" y="115" class="st5" transform="matrix(-1 -4.313628e-11 4.313628e-11 -1 139 233)"/><g><rect width="7" height="3" x="66" y="121" class="st5" transform="matrix(-1 -4.313628e-11 4.313628e-11 -1 139 245)"/></g></g></g><g><rect width="7" height="3" x="66" y="127" class="st5" transform="matrix(-1 -4.313628e-11 4.313628e-11 -1 139 257)"/><g><rect width="7" height="3" x="66" y="133" class="st5" transform="matrix(-1 -4.313628e-11 4.313628e-11 -1 139 269)"/></g></g><g><rect width="7" height="3" x="66" y="139" class="st5" transform="matrix(-1 -4.313628e-11 4.313628e-11 -1 139 281)"/><g><rect width="7" height="3" x="66" y="145" class="st5" transform="matrix(-1 -4.313628e-11 4.313628e-11 -1 139 293)"/></g><g><rect width="7" height="3" x="66" y="151" class="st5" transform="matrix(-1 -4.313628e-11 4.313628e-11 -1 139 305)"/><g><rect width="7" height="3" x="66" y="157" class="st5" transform="matrix(-1 -4.313628e-11 4.313628e-11 -1 139 317)"/></g></g></g><g><rect width="7" height="3" x="75" y="79" class="st5" transform="matrix(-1 -4.313628e-11 4.313628e-11 -1 157 161)"/><g><rect width="7" height="3" x="75" y="85" class="st5" transform="matrix(-1 -4.313628e-11 4.313628e-11 -1 157 173)"/></g><g><rect width="7" height="3" x="75" y="91" class="st5" transform="matrix(-1 -4.313628e-11 4.313628e-11 -1 157 185)"/><g><rect width="7" height="3" x="75" y="97" class="st5" transform="matrix(-1 -4.313628e-11 4.313628e-11 -1 157 197)"/></g></g><g><rect width="7" height="3" x="75" y="103" class="st5" transform="matrix(-1 -4.313628e-11 4.313628e-11 -1 157 209)"/><g><rect width="7" height="3" x="75" y="109" class="st5" transform="matrix(-1 -4.313628e-11 4.313628e-11 -1 157 221)"/></g><g><rect width="7" height="3" x="75" y="115" class="st5" transform="matrix(-1 -4.313628e-11 4.313628e-11 -1 157 233)"/><g><rect width="7" height="3" x="75" y="121" class="st5" transform="matrix(-1 -4.313628e-11 4.313628e-11 -1 157 245)"/></g></g></g><g><rect width="7" height="3" x="75" y="127" class="st5" transform="matrix(-1 -4.313628e-11 4.313628e-11 -1 157 257)"/><g><rect width="7" height="3" x="75" y="133" class="st5" transform="matrix(-1 -4.313628e-11 4.313628e-11 -1 157 269)"/></g></g><g><rect width="7" height="3" x="75" y="139" class="st5" transform="matrix(-1 -4.313628e-11 4.313628e-11 -1 157 281)"/><g><rect width="7" height="3" x="75" y="145" class="st5" transform="matrix(-1 -4.313628e-11 4.313628e-11 -1 157 293)"/></g><g><rect width="7" height="3" x="75" y="151" class="st5" transform="matrix(-1 -4.313628e-11 4.313628e-11 -1 157 305)"/><g><rect width="7" height="3" x="75" y="157" class="st5" transform="matrix(-1 -4.313628e-11 4.313628e-11 -1 157 317)"/></g></g></g></g><g><rect width="7" height="3" x="84" y="79" class="st5" transform="matrix(-1 -4.313628e-11 4.313628e-11 -1 175 161)"/><g><rect width="7" height="3" x="84" y="85" class="st5" transform="matrix(-1 -4.313628e-11 4.313628e-11 -1 175 173)"/></g><g><rect width="7" height="3" x="84" y="91" class="st5" transform="matrix(-1 -4.313628e-11 4.313628e-11 -1 175 185)"/><g><rect width="7" height="3" x="84" y="97" class="st5" transform="matrix(-1 -4.313628e-11 4.313628e-11 -1 175 197)"/></g></g><g><rect width="7" height="3" x="84" y="103" class="st5" transform="matrix(-1 -4.313628e-11 4.313628e-11 -1 175 209)"/><g><rect width="7" height="3" x="84" y="109" class="st5" transform="matrix(-1 -4.313628e-11 4.313628e-11 -1 175 221)"/></g><g><rect width="7" height="3" x="84" y="115" class="st5" transform="matrix(-1 -4.313628e-11 4.313628e-11 -1 175 233)"/><g><rect width="7" height="3" x="84" y="121" class="st5" transform="matrix(-1 -4.313628e-11 4.313628e-11 -1 175 245)"/></g></g></g><g><rect width="7" height="3" x="84" y="127" class="st5" transform="matrix(-1 -4.313628e-11 4.313628e-11 -1 175 257)"/><g><rect width="7" height="3" x="84" y="133" class="st5" transform="matrix(-1 -4.313628e-11 4.313628e-11 -1 175 269)"/></g></g><g><rect width="7" height="3" x="84" y="139" class="st5" transform="matrix(-1 -4.313628e-11 4.313628e-11 -1 175 281)"/><g><rect width="7" height="3" x="84" y="145" class="st5" transform="matrix(-1 -4.313628e-11 4.313628e-11 -1 175 293)"/></g><g><rect width="7" height="3" x="84" y="151" class="st5" transform="matrix(-1 -4.313628e-11 4.313628e-11 -1 175 305)"/><g><rect width="7" height="3" x="84" y="157" class="st5" transform="matrix(-1 -4.313628e-11 4.313628e-11 -1 175 317)"/></g></g></g></g></g></g><g><linearGradient id="SVGID_00000073704490376781965860000005321685326093932696_" x1="4508.525" x2="4464.523" y1="153" y2="153" gradientTransform="matrix(1 0 0 1 -4430.7715 0)" gradientUnits="userSpaceOnUse"><stop offset="0" style="stop-color:#2e59bf"/><stop offset="1" style="stop-color:#593192"/></linearGradient><rect x="44" y="138" style="fill:url(#SVGID_00000073704490376781965860000005321685326093932696_)" width="31" height="30"/><rect width="31" height="3" x="44" y="138" class="st7"/><g><g><rect width="11" height="2" x="47" y="144" class="st5" transform="matrix(-1 -3.538781e-11 3.538781e-11 -1 105 290)"/></g><g><rect width="11" height="2" x="47" y="148" class="st5" transform="matrix(-1 -3.538781e-11 3.538781e-11 -1 105 298)"/></g><g><rect width="11" height="2" x="47" y="152" class="st5" transform="matrix(-1 -3.538781e-11 3.538781e-11 -1 105 306)"/></g><g><rect width="11" height="2" x="47" y="156" class="st5" transform="matrix(-1 -3.538781e-11 3.538781e-11 -1 105 314)"/></g><g><rect width="11" height="2" x="47" y="160" class="st5" transform="matrix(-1 -3.538781e-11 3.538781e-11 -1 105 322)"/></g><g><rect width="11" height="2" x="61" y="144" class="st5" transform="matrix(-1 -3.538781e-11 3.538781e-11 -1 133 290)"/></g><g><rect width="11" height="2" x="61" y="148" class="st5" transform="matrix(-1 -3.538781e-11 3.538781e-11 -1 133 298)"/></g><g><rect width="11" height="2" x="61" y="152" class="st5" transform="matrix(-1 -3.538781e-11 3.538781e-11 -1 133 306)"/></g><g><rect width="11" height="2" x="61" y="156" class="st5" transform="matrix(-1 -3.538781e-11 3.538781e-11 -1 133 314)"/></g><g><rect width="11" height="2" x="61" y="160" class="st5" transform="matrix(-1 -3.538781e-11 3.538781e-11 -1 133 322)"/></g></g></g><linearGradient id="SVGID_00000057869599946484825260000011448435671006825345_" x1="92.425" x2="71.475" y1="158.067" y2="146.107" gradientUnits="userSpaceOnUse"><stop offset="0" style="stop-color:#451088"/><stop offset="1" style="stop-color:#593179"/></linearGradient><polygon style="fill:url(#SVGID_00000057869599946484825260000011448435671006825345_)" points="79 128.8 87 141.7 82.3 172 79 172"/><g><linearGradient id="SVGID_00000117641024496456765110000007129604023016624056_" x1="135.5" x2="135.5" y1="31" y2="23" gradientUnits="userSpaceOnUse"><stop offset="0" style="stop-color:#2e65ca"/><stop offset="1" style="stop-color:#2e74db"/></linearGradient><rect x="135" y="23" style="fill:url(#SVGID_00000117641024496456765110000007129604023016624056_)" width="1" height="8"/><linearGradient id="SVGID_00000096045378636923996480000015656801654743942833_" x1="129.162" x2="142.54" y1="120.997" y2="120.997" gradientUnits="userSpaceOnUse"><stop offset="0" style="stop-color:#3651bf"/><stop offset="1" style="stop-color:#2e5bdb"/></linearGradient><polygon style="fill:url(#SVGID_00000096045378636923996480000015656801654743942833_)" points="138.5 70 142.5 172 129.2 172 132.6 70"/><linearGradient id="SVGID_00000008846173299548244390000002564765809752609921_" x1="129.105" x2="142.54" y1="121.156" y2="121.156" gradientUnits="userSpaceOnUse"><stop offset="0" style="stop-color:#2e59bf"/><stop offset="1" style="stop-color:#593192"/></linearGradient><polygon style="fill:url(#SVGID_00000008846173299548244390000002564765809752609921_)" points="138.5 70.1 142.5 170.5 129.1 172.2 132.6 70.1"/><linearGradient id="SVGID_00000093882884354290628140000012732354063604706725_" x1="135.5" x2="135.5" y1="76" y2="68" gradientUnits="userSpaceOnUse"><stop offset="0" style="stop-color:#4c3ea1"/><stop offset="1" style="stop-color:#2e3192"/></linearGradient><polygon style="fill:url(#SVGID_00000093882884354290628140000012732354063604706725_)" points="146 72.5 138.8 76 132.3 76 125 72.5 125 68 146 68"/><linearGradient id="SVGID_00000143599370594225173380000007539873803082066589_" x1="135.5" x2="135.5" y1="45" y2="30" gradientUnits="userSpaceOnUse"><stop offset="0" style="stop-color:#2e65ca"/><stop offset="1" style="stop-color:#2e74db"/></linearGradient><rect x="134" y="30" style="fill:url(#SVGID_00000143599370594225173380000007539873803082066589_)" width="3" height="15"/><linearGradient id="SVGID_00000043432589951432770180000008178219135997849518_" x1="135.5" x2="135.5" y1="61" y2="43" gradientUnits="userSpaceOnUse"><stop offset="0" style="stop-color:#2e65ca"/><stop offset="1" style="stop-color:#2e74db"/></linearGradient><polygon style="fill:url(#SVGID_00000043432589951432770180000008178219135997849518_)" points="135.4 43 133 44.1 133 61 135.5 61 138 61 138 44"/><linearGradient id="SVGID_00000060720066008273872130000017790622621070120083_" x1="135.509" x2="135.489" y1="60.429" y2="69.438" gradientUnits="userSpaceOnUse"><stop offset="0" style="stop-color:#2e59bf"/><stop offset="1" style="stop-color:#593192"/></linearGradient><path style="fill:url(#SVGID_00000060720066008273872130000017790622621070120083_)" d="M148,64.5c0,4.8-6.1,4.5-12.7,4.5 c-6.5,0-12.3,0.5-12.3-4.5c0-4.5,5.8-4.5,12.3-4.5C141.9,60,148,60,148,64.5z"/><linearGradient id="SVGID_00000023282548896356502400000005888018487251471529_" x1="135.5" x2="135.5" y1="72.059" y2="60.816" gradientUnits="userSpaceOnUse"><stop offset="0" style="stop-color:#4c3ea1"/><stop offset="1" style="stop-color:#2e3192"/></linearGradient><rect x="123" y="63" style="fill:url(#SVGID_00000023282548896356502400000005888018487251471529_)" width="25" height="7"/><path d="M147.6,67h-24.2c-0.2,0-0.4-0.2-0.4-0.4v-0.2c0-0.2,0.2-0.4,0.4-0.4h24.2c0.2,0,0.4,0.2,0.4,0.4v0.2 C148,66.8,147.8,67,147.6,67z" class="st20"/><linearGradient id="SVGID_00000134214108413915998300000007898054936270438573_" x1="131" x2="140" y1="55.5" y2="55.5" gradientUnits="userSpaceOnUse"><stop offset="0" style="stop-color:#4c3ea1"/><stop offset="1" style="stop-color:#2e3192"/></linearGradient><path style="fill:url(#SVGID_00000134214108413915998300000007898054936270438573_)" d="M139.6,56h-8.2c-0.2,0-0.4-0.2-0.4-0.4 v-0.2c0-0.2,0.2-0.4,0.4-0.4h8.2c0.2,0,0.4,0.2,0.4,0.4v0.2C140,55.8,139.8,56,139.6,56z"/><linearGradient id="SVGID_00000085209427823266956990000004624664901552210355_" x1="133" x2="138" y1="38.5" y2="38.5" gradientUnits="userSpaceOnUse"><stop offset="0" style="stop-color:#4c3ea1"/><stop offset="1" style="stop-color:#2e3192"/></linearGradient><path style="fill:url(#SVGID_00000085209427823266956990000004624664901552210355_)" d="M137.6,39h-4.2c-0.2,0-0.4-0.2-0.4-0.4 v-0.2c0-0.2,0.2-0.4,0.4-0.4h4.2c0.2,0,0.4,0.2,0.4,0.4v0.2C138,38.8,137.8,39,137.6,39z"/><linearGradient id="SVGID_00000157308338954834710180000007075457123087301248_" x1="131" x2="140" y1="53.5" y2="53.5" gradientUnits="userSpaceOnUse"><stop offset="0" style="stop-color:#4c3ea1"/><stop offset="1" style="stop-color:#2e3192"/></linearGradient><path style="fill:url(#SVGID_00000157308338954834710180000007075457123087301248_)" d="M139.6,54h-8.2c-0.2,0-0.4-0.2-0.4-0.4 v-0.2c0-0.2,0.2-0.4,0.4-0.4h8.2c0.2,0,0.4,0.2,0.4,0.4v0.2C140,53.8,139.8,54,139.6,54z"/><linearGradient id="SVGID_00000030467169764984830640000006895632901913236114_" x1="131" x2="140" y1="51.5" y2="51.5" gradientUnits="userSpaceOnUse"><stop offset="0" style="stop-color:#4c3ea1"/><stop offset="1" style="stop-color:#2e3192"/></linearGradient><path style="fill:url(#SVGID_00000030467169764984830640000006895632901913236114_)" d="M139.6,52h-8.2c-0.2,0-0.4-0.2-0.4-0.4 v-0.2c0-0.2,0.2-0.4,0.4-0.4h8.2c0.2,0,0.4,0.2,0.4,0.4v0.2C140,51.8,139.8,52,139.6,52z"/><linearGradient id="SVGID_00000019678627497232648840000005972872031337513915_" x1="131" x2="140" y1="49.5" y2="49.5" gradientUnits="userSpaceOnUse"><stop offset="0" style="stop-color:#4c3ea1"/><stop offset="1" style="stop-color:#2e3192"/></linearGradient><path style="fill:url(#SVGID_00000019678627497232648840000005972872031337513915_)" d="M139.6,50h-8.2c-0.2,0-0.4-0.2-0.4-0.4 v-0.2c0-0.2,0.2-0.4,0.4-0.4h8.2c0.2,0,0.4,0.2,0.4,0.4v0.2C140,49.8,139.8,50,139.6,50z"/><linearGradient id="SVGID_00000041285375224344805980000008344081758134840746_" x1="131" x2="140" y1="47.5" y2="47.5" gradientUnits="userSpaceOnUse"><stop offset="0" style="stop-color:#4c3ea1"/><stop offset="1" style="stop-color:#2e3192"/></linearGradient><path style="fill:url(#SVGID_00000041285375224344805980000008344081758134840746_)" d="M139.6,48h-8.2c-0.2,0-0.4-0.2-0.4-0.4 v-0.2c0-0.2,0.2-0.4,0.4-0.4h8.2c0.2,0,0.4,0.2,0.4,0.4v0.2C140,47.8,139.8,48,139.6,48z"/><linearGradient id="SVGID_00000085251369503845882040000004468293885085872028_" x1="133" x2="138" y1="36.5" y2="36.5" gradientUnits="userSpaceOnUse"><stop offset="0" style="stop-color:#4c3ea1"/><stop offset="1" style="stop-color:#2e3192"/></linearGradient><path style="fill:url(#SVGID_00000085251369503845882040000004468293885085872028_)" d="M137.6,37h-4.2c-0.2,0-0.4-0.2-0.4-0.4 v-0.2c0-0.2,0.2-0.4,0.4-0.4h4.2c0.2,0,0.4,0.2,0.4,0.4v0.2C138,36.8,137.8,37,137.6,37z"/><linearGradient id="SVGID_00000087413697158037114840000001133416826629856647_" x1="133" x2="138" y1="34.5" y2="34.5" gradientUnits="userSpaceOnUse"><stop offset="0" style="stop-color:#4c3ea1"/><stop offset="1" style="stop-color:#2e3192"/></linearGradient><path style="fill:url(#SVGID_00000087413697158037114840000001133416826629856647_)" d="M137.6,35h-4.2c-0.2,0-0.4-0.2-0.4-0.4 v-0.2c0-0.2,0.2-0.4,0.4-0.4h4.2c0.2,0,0.4,0.2,0.4,0.4v0.2C138,34.8,137.8,35,137.6,35z"/><linearGradient id="SVGID_00000156566661899929868490000010393665443878413757_" x1="133" x2="138" y1="32.5" y2="32.5" gradientUnits="userSpaceOnUse"><stop offset="0" style="stop-color:#4c3ea1"/><stop offset="1" style="stop-color:#2e3192"/></linearGradient><path style="fill:url(#SVGID_00000156566661899929868490000010393665443878413757_)" d="M137.6,33h-4.2c-0.2,0-0.4-0.2-0.4-0.4 v-0.2c0-0.2,0.2-0.4,0.4-0.4h4.2c0.2,0,0.4,0.2,0.4,0.4v0.2C138,32.8,137.8,33,137.6,33z"/></g><g><linearGradient id="SVGID_00000008132099779549365660000016573030766149129652_" x1="4398.711" x2="4429.711" y1="144.5" y2="144.5" gradientTransform="matrix(1 0 0 1 -4259.7114 0)" gradientUnits="userSpaceOnUse"><stop offset="0" style="stop-color:#2e60e8"/><stop offset="1" style="stop-color:#2e74db"/></linearGradient><rect x="139" y="121" style="fill:url(#SVGID_00000008132099779549365660000016573030766149129652_)" width="31" height="47"/><rect width="31" height="4" x="139" y="121" class="st2"/></g><g><linearGradient id="SVGID_00000108295917695083730990000009987447479900339621_" x1="166.821" x2="197.62" y1="119.263" y2="119.263" gradientUnits="userSpaceOnUse"><stop offset="0" style="stop-color:#2e59bf"/><stop offset="1" style="stop-color:#593192"/></linearGradient><path style="fill:url(#SVGID_00000108295917695083730990000009987447479900339621_)" d="M196.4,72.6c-0.3-4.2-5.9-6.1-14.2-6.1 s-13.8,1.9-14,6.1c0,0,0,0,0,0.1l-1.4,99.3l15.4,0l15.4,0L196.4,72.6C196.4,72.7,196.4,72.6,196.4,72.6z"/><g><defs><path id="SVGID_00000036945324240517602590000004304529189482026373_" d="M196.4,72.6c-0.3-4.2-5.9-6.1-14.2-6.1 s-13.8,1.9-14,6.1c0,0,0,0,0,0.1l-1.4,99.3h15.4h15.4L196.4,72.6C196.4,72.7,196.4,72.6,196.4,72.6z"/></defs><clipPath id="SVGID_00000017482758235980889340000014813171158231096727_"><use xlink:href="#SVGID_00000036945324240517602590000004304529189482026373_" style="overflow:visible"/></clipPath><path style="opacity:.4;clip-path:url(#SVGID_00000017482758235980889340000014813171158231096727_)" d="M182.2,76 c-7.2,0-14,1.3-16.2,3.3l0.8,2.9c2.4-2.1,6-3.3,15.4-3.3c7.2,0,13.9,1.4,16.2,3.3v-2.9C196.7,77.5,189.4,76,182.2,76z"/><path style="opacity:.4;clip-path:url(#SVGID_00000017482758235980889340000014813171158231096727_)" d="M182.2,81.7 c-7.2,0-13.2,1.3-15.4,3.3v2.9c2.4-2.1,8.2-3.3,15.4-3.3c7.2,0,13.1,1.4,15.4,3.3V85C195.9,83.2,189.4,81.7,182.2,81.7z"/><path style="opacity:.4;clip-path:url(#SVGID_00000017482758235980889340000014813171158231096727_)" d="M182.2,87.4 c-7.2,0-13.2,1.3-15.4,3.3v2.9c2.4-2.1,8.2-3.3,15.4-3.3c7.2,0,13.1,1.4,15.4,3.3v-2.9C195.9,88.9,189.4,87.4,182.2,87.4z"/><path style="opacity:.4;clip-path:url(#SVGID_00000017482758235980889340000014813171158231096727_)" d="M182.2,93.1 c-7.2,0-13.2,1.3-15.4,3.3v2.9c2.4-2.1,8.2-3.3,15.4-3.3c7.2,0,13.1,1.4,15.4,3.3v-2.9C195.9,94.6,189.4,93.1,182.2,93.1z"/><path style="opacity:.4;clip-path:url(#SVGID_00000017482758235980889340000014813171158231096727_)" d="M182.2,98.8 c-7.2,0-13.2,1.3-15.4,3.3v2.9c2.4-2.1,8.2-3.3,15.4-3.3c7.2,0,13.1,1.4,15.4,3.3v-2.9C195.9,100.3,189.4,98.8,182.2,98.8z"/><path style="opacity:.4;clip-path:url(#SVGID_00000017482758235980889340000014813171158231096727_)" d="M182.2,104.5 c-7.2,0-13.2,1.3-15.4,3.3v2.9c2.4-2.1,8.2-3.3,15.4-3.3c7.2,0,13.1,1.4,15.4,3.3v-2.9C195.9,106,189.4,104.5,182.2,104.5z"/><path style="opacity:.4;clip-path:url(#SVGID_00000017482758235980889340000014813171158231096727_)" d="M182.2,110.3 c-7.2,0-13.2,1.3-15.4,3.3v2.9c2.4-2.1,8.2-3.3,15.4-3.3c7.2,0,13.1,1.4,15.4,3.3v-2.9C195.9,111.8,189.4,110.3,182.2,110.3z"/><path style="opacity:.4;clip-path:url(#SVGID_00000017482758235980889340000014813171158231096727_)" d="M182.2,116 c-7.2,0-13.2,1.3-15.4,3.3v2.9c2.4-2.1,8.2-3.3,15.4-3.3c7.2,0,13.1,1.4,15.4,3.3v-2.9C195.9,117.5,189.4,116,182.2,116z"/><path style="opacity:.4;clip-path:url(#SVGID_00000017482758235980889340000014813171158231096727_)" d="M182.2,121.7 c-7.2,0-13.2,1.3-15.4,3.3v2.9c2.4-2.1,8.2-3.3,15.4-3.3c7.2,0,13.1,1.4,15.4,3.3V125C195.9,123.2,189.4,121.7,182.2,121.7z"/><path style="opacity:.4;clip-path:url(#SVGID_00000017482758235980889340000014813171158231096727_)" d="M182.2,127.4 c-7.2,0-13.2,1.3-15.4,3.3v2.9c2.4-2.1,8.2-3.3,15.4-3.3c7.2,0,13.1,1.4,15.4,3.3v-2.9C195.9,128.9,189.4,127.4,182.2,127.4z"/><path style="opacity:.4;clip-path:url(#SVGID_00000017482758235980889340000014813171158231096727_)" d="M182.2,133.1 c-7.2,0-13.2,1.3-15.4,3.3v2.9c2.4-2.1,8.2-3.3,15.4-3.3c7.2,0,13.1,1.4,15.4,3.3v-2.9C195.9,134.6,189.4,133.1,182.2,133.1z"/><path style="opacity:.4;clip-path:url(#SVGID_00000017482758235980889340000014813171158231096727_)" d="M182.2,138.8 c-7.2,0-13.2,1.3-15.4,3.3v2.9c2.4-2.1,8.2-3.3,15.4-3.3c7.2,0,13.1,1.4,15.4,3.3v-2.9C195.9,140.3,189.4,138.8,182.2,138.8z"/><path style="opacity:.4;clip-path:url(#SVGID_00000017482758235980889340000014813171158231096727_)" d="M182.2,144.5 c-7.2,0-13.2,1.3-15.4,3.3v2.9c2.4-2.1,8.2-3.3,15.4-3.3c7.2,0,13.1,1.4,15.4,3.3v-2.9C195.9,146,189.4,144.5,182.2,144.5z"/><path style="opacity:.4;clip-path:url(#SVGID_00000017482758235980889340000014813171158231096727_)" d="M182.2,150.2 c-7.2,0-13.2,1.3-15.4,3.3v2.9c2.4-2.1,8.2-3.3,15.4-3.3c7.2,0,13.1,1.4,15.4,3.3v-2.9C195.9,151.7,189.4,150.2,182.2,150.2z"/></g><linearGradient id="SVGID_00000012430894203167599430000001983367622787778715_" x1="164" x2="168.928" y1="119.6" y2="119.6" gradientUnits="userSpaceOnUse"><stop offset="0" style="stop-color:#2e59bf"/><stop offset="1" style="stop-color:#593192"/></linearGradient><polygon style="fill:url(#SVGID_00000012430894203167599430000001983367622787778715_)" points="167 172 168.9 67.2 167.5 68.5 164 172"/><linearGradient id="SVGID_00000109736631055541472830000012422311424690847138_" x1="1900.667" x2="1905.282" y1="119.6" y2="119.6" gradientTransform="matrix(-1 0 0 1 2100.6667 0)" gradientUnits="userSpaceOnUse"><stop offset="0" style="stop-color:#2e59bf"/><stop offset="1" style="stop-color:#593192"/></linearGradient><polygon style="fill:url(#SVGID_00000109736631055541472830000012422311424690847138_)" points="197 172 195.4 67.2 196.8 68.5 200 172"/></g><g><g><linearGradient id="SVGID_00000030470629139700359090000003341726966256101540_" x1="85.093" x2="147.584" y1="128" y2="128" gradientTransform="matrix(-1 0 0 1 237.8072 0)" gradientUnits="userSpaceOnUse"><stop offset="0" style="stop-color:#451088"/><stop offset="1" style="stop-color:#593179"/></linearGradient><polygon style="fill:url(#SVGID_00000030470629139700359090000003341726966256101540_)" points="90.2 96.8 94 84 122 84 152.7 172 113.9 172"/><polygon points="94 84 122 84 152.7 172 123.5 172" class="st36"/><linearGradient id="SVGID_00000145748394644342020250000007160546703560250798_" x1="114.353" x2="147.584" y1="128" y2="128" gradientTransform="matrix(-1 0 0 1 237.8072 0)" gradientUnits="userSpaceOnUse"><stop offset="0" style="stop-color:#3651bf"/><stop offset="1" style="stop-color:#2e5bdb"/></linearGradient><polygon style="opacity:.3;fill:url(#SVGID_00000145748394644342020250000007160546703560250798_)" points="90.2 96.8 94 84 123.5 172 113.9 172"/><g><linearGradient id="SVGID_00000046338034014952518350000005694146751774939545_" x1="618.596" x2="641.763" y1="95" y2="95" gradientTransform="matrix(-1 0 0 1 738.4041 0)" gradientUnits="userSpaceOnUse"><stop offset="0" style="stop-color:#451088"/><stop offset="1" style="stop-color:#593179"/></linearGradient><polygon style="fill:url(#SVGID_00000046338034014952518350000005694146751774939545_)" points="119.8 104 102.5 104 96.6 86 118.6 86"/><linearGradient id="SVGID_00000160882405798165609890000007507972034445812641_" x1="616.981" x2="635.173" y1="116" y2="116" gradientTransform="matrix(-1 0 0 1 738.4041 0)" gradientUnits="userSpaceOnUse"><stop offset="0" style="stop-color:#451088"/><stop offset="1" style="stop-color:#593179"/></linearGradient><polygon style="fill:url(#SVGID_00000160882405798165609890000007507972034445812641_)" points="121.4 126 109.6 126 103.2 106 120.1 106"/><linearGradient id="SVGID_00000034771804246461225180000010856558593896254848_" x1="603.524" x2="616.093" y1="116" y2="116" gradientTransform="matrix(-1 0 0 1 738.4041 0)" gradientUnits="userSpaceOnUse"><stop offset="0" style="stop-color:#451088"/><stop offset="1" style="stop-color:#593179"/></linearGradient><polygon style="fill:url(#SVGID_00000034771804246461225180000010856558593896254848_)" points="122.3 106 127.9 106 134.9 126 123.6 126"/><linearGradient id="SVGID_00000046313956196412524000000017568422256037922477_" x1="595.555" x2="614.449" y1="138.5" y2="138.5" gradientTransform="matrix(-1 0 0 1 738.4041 0)" gradientUnits="userSpaceOnUse"><stop offset="0" style="stop-color:#451088"/><stop offset="1" style="stop-color:#593179"/></linearGradient><polygon style="fill:url(#SVGID_00000046313956196412524000000017568422256037922477_)" points="124 128 135.7 128 142.8 149 125.2 149"/><linearGradient id="SVGID_00000026153274840655003210000000317673096820583093_" x1="615.393" x2="627.962" y1="138.5" y2="138.5" gradientTransform="matrix(-1 0 0 1 738.4041 0)" gradientUnits="userSpaceOnUse"><stop offset="0" style="stop-color:#451088"/><stop offset="1" style="stop-color:#593179"/></linearGradient><polygon style="fill:url(#SVGID_00000026153274840655003210000000317673096820583093_)" points="123 149 117.3 149 110.4 128 121.7 128"/><linearGradient id="SVGID_00000058574677132567943200000001935076629021705868_" x1="611.329" x2="617.771" y1="94.978" y2="94.978" gradientTransform="matrix(-1 0 0 1 738.4041 0)" gradientUnits="userSpaceOnUse"><stop offset="0" style="stop-color:#451088"/><stop offset="1" style="stop-color:#593179"/></linearGradient><polygon style="fill:url(#SVGID_00000058574677132567943200000001935076629021705868_)" points="127.1 104 121.9 104 120.6 86"/><linearGradient id="SVGID_00000145048302466883341170000011322136650247388559_" x1="588.051" x2="613.28" y1="161.5" y2="161.5" gradientTransform="matrix(-1 0 0 1 738.4041 0)" gradientUnits="userSpaceOnUse"><stop offset="0" style="stop-color:#451088"/><stop offset="1" style="stop-color:#593179"/></linearGradient><polygon style="fill:url(#SVGID_00000145048302466883341170000011322136650247388559_)" points="125.1 151 143.4 151 150.4 172 126.5 172"/><linearGradient id="SVGID_00000159436230255985122670000015902231389842368447_" x1="614.032" x2="620.491" y1="161.371" y2="161.371" gradientTransform="matrix(-1 0 0 1 738.4041 0)" gradientUnits="userSpaceOnUse"><stop offset="0" style="stop-color:#451088"/><stop offset="1" style="stop-color:#593179"/></linearGradient><polygon style="fill:url(#SVGID_00000159436230255985122670000015902231389842368447_)" points="117.9 151 123.1 151 124.4 171.7"/></g><g><polygon points="119.8 104 102.5 104 96.6 86 118.6 86" class="st2"/><polygon points="121.4 126 109.6 126 103.2 106 120.1 106" class="st2"/><polygon points="122.3 106 127.9 106 134.9 126 123.6 126" class="st2"/><polygon points="124 128 135.7 128 142.8 149 125.2 149" class="st2"/><polygon points="123 149 117.3 149 110.4 128 121.7 128" class="st2"/><polygon points="127.1 104 121.9 104 120.6 86" class="st2"/><polygon points="117.9 151 123.1 151 124.4 171.7" class="st2"/><polygon points="91.1 96.7 96.7 113.7 100.3 106.7 94 88" class="st7"/><polygon points="97.2 115.9 102.8 132.9 107.2 127 101 108" class="st7"/><polygon points="103.1 135 109 153.1 115.1 149.7 108.1 129.3" class="st7"/><polygon points="109.6 155.1 115.1 172 122.3 172 115.5 152.2" class="st7"/></g></g></g><linearGradient id="SVGID_00000100344921112656626750000006340436746736729233_" x1="68" x2="79" y1="150.401" y2="150.401" gradientUnits="userSpaceOnUse"><stop offset="0" style="stop-color:#451088"/><stop offset="1" style="stop-color:#593179"/></linearGradient><polygon style="fill:url(#SVGID_00000100344921112656626750000006340436746736729233_)" points="68 141 79 128.8 79 172 72.2 172"/><linearGradient id="SVGID_00000112612225753467835400000011891395642753952398_" x1="86.159" x2="64.582" y1="148.249" y2="154.773" gradientUnits="userSpaceOnUse"><stop offset="0" style="stop-color:#fff;stop-opacity:.3"/><stop offset="1" style="stop-color:#fff;stop-opacity:.1"/></linearGradient><polygon style="fill:url(#SVGID_00000112612225753467835400000011891395642753952398_)" points="68 141 79 128.8 79 172 72.2 172"/><g><g><linearGradient id="SVGID_00000022523984181196166040000014547530098452751035_" x1=".093" x2="62.584" y1="128" y2="128" gradientTransform="matrix(1 0 0 1 5.0142 0)" gradientUnits="userSpaceOnUse"><stop offset="0" style="stop-color:#451088"/><stop offset="1" style="stop-color:#593179"/></linearGradient><polygon style="fill:url(#SVGID_00000022523984181196166040000014547530098452751035_)" points="67.6 96.8 63.8 84 35.8 84 5.1 172 44 172"/><polygon points="63.8 84 35.8 84 5.1 172 34.4 172" class="st36"/><linearGradient id="SVGID_00000101067446180639620230000006891999127120795068_" x1="29.353" x2="62.584" y1="128" y2="128" gradientTransform="matrix(1 0 0 1 5.0142 0)" gradientUnits="userSpaceOnUse"><stop offset="0" style="stop-color:#3651bf"/><stop offset="1" style="stop-color:#2e5bdb"/></linearGradient><polygon style="opacity:.3;fill:url(#SVGID_00000101067446180639620230000006891999127120795068_)" points="67.6 96.8 63.8 84 34.4 172 44 172"/><g><linearGradient id="SVGID_00000108990701075588955740000000355993055592922770_" x1="533.596" x2="556.763" y1="95" y2="95" gradientTransform="matrix(1 0 0 1 -495.5827 0)" gradientUnits="userSpaceOnUse"><stop offset="0" style="stop-color:#451088"/><stop offset="1" style="stop-color:#593179"/></linearGradient><polygon style="fill:url(#SVGID_00000108990701075588955740000000355993055592922770_)" points="38 104 55.3 104 61.2 86 39.2 86"/><linearGradient id="SVGID_00000087394174303132270100000013820365414938191497_" x1="531.981" x2="550.173" y1="116" y2="116" gradientTransform="matrix(1 0 0 1 -495.5827 0)" gradientUnits="userSpaceOnUse"><stop offset="0" style="stop-color:#451088"/><stop offset="1" style="stop-color:#593179"/></linearGradient><polygon style="fill:url(#SVGID_00000087394174303132270100000013820365414938191497_)" points="36.4 126 48.2 126 54.6 106 37.7 106"/><linearGradient id="SVGID_00000166650075211882917490000011306048290154621080_" x1="518.524" x2="531.093" y1="116" y2="116" gradientTransform="matrix(1 0 0 1 -495.5827 0)" gradientUnits="userSpaceOnUse"><stop offset="0" style="stop-color:#451088"/><stop offset="1" style="stop-color:#593179"/></linearGradient><polygon style="fill:url(#SVGID_00000166650075211882917490000011306048290154621080_)" points="35.5 106 29.9 106 22.9 126 34.2 126"/><linearGradient id="SVGID_00000111174325712110008210000004634714615410866087_" x1="510.555" x2="529.449" y1="138.5" y2="138.5" gradientTransform="matrix(1 0 0 1 -495.5827 0)" gradientUnits="userSpaceOnUse"><stop offset="0" style="stop-color:#451088"/><stop offset="1" style="stop-color:#593179"/></linearGradient><polygon style="fill:url(#SVGID_00000111174325712110008210000004634714615410866087_)" points="33.9 128 22.1 128 15 149 32.6 149"/><linearGradient id="SVGID_00000002360918926050126280000011032718742912638102_" x1="530.393" x2="542.962" y1="138.5" y2="138.5" gradientTransform="matrix(1 0 0 1 -495.5827 0)" gradientUnits="userSpaceOnUse"><stop offset="0" style="stop-color:#451088"/><stop offset="1" style="stop-color:#593179"/></linearGradient><polygon style="fill:url(#SVGID_00000002360918926050126280000011032718742912638102_)" points="34.8 149 40.6 149 47.4 128 36.1 128"/><linearGradient id="SVGID_00000075851122411682222150000013916823765692869301_" x1="526.329" x2="532.771" y1="94.978" y2="94.978" gradientTransform="matrix(1 0 0 1 -495.5827 0)" gradientUnits="userSpaceOnUse"><stop offset="0" style="stop-color:#451088"/><stop offset="1" style="stop-color:#593179"/></linearGradient><polygon style="fill:url(#SVGID_00000075851122411682222150000013916823765692869301_)" points="30.7 104 36 104 37.2 86"/><linearGradient id="SVGID_00000066489901866488423350000013009694020438427312_" x1="503.051" x2="528.28" y1="161.5" y2="161.5" gradientTransform="matrix(1 0 0 1 -495.5827 0)" gradientUnits="userSpaceOnUse"><stop offset="0" style="stop-color:#451088"/><stop offset="1" style="stop-color:#593179"/></linearGradient><polygon style="fill:url(#SVGID_00000066489901866488423350000013009694020438427312_)" points="32.7 151 14.4 151 7.5 172 31.3 172"/><linearGradient id="SVGID_00000118373784609245687790000004086230491566284456_" x1="529.032" x2="535.491" y1="161.371" y2="161.371" gradientTransform="matrix(1 0 0 1 -495.5827 0)" gradientUnits="userSpaceOnUse"><stop offset="0" style="stop-color:#451088"/><stop offset="1" style="stop-color:#593179"/></linearGradient><polygon style="fill:url(#SVGID_00000118373784609245687790000004086230491566284456_)" points="39.9 151 34.7 151 33.4 171.7"/></g><g><polygon points="38 104 55.3 104 61.2 86 39.2 86" class="st2"/><polygon points="36.4 126 48.2 126 54.6 106 37.7 106" class="st2"/><polygon points="35.5 106 29.9 106 22.9 126 34.2 126" class="st2"/><polygon points="33.9 128 22.1 128 15 149 32.6 149" class="st2"/><polygon points="34.8 149 40.6 149 47.4 128 36.1 128" class="st2"/><polygon points="30.7 104 36 104 37.2 86" class="st2"/><polygon points="39.9 151 34.7 151 33.4 171.7" class="st2"/><polygon points="66.7 96.7 61.1 113.7 57.5 106.7 63.8 88" class="st7"/><polygon points="60.6 115.9 55 132.9 50.6 127 56.8 108" class="st7"/><polygon points="54.7 135 48.8 153.1 42.7 149.7 49.7 129.3" class="st7"/><polygon points="48.2 155.1 42.7 172 35.5 172 42.3 152.2" class="st7"/></g></g></g></g><polygon points="125.1 151 143.4 151 150.4 172 126.5 172" class="st2"/></svg>