<svg xmlns="http://www.w3.org/2000/svg" xmlns:xlink="http://www.w3.org/1999/xlink" id="Warstwa_1" x="0" y="0" version="1.1" viewBox="0 0 200 172" style="enable-background:new 0 0 200 172" xml:space="preserve"><style type="text/css">.st0{fill:url(#SVGID_1_)}.st1,.st2{enable-background:new}.st1{opacity:.8;fill:#bde6ff}.st2{opacity:.2}.st4{opacity:.3}.st5,.st7{enable-background:new}.st5{opacity:.5;fill:#fff}.st7{opacity:.15}.st8{fill:#373e9b}.st10{opacity:.3}.st10,.st11,.st20,.st21{enable-background:new}.st11{opacity:.1;fill:#fff}.st20,.st21{opacity:.8;fill:#2837bf}.st21{opacity:.7}.st22{opacity:.2}.st22,.st32,.st39,.st40,.st41{fill:#fff;enable-background:new}.st32{opacity:.3}.st39{opacity:.15}.st40{opacity:.6}.st41{opacity:.25}</style><g><g><linearGradient id="SVGID_1_" x1="14.2" x2="188.4" y1="-319.592" y2="-319.592" gradientTransform="matrix(1 0 0 -1 0 -212)" gradientUnits="userSpaceOnUse"><stop offset="0" style="stop-color:#1d7ee8"/><stop offset="1" style="stop-color:#2ea7db"/></linearGradient><path d="M137.2,45.1c-4.3,2.4-10.7,4.3-14.7,2.7c-6.1-2.4-15.4-3.6-17-2.4c-1.6,1.2-8.9,6-19.8,0.4 c-5.2-2.7-10.2-2.9-14-2.4L14.4,92.2L14.2,172h174.2v-70.2C188.4,101.8,158.1,67.6,137.2,45.1z" class="st0"/><path d="M85.6,45.7c10.9,5.6,18.1,0.8,19.8-0.4c1.6-1.2,10.9,0,16.9,2.4c4,1.6,10.4-0.3,14.7-2.7 c-5.5-6-10.4-11.1-13.9-14.6c-16.5-16.5-36.3,0-36.3,0L71.7,43.3C75.5,42.8,80.4,43,85.6,45.7z" class="st1"/></g><polygon points="19 119 30 119 30 86 53 86 53 107 64 107 64 73.5 83 60.6 83 114 86 114 86 82 106 82 106 102 118 102 118 59 134 59 134 102 151 102 151 76.4 163 87.6 163 116 171 116 171 107 188 107 188 172 19 172" class="st2"/><g><linearGradient id="SVGID_00000174592223571706868530000012187676122285689267_" x1="4317" x2="4347" y1="-360.5" y2="-360.5" gradientTransform="matrix(-1 0 0 -1 4486 -212)" gradientUnits="userSpaceOnUse"><stop offset="0" style="stop-color:#2e60e8"/><stop offset="1" style="stop-color:#2e74db"/></linearGradient><polygon style="fill:url(#SVGID_00000174592223571706868530000012187676122285689267_)" points="139 172 169 172 169 125 139 125"/><g><g class="st4"><rect width="1" height="1" x="165" y="165" class="st5"/><rect width="1" height="1" x="165" y="161" class="st5"/><rect width="1" height="1" x="161" y="165" class="st5"/><rect width="1" height="1" x="161" y="161" class="st5"/><rect width="1" height="1" x="156" y="165" class="st5"/><rect width="1" height="1" x="156" y="161" class="st5"/><rect width="1" height="1" x="152" y="165" class="st5"/><rect width="1" height="1" x="152" y="161" class="st5"/><rect width="1" height="1" x="147" y="165" class="st5"/><rect width="1" height="1" x="147" y="161" class="st5"/><rect width="1" height="1" x="143" y="165" class="st5"/><rect width="1" height="1" x="143" y="161" class="st5"/><rect width="1" height="1" x="165" y="158" class="st5"/><rect width="1" height="1" x="165" y="155" class="st5"/><rect width="1" height="1" x="161" y="158" class="st5"/><rect width="1" height="1" x="161" y="155" class="st5"/><rect width="1" height="1" x="156" y="158" class="st5"/><rect width="1" height="1" x="156" y="155" class="st5"/><rect width="1" height="1" x="152" y="158" class="st5"/><rect width="1" height="1" x="152" y="155" class="st5"/><rect width="1" height="1" x="147" y="158" class="st5"/><rect width="1" height="1" x="147" y="155" class="st5"/><rect width="1" height="1" x="143" y="158" class="st5"/><rect width="1" height="1" x="143" y="155" class="st5"/><rect width="1" height="1" x="165" y="152" class="st5"/><rect width="1" height="1" x="165" y="149" class="st5"/><rect width="1" height="1" x="161" y="152" class="st5"/><rect width="1" height="1" x="161" y="149" class="st5"/><rect width="1" height="1" x="156" y="152" class="st5"/><rect width="1" height="1" x="156" y="149" class="st5"/><rect width="1" height="1" x="152" y="152" class="st5"/><rect width="1" height="1" x="152" y="149" class="st5"/><rect width="1" height="1" x="147" y="152" class="st5"/><rect width="1" height="1" x="147" y="149" class="st5"/><rect width="1" height="1" x="143" y="152" class="st5"/><rect width="1" height="1" x="143" y="149" class="st5"/><rect width="1" height="1" x="165" y="145" class="st5"/><rect width="1" height="1" x="165" y="142" class="st5"/><rect width="1" height="1" x="161" y="145" class="st5"/><rect width="1" height="1" x="161" y="142" class="st5"/><rect width="1" height="1" x="156" y="145" class="st5"/><rect width="1" height="1" x="156" y="142" class="st5"/><rect width="1" height="1" x="152" y="145" class="st5"/><rect width="1" height="1" x="152" y="142" class="st5"/><rect width="1" height="1" x="147" y="145" class="st5"/><rect width="1" height="1" x="147" y="142" class="st5"/><rect width="1" height="1" x="143" y="145" class="st5"/><rect width="1" height="1" x="143" y="142" class="st5"/><rect width="1" height="1" x="165" y="139" class="st5"/><rect width="1" height="1" x="165" y="136" class="st5"/><rect width="1" height="1" x="161" y="139" class="st5"/><rect width="1" height="1" x="161" y="136" class="st5"/><rect width="1" height="1" x="156" y="139" class="st5"/><rect width="1" height="1" x="156" y="136" class="st5"/><rect width="1" height="1" x="152" y="139" class="st5"/><rect width="1" height="1" x="152" y="136" class="st5"/><rect width="1" height="1" x="147" y="139" class="st5"/><rect width="1" height="1" x="147" y="136" class="st5"/><rect width="1" height="1" x="143" y="139" class="st5"/><rect width="1" height="1" x="143" y="136" class="st5"/><rect width="1" height="1" x="165" y="132" class="st5"/><rect width="1" height="1" x="165" y="129" class="st5"/><rect width="1" height="1" x="161" y="132" class="st5"/><rect width="1" height="1" x="161" y="129" class="st5"/><rect width="1" height="1" x="156" y="132" class="st5"/><rect width="1" height="1" x="156" y="129" class="st5"/><rect width="1" height="1" x="152" y="132" class="st5"/><rect width="1" height="1" x="152" y="129" class="st5"/><rect width="1" height="1" x="147" y="132" class="st5"/><rect width="1" height="1" x="147" y="129" class="st5"/><rect width="1" height="1" x="143" y="132" class="st5"/><rect width="1" height="1" x="143" y="129" class="st5"/></g><g><g><linearGradient id="SVGID_00000049216970585164684250000017009526015549187210_" x1="169" x2="171" y1="-359.55" y2="-359.55" gradientTransform="matrix(1 0 0 -1 0 -212)" gradientUnits="userSpaceOnUse"><stop offset="0" style="stop-color:#3651bf"/><stop offset="1" style="stop-color:#2e5bdb"/></linearGradient><polygon style="fill:url(#SVGID_00000049216970585164684250000017009526015549187210_)" points="169 123.1 171 125.5 171 172 169 172"/></g><rect width="30" height="2" x="139" y="123" class="st2"/><rect width="30" height="49" x="139" y="123" class="st7"/></g></g></g><g><g><polyline points="145 80.9 148 83.3 148 172 145 172 145 81" class="st8"/><linearGradient id="SVGID_00000009565733789536314960000003840185837021656192_" x1="-442.213" x2="-411.213" y1="-338.5" y2="-338.5" gradientTransform="matrix(1 0 0 -1 556.2128 -212)" gradientUnits="userSpaceOnUse"><stop offset="0" style="stop-color:#2e60e8"/><stop offset="1" style="stop-color:#2e74db"/></linearGradient><rect x="114" y="81" style="fill:url(#SVGID_00000009565733789536314960000003840185837021656192_)" width="31" height="91"/><rect width="31" height="3" x="114" y="81" class="st10"/></g><polygon points="135 77 135 63 136 63 136 77 136 77 136 81 134 81 134 77" class="st10"/><polygon points="143 77 143 63 144 63 144 77 144 77 144 81 142 81 142 77" class="st10"/><g><rect width="6" height="3" x="117" y="88" class="st11"/><rect width="6" height="3" x="117" y="93" class="st11"/><rect width="6" height="3" x="117" y="98" class="st11"/><rect width="6" height="3" x="117" y="103" class="st11"/><rect width="6" height="3" x="117" y="108" class="st11"/><rect width="6" height="3" x="117" y="113" class="st11"/><rect width="6" height="3" x="117" y="118" class="st11"/><rect width="6" height="3" x="117" y="123" class="st11"/><rect width="6" height="3" x="117" y="128" class="st11"/><rect width="6" height="3" x="117" y="133" class="st11"/><rect width="6" height="3" x="117" y="138" class="st11"/><rect width="6" height="3" x="117" y="143" class="st11"/><rect width="6" height="3" x="117" y="148" class="st11"/><rect width="6" height="3" x="117" y="153" class="st11"/><rect width="6" height="3" x="126" y="88" class="st11"/><rect width="6" height="3" x="126" y="93" class="st11"/><rect width="6" height="3" x="126" y="98" class="st11"/><rect width="6" height="3" x="126" y="103" class="st11"/><rect width="6" height="3" x="126" y="108" class="st11"/><rect width="6" height="3" x="126" y="113" class="st11"/><rect width="6" height="3" x="126" y="118" class="st11"/><rect width="6" height="3" x="126" y="123" class="st11"/><rect width="6" height="3" x="126" y="128" class="st11"/><rect width="6" height="3" x="126" y="133" class="st11"/><rect width="6" height="3" x="126" y="138" class="st11"/><rect width="6" height="3" x="126" y="143" class="st11"/><rect width="6" height="3" x="126" y="148" class="st11"/><rect width="6" height="3" x="126" y="153" class="st11"/><rect width="6" height="3" x="135" y="88" class="st11"/><rect width="6" height="3" x="135" y="93" class="st11"/><rect width="6" height="3" x="135" y="98" class="st11"/><rect width="6" height="3" x="135" y="103" class="st11"/><rect width="6" height="3" x="135" y="108" class="st11"/><rect width="6" height="3" x="135" y="113" class="st11"/><rect width="6" height="3" x="135" y="118" class="st11"/><rect width="6" height="3" x="135" y="123" class="st11"/><rect width="6" height="3" x="135" y="128" class="st11"/><rect width="6" height="3" x="135" y="133" class="st11"/><rect width="6" height="3" x="135" y="138" class="st11"/><rect width="6" height="3" x="135" y="143" class="st11"/><rect width="6" height="3" x="135" y="148" class="st11"/><rect width="6" height="3" x="135" y="153" class="st11"/><rect width="6" height="3" x="117" y="158" class="st11"/><rect width="6" height="3" x="117" y="163" class="st11"/><rect width="6" height="3" x="126" y="158" class="st11"/><rect width="6" height="3" x="126" y="163" class="st11"/><rect width="6" height="3" x="135" y="158" class="st11"/><rect width="6" height="3" x="135" y="163" class="st11"/></g></g><g><g><g><linearGradient id="SVGID_00000161592985713757778310000006769001109446045347_" x1="3" x2="31" y1="-338" y2="-338" gradientTransform="matrix(1 0 0 -1 0 -212)" gradientUnits="userSpaceOnUse"><stop offset="0" style="stop-color:#2e59bf"/><stop offset="1" style="stop-color:#593192"/></linearGradient><rect x="3" y="80" style="fill:url(#SVGID_00000161592985713757778310000006769001109446045347_)" width="28" height="92"/><rect width="28" height="4" x="3" y="80" class="st10"/></g><linearGradient id="SVGID_00000004516457653253890640000000139034135177758391_" x1="0" x2="3" y1="-338.05" y2="-338.05" gradientTransform="matrix(1 0 0 -1 0 -212)" gradientUnits="userSpaceOnUse"><stop offset="0" style="stop-color:#2e59bf"/><stop offset="1" style="stop-color:#593192"/></linearGradient><polygon style="fill:url(#SVGID_00000004516457653253890640000000139034135177758391_)" points="0 84.1 0 172 3 172 3 80.1"/><polygon points="0 84.1 0 172 3 172 3 80.1" class="st7"/></g><rect width="2" height="4" x="10" y="76" class="st10"/><rect width="2" height="4" x="22" y="76" class="st10"/><rect width="1" height="14" x="22" y="62" class="st10"/><g><rect width="21" height="3" x="7" y="97" class="st11"/><rect width="21" height="3" x="7" y="102" class="st11"/><rect width="21" height="3" x="7" y="107" class="st11"/><rect width="21" height="3" x="7" y="87" class="st11"/><rect width="21" height="3" x="7" y="92" class="st11"/><rect width="21" height="3" x="7" y="122" class="st11"/><rect width="21" height="3" x="7" y="127" class="st11"/><rect width="21" height="3" x="7" y="132" class="st11"/><rect width="21" height="3" x="7" y="112" class="st11"/><rect width="21" height="3" x="7" y="117" class="st11"/><rect width="21" height="3" x="7" y="137" class="st11"/><rect width="21" height="3" x="7" y="152" class="st11"/><rect width="21" height="3" x="7" y="157" class="st11"/><rect width="21" height="3" x="7" y="162" class="st11"/><rect width="21" height="3" x="7" y="142" class="st11"/><rect width="21" height="3" x="7" y="147" class="st11"/></g></g><g><linearGradient id="SVGID_00000132052557474716596780000016180310226248852134_" x1="26.3" x2="49.1" y1="-250" y2="-250" gradientTransform="matrix(1 0 0 -1 0 -212)" gradientUnits="userSpaceOnUse"><stop offset="0" style="stop-color:#3651bf"/><stop offset="1" style="stop-color:#2e5bdb"/></linearGradient><path style="fill:url(#SVGID_00000132052557474716596780000016180310226248852134_)" d="M46.8,37.6l-0.1-0.9L38.9,32h-2.3 l-7.9,4.7l-0.1,0.7l-2.3,1.5c0,0,2.3,4.8,2.3,5.1h8.9h0.4h8.9c0-0.3,2.3-5,2.3-5L46.8,37.6z"/><linearGradient id="SVGID_00000018202302384467633500000013697947350541861774_" x1="27.644" x2="47.47" y1="-267" y2="-267" gradientTransform="matrix(1 0 0 -1 0 -212)" gradientUnits="userSpaceOnUse"><stop offset="0" style="stop-color:#3651bf"/><stop offset="1" style="stop-color:#2e5bdb"/></linearGradient><polygon style="fill:url(#SVGID_00000018202302384467633500000013697947350541861774_)" points="47.5 66 27.6 66 28.2 44 46.9 44"/><linearGradient id="SVGID_00000029735129661284172770000004964450161851094168_" x1="26.8" x2="48.3" y1="-290" y2="-290" gradientTransform="matrix(1 0 0 -1 0 -212)" gradientUnits="userSpaceOnUse"><stop offset="0" style="stop-color:#3651bf"/><stop offset="1" style="stop-color:#2e5bdb"/></linearGradient><polygon style="fill:url(#SVGID_00000029735129661284172770000004964450161851094168_)" points="48.3 91 26.8 91 27.4 65 47.7 65"/><linearGradient id="SVGID_00000171699165613142579760000008200602161661990279_" x1="25.964" x2="49.164" y1="-316.5" y2="-316.5" gradientTransform="matrix(1 0 0 -1 0 -212)" gradientUnits="userSpaceOnUse"><stop offset="0" style="stop-color:#3651bf"/><stop offset="1" style="stop-color:#2e5bdb"/></linearGradient><polygon style="fill:url(#SVGID_00000171699165613142579760000008200602161661990279_)" points="49.2 119 26 119 26.6 90 48.5 90"/><linearGradient id="SVGID_00000106856743752363842790000012242530780460820611_" x1="25" x2="49.067" y1="-353" y2="-353" gradientTransform="matrix(1 0 0 -1 0 -212)" gradientUnits="userSpaceOnUse"><stop offset="0" style="stop-color:#3651bf"/><stop offset="1" style="stop-color:#2e5bdb"/></linearGradient><polygon style="fill:url(#SVGID_00000106856743752363842790000012242530780460820611_)" points="49.1 163 25 162.9 25 152.2 25.6 119 48.2 119 49 152.1"/><linearGradient id="SVGID_00000007397831465134995110000005984839584153130922_" x1="36" x2="39" y1="-311" y2="-311" gradientTransform="matrix(1 0 0 -1 0 -212)" gradientUnits="userSpaceOnUse"><stop offset="0" style="stop-color:#3651bf"/><stop offset="1" style="stop-color:#2e5bdb"/></linearGradient><rect x="36" y="35" style="fill:url(#SVGID_00000007397831465134995110000005984839584153130922_)" width="3" height="128"/><polygon points="27.6 41.6 26.3 38.9 32 35.2 32 39.1" class="st20"/><polygon points="47.8 41.8 49.1 39 43 35.2 43 39.1" class="st20"/><rect width="4" height="128" x="39" y="35" class="st21"/><g><rect width="4" height="2" x="39" y="42" class="st22"/><rect width="4" height="2" x="39" y="45" class="st22"/><rect width="4" height="2" x="39" y="48" class="st22"/><rect width="4" height="2" x="39" y="36" class="st22"/><rect width="4" height="2" x="39" y="39" class="st22"/><rect width="4" height="2" x="39" y="57" class="st22"/><rect width="4" height="2" x="39" y="60" class="st22"/><rect width="4" height="2" x="39" y="63" class="st22"/><rect width="4" height="2" x="39" y="51" class="st22"/><rect width="4" height="2" x="39" y="54" class="st22"/><rect width="4" height="2" x="39" y="66" class="st22"/><rect width="4" height="2" x="39" y="75" class="st22"/><rect width="4" height="2" x="39" y="78" class="st22"/><rect width="4" height="2" x="39" y="81" class="st22"/><rect width="4" height="2" x="39" y="69" class="st22"/><rect width="4" height="2" x="39" y="72" class="st22"/><rect width="4" height="2" x="39" y="84" class="st22"/><rect width="4" height="2" x="39" y="87" class="st22"/><rect width="4" height="2" x="39" y="90" class="st22"/><rect width="4" height="2" x="39" y="99" class="st22"/><rect width="4" height="2" x="39" y="102" class="st22"/><rect width="4" height="2" x="39" y="105" class="st22"/><rect width="4" height="2" x="39" y="93" class="st22"/><rect width="4" height="2" x="39" y="96" class="st22"/><rect width="4" height="2" x="39" y="114" class="st22"/><rect width="4" height="2" x="39" y="117" class="st22"/><rect width="4" height="2" x="39" y="120" class="st22"/><rect width="4" height="2" x="39" y="108" class="st22"/><rect width="4" height="2" x="39" y="111" class="st22"/><rect width="4" height="2" x="39" y="123" class="st22"/><rect width="4" height="2" x="39" y="126" class="st22"/><rect width="4" height="2" x="39" y="129" class="st22"/><rect width="4" height="2" x="39" y="138" class="st22"/><rect width="4" height="2" x="39" y="141" class="st22"/><rect width="4" height="2" x="39" y="144" class="st22"/><rect width="4" height="2" x="39" y="132" class="st22"/><rect width="4" height="2" x="39" y="135" class="st22"/><rect width="4" height="2" x="39" y="147" class="st22"/><rect width="4" height="2" x="39" y="150" class="st22"/><rect width="4" height="2" x="39" y="153" class="st22"/><rect width="4" height="2" x="39" y="156" class="st22"/></g><rect width="4" height="128" x="32" y="35" class="st21"/><g><rect width="4" height="2" x="32" y="42" class="st22"/><rect width="4" height="2" x="32" y="45" class="st22"/><rect width="4" height="2" x="32" y="48" class="st22"/><rect width="4" height="2" x="32" y="36" class="st22"/><rect width="4" height="2" x="32" y="39" class="st22"/><rect width="4" height="2" x="32" y="57" class="st22"/><rect width="4" height="2" x="32" y="60" class="st22"/><rect width="4" height="2" x="32" y="63" class="st22"/><rect width="4" height="2" x="32" y="51" class="st22"/><rect width="4" height="2" x="32" y="54" class="st22"/><rect width="4" height="2" x="32" y="66" class="st22"/><rect width="4" height="2" x="32" y="75" class="st22"/><rect width="4" height="2" x="32" y="78" class="st22"/><rect width="4" height="2" x="32" y="81" class="st22"/><rect width="4" height="2" x="32" y="69" class="st22"/><rect width="4" height="2" x="32" y="72" class="st22"/><rect width="4" height="2" x="32" y="84" class="st22"/><rect width="4" height="2" x="32" y="87" class="st22"/><rect width="4" height="2" x="32" y="90" class="st22"/><rect width="4" height="2" x="32" y="99" class="st22"/><rect width="4" height="2" x="32" y="102" class="st22"/><rect width="4" height="2" x="32" y="105" class="st22"/><rect width="4" height="2" x="32" y="93" class="st22"/><rect width="4" height="2" x="32" y="96" class="st22"/><rect width="4" height="2" x="32" y="114" class="st22"/><rect width="4" height="2" x="32" y="117" class="st22"/><rect width="4" height="2" x="32" y="120" class="st22"/><rect width="4" height="2" x="32" y="108" class="st22"/><rect width="4" height="2" x="32" y="111" class="st22"/><rect width="4" height="2" x="32" y="123" class="st22"/><rect width="4" height="2" x="32" y="126" class="st22"/><rect width="4" height="2" x="32" y="129" class="st22"/><rect width="4" height="2" x="32" y="138" class="st22"/><rect width="4" height="2" x="32" y="141" class="st22"/><rect width="4" height="2" x="32" y="144" class="st22"/><rect width="4" height="2" x="32" y="132" class="st22"/><rect width="4" height="2" x="32" y="135" class="st22"/><rect width="4" height="2" x="32" y="147" class="st22"/><rect width="4" height="2" x="32" y="150" class="st22"/><rect width="4" height="2" x="32" y="153" class="st22"/><rect width="4" height="2" x="32" y="156" class="st22"/></g><linearGradient id="SVGID_00000096764503905923009130000017969877666850983341_" x1="25" x2="32" y1="-370" y2="-370" gradientTransform="matrix(1 0 0 -1 0 -212)" gradientUnits="userSpaceOnUse"><stop offset="0" style="stop-color:#2e3192"/><stop offset="1" style="stop-color:#4c3ea1"/></linearGradient><rect x="25" y="154" style="fill:url(#SVGID_00000096764503905923009130000017969877666850983341_)" width="7" height="8"/><rect width="5" height="8" x="26" y="155" class="st2"/><linearGradient id="SVGID_00000144326308886632214780000001103647772874124953_" x1="13.324" x2="25" y1="-373.5" y2="-373.5" gradientTransform="matrix(1 0 0 -1 0 -212)" gradientUnits="userSpaceOnUse"><stop offset="0" style="stop-color:#3651bf"/><stop offset="1" style="stop-color:#2e5bdb"/></linearGradient><polygon style="fill:url(#SVGID_00000144326308886632214780000001103647772874124953_)" points="25 151 25 172 13.3 172"/><linearGradient id="SVGID_00000128460814734240449570000006364321842695789970_" x1="43" x2="49" y1="-370" y2="-370" gradientTransform="matrix(1 0 0 -1 0 -212)" gradientUnits="userSpaceOnUse"><stop offset="0" style="stop-color:#2e3192"/><stop offset="1" style="stop-color:#4c3ea1"/></linearGradient><polygon style="fill:url(#SVGID_00000128460814734240449570000006364321842695789970_)" points="43 162 49 162 49 154 43 154"/><rect width="5" height="8" x="44" y="155" class="st2"/><linearGradient id="SVGID_00000069396162147667157530000013901015634480639153_" x1="25" x2="49" y1="-379" y2="-379" gradientTransform="matrix(1 0 0 -1 0 -212)" gradientUnits="userSpaceOnUse"><stop offset="0" style="stop-color:#2e3192"/><stop offset="1" style="stop-color:#4c3ea1"/></linearGradient><rect x="25" y="162" style="fill:url(#SVGID_00000069396162147667157530000013901015634480639153_)" width="24" height="10"/><linearGradient id="SVGID_00000040543980678399288180000003608150911396908701_" x1="-1898.176" x2="-1886.5" y1="-373.5" y2="-373.5" gradientTransform="matrix(-1 0 0 -1 -1836.5 -212)" gradientUnits="userSpaceOnUse"><stop offset="0" style="stop-color:#3651bf"/><stop offset="1" style="stop-color:#2e5bdb"/></linearGradient><polyline style="fill:url(#SVGID_00000040543980678399288180000003608150911396908701_)" points="50 172 61.7 172 50 151 50 172"/><linearGradient id="SVGID_00000149347328955849742970000001457922681464145036_" x1="32" x2="44" y1="417.5" y2="417.5" gradientTransform="matrix(1 0 0 1 0 -386)" gradientUnits="userSpaceOnUse"><stop offset="0" style="stop-color:#3651bf"/><stop offset="1" style="stop-color:#2e5bdb"/></linearGradient><polygon style="fill:url(#SVGID_00000149347328955849742970000001457922681464145036_)" points="43 31 43 32 39 32 39 30 38 30 38 32 37 32 37 30 36 30 36 32 33 32 33 31 32 31 32 32 32 33 33 33 36 33 36.4 33 38 33 39 33 43 33 44 33 44 31"/><linearGradient id="SVGID_00000182524209443598046690000006080755947251586983_" x1="27.792" x2="32" y1="-255" y2="-255" gradientTransform="matrix(1 0 0 -1 0 -212)" gradientUnits="userSpaceOnUse"><stop offset="0" style="stop-color:#2e3192"/><stop offset="1" style="stop-color:#4c3ea1"/></linearGradient><polygon style="fill:url(#SVGID_00000182524209443598046690000006080755947251586983_)" points="27.7 42 28.6 44 32 44 32 42"/><linearGradient id="SVGID_00000088107390056948977230000009884804983671527555_" x1="44" x2="47.646" y1="-255" y2="-255" gradientTransform="matrix(1 0 0 -1 0 -212)" gradientUnits="userSpaceOnUse"><stop offset="0" style="stop-color:#2e3192"/><stop offset="1" style="stop-color:#4c3ea1"/></linearGradient><polygon style="fill:url(#SVGID_00000088107390056948977230000009884804983671527555_)" points="47.7 42 46.8 44 44 44 44 42"/><polygon points="25 151 25 172 13.3 172" class="st11"/><polyline points="50 172 61.7 172 50 151 50 172" class="st11"/></g><g><g><linearGradient id="SVGID_00000041977077097424544570000009036196823337825682_" x1="163" x2="200" y1="-324" y2="-324" gradientTransform="matrix(1 0 0 -1 0 -212)" gradientUnits="userSpaceOnUse"><stop offset="0" style="stop-color:#2e59bf"/><stop offset="1" style="stop-color:#593192"/></linearGradient><polygon style="fill:url(#SVGID_00000041977077097424544570000009036196823337825682_)" points="195 83 195 69 190 69 190 52 173 52 173 69 168 69 168 83 163 83 163 172 168.8 172 173.7 172 190.1 172 195 172 200 172 200 83"/><g><rect width="4" height="3" x="172" y="73" class="st32"/><rect width="4" height="3" x="172" y="78" class="st32"/><rect width="4" height="3" x="172" y="83" class="st32"/><rect width="4" height="3" x="172" y="88" class="st11"/><rect width="4" height="3" x="172" y="93" class="st32"/><rect width="4" height="3" x="172" y="98" class="st32"/><rect width="4" height="3" x="172" y="103" class="st32"/><rect width="4" height="3" x="172" y="108" class="st11"/><rect width="4" height="3" x="172" y="113" class="st11"/><rect width="4" height="3" x="172" y="118" class="st32"/><rect width="4" height="3" x="172" y="123" class="st32"/><rect width="4" height="3" x="172" y="128" class="st32"/><rect width="4" height="3" x="172" y="133" class="st11"/><rect width="4" height="3" x="172" y="138" class="st11"/><rect width="4" height="3" x="177" y="73" class="st32"/><rect width="4" height="3" x="177" y="78" class="st32"/><rect width="4" height="3" x="177" y="83" class="st32"/><rect width="4" height="3" x="177" y="88" class="st11"/><rect width="4" height="3" x="177" y="93" class="st32"/><rect width="4" height="3" x="177" y="98" class="st32"/><rect width="4" height="3" x="177" y="103" class="st32"/><rect width="4" height="3" x="177" y="108" class="st11"/><rect width="4" height="3" x="177" y="113" class="st11"/><rect width="4" height="3" x="177" y="118" class="st32"/><rect width="4" height="3" x="177" y="123" class="st32"/><rect width="4" height="3" x="177" y="128" class="st32"/><rect width="4" height="3" x="177" y="133" class="st11"/><rect width="4" height="3" x="177" y="138" class="st11"/><rect width="4" height="3" x="182" y="73" class="st32"/><rect width="4" height="3" x="182" y="78" class="st32"/><rect width="4" height="3" x="182" y="83" class="st32"/><rect width="4" height="3" x="182" y="88" class="st11"/><rect width="4" height="3" x="177" y="58" class="st11"/><rect width="4" height="3" x="177" y="63" class="st11"/><rect width="4" height="3" x="177" y="68" class="st32"/><rect width="4" height="3" x="182" y="58" class="st11"/><rect width="4" height="3" x="182" y="63" class="st11"/><rect width="4" height="3" x="182" y="68" class="st32"/><rect width="4" height="3" x="182" y="93" class="st32"/><rect width="4" height="3" x="182" y="98" class="st32"/><rect width="4" height="3" x="182" y="103" class="st32"/><rect width="4" height="3" x="182" y="108" class="st11"/><rect width="4" height="3" x="182" y="113" class="st11"/><rect width="4" height="3" x="182" y="118" class="st32"/><rect width="4" height="3" x="182" y="123" class="st32"/><rect width="4" height="3" x="182" y="128" class="st32"/><rect width="4" height="3" x="182" y="133" class="st11"/><rect width="4" height="3" x="182" y="138" class="st11"/><rect width="4" height="3" x="187" y="73" class="st32"/><rect width="4" height="3" x="187" y="78" class="st32"/><rect width="4" height="3" x="187" y="83" class="st32"/><rect width="4" height="3" x="187" y="88" class="st11"/><rect width="4" height="3" x="187" y="93" class="st32"/><rect width="4" height="3" x="187" y="98" class="st32"/><rect width="4" height="3" x="187" y="103" class="st32"/><rect width="4" height="3" x="187" y="108" class="st11"/><rect width="4" height="3" x="187" y="113" class="st11"/><rect width="4" height="3" x="187" y="118" class="st32"/><rect width="4" height="3" x="187" y="123" class="st32"/><rect width="4" height="3" x="187" y="128" class="st32"/><rect width="4" height="3" x="187" y="133" class="st11"/><rect width="4" height="3" x="187" y="138" class="st11"/><rect width="4" height="3" x="172" y="143" class="st32"/><rect width="4" height="3" x="172" y="148" class="st32"/><rect width="4" height="3" x="172" y="153" class="st32"/><rect width="4" height="3" x="177" y="143" class="st32"/><rect width="4" height="3" x="177" y="148" class="st32"/><rect width="4" height="3" x="177" y="153" class="st32"/><rect width="4" height="3" x="182" y="143" class="st32"/><rect width="4" height="3" x="182" y="148" class="st32"/><rect width="4" height="3" x="182" y="153" class="st32"/><rect width="4" height="3" x="187" y="143" class="st32"/><rect width="4" height="3" x="187" y="148" class="st32"/><rect width="4" height="3" x="187" y="153" class="st32"/><rect width="4" height="3" x="177" y="54" class="st11"/><rect width="4" height="3" x="182" y="54" class="st11"/><rect width="4" height="3" x="172" y="158" class="st11"/><rect width="4" height="3" x="172" y="163" class="st11"/><rect width="4" height="3" x="177" y="158" class="st11"/><rect width="4" height="3" x="177" y="163" class="st11"/><rect width="4" height="3" x="182" y="158" class="st11"/><rect width="4" height="3" x="182" y="163" class="st11"/><rect width="4" height="3" x="187" y="158" class="st11"/><rect width="4" height="3" x="187" y="163" class="st11"/></g><g><rect width="4" height="3" x="195" y="85" class="st32"/><rect width="4" height="3" x="195" y="90" class="st11"/><rect width="4" height="3" x="195" y="95" class="st11"/><rect width="4" height="3" x="195" y="100" class="st11"/><rect width="4" height="3" x="195" y="105" class="st11"/><rect width="4" height="3" x="195" y="110" class="st32"/><rect width="4" height="3" x="195" y="115" class="st11"/><rect width="4" height="3" x="195" y="120" class="st11"/><rect width="4" height="3" x="195" y="125" class="st11"/><rect width="4" height="3" x="195" y="130" class="st11"/><rect width="4" height="3" x="195" y="135" class="st11"/><rect width="4" height="3" x="195" y="140" class="st11"/><rect width="4" height="3" x="195" y="145" class="st11"/><rect width="4" height="3" x="195" y="150" class="st32"/><rect width="4" height="3" x="195" y="155" class="st11"/><rect width="4" height="3" x="195" y="160" class="st11"/><rect width="4" height="3" x="195" y="165" class="st11"/></g><g><rect width="4" height="3" x="164" y="85" class="st11"/><rect width="4" height="3" x="164" y="90" class="st11"/><rect width="4" height="3" x="164" y="95" class="st11"/><rect width="4" height="3" x="164" y="100" class="st32"/><rect width="4" height="3" x="164" y="105" class="st11"/><rect width="4" height="3" x="164" y="110" class="st11"/><rect width="4" height="3" x="164" y="115" class="st11"/><rect width="4" height="3" x="164" y="120" class="st32"/><rect width="4" height="3" x="164" y="125" class="st11"/><rect width="4" height="3" x="164" y="130" class="st11"/><rect width="4" height="3" x="164" y="135" class="st11"/><rect width="4" height="3" x="164" y="140" class="st11"/><rect width="4" height="3" x="164" y="145" class="st32"/><rect width="4" height="3" x="164" y="150" class="st11"/><rect width="4" height="3" x="164" y="155" class="st11"/><rect width="4" height="3" x="164" y="160" class="st11"/><rect width="4" height="3" x="164" y="165" class="st11"/></g></g><rect width="3" height="103" x="168" y="69" class="st22"/><rect width="3" height="103" x="192" y="69" class="st22"/></g><g><g><linearGradient id="SVGID_00000096745352382287165060000010068194087353323139_" x1="30.072" x2="138.16" y1="-342" y2="-342" gradientTransform="matrix(1 0 0 -1 0 -212)" gradientUnits="userSpaceOnUse"><stop offset="0" style="stop-color:#451088"/><stop offset="1" style="stop-color:#593179"/></linearGradient><path style="fill:url(#SVGID_00000096745352382287165060000010068194087353323139_)" d="M133.2,161.1c1.9-0.3,5-3.1,5-3.1 l-1.4-0.1l-0.3-1.7c0,0-0.6,1.5-1.8,1.7c-0.9,0.1-11.7-4.1-11.7-4.1V144c1,0,1.3,0,1.7,0c2.9,0,4.9-2.7,4.9-2.7l-1.3-0.3l0.2-1.6 c0,0-1.4,1.5-4.3,1.2c-3-0.3-7.9-1.3-9.2-1.6v-9c1.2,0,2.2,0,2.4,0c1.2-0.2,3.2-2.2,3.2-2.2l-0.9-0.1l-0.2-1.1c0,0-0.1,1-0.9,1.1 s-3.6-0.9-13.2-5.4V122c0,0,3.2,0,4.1,0c2.2,0,3.8-2.4,3.8-2.4l-1.3-0.1l0.4-1.4c0,0-1,0.6-3.6,0.3c-2.6-0.3-3.6-0.3-3.8-0.4v-16 c1.6,0,2.9,0,3,0c0.9-0.1,2.4-1.4,2.4-1.4h-0.7l-0.1-0.9c0,0-0.3,0.7-0.9,0.8c-0.6,0.1-3-0.7-10.8-4.4 c-5.1-2.4-10.9-5.9-13.2-7.6c-0.5-0.3-0.1-0.5-0.1-0.5h-2.3c0,0,0.4,0.1-0.1,0.5c-2.4,1.6-7.1,5.1-12.3,7.6 c-7.9,3.7-10.2,4.5-10.8,4.4s-0.9-0.8-0.9-0.8l-0.1,0.9h-0.7c0,0,1.5,1.3,2.4,1.4c0.2,0,1.5,0,3.2,0v16c-0.4,0.1-1.6,0.4-4,0.7 c-2.6,0.3-3.9-0.4-3.9-0.4l0.4,1.4l-1.3,0.1c0,0,1.4,2.2,3.8,2.2c0.9,0,4.2,0,4.5,0v0.5c-10,4.5-13.1,5.5-13.8,5.4 c-0.8-0.1-1.3-1.2-1.3-1.2l-0.2,1.3l-1,0.1c0,0,2.1,1.7,3.4,1.9c0.2,0,2.4,0,2.4,0v9c-1.1,0.3-5.7,1.3-8.3,1.6 c-3,0.4-4.2-1.2-4.2-1.2l0.1,1.6l-1.3,0.3c0,0,2,2.5,4.3,2.6c0.3,0,1.6,0.1,2.4,0.1v9.3c-7.2,3.4-10.5,4.5-11.3,4.4 c-1.1-0.2-1.7-1.7-1.7-1.7l-0.3,1.7l-1.3,0.1c0,0,2.8,2.8,4.5,3.1c0.2,0,1,0.1,2.2,0.1l-2.9,11h99.3l-2.7-10.8 C132.1,161.2,133,161.1,133.2,161.1z"/><path d="M126.1,159c0-0.1-21.8-10.4-24.4-11.9c-13.2-7.7-18.3-13.3-18.3-13.3c-0.5,0.6-5,5.6-18.2,13 c-4.4,2.4-24.1,12.1-24.1,12.2h42.5H126.1z" class="st2"/><linearGradient id="SVGID_00000030456314008150765870000016144249474449034886_" x1="53.625" x2="113.325" y1="-359.7" y2="-359.7" gradientTransform="matrix(1 0 0 -1 0 -212)" gradientUnits="userSpaceOnUse"><stop offset="0" style="stop-color:#451088"/><stop offset="1" style="stop-color:#593179"/></linearGradient><path style="fill:url(#SVGID_00000030456314008150765870000016144249474449034886_)" d="M98.6,149.3 c-10.7-6.4-14.7-10.4-15.1-10.8c0,0-4.3,4.4-15.1,10.8c-6.5,3.9-13.2,6.3-14.7,7.6h59.7C112.2,156.4,105.1,153.2,98.6,149.3z"/><path d="M110.7,128c0,0-5.3-2.5-14.6-7.7c-8.3-4.2-12.7-8.5-12.7-8.5s-3.2,3.4-12.4,8.3c-8.7,5.1-14.8,8-14.8,8h54.5 V128z" class="st2"/><g><linearGradient id="SVGID_00000161620721918486878070000005097340885399372704_" x1="101.6" x2="101.6" y1="-338.2" y2="-338.2" gradientTransform="matrix(1 0 0 -1 0 -212)" gradientUnits="userSpaceOnUse"><stop offset="0" style="stop-color:#451088"/><stop offset="1" style="stop-color:#593179"/></linearGradient><path style="fill:url(#SVGID_00000161620721918486878070000005097340885399372704_)" d="M101.6,126.2L101.6,126.2L101.6,126.2z"/><linearGradient id="SVGID_00000012454107380422864610000015969195882742355386_" x1="65.345" x2="101.606" y1="-331.95" y2="-331.95" gradientTransform="matrix(1 0 0 -1 0 -212)" gradientUnits="userSpaceOnUse"><stop offset="0" style="stop-color:#451088"/><stop offset="1" style="stop-color:#593179"/></linearGradient><path style="fill:url(#SVGID_00000012454107380422864610000015969195882742355386_)" d="M101.6,126c-0.7,0-4.6-2.7-7.6-4.5 c-7-4.2-10.2-7.1-10.6-7.6c-0.6,0.7-3.6,3.4-10.6,7.6c-3,1.8-6.8,4.5-7.6,4.5c0.5,0,16.8,0,18.1,0l0,0l0,0l0,0l0,0 C84.8,126,101.1,126,101.6,126z"/><linearGradient id="SVGID_00000023261504640834659760000008179786815724811448_" x1="65.3" x2="65.3" y1="-338" y2="-338" gradientTransform="matrix(1 0 0 -1 0 -212)" gradientUnits="userSpaceOnUse"><stop offset="0" style="stop-color:#451088"/><stop offset="1" style="stop-color:#593179"/></linearGradient><path style="fill:url(#SVGID_00000023261504640834659760000008179786815724811448_)" d="M65.3,126L65.3,126L65.3,126z"/></g><path d="M103,101c0,0-5.8-2.9-10.4-5.5c-4.3-2.5-8.5-6-9.2-6.7l-0.1-0.1l-0.1,0.1c-0.7,0.7-5.5,4.8-9.1,6.8 c-7,3.9-9.3,5.4-9.3,5.4S103,101,103,101z" class="st2"/><linearGradient id="SVGID_00000111185738341656435910000015208651280575872138_" x1="69.263" x2="97.663" y1="-307.4" y2="-307.4" gradientTransform="matrix(1 0 0 -1 0 -212)" gradientUnits="userSpaceOnUse"><stop offset="0" style="stop-color:#451088"/><stop offset="1" style="stop-color:#593179"/></linearGradient><path style="fill:url(#SVGID_00000111185738341656435910000015208651280575872138_)" d="M90.9,96.1c-4.7-2.8-6.8-4.7-7.4-5.2 l-0.1-0.1l-0.1,0.1c-0.6,0.5-2.7,2.4-7.4,5.2c-2.9,1.7-5.5,3.6-6.8,3.9h28.4C96.5,99.7,93.8,97.8,90.9,96.1z"/><path d="M109.7,100.6l-0.1-0.9c0,0-0.4,0.8-1,0.8s-3.3-0.8-11-4.6c-5.1-2.4-10.5-5.8-12.8-7.4 c-0.1-0.1-0.3-0.3-0.3-0.4c0-0.1,0.1-0.2,0.1-0.2h-2.3c0,0,0.2,0.1,0.1,0.2c0,0.1-0.1,0.3-0.3,0.4c-2.4,1.7-7.4,5.3-12.5,7.7 c-7.9,3.7-9.8,4.2-10.3,4.2c-0.7,0-1.1-0.8-1.1-0.8l-0.1,0.9h-0.7c0,0,1.5,1.3,2.4,1.4c0.2,0,2.1,0,3.3,0c0,0,3.6-2.2,9.4-5.4 c6.5-3.6,10.2-7.4,10.8-7.9c0.6,0.5,4.7,4.3,11.2,7.8c5.8,3.2,10.6,5.5,10.6,5.5c1.3,0,2.7,0,2.9,0c0.9-0.1,2.4-1.4,2.4-1.4 L109.7,100.6z" class="st22"/><path d="M119.7,127.7l-0.2-1.1c0,0-0.1,1-0.9,1.1c-0.7,0.1-3.4-0.8-13.8-5.7c0.8,0,3.3,0,4.7,0 c2.2,0,3.8-2.4,3.8-2.4l-1.3-0.1l0.4-1.4c0,0-1.2,0.6-3.8,0.3c-2.5-0.3-3.5-0.3-3.6-0.4H94.3c0,0-4.9-2.8-8.6-6 c-0.4-0.3-0.7-1-0.7-1h-3c0,0-0.4,0.7-0.7,1c-4.1,3.4-8.3,5.9-8.3,6H63c0,0-1.9,0.5-4.1,0.7c-2.5,0.3-3.8-0.4-3.8-0.4l0.4,1.4 l-1.3,0.1c0,0,1.5,2.1,3.6,2.2c1.3,0,5.9,0,5.9,0c-10.3,4.7-14,5.9-14.9,5.9c-0.8,0-1.4-1.2-1.4-1.2l-0.2,1.3l-1,0.1 c0,0,2.3,1.9,3.6,1.9c0.2,0,0.9,0,2.1,0c0,0,7.6-3.5,12.4-6.2s13.5-7.6,15.5-9.1c1.8-1.4,3.3-2.7,3.6-3c0.3,0.3,1.9,1.6,3.7,3 c2.4,2,10.8,6.6,15.7,9.2c4.9,2.7,12.2,6.1,12.2,6.1c1,0,2.2,0,2.4,0c1.2-0.2,3.2-2.2,3.2-2.2L119.7,127.7z" class="st22"/><path d="M136.8,157.9l-0.3-1.7c0,0-0.6,1.5-1.8,1.7c-0.6,0.1-6.1-1.9-12-4.2c0,0-6.3-2.5-12.2-5.2 c-5.8-2.6-11.3-4.5-11.3-4.5h23.5c0.2,0,1.6,0,2,0c2.9,0,4.9-2.7,4.9-2.7l-1.3-0.3l0.2-1.6c0,0-1.3,1.6-4.6,1.2 c-3-0.3-7.7-1.3-8.9-1.6H92c0,0-2.5-0.6-5.8-3.7c-0.1-0.1-0.2-2.3-0.2-2.3h-5c0,0-0.2,2.5-0.3,2.6c-3.1,2.9-5.4,3.4-5.4,3.4H52 c-1.2,0.3-5.6,1.3-8.2,1.6c-3.2,0.4-4.3-1.2-4.3-1.2l0.1,1.6l-1.3,0.3c0,0,2,2.6,4.6,2.6c0.3,0,0.6,0.1,1.5,0.1h23.2 c0,0-5.5,1.8-11.3,4.4s-11.6,5-11.6,5c-7.5,3.5-10,4.3-10.9,4.3c-1.1-0.1-1.8-1.7-1.8-1.7l-0.3,1.7l-1.3,0.1c0,0,2.8,2.8,4.6,3.1 c0.2,0,0.9,0.1,2.2,0.1c0,0,10.3-5.2,23.3-11.7c15.9-8,22.5-14.8,22.9-15.5c0.5,0.9,10,9.1,21.7,15c13,6.5,25.7,12.4,25.7,12.4 c1.3,0,2.3-0.1,2.5-0.1c1.8-0.3,4.9-3.1,4.9-3.1L136.8,157.9z" class="st22"/><g><rect width="3" height="4" x="112" y="145" class="st39"/><rect width="3" height="4" x="116" y="145" class="st39"/><rect width="3" height="5" x="93" y="163" class="st39"/><rect width="3" height="5" x="97" y="163" class="st39"/><rect width="3" height="5" x="103" y="163" class="st39"/><rect width="3" height="5" x="107" y="163" class="st39"/><rect width="3" height="5" x="113" y="163" class="st39"/><rect width="3" height="5" x="117" y="163" class="st39"/><rect width="3" height="4" x="104" y="131" class="st39"/><rect width="3" height="4" x="108" y="131" class="st39"/><rect width="3" height="4" x="89" y="131" class="st39"/><rect width="3" height="4" x="93" y="131" class="st39"/><rect width="3" height="4" x="52" y="145" class="st39"/><rect width="3" height="4" x="48" y="145" class="st39"/><rect width="3" height="5" x="71" y="163" class="st39"/><rect width="3" height="5" x="67" y="163" class="st39"/><rect width="3" height="5" x="61" y="163" class="st39"/><rect width="3" height="5" x="57" y="163" class="st39"/><rect width="3" height="5" x="51" y="163" class="st39"/><rect width="3" height="5" x="47" y="163" class="st39"/><rect width="3" height="4" x="60" y="131" class="st39"/><rect width="3" height="4" x="56" y="131" class="st39"/><rect width="3" height="4" x="75" y="131" class="st39"/><rect width="3" height="4" x="71" y="131" class="st39"/></g><path d="M86.2,140.8c-2-1.6-2.7-2.2-2.7-2.3s0,0,0,0l0,0c-0.2,0.2-1.3,1.2-2.7,2.3c-2.9,2.3-6.4,4.7-6.4,4.7 s0.4,0,1.1-0.1c0.8-0.2,4.4-2.3,4.8-2.3c0.9,0.2,0.1,1,0.5,1.9s1.4,0.9,1.4,0.9s0,0.5,0.4,0.9c0.2,0.2,0.5,0.3,0.9,0.4 c0.2,0,0.7-0.1,1.1-0.4c0.4-0.4,0.4-0.9,0.4-0.9s1.1,0,1.4-0.9s-0.5-1.7,0.5-1.9c0.4,0,3.8,2.1,4.6,2.3c0.7,0.1,1.1,0.1,1.1,0.1 S89,143.2,86.2,140.8z" class="st40"/><path d="M85.2,115.5c-1-0.9-1.8-1.6-1.8-1.6s-0.8,0.8-1.8,1.6c-1.5,1.2-4.5,3.3-4.5,3.3s0.3,0,0.8-0.1 s3-1.6,3.3-1.6c0.6,0.1,0.1,0.7,0.3,1.3c0.3,0.7,1,0.7,1,0.7s0,0.3,0.3,0.6c0.2,0.2,0.4,0.2,0.5,0.3c0,0,0,0,0.1,0s0.1,0,0.1,0 c0.1,0,0.4-0.1,0.5-0.3c0.3-0.3,0.3-0.6,0.3-0.6s0.8,0,1-0.7c0.2-0.6-0.3-1.2,0.3-1.3c0.3,0,2.8,1.5,3.3,1.6s0.8,0.1,0.8,0.1 S86.7,116.7,85.2,115.5z" class="st40"/><g><rect width="3" height="4" x="84" y="150" class="st41"/><rect width="3" height="4" x="88" y="150" class="st41"/><rect width="3" height="4" x="92" y="150" class="st41"/><rect width="2" height="3" x="84" y="122" class="st41"/><rect width="2" height="3" x="87" y="122" class="st41"/><rect width="3" height="2" x="82" y="96" class="st41"/><rect width="3" height="4" x="80" y="150" class="st41"/><rect width="3" height="4" x="76" y="150" class="st41"/><rect width="3" height="4" x="72" y="150" class="st41"/><rect width="2" height="3" x="81" y="122" class="st41"/><rect width="2" height="3" x="78" y="122" class="st41"/></g><linearGradient id="SVGID_00000098201027667614331850000005874488379711134628_" x1="82.383" x2="84.533" y1="-299.05" y2="-299.05" gradientTransform="matrix(1 0 0 -1 0 -212)" gradientUnits="userSpaceOnUse"><stop offset="0" style="stop-color:#451088"/><stop offset="1" style="stop-color:#593179"/></linearGradient><path style="fill:url(#SVGID_00000098201027667614331850000005874488379711134628_)" d="M84.5,88l-0.1-0.3c0,0,0-0.8-0.4-1.1 c-0.2-0.2-0.3-0.5-0.3-0.5h-0.3h-0.3c0,0-0.1,0.4-0.3,0.5c-0.3,0.3-0.3,1.1-0.3,1.1L82.3,88H84.5z"/><path d="M84.7,91.9c-0.6-0.5-1.1-0.8-1.2-1l-0.1-0.1l-0.1,0.1c-0.2,0.2-0.5,0.4-1.1,0.9c-1.1,0.9-3.2,2.3-3.2,2.3 s0.3,0,0.6-0.1c0.4-0.1,2.1-1.1,2.4-1.1c0.4,0.1,0.1,0.5,0.2,0.9c0.2,0.5,0.7,0.5,0.7,0.5s0,0.2,0.2,0.4c0.1,0.1,0.2,0.1,0.3,0.2 c0,0,0,0,0.1,0s0.1,0,0.1,0c0.1,0,0.2-0.1,0.3-0.2c0.2-0.2,0.2-0.4,0.2-0.4s0.5,0,0.7-0.5S84.5,93,84.9,93c0.2,0,2,1,2.4,1.1 s0.5,0.1,0.5,0.1S85.8,92.7,84.7,91.9z" class="st40"/><path d="M85.4,132.5c0,0-0.1-1.4-0.8-2.2c-0.7-0.6-0.6-2.3-0.6-2.3h-1c0,0,0,1.6-0.6,2.2c-0.7,0.7-0.7,2.2-0.7,2.2 L81,133h5L85.4,132.5z" class="st40"/><path d="M93.2,114.6c0.1-0.5,0.2-0.6,0.2-0.6c0-0.1,0.2-0.4,0.3-0.3c0.1,0.1,0.3,0.1,0.3,0.1c0.1,0,0.5-0.2,0.5-0.2 s1.1-0.7,1.2-0.7s0.7-0.2,0.9-0.1c0.2,0,1.1,0.5,1.9-0.2c0.1-0.1,0.5-0.3,0.8-0.2c0.3,0,0.6,0,0.8-0.1c0.5-0.2,1.3,0,1.5,0 s0.7,0,1,0.2c0.8,0.5,0.4,0.9,0.3,1c-0.3,0.3-1.1,0.2-1.1,0.2l-0.3-0.1c0,0-0.2-0.4-0.2-0.3c0.5,0.2,1.9,0.2,1-0.4 c-0.1-0.1-1.2-0.1-1.1,0c0,0.1,0.2,0.5,0.2,0.5s0.3,0.5,0.3,0.6s0,0.2,0.1,0.2s0.5,0.1,0.6,0.2s0.2,0.4,0.3,0.5s0.5,0.4,0.5,0.5 s0,0.4-0.2,0.5s-0.6,0.6-0.9,0.4c0,0-0.2-0.2-0.2-0.3c0.1-0.2,0.3-0.4,0.3-0.4s-0.3-0.4-0.4-0.5c-0.1,0-1-0.1-1.1-0.2 c-0.1,0-0.8-0.4-1.1-0.2c-0.3,0.2-0.4,0.4-0.4,0.4s-0.3,0.5-0.4,0.7c-0.1,0.1-0.3,0.3-0.4,0.3s-0.2,0.1-0.5,0.1s-0.3-0.2-0.3-0.2 c0-0.1,0-0.1,0-0.2c0,0-0.1-0.1-0.2,0s-0.3,0.3-0.6,0.5c-0.3,0.2-0.9,0.1-1.1-0.1l0.4-0.6c0,0,0.3-0.2,0-0.2s-1,0.3-1.1,0.4 s-0.3,0.2-0.4,0.2s-1,0.1-1,0.1s-0.5-0.1-0.4-0.3c0.1-0.3,0.4-0.4,0.5-0.4s0.3,0,0.5-0.1c0.1,0-0.1,0-0.1,0 S93.1,115.1,93.2,114.6z" class="st40"/><path d="M73.8,114.6c-0.1-0.5-0.2-0.6-0.2-0.6s-0.2-0.4-0.3-0.3c-0.1,0.1-0.3,0.1-0.3,0.1l-0.5-0.2 c0,0-1.1-0.7-1.2-0.7s-0.7-0.2-0.9-0.1c-0.2,0-1.1,0.5-1.9-0.2c-0.1-0.1-0.5-0.3-0.8-0.2c-0.3,0-0.6,0-0.8-0.1 c-0.5-0.2-1.3,0-1.5,0s-0.7,0-1,0.2c-0.8,0.5-0.4,0.9-0.3,1c0.3,0.3,1.1,0.2,1.1,0.2c0.1,0,0.3-0.1,0.3-0.1s0.2-0.4,0.2-0.3 c-0.5,0.2-1.9,0.2-1-0.4c0.1-0.1,1.2-0.1,1.1,0c0,0.1-0.2,0.5-0.2,0.5s-0.3,0.5-0.3,0.6s0,0.2-0.1,0.2s-0.5,0.1-0.6,0.2 s-0.2,0.4-0.3,0.5s-0.5,0.4-0.5,0.5s0,0.4,0.2,0.5s0.6,0.6,0.9,0.4c0,0,0.2-0.2,0.2-0.3c-0.1-0.2-0.3-0.4-0.3-0.4 s0.3-0.4,0.4-0.5c0.1,0,1-0.1,1.1-0.2s0.8-0.4,1.1-0.2s0.4,0.4,0.4,0.4s0.3,0.5,0.4,0.7c0.1,0.1,0.3,0.3,0.4,0.3s0.2,0.1,0.5,0.1 s0.3-0.2,0.3-0.2c0-0.1,0-0.1,0-0.2c0,0,0.1-0.1,0.2,0s0.3,0.3,0.6,0.5c0.3,0.2,0.9,0.1,1.1-0.1l-0.4-0.6c0,0-0.3-0.2,0-0.2 s1,0.3,1.1,0.4s0.3,0.2,0.4,0.2s1,0.1,1,0.1s0.5-0.1,0.4-0.3c-0.1-0.3-0.4-0.4-0.5-0.4s-0.3,0-0.5-0.1c-0.1,0,0.1,0,0.1,0 S73.9,115.1,73.8,114.6z" class="st40"/><path d="M85,111l-0.2-0.9c0,0,0-1.2-0.5-1.7c-0.4-0.4-0.4-1.6-0.4-1.4h-0.7c0-0.1,0.1,1-0.4,1.5s-0.5,1.7-0.5,1.7 L82,111H85z" class="st40"/><path d="M84.5,88l-0.1-0.3c0,0,0-0.8-0.4-1.1c-0.2-0.2-0.3-0.5-0.3-0.5h-0.3h-0.3c0,0-0.1,0.4-0.3,0.5 c-0.3,0.3-0.3,1.1-0.3,1.1L82.3,88H84.5z" class="st40"/></g><rect width="10" height="11" x="78" y="160" class="st39"/><path d="M105,104v-1h-1v-1h-1v1h-2v-1h-1v1h-2v-1h-1v1h-2v-1h-1v1h-2v-1h-1v1h-2v-1h-1v1h-2v-1h-1v1h-3v-1h-1v1h-2 v-1h-1v1h-2v-1h-1v1h-2v-1h-1v1h-2v-1h-1v1h-2v-1h-1v1h-2v-1h-1v1v1v2v1v1h1v-1h2v1h1v-1h2v1h1v-1h2v1h1v-1h2v1h1v-1h2v1h1v-1h2v1 h1v-1h3v1h1v-1h2v1h1v-1h2v1h1v-1h2v1h1v-1h2v1h1v-1h2v1h1v-1h2v1h1v-1h1v-1h-1v-2H105z M64,106v-2h2v2H64z M67,106v-2h2v2H67z M70,106v-2h2v2H70z M73,106v-2h2v2H73z M76,106v-2h2v2H76z M79,106v-2h2v2H79z M82,106v-2h3v2H82z M86,106v-2h2v2H86z M89,106v-2 h2v2H89z M92,106v-2h2v2H92z M95,106v-2h2v2H95z M98,106v-2h2v2H98z M103,106h-2v-2h2V106z" class="st22"/></g></g></svg>