<svg xmlns="http://www.w3.org/2000/svg" xmlns:xlink="http://www.w3.org/1999/xlink" id="Warstwa_1" x="0" y="0" enable-background="new 0 0 200 172" version="1.1" viewBox="0 0 200 172" xml:space="preserve"><linearGradient id="SVGID_1_" x1="101.271" x2="101.271" y1="172" y2="24.766" gradientUnits="userSpaceOnUse"><stop offset="0" style="stop-color:#1d7ee8"/><stop offset="1" style="stop-color:#2ea7db"/></linearGradient><path fill="url(#SVGID_1_)" d="M15.2,108.9V172h172.1v-63.8c0-48.1-41.9-86.6-92.2-83.2C50,28,15.2,64.9,15.2,108.9z"/><polygon points="35 93 35 99 41 99 41 75 46 70 62 70 66 75 66 106 74 106 74 67 88.3 54.1 101 67 101 105 109 105 109 90 127 90 136 81 136 68 158 68 158 60 162 60 162 68 163 68 163 80 178 80 183 85.1 183 172 17 172 17 93" opacity=".2"/><rect width="200" height="14" y="158" opacity=".2"/><g><linearGradient id="SVGID_2_" x1="24" x2="72" y1="129.5" y2="129.5" gradientUnits="userSpaceOnUse"><stop offset="0" style="stop-color:#2e59bf"/><stop offset=".04" style="stop-color:#3057bd"/><stop offset="1" style="stop-color:#593192"/></linearGradient><polygon fill="url(#SVGID_2_)" points="24 168 72 168 72 91 24 91"/><rect width="48" height="4" x="24" y="91" opacity=".2" transform="matrix(-1 -4.816559e-11 4.816559e-11 -1 96 186)"/><rect width="48" height="77" x="24" y="91" opacity=".15" transform="matrix(-1 -4.630841e-11 4.630841e-11 -1 96 259)"/><g><g opacity=".8"><rect width="8" height="3" x="56" y="98" fill="#FFF" opacity=".1"/><g opacity=".8"><rect width="8" height="3" x="56" y="103" fill="#FFF" opacity=".1"/></g><g opacity=".8"><rect width="8" height="3" x="56" y="108" fill="#FFF" opacity=".1"/></g><g opacity=".8"><rect width="8" height="3" x="56" y="113" fill="#FFF" opacity=".1"/></g><g opacity=".8"><rect width="8" height="3" x="56" y="118" fill="#FFF" opacity=".1"/></g></g><g opacity=".8"><rect width="8" height="3" x="44" y="98" fill="#FFF" opacity=".1"/><g opacity=".8"><rect width="8" height="3" x="44" y="103" fill="#FFF" opacity=".1"/></g><g opacity=".8"><rect width="8" height="3" x="44" y="108" fill="#FFF" opacity=".1"/></g><g opacity=".8"><rect width="8" height="3" x="44" y="113" fill="#FFF" opacity=".1"/></g><g opacity=".8"><rect width="8" height="3" x="44" y="118" fill="#FFF" opacity=".1"/></g></g></g></g><g><linearGradient id="SVGID_3_" x1="4559" x2="4588" y1="121" y2="121" gradientTransform="matrix(-1 0 0 1 4742 0)" gradientUnits="userSpaceOnUse"><stop offset="0" style="stop-color:#2e60e8"/><stop offset="1" style="stop-color:#2e74db"/></linearGradient><polygon fill="url(#SVGID_3_)" points="154 144 183 144 183 98 154 98"/><g><g><g><linearGradient id="SVGID_4_" x1="183" x2="186" y1="119.5" y2="119.5" gradientUnits="userSpaceOnUse"><stop offset="0" style="stop-color:#3651bf"/><stop offset="1" style="stop-color:#2e5bdb"/></linearGradient><polygon fill="url(#SVGID_4_)" points="183 95 186 97.6 186 144 183 144"/></g><rect width="29" height="3" x="154" y="95" opacity=".2" transform="matrix(-1 -5.965063e-11 5.965063e-11 -1 337 193)"/><rect width="29" height="48" x="154" y="95" opacity=".15" transform="matrix(-1 -4.779567e-11 4.779567e-11 -1 337 238)"/></g><g opacity=".2"><rect width="2" height="2" x="158" y="101" fill="#FFF" transform="matrix(-1 -4.911284e-11 4.911284e-11 -1 318 204)"/><g><rect width="2" height="2" x="162" y="101" fill="#FFF" transform="matrix(-1 -4.911284e-11 4.911284e-11 -1 326 204)"/></g><rect width="2" height="2" x="166" y="101" fill="#FFF" transform="matrix(-1 -4.911284e-11 4.911284e-11 -1 334 204)"/><g><rect width="2" height="2" x="170" y="101" fill="#FFF" transform="matrix(-1 -4.911284e-11 4.911284e-11 -1 342 204)"/></g><rect width="2" height="2" x="174" y="101" fill="#FFF" transform="matrix(-1 -4.911284e-11 4.911284e-11 -1 350 204)"/><g><rect width="2" height="2" x="178" y="101" fill="#FFF" transform="matrix(-1 -4.911284e-11 4.911284e-11 -1 358 204)"/></g><rect width="2" height="2" x="158" y="105" fill="#FFF" transform="matrix(-1 -4.911284e-11 4.911284e-11 -1 318 212)"/><g><rect width="2" height="2" x="162" y="105" fill="#FFF" transform="matrix(-1 -4.911284e-11 4.911284e-11 -1 326 212)"/></g><rect width="2" height="2" x="166" y="105" fill="#FFF" transform="matrix(-1 -4.911284e-11 4.911284e-11 -1 334 212)"/><g><rect width="2" height="2" x="170" y="105" fill="#FFF" transform="matrix(-1 -4.911284e-11 4.911284e-11 -1 342 212)"/></g><rect width="2" height="2" x="174" y="105" fill="#FFF" transform="matrix(-1 -4.911284e-11 4.911284e-11 -1 350 212)"/><g><rect width="2" height="2" x="178" y="105" fill="#FFF" transform="matrix(-1 -4.911284e-11 4.911284e-11 -1 358 212)"/></g><rect width="2" height="2" x="158" y="109" fill="#FFF" transform="matrix(-1 -4.911284e-11 4.911284e-11 -1 318 220)"/><g><rect width="2" height="2" x="162" y="109" fill="#FFF" transform="matrix(-1 -4.911284e-11 4.911284e-11 -1 326 220)"/></g><rect width="2" height="2" x="166" y="109" fill="#FFF" transform="matrix(-1 -4.911284e-11 4.911284e-11 -1 334 220)"/><g><rect width="2" height="2" x="170" y="109" fill="#FFF" transform="matrix(-1 -4.911284e-11 4.911284e-11 -1 342 220)"/></g><rect width="2" height="2" x="174" y="109" fill="#FFF" transform="matrix(-1 -4.911284e-11 4.911284e-11 -1 350 220)"/><g><rect width="2" height="2" x="178" y="109" fill="#FFF" transform="matrix(-1 -4.911284e-11 4.911284e-11 -1 358 220)"/></g><rect width="2" height="2" x="158" y="113" fill="#FFF" transform="matrix(-1 -4.911284e-11 4.911284e-11 -1 318 228)"/><g><rect width="2" height="2" x="162" y="113" fill="#FFF" transform="matrix(-1 -4.911284e-11 4.911284e-11 -1 326 228)"/></g><rect width="2" height="2" x="166" y="113" fill="#FFF" transform="matrix(-1 -4.911284e-11 4.911284e-11 -1 334 228)"/><g><rect width="2" height="2" x="170" y="113" fill="#FFF" transform="matrix(-1 -4.911284e-11 4.911284e-11 -1 342 228)"/></g><rect width="2" height="2" x="174" y="113" fill="#FFF" transform="matrix(-1 -4.911284e-11 4.911284e-11 -1 350 228)"/><g><rect width="2" height="2" x="178" y="113" fill="#FFF" transform="matrix(-1 -4.911284e-11 4.911284e-11 -1 358 228)"/></g><rect width="2" height="2" x="158" y="117" fill="#FFF" transform="matrix(-1 -4.911284e-11 4.911284e-11 -1 318 236)"/><g><rect width="2" height="2" x="162" y="117" fill="#FFF" transform="matrix(-1 -4.911284e-11 4.911284e-11 -1 326 236)"/></g><rect width="2" height="2" x="166" y="117" fill="#FFF" transform="matrix(-1 -4.911284e-11 4.911284e-11 -1 334 236)"/><g><rect width="2" height="2" x="170" y="117" fill="#FFF" transform="matrix(-1 -4.911284e-11 4.911284e-11 -1 342 236)"/></g><rect width="2" height="2" x="174" y="117" fill="#FFF" transform="matrix(-1 -4.911284e-11 4.911284e-11 -1 350 236)"/><g><rect width="2" height="2" x="178" y="117" fill="#FFF" transform="matrix(-1 -4.911284e-11 4.911284e-11 -1 358 236)"/></g><rect width="2" height="2" x="158" y="121" fill="#FFF" transform="matrix(-1 -4.911284e-11 4.911284e-11 -1 318 244)"/><g><rect width="2" height="2" x="162" y="121" fill="#FFF" transform="matrix(-1 -4.911284e-11 4.911284e-11 -1 326 244)"/></g><rect width="2" height="2" x="166" y="121" fill="#FFF" transform="matrix(-1 -4.911284e-11 4.911284e-11 -1 334 244)"/><g><rect width="2" height="2" x="170" y="121" fill="#FFF" transform="matrix(-1 -4.911284e-11 4.911284e-11 -1 342 244)"/></g><rect width="2" height="2" x="174" y="121" fill="#FFF" transform="matrix(-1 -4.911284e-11 4.911284e-11 -1 350 244)"/><g><rect width="2" height="2" x="178" y="121" fill="#FFF" transform="matrix(-1 -4.911284e-11 4.911284e-11 -1 358 244)"/></g><rect width="2" height="2" x="158" y="125" fill="#FFF" transform="matrix(-1 -4.911284e-11 4.911284e-11 -1 318 252)"/><g><rect width="2" height="2" x="162" y="125" fill="#FFF" transform="matrix(-1 -4.911284e-11 4.911284e-11 -1 326 252)"/></g><rect width="2" height="2" x="166" y="125" fill="#FFF" transform="matrix(-1 -4.911284e-11 4.911284e-11 -1 334 252)"/><g><rect width="2" height="2" x="170" y="125" fill="#FFF" transform="matrix(-1 -4.911284e-11 4.911284e-11 -1 342 252)"/></g><rect width="2" height="2" x="174" y="125" fill="#FFF" transform="matrix(-1 -4.911284e-11 4.911284e-11 -1 350 252)"/><g><rect width="2" height="2" x="178" y="125" fill="#FFF" transform="matrix(-1 -4.911284e-11 4.911284e-11 -1 358 252)"/></g></g></g></g><g><linearGradient id="SVGID_5_" x1="9298.976" x2="9333.983" y1="109.171" y2="109.171" gradientTransform="matrix(1 0 0 1 -9293.9834 0)" gradientUnits="userSpaceOnUse"><stop offset="0" style="stop-color:#3651bf"/><stop offset="1" style="stop-color:#2e5bdb"/></linearGradient><path fill="url(#SVGID_5_)" d="M36,102V84h-5V60h-5.4l0-4.1l0.2,0c0.2,0,0.2-0.2,0.2-0.3c0-0.2-0.1-0.3-0.2-0.3l-0.5,0v-8.9h-0.4 v8.9l-0.4,0c-0.1,0-0.2,0.1-0.2,0.3c0,0.2,0.1,0.3,0.2,0.3l0.3,0l0.1,4.1h-6.4l0-3.6h0.1c0.2,0,0.3-0.1,0.3-0.3s-0.1-0.3-0.3-0.3 l-0.4,0v-7.6h-0.4v7.6l-0.4,0c-0.2,0-0.3,0.1-0.3,0.3s0.1,0.3,0.3,0.3h0.1l0,3.6H10v24H5l0,88h35v-70H36z"/><path d="M25.6,60l0-4.1c0.1,0,0.3,0,0.3-0.1c0.1-0.1,0.1-0.2,0.1-0.3c0-0.2-0.1-0.3-0.2-0.3l-0.5,0v-8.9h-0.4v8.9 l-0.4,0c-0.1,0-0.2,0.1-0.2,0.3c0,0.2,0.1,0.3,0.1,0.3c0.1,0,0.3,0,0.4,0l0.1,4.1h-6.4l0-3.6h0.1c0.2,0,0.3-0.1,0.3-0.3 s-0.1-0.3-0.3-0.3l-0.4,0v-7.6h-0.4v7.6l-0.4,0c-0.2,0-0.3,0.1-0.3,0.3s0.1,0.3,0.3,0.3h0.1l0,3.6H10v2h21l0-2H25.6z" opacity=".3"/><rect width="10.2" height="1.8" x="1" y="102.2" opacity=".3"/><linearGradient id="SVGID_6_" x1="9325.556" x2="9321.642" y1="105.063" y2="105.063" gradientTransform="matrix(1 0 0 1 -9293.9834 0)" gradientUnits="userSpaceOnUse"><stop offset="0" style="stop-color:#3651bf"/><stop offset="1" style="stop-color:#2e5bdb"/></linearGradient><rect width="3.9" height="41.5" x="27.7" y="84.3" fill="url(#SVGID_6_)"/><rect width="4" height="39.8" x="27.7" y="84.2" opacity=".3"/><rect width="4" height="2.4" x="27.7" y="84.2" opacity=".3"/><linearGradient id="SVGID_7_" x1="9337.983" x2="9333.983" y1="148" y2="148" gradientTransform="matrix(1 0 0 1 -9293.9834 0)" gradientUnits="userSpaceOnUse"><stop offset="0" style="stop-color:#3651bf"/><stop offset="1" style="stop-color:#2e5bdb"/></linearGradient><rect width="4" height="48" x="40" y="124" fill="url(#SVGID_7_)"/><g><g><linearGradient id="SVGID_8_" x1="9324.983" x2="9329.983" y1="71.972" y2="71.972" gradientTransform="matrix(1 0 0 1 -9293.9834 0)" gradientUnits="userSpaceOnUse"><stop offset="0" style="stop-color:#3651bf"/><stop offset="1" style="stop-color:#2e5bdb"/></linearGradient><polygon fill="url(#SVGID_8_)" points="36 84 31 84 31 59.9 36 62.2"/><linearGradient id="SVGID_9_" x1="9329.983" x2="9333.983" y1="93" y2="93" gradientTransform="matrix(1 0 0 1 -9293.9834 0)" gradientUnits="userSpaceOnUse"><stop offset="0" style="stop-color:#3651bf"/><stop offset="1" style="stop-color:#2e5bdb"/></linearGradient><rect width="4" height="18" x="36" y="84" fill="url(#SVGID_9_)"/><linearGradient id="SVGID_10_" x1="9333.983" x2="9337.983" y1="113" y2="113" gradientTransform="matrix(1 0 0 1 -9293.9834 0)" gradientUnits="userSpaceOnUse"><stop offset="0" style="stop-color:#3651bf"/><stop offset="1" style="stop-color:#2e5bdb"/></linearGradient><rect width="4" height="22" x="40" y="102" fill="url(#SVGID_10_)"/><rect width="4" height="18" x="36" y="84" opacity=".3"/><rect width="4" height="22" x="40" y="102" opacity=".3"/></g></g><polygon points="36 84 31 84 31 60 36 62.3" opacity=".3"/><polygon points="36 102 36 84 31 84 31 60 10 60 10 84 5 84 5 172 40 172 40 102" opacity=".1"/><g><linearGradient id="SVGID_11_" x1="9293.983" x2="9334.983" y1="128" y2="128" gradientTransform="matrix(1 0 0 1 -9293.9834 0)" gradientUnits="userSpaceOnUse"><stop offset="0" style="stop-color:#3651bf"/><stop offset="1" style="stop-color:#2e5bdb"/></linearGradient><polygon fill="url(#SVGID_11_)" points="28 124 28 84 10 84 10 102 0 102 0 172 41 172 41 124"/><g><g opacity=".8"><rect width="10" height="3" x="29" y="128" fill="#FFF" opacity=".1"/></g><g><g opacity=".8"><rect width="10" height="3" x="29" y="133" fill="#FFF" opacity=".1"/></g></g><g><g opacity=".8"><rect width="10" height="3" x="29" y="138" fill="#FFF" opacity=".1"/></g></g></g><g><g opacity=".8"><rect width="6" height="3" x="2" y="105" fill="#FFF" opacity=".1"/></g></g><g><g opacity=".8"><rect width="14" height="3" x="12" y="89" fill="#FFF" opacity=".1"/></g><g><g opacity=".8"><rect width="14" height="3" x="12" y="94" fill="#FFF" opacity=".1"/></g></g><g><g opacity=".8"><rect width="14" height="3" x="12" y="99" fill="#FFF" opacity=".1"/></g><g><g opacity=".8"><rect width="14" height="3" x="12" y="104" fill="#FFF" opacity=".1"/></g></g></g><g><g opacity=".8"><rect width="14" height="3" x="12" y="109" fill="#FFF" opacity=".1"/></g><g><g opacity=".8"><rect width="14" height="3" x="12" y="114" fill="#FFF" opacity=".1"/></g></g><g><g opacity=".8"><rect width="14" height="3" x="12" y="119" fill="#FFF" opacity=".1"/></g><g><g opacity=".8"><rect width="14" height="3" x="12" y="124" fill="#FFF" opacity=".1"/></g></g></g></g><g><g opacity=".8"><rect width="14" height="3" x="12" y="129" fill="#FFF" opacity=".1"/></g><g><g opacity=".8"><rect width="14" height="3" x="12" y="134" fill="#FFF" opacity=".1"/></g></g></g><g><g opacity=".8"><rect width="14" height="3" x="12" y="139" fill="#FFF" opacity=".1"/></g><g><g opacity=".8"><rect width="14" height="3" x="12" y="144" fill="#FFF" opacity=".1"/></g></g><g><g opacity=".8"><rect width="14" height="3" x="12" y="149" fill="#FFF" opacity=".1"/></g><g><g opacity=".8"><rect width="14" height="3" x="12" y="154" fill="#FFF" opacity=".1"/></g></g></g><g><g opacity=".8"><rect width="14" height="3" x="12" y="159" fill="#FFF" opacity=".1"/></g><g><g opacity=".8"><rect width="14" height="3" x="12" y="164" fill="#FFF" opacity=".1"/></g></g></g></g></g><g><g opacity=".8"><rect width="6" height="3" x="2" y="110" fill="#FFF" opacity=".1"/></g></g><g><g opacity=".8"><rect width="6" height="3" x="2" y="115" fill="#FFF" opacity=".1"/></g></g><g><g opacity=".8"><rect width="6" height="3" x="2" y="120" fill="#FFF" opacity=".1"/></g></g><g><g opacity=".8"><rect width="6" height="3" x="2" y="125" fill="#FFF" opacity=".1"/></g></g><g><g opacity=".8"><rect width="6" height="3" x="2" y="130" fill="#FFF" opacity=".1"/></g></g><g><g opacity=".8"><rect width="6" height="3" x="2" y="135" fill="#FFF" opacity=".1"/></g></g><g><g opacity=".8"><rect width="6" height="3" x="2" y="140" fill="#FFF" opacity=".1"/></g></g><g><g opacity=".8"><rect width="6" height="3" x="2" y="145" fill="#FFF" opacity=".1"/></g></g><g><g opacity=".8"><rect width="6" height="3" x="2" y="150" fill="#FFF" opacity=".1"/></g></g><g><g opacity=".8"><rect width="6" height="3" x="2" y="155" fill="#FFF" opacity=".1"/></g></g><g><g opacity=".8"><rect width="6" height="3" x="2" y="160" fill="#FFF" opacity=".1"/></g></g><g><g opacity=".8"><rect width="6" height="3" x="2" y="165" fill="#FFF" opacity=".1"/></g></g></g><g opacity=".6"><rect width="15" height="3" x="13" y="74" fill="#FFF" opacity=".1"/><rect width="15" height="3" x="13" y="79" fill="#FFF" opacity=".1"/><rect width="15" height="3" x="13" y="64" fill="#FFF" opacity=".1"/><rect width="15" height="3" x="13" y="69" fill="#FFF" opacity=".1"/></g><rect width="4" height="48" x="40" y="124" opacity=".3"/></g><g><linearGradient id="SVGID_12_" x1="96.5" x2="195.5" y1="125.5" y2="125.5" gradientUnits="userSpaceOnUse"><stop offset="0" style="stop-color:#3651bf"/><stop offset="1" style="stop-color:#2e5bdb"/></linearGradient><path fill="url(#SVGID_12_)" d="M186.4,120h-80.8c-0.1,0-0.2,0-0.2,0.1L96.5,131h99l-8.9-10.9C186.5,120,186.4,120,186.4,120z"/><linearGradient id="SVGID_13_" x1="96.5" x2="195.5" y1="125.5" y2="125.5" gradientUnits="userSpaceOnUse"><stop offset="0" style="stop-color:#4c3ea1"/><stop offset="1" style="stop-color:#2e3192"/></linearGradient><path fill="url(#SVGID_13_)" d="M186.4,120h-80.8c-0.1,0-0.2,0-0.2,0.1L96.5,131h99l-8.9-10.9C186.5,120,186.4,120,186.4,120z"/><path d="M186.4,120h-80.8c-0.1,0-0.2,0-0.2,0.1L96.5,131h99l-8.9-10.9C186.5,120,186.4,120,186.4,120z" opacity=".2"/><linearGradient id="SVGID_14_" x1="96.5" x2="195.5" y1="147" y2="147" gradientUnits="userSpaceOnUse"><stop offset="0" style="stop-color:#2e59bf"/><stop offset=".04" style="stop-color:#3057bd"/><stop offset="1" style="stop-color:#593192"/></linearGradient><rect width="99" height="32" x="96.5" y="131" fill="url(#SVGID_14_)"/><rect width="18.6" height="2.3" x="96.2" y="132" opacity=".3"/><rect width="18.6" height="1.3" x="96.2" y="135.4" opacity=".3"/><rect width="74" height="2" x="122" y="131" opacity=".3"/><rect width="74.5" height="1" x="120.7" y="135" opacity=".3"/><linearGradient id="SVGID_15_" x1="96" x2="121" y1="118" y2="118" gradientUnits="userSpaceOnUse"><stop offset="0" style="stop-color:#2e59bf"/><stop offset=".04" style="stop-color:#3057bd"/><stop offset="1" style="stop-color:#593192"/></linearGradient><rect width="25" height="90" x="96" y="73" fill="url(#SVGID_15_)"/><g><g><path d="M135,163v-18.1c0-2.5-3.5-4.5-3.5-4.5s-3.5,2-3.5,4.5V163H135z" opacity=".3"/><path d="M131.5,140.4c0,0-3.5,2-3.5,4.4v1.4c0-2.4,3.5-4.4,3.5-4.4s3.5,2,3.5,4.4v-1.4 C135,142.4,131.5,140.4,131.5,140.4z" opacity=".1"/><path fill="#FFF" d="M129,163v-16.2c0-0.4,0.2-0.7,0.5-0.7l0,0c0.3,0,0.5,0.3,0.5,0.7V163" opacity=".2"/><path fill="#FFF" d="M133,163v-16.2c0-0.4,0.2-0.7,0.5-0.7l0,0c0.3,0,0.5,0.3,0.5,0.7V163" opacity=".2"/><path fill="#FFF" d="M131,163v-18c0-0.4,0.2-1.3,0.5-1.3l0,0c0.3,0,0.5,0.8,0.5,1.3v18" opacity=".2"/></g></g><g><g><path d="M108,163v-21.1c0-1.1-2.5-5.3-2.5-5.3s-2.5,4.2-2.5,5.3V163" opacity=".3"/><path d="M105.5,136.6c0,0-2.5,4.1-2.5,5.2v0.6c0-1,2.5-4.2,2.5-4.2s2.5,3.2,2.5,4.2v-0.6 C108,140.8,105.5,136.6,105.5,136.6z" opacity=".1"/><g opacity=".3"><path fill="#FFF" d="M104,163v-20.5c0-0.2-0.2-0.8-0.5-0.8l0,0c-0.3,0-0.5,0.6-0.5,0.8V163H104z" opacity=".6"/><path fill="#FFF" d="M108,163v-19.9c0-0.2-0.2-1.3-0.5-1.3l0,0c-0.3,0-0.5,1.1-0.5,1.3V163H108z" opacity=".6"/><path fill="#FFF" d="M106,163v-22.4c0-0.2-0.2-0.8-0.5-0.8l0,0c-0.3,0-0.5,0.6-0.5,0.8V163H106z" opacity=".6"/></g></g><g><path d="M115,163v-21.2c0-1.1-2.5-5.3-2.5-5.3s-2.5,4.2-2.5,5.3V163" opacity=".3"/><path d="M112.6,136.6c0,0-2.4,4.1-2.4,5.2v0.6c0-1,2.4-4.2,2.4-4.2s2.4,3.2,2.4,4.2v-0.6 C115,140.8,112.6,136.6,112.6,136.6z" opacity=".1"/><g opacity=".3"><path fill="#FFF" d="M111,163v-19.9c0-0.2-0.2-1.3-0.5-1.3l0,0c-0.3,0-0.5,1.1-0.5,1.3V163H111z" opacity=".6"/><path fill="#FFF" d="M115,163v-20c0-0.2-0.2-1.3-0.5-1.3l0,0c-0.3,0-0.5,1.1-0.5,1.3v20L115,163z" opacity=".6"/><path fill="#FFF" d="M112.9,163v-22.5c0-0.2-0.2-0.8-0.4-0.8l0,0c-0.2,0-0.4,0.6-0.4,0.8V163H112.9z" opacity=".6"/></g></g></g><g><g><g><path d="M107,88v-6.8c0-1-1.5-5.2-1.5-5.2s-1.5,4.1-1.5,5.2V88" opacity=".3"/><path d="M105.5,75.8c0,0-1.5,4.1-1.5,5.2v0.6c0-1,1.5-4.2,1.5-4.2s1.5,3.2,1.5,4.2v-0.6 C107,79.9,105.5,75.8,105.5,75.8z" opacity=".1"/><g opacity=".3"><path fill="#FFF" d="M105,88v-7.3c0-0.1,0.2-0.7,0.5-0.7l0,0c0.3,0,0.5,0.5,0.5,0.7V88" opacity=".6"/></g></g></g><g><g><g><path d="M113,88v-6.8c0-1-1.5-5.2-1.5-5.2s-1.5,4.1-1.5,5.2V88" opacity=".3"/><path d="M111.5,75.8c0,0-1.5,4.1-1.5,5.2v0.6c0-1,1.5-4.2,1.5-4.2s1.5,3.2,1.5,4.2v-0.6 C113,79.9,111.5,75.8,111.5,75.8z" opacity=".1"/><g opacity=".3"><path fill="#FFF" d="M111,88v-7.3c0-0.1,0.2-0.7,0.5-0.7l0,0c0.3,0,0.5,0.5,0.5,0.7V88" opacity=".6"/></g></g></g></g></g><linearGradient id="SVGID_16_" x1="102" x2="104" y1="56" y2="56" gradientUnits="userSpaceOnUse"><stop offset="0" style="stop-color:#2e59bf"/><stop offset=".04" style="stop-color:#3057bd"/><stop offset="1" style="stop-color:#593192"/></linearGradient><polygon fill="url(#SVGID_16_)" points="104 49.6 104 62.4 102 62.4 102 49.6"/><linearGradient id="SVGID_17_" x1="114" x2="116" y1="56.12" y2="56.12" gradientUnits="userSpaceOnUse"><stop offset="0" style="stop-color:#2e59bf"/><stop offset=".04" style="stop-color:#3057bd"/><stop offset="1" style="stop-color:#593192"/></linearGradient><polygon fill="url(#SVGID_17_)" points="116 49.7 116 62.5 114 62.5 114 49.7"/><linearGradient id="SVGID_18_" x1="106" x2="108" y1="56" y2="56" gradientUnits="userSpaceOnUse"><stop offset="0" style="stop-color:#2e59bf"/><stop offset=".04" style="stop-color:#3057bd"/><stop offset="1" style="stop-color:#593192"/></linearGradient><polygon fill="url(#SVGID_18_)" points="108 49.6 108 62.4 106 62.4 106 49.6"/><linearGradient id="SVGID_19_" x1="110" x2="112" y1="56" y2="56" gradientUnits="userSpaceOnUse"><stop offset="0" style="stop-color:#2e59bf"/><stop offset=".04" style="stop-color:#3057bd"/><stop offset="1" style="stop-color:#593192"/></linearGradient><polygon fill="url(#SVGID_19_)" points="112 49.6 112 62.4 110 62.4 110 49.6"/><linearGradient id="SVGID_20_" x1="95.75" x2="121.25" y1="70" y2="70" gradientUnits="userSpaceOnUse"><stop offset="0" style="stop-color:#4c3ea1"/><stop offset="1" style="stop-color:#2e3192"/></linearGradient><path fill="url(#SVGID_20_)" d="M95.8,73v-0.4c2.8-0.1,6.2-5.6,6.2-5.6h13.5c0,0,2.5,5.5,5.8,5.6V73H95.8z"/><linearGradient id="SVGID_21_" x1="101.642" x2="116.153" y1="47.921" y2="47.921" gradientUnits="userSpaceOnUse"><stop offset="0" style="stop-color:#4c3ea1"/><stop offset="1" style="stop-color:#2e3192"/></linearGradient><path fill="url(#SVGID_21_)" d="M101.6,49.9v-0.3c5.6-0.2,6.1-3.7,6.1-3.7h2.3c0,0,0.1,3.6,6.2,3.7v0.3H101.6z"/><linearGradient id="SVGID_22_" x1="106.323" x2="111.472" y1="42.538" y2="42.538" gradientUnits="userSpaceOnUse"><stop offset="0" style="stop-color:#4c3ea1"/><stop offset="1" style="stop-color:#2e3192"/></linearGradient><path fill="url(#SVGID_22_)" d="M111.5,42.5c0,2.3-2.6,4.2-2.6,4.2s-2.6-1.9-2.6-4.2s2.6-4.2,2.6-4.2S111.5,40.2,111.5,42.5z"/><linearGradient id="SVGID_23_" x1="-1276.693" x2="-1274.857" y1="-480.459" y2="-480.459" gradientTransform="matrix(0.9806 0.1961 -0.1961 0.9806 1265.6721 758.9521)" gradientUnits="userSpaceOnUse"><stop offset="0" style="stop-color:#4c3ea1"/><stop offset="1" style="stop-color:#2e3192"/></linearGradient><circle cx="108.9" cy="37.6" r=".9" fill="url(#SVGID_23_)"/><linearGradient id="SVGID_24_" x1="108.654" x2="109.052" y1="35.781" y2="35.781" gradientUnits="userSpaceOnUse"><stop offset="0" style="stop-color:#4c3ea1"/><stop offset="1" style="stop-color:#2e3192"/></linearGradient><line x1="108.9" x2="108.9" y1="39.2" y2="32.4" fill="none" stroke="url(#SVGID_24_)" stroke-miterlimit="10" stroke-width=".398"/><linearGradient id="SVGID_25_" x1="106.428" x2="111.368" y1="31.672" y2="31.672" gradientUnits="userSpaceOnUse"><stop offset="0" style="stop-color:#4c3ea1"/><stop offset="1" style="stop-color:#2e3192"/></linearGradient><polyline fill="url(#SVGID_25_)" points="111.4 30.3 108.9 33.1 106.4 30.3"/><linearGradient id="SVGID_26_" x1="106.791" x2="106.791" y1="30.268" y2="29.008" gradientUnits="userSpaceOnUse"><stop offset="0" style="stop-color:#4c3ea1"/><stop offset="1" style="stop-color:#2e3192"/></linearGradient><polygon fill="url(#SVGID_26_)" points="105.8 30.3 107.7 30.3 107.7 29 107.3 29.9 106.8 29 106.3 29.9 105.8 29"/><linearGradient id="SVGID_27_" x1="111.004" x2="111.004" y1="30.268" y2="29.008" gradientUnits="userSpaceOnUse"><stop offset="0" style="stop-color:#4c3ea1"/><stop offset="1" style="stop-color:#2e3192"/></linearGradient><polygon fill="url(#SVGID_27_)" points="110 30.3 112 30.3 112 29 111.5 29.9 111 29 110.5 29.9 110 29"/><linearGradient id="SVGID_28_" x1="108.886" x2="108.886" y1="32.141" y2="30.88" gradientUnits="userSpaceOnUse"><stop offset="0" style="stop-color:#4c3ea1"/><stop offset="1" style="stop-color:#2e3192"/></linearGradient><polygon fill="url(#SVGID_28_)" points="107.7 32.1 110.1 32.1 110.1 30.9 109.5 31.8 108.9 30.9 108.3 31.8 107.7 30.9"/><linearGradient id="SVGID_29_" x1="191.137" x2="198.159" y1="138.965" y2="138.965" gradientUnits="userSpaceOnUse"><stop offset="0" style="stop-color:#2e59bf"/><stop offset=".04" style="stop-color:#3057bd"/><stop offset="1" style="stop-color:#593192"/></linearGradient><rect width="7" height="47.7" x="191.1" y="115.1" fill="url(#SVGID_29_)"/><linearGradient id="SVGID_30_" x1="121" x2="128" y1="139" y2="139" gradientUnits="userSpaceOnUse"><stop offset="0" style="stop-color:#2e59bf"/><stop offset=".04" style="stop-color:#3057bd"/><stop offset="1" style="stop-color:#593192"/></linearGradient><rect width="7" height="48" x="121" y="115" fill="url(#SVGID_30_)"/><linearGradient id="SVGID_31_" x1="189.733" x2="199.563" y1="104.794" y2="104.794" gradientUnits="userSpaceOnUse"><stop offset="0" style="stop-color:#4c3ea1"/><stop offset="1" style="stop-color:#2e3192"/></linearGradient><path fill="url(#SVGID_31_)" d="M189.7,104.8v-0.3l3.7-2l2.4,0.1l3.7,2v0.3h-1.4l-0.9,2.3c0,0-0.9-2.3-2.8-2.3 c-1.4,0-2.3,2.3-2.3,2.3l-0.9-2.3H189.7z"/><linearGradient id="SVGID_32_" x1="3780.642" x2="3785.564" y1="10096.14" y2="10096.14" gradientTransform="matrix(4.489700e-11 -1 1 4.489700e-11 -9901.5 3884.5)" gradientUnits="userSpaceOnUse"><stop offset="0" style="stop-color:#4c3ea1"/><stop offset="1" style="stop-color:#2e3192"/></linearGradient><path fill="url(#SVGID_32_)" d="M194.6,98.9c3.5-0.2,3.5,4.9,3.5,4.9s-1.2-0.8-3.5-0.8c-2.3,0-3.5,0.8-3.5,0.8 S190.7,99.2,194.6,98.9z"/><linearGradient id="SVGID_33_" x1="194.648" x2="194.648" y1="95.433" y2="95.433" gradientUnits="userSpaceOnUse"><stop offset="0" style="stop-color:#4c3ea1"/><stop offset="1" style="stop-color:#2e3192"/></linearGradient><line x1="194.6" x2="194.6" y1="98.7" y2="92.2" fill="url(#SVGID_33_)"/><linearGradient id="SVGID_34_" x1="-1181.478" x2="-1178.375" y1="-437.913" y2="-437.913" gradientTransform="matrix(0.9806 0.1961 -0.1961 0.9806 1265.6721 758.9521)" gradientUnits="userSpaceOnUse"><stop offset="0" style="stop-color:#4c3ea1"/><stop offset="1" style="stop-color:#2e3192"/></linearGradient><path fill="url(#SVGID_34_)" d="M195.8,97.3c-0.3,0,0,1.4,0,2.3c0,0.5-2.2,0.1-2.2,0c-0.1-0.4,0.3-2.3-0.1-2.3 c-0.9,0,0.4-1,0.9-0.9C194.9,96.5,196.8,97.3,195.8,97.3z"/><linearGradient id="SVGID_35_" x1="191.137" x2="193.009" y1="109.944" y2="109.944" gradientUnits="userSpaceOnUse"><stop offset="0" style="stop-color:#4c3ea1"/><stop offset="1" style="stop-color:#2e3192"/></linearGradient><polygon fill="url(#SVGID_35_)" points="193 104.8 193 115.1 191.1 115.1 191.1 104.8"/><linearGradient id="SVGID_36_" x1="196.286" x2="198.158" y1="109.944" y2="109.944" gradientUnits="userSpaceOnUse"><stop offset="0" style="stop-color:#4c3ea1"/><stop offset="1" style="stop-color:#2e3192"/></linearGradient><polygon fill="url(#SVGID_36_)" points="198.2 104.8 198.2 115.1 196.3 115.1 196.3 104.8"/><linearGradient id="SVGID_37_" x1="121.114" x2="127.886" y1="110.5" y2="110.5" gradientUnits="userSpaceOnUse"><stop offset="0" style="stop-color:#4c3ea1"/><stop offset="1" style="stop-color:#2e3192"/></linearGradient><polygon fill="url(#SVGID_37_)" points="121.5 111.4 124.3 106 127.6 111.4 127.9 115 121.1 115"/><rect width="7" height="1" x="121" y="115" opacity=".3"/><rect width="2" height="2" x="102" y="92" opacity=".1" transform="matrix(-1 -4.911284e-11 4.911284e-11 -1 206 186)"/><rect width="2" height="2" x="114" y="92" opacity=".1" transform="matrix(-1 -4.911284e-11 4.911284e-11 -1 230 186)"/><rect width="2" height="2" x="102" y="99" opacity=".1" transform="matrix(-1 -4.365587e-11 4.365587e-11 -1 206 200)"/><rect width="2" height="2" x="114" y="99" opacity=".1" transform="matrix(-1 -4.365587e-11 4.365587e-11 -1 230 200)"/><rect width="2" height="2" x="102" y="106" opacity=".1" transform="matrix(-1 -4.638435e-11 4.638435e-11 -1 206 214)"/><rect width="2" height="2" x="114" y="106" opacity=".1" transform="matrix(-1 -4.638435e-11 4.638435e-11 -1 230 214)"/><path d="M95.8,73v-0.4c2.8-0.1,6.2-5.6,6.2-5.6h13.5c0,0,2.5,5.5,5.8,5.6V73H95.8z" opacity=".2"/><linearGradient id="SVGID_38_" x1="100" x2="117" y1="64.5" y2="64.5" gradientUnits="userSpaceOnUse"><stop offset="0" style="stop-color:#4c3ea1"/><stop offset="1" style="stop-color:#2e3192"/></linearGradient><path fill="url(#SVGID_38_)" d="M100,62L100,62v1v2v0.3V67h17v-1.7V65v-2v-0.9V62H100z M112,63v2h-1v-2H112z M109,63v2h-1v-2H109z M106,63v2h-1v-2H106z M102,63h1v2h-1V63z M114,65v-2h1v2H114z"/><g><g><path d="M148,163v-18.1c0-2.5-3.5-4.5-3.5-4.5s-3.5,2-3.5,4.5V163H148z" opacity=".3"/><path d="M144.5,140.4c0,0-3.5,2-3.5,4.4v1.4c0-2.4,3.5-4.4,3.5-4.4s3.5,2,3.5,4.4v-1.4 C148,142.4,144.5,140.4,144.5,140.4z" opacity=".1"/><path fill="#FFF" d="M142,163v-16.2c0-0.4,0.2-0.7,0.5-0.7l0,0c0.3,0,0.5,0.3,0.5,0.7V163" opacity=".2"/><path fill="#FFF" d="M146,163v-16.2c0-0.4,0.2-0.7,0.5-0.7l0,0c0.3,0,0.5,0.3,0.5,0.7V163" opacity=".2"/><path fill="#FFF" d="M144,163v-18c0-0.4,0.2-1.3,0.5-1.3l0,0c0.3,0,0.5,0.8,0.5,1.3v18" opacity=".2"/></g></g><g><g><path d="M161,163v-18.1c0-2.5-3.5-4.5-3.5-4.5s-3.5,2-3.5,4.5V163H161z" opacity=".3"/><path d="M157.5,140.4c0,0-3.5,2-3.5,4.4v1.4c0-2.4,3.5-4.4,3.5-4.4s3.5,2,3.5,4.4v-1.4 C161,142.4,157.5,140.4,157.5,140.4z" opacity=".1"/><path fill="#FFF" d="M155,163v-16.2c0-0.4,0.2-0.7,0.5-0.7l0,0c0.3,0,0.5,0.3,0.5,0.7V163" opacity=".2"/><path fill="#FFF" d="M159,163v-16.2c0-0.4,0.2-0.7,0.5-0.7l0,0c0.3,0,0.5,0.3,0.5,0.7V163" opacity=".2"/><path fill="#FFF" d="M157,163v-18c0-0.4,0.2-1.3,0.5-1.3l0,0c0.3,0,0.5,0.8,0.5,1.3v18" opacity=".2"/></g></g><g><g><path d="M174,162.9v-18.1c0-2.5-3.5-4.4-3.5-4.4s-3.5,2-3.5,4.4v18.1H174z" opacity=".3"/><path d="M170.5,140.4c0,0-3.5,2-3.5,4.4v1.4c0-2.4,3.5-4.4,3.5-4.4s3.5,2,3.5,4.4v-1.4 C174,142.4,170.5,140.4,170.5,140.4z" opacity=".1"/><path fill="#FFF" d="M168,162.9v-16.1c0-0.4,0.2-0.7,0.5-0.7l0,0c0.3,0,0.5,0.3,0.5,0.7v16.1" opacity=".2"/><path fill="#FFF" d="M172,162.9v-16.1c0-0.4,0.2-0.7,0.5-0.7l0,0c0.3,0,0.5,0.3,0.5,0.7v16.1" opacity=".2"/><path fill="#FFF" d="M170,162.9V145c0-0.4,0.2-1.3,0.5-1.3l0,0c0.3,0,0.5,0.8,0.5,1.3v17.9" opacity=".2"/></g></g></g><g><linearGradient id="SVGID_39_" x1="24.593" x2="98.697" y1="142.558" y2="142.558" gradientUnits="userSpaceOnUse"><stop offset="0" style="stop-color:#451088"/><stop offset="1" style="stop-color:#593179"/></linearGradient><path fill="url(#SVGID_39_)" d="M98.7,157.5c0,2.5-0.2,4.9-0.7,7.2c-18.8,0-65.4,0-72.7-0.1c-0.4-2.3-0.7-4.6-0.7-7 c0-20.5,16.6-37.1,37.1-37.1S98.7,137,98.7,157.5z"/><g><rect width="1.6" height="1.6" x="58.9" y="147.5" fill="#FFF" opacity=".5"/><rect width="1.6" height="1.6" x="54.5" y="147.5" fill="#FFF" opacity=".5"/><rect width="1.6" height="1.6" x="62.8" y="147.5" fill="#FFF" opacity=".5"/><rect width="1.6" height="1.6" x="62.8" y="144" fill="#FFF" opacity=".5"/><rect width="1.6" height="1.6" x="58.9" y="144" fill="#FFF" opacity=".5"/><rect width="1.6" height="1.6" x="54.5" y="144" fill="#FFF" opacity=".5"/><rect width="1.6" height="1.6" x="67.2" y="147.5" fill="#FFF" opacity=".5"/><rect width="1.6" height="1.6" x="58.9" y="151.1" fill="#FFF" opacity=".5"/><rect width="1.6" height="1.6" x="54.5" y="151.1" fill="#FFF" opacity=".5"/><rect width="1.6" height="1.6" x="62.8" y="151.1" fill="#FFF" opacity=".5"/><rect width="1.6" height="1.6" x="67.2" y="151.1" fill="#FFF" opacity=".5"/><rect width="1.6" height="1.6" x="67.2" y="144" fill="#FFF" opacity=".5"/></g><g opacity=".3"><path fill="none" stroke="#000" stroke-miterlimit="10" stroke-width=".398" d="M46.1,164.5c-0.2-2.3-0.2-4.7-0.2-7.1 c0-20.3,7.1-36.7,15.8-36.7s15.8,16.4,15.8,36.7c0,2.4-0.1,4.8-0.3,7.1"/><path fill="none" stroke="#000" stroke-miterlimit="10" stroke-width=".398" d="M36.7,164.5c-0.3-2.3-0.4-4.7-0.4-7.1 c0-20.3,11.3-36.7,25.3-36.7s25.3,16.4,25.3,36.7c0,2.4-0.2,4.8-0.5,7.1"/><path fill="none" stroke="#000" stroke-miterlimit="10" stroke-width=".398" d="M31.8,164.5c-0.4-2.3-0.4-4.7-0.4-7.1 c0-20.3,13.6-36.7,30.3-36.7s30.3,16.4,30.3,36.7c0,2.4-0.2,4.8-0.6,7.1"/><path fill="none" stroke="#000" stroke-miterlimit="10" stroke-width=".398" d="M51.3,164.5c-0.1-2.3-0.2-4.7-0.2-7.1 c0-20.3,4.7-36.7,10.5-36.7s10.5,16.4,10.5,36.7c0,2.4-0.1,4.8-0.2,7.1"/><path fill="none" stroke="#000" stroke-miterlimit="10" stroke-width=".398" d="M57.4,164.5c-0.1-2.3-0.1-4.7-0.1-7.1 c0-20.3,1.9-36.7,4.3-36.7s4.3,16.4,4.3,36.7c0,2.4,0,4.8-0.1,7.1"/></g><g><rect width="1.6" height="1.6" x="38.1" y="147.5" fill="#FFF" opacity=".5" transform="matrix(-1 -4.223256e-11 4.223256e-11 -1 77.8653 296.6695)"/><rect width="1.6" height="1.6" x="42.9" y="147.5" fill="#FFF" opacity=".5" transform="matrix(-1 -4.223256e-11 4.223256e-11 -1 87.4271 296.6695)"/><rect width="1.6" height="1.6" x="34.2" y="147.5" fill="#FFF" opacity=".5" transform="matrix(-1 -4.223256e-11 4.223256e-11 -1 69.8972 296.6695)"/><rect width="1.6" height="1.6" x="34.9" y="144" fill="#FFF" opacity=".5" transform="matrix(-1 -4.793955e-11 4.793955e-11 -1 71.4908 289.4982)"/><rect width="1.6" height="1.6" x="39.3" y="144" fill="#FFF" opacity=".5" transform="matrix(-1 -4.565693e-11 4.565693e-11 -1 80.2557 289.4982)"/><rect width="1.6" height="1.6" x="43.7" y="144" fill="#FFF" opacity=".5" transform="matrix(-1 -4.565693e-11 4.565693e-11 -1 89.0207 289.4982)"/><rect width="1.6" height="1.6" x="29.8" y="147.5" fill="#FFF" opacity=".5" transform="matrix(-1 -4.223256e-11 4.223256e-11 -1 61.1322 296.6695)"/><rect width="1.6" height="1.6" x="37.3" y="151.1" fill="#FFF" opacity=".5" transform="matrix(-1 -4.337387e-11 4.337387e-11 -1 76.2717 303.8408)"/><rect width="1.6" height="1.6" x="41.7" y="151.1" fill="#FFF" opacity=".5" transform="matrix(-1 -4.565693e-11 4.565693e-11 -1 85.0366 303.8408)"/><rect width="1.6" height="1.6" x="33.4" y="151.1" fill="#FFF" opacity=".5" transform="matrix(-1 -4.565693e-11 4.565693e-11 -1 68.3036 303.8408)"/><rect width="1.6" height="1.6" x="29" y="151.1" fill="#FFF" opacity=".5" transform="matrix(-1 -4.565693e-11 4.565693e-11 -1 59.5386 303.8408)"/><rect width="1.6" height="1.6" x="30.6" y="144" fill="#FFF" opacity=".5" transform="matrix(-1 -4.565693e-11 4.565693e-11 -1 62.7259 289.4982)"/></g><linearGradient id="SVGID_40_" x1="25" x2="98" y1="167" y2="167" gradientUnits="userSpaceOnUse"><stop offset="0" style="stop-color:#451088"/><stop offset="1" style="stop-color:#593179"/></linearGradient><rect width="73" height="10" x="25" y="162" fill="url(#SVGID_40_)"/><rect width="73" height="10" x="25" y="162" opacity=".3"/><g><rect width="6" height="7" x="34" y="165" opacity=".15"/></g><g><rect width="6" height="7" x="46" y="165" opacity=".15"/></g><g><rect width="6" height="7" x="69" y="165" opacity=".15"/></g><g><rect width="6" height="7" x="82" y="165" opacity=".15"/></g><g><rect width="1.6" height="1.6" x="83.6" y="147.5" fill="#FFF" opacity=".5"/><rect width="1.6" height="1.6" x="78.8" y="147.5" fill="#FFF" opacity=".5"/><rect width="1.6" height="1.6" x="87.5" y="147.5" fill="#FFF" opacity=".5"/><rect width="1.6" height="1.6" x="86.7" y="144" fill="#FFF" opacity=".5"/><rect width="1.6" height="1.6" x="82.4" y="144" fill="#FFF" opacity=".5"/><rect width="1.6" height="1.6" x="78" y="144" fill="#FFF" opacity=".5"/><rect width="1.6" height="1.6" x="91.9" y="147.5" fill="#FFF" opacity=".5"/><rect width="1.6" height="1.6" x="84.4" y="151.1" fill="#FFF" opacity=".5"/><rect width="1.6" height="1.6" x="80" y="151.1" fill="#FFF" opacity=".5"/><rect width="1.6" height="1.6" x="88.3" y="151.1" fill="#FFF" opacity=".5"/><rect width="1.6" height="1.6" x="92.7" y="151.1" fill="#FFF" opacity=".5"/><rect width="1.6" height="1.6" x="91.1" y="144" fill="#FFF" opacity=".5"/></g></g><g><linearGradient id="SVGID_41_" x1="443" x2="472" y1="127" y2="127" gradientTransform="matrix(-1 0 0 1 640 0)" gradientUnits="userSpaceOnUse"><stop offset="0" style="stop-color:#3651bf"/><stop offset="1" style="stop-color:#2e5bdb"/></linearGradient><polyline fill="url(#SVGID_41_)" points="197 172 197 82 168 114.3 168 172 197 172"/><linearGradient id="SVGID_42_" x1="440" x2="443" y1="127.037" y2="127.037" gradientTransform="matrix(-1 0 0 1 640 0)" gradientUnits="userSpaceOnUse"><stop offset="0" style="stop-color:#2e3192"/><stop offset="1" style="stop-color:#4c3ea1"/></linearGradient><polygon fill="url(#SVGID_42_)" points="200 172 197 172 197 82.1 200 85.2"/><g opacity=".8"><rect width="22" height="3" x="172" y="163" fill="#FFF" opacity=".2"/><g><rect width="22" height="3" x="172" y="139" fill="#FFF" opacity=".2"/><rect width="22" height="3" x="172" y="145" fill="#FFF" opacity=".2"/><rect width="22" height="3" x="172" y="151" fill="#FFF" opacity=".2"/><rect width="22" height="3" x="172" y="157" fill="#FFF" opacity=".2"/></g><rect width="22" height="3" x="172" y="127" fill="#FFF" opacity=".2"/><rect width="22" height="3" x="172" y="133" fill="#FFF" opacity=".2"/></g><g opacity=".8"><defs><polygon id="SVGID_43_" points="196.3 120.8 172.2 120.8 172.2 115.5 196.3 88.7" opacity=".8"/></defs><clipPath id="SVGID_44_"><use overflow="visible" xlink:href="#SVGID_43_"/></clipPath><g clip-path="url(#SVGID_44_)"><rect width="22" height="3" x="172" y="95" fill="#FFF" opacity=".2"/><rect width="22" height="3" x="172" y="101" fill="#FFF" opacity=".2"/><rect width="22" height="3" x="172" y="107" fill="#FFF" opacity=".2"/><rect width="22" height="3" x="172" y="113" fill="#FFF" opacity=".2"/></g></g></g></svg>