<?xml version="1.0" encoding="utf-8"?>
<!-- Generator: Adobe Illustrator 22.1.0, SVG Export Plug-In . SVG Version: 6.00 Build 0)  -->
<svg version="1.1" id="Warstwa_1" xmlns="http://www.w3.org/2000/svg" xmlns:xlink="http://www.w3.org/1999/xlink" x="0px" y="0px"
	 viewBox="0 0 200 172" style="enable-background:new 0 0 200 172;" xml:space="preserve">
<style type="text/css">
	.st0{fill:url(#SVGID_1_);}
	.st1{opacity:0.2;clip-path:url(#SVGID_3_);enable-background:new    ;}
	.st2{opacity:0.2;clip-path:url(#SVGID_5_);enable-background:new    ;}
	.st3{fill:url(#SVGID_6_);stroke:url(#SVGID_7_);stroke-linecap:round;stroke-miterlimit:10;}
	.st4{fill:url(#SVGID_8_);stroke:url(#SVGID_9_);stroke-linecap:round;stroke-miterlimit:10;}
	.st5{fill:url(#SVGID_10_);stroke:url(#SVGID_11_);stroke-linecap:round;stroke-miterlimit:10;}
	.st6{fill:url(#SVGID_12_);stroke:url(#SVGID_13_);stroke-linecap:round;stroke-miterlimit:10;}
	.st7{fill:url(#SVGID_14_);stroke:url(#SVGID_15_);stroke-linecap:round;stroke-miterlimit:10;}
	.st8{fill:url(#SVGID_16_);stroke:url(#SVGID_17_);stroke-linecap:round;stroke-miterlimit:10;}
	.st9{fill:url(#SVGID_18_);stroke:url(#SVGID_19_);stroke-linecap:round;stroke-miterlimit:10;}
	.st10{fill:url(#SVGID_20_);stroke:url(#SVGID_21_);stroke-linecap:round;stroke-miterlimit:10;}
	.st11{fill:url(#SVGID_22_);stroke:url(#SVGID_23_);stroke-linecap:round;stroke-miterlimit:10;}
	.st12{fill:url(#SVGID_24_);stroke:url(#SVGID_25_);stroke-linecap:round;stroke-miterlimit:10;}
	.st13{fill:url(#SVGID_26_);stroke:url(#SVGID_27_);stroke-linecap:round;stroke-miterlimit:10;}
	.st14{fill:url(#SVGID_28_);stroke:url(#SVGID_29_);stroke-linecap:round;stroke-miterlimit:10;}
	.st15{fill:url(#SVGID_30_);stroke:url(#SVGID_31_);stroke-linecap:round;stroke-miterlimit:10;}
	.st16{fill:url(#SVGID_32_);stroke:url(#SVGID_33_);stroke-linecap:round;stroke-miterlimit:10;}
	.st17{fill:url(#SVGID_34_);}
	.st18{fill:url(#SVGID_35_);}
	.st19{fill:url(#SVGID_36_);}
	.st20{fill:url(#SVGID_37_);}
	.st21{fill:#373E9B;}
	.st22{fill:url(#SVGID_38_);}
	.st23{opacity:0.2;enable-background:new    ;}
	.st24{opacity:0.1;fill:#FFFFFF;enable-background:new    ;}
	.st25{fill:url(#SVGID_39_);}
	.st26{fill:url(#SVGID_40_);}
	.st27{opacity:0.2;}
	.st28{fill:#FFFFFF;}
	.st29{opacity:0.3;fill:#FFFFFF;enable-background:new    ;}
	.st30{fill:url(#SVGID_41_);}
	.st31{opacity:0.3;enable-background:new    ;}
	.st32{opacity:0.44;enable-background:new    ;}
	.st33{opacity:0.5;}
	.st34{opacity:0.3;fill:none;stroke:#FFFFFF;stroke-miterlimit:10;enable-background:new    ;}
	.st35{opacity:0.3;fill:none;stroke:#FFFFFF;stroke-miterlimit:9.9999;enable-background:new    ;}
	.st36{opacity:0.3;fill:none;stroke:#FFFFFF;stroke-miterlimit:10.0003;enable-background:new    ;}
	.st37{opacity:0.3;fill:none;stroke:#FFFFFF;stroke-miterlimit:10.0001;enable-background:new    ;}
	.st38{fill:url(#SVGID_42_);}
	.st39{fill:url(#SVGID_43_);}
	.st40{opacity:0.2;fill:#FFFFFF;enable-background:new    ;}
	.st41{opacity:0.1;enable-background:new    ;}
	.st42{fill:url(#SVGID_44_);}
	.st43{opacity:0.15;enable-background:new    ;}
	.st44{opacity:0.13;enable-background:new    ;}
	.st45{fill:url(#SVGID_45_);}
	.st46{fill:url(#SVGID_46_);}
	.st47{fill:url(#SVGID_47_);}
	.st48{fill:url(#SVGID_48_);}
	.st49{fill:url(#SVGID_49_);}
	.st50{fill:url(#SVGID_50_);}
	.st51{fill:none;stroke:url(#SVGID_51_);stroke-linecap:round;stroke-linejoin:round;stroke-miterlimit:10;}
	.st52{fill:none;stroke:url(#SVGID_52_);stroke-linecap:round;stroke-linejoin:round;stroke-miterlimit:10;}
	.st53{fill:url(#SVGID_53_);}
	.st54{fill:url(#SVGID_54_);}
	.st55{fill:url(#SVGID_55_);}
	.st56{fill:url(#SVGID_56_);}
	.st57{fill:url(#SVGID_57_);}
	.st58{fill:url(#SVGID_58_);}
	.st59{fill:url(#SVGID_59_);}
	.st60{fill:url(#SVGID_60_);}
	.st61{fill:url(#SVGID_61_);}
	.st62{fill:none;stroke:url(#SVGID_62_);stroke-linecap:round;stroke-linejoin:round;stroke-miterlimit:10;}
	.st63{fill:none;stroke:url(#SVGID_63_);stroke-linecap:round;stroke-linejoin:round;stroke-miterlimit:10;}
</style>
<g id="bg">
	
		<linearGradient id="SVGID_1_" gradientUnits="userSpaceOnUse" x1="101.5" y1="-593" x2="101.5" y2="-445.384" gradientTransform="matrix(1 0 0 -1 0 -420)">
		<stop  offset="0" style="stop-color:#1D7EE8"/>
		<stop  offset="1" style="stop-color:#2EA7DB"/>
	</linearGradient>
	<path class="st0" d="M16,111.5V173h171v-62.2c0-49.2-41.6-88.7-91.5-85.2C50.6,28.7,16,66.5,16,111.5z"/>
	<g>
		<g>
			<g>
				<defs>
					<path id="SVGID_2_" d="M15.9,111v61.5H187v-62.2c0-49.2-41.6-88.7-91.6-85.2C50.5,28.2,15.9,66,15.9,111z"/>
				</defs>
				<clipPath id="SVGID_3_">
					<use xlink:href="#SVGID_2_"  style="overflow:visible;"/>
				</clipPath>
				<polygon class="st1" points="151.3,55 142,104 124,104 124,60 95,60 95,103.6 95,104 82,104 82,91 58,91 58,132.4 50,144.5 
					50,75 16,75 16,172 187,172 188.6,55 				"/>
			</g>
		</g>
		<g>
			<g>
				<defs>
					<path id="SVGID_4_" d="M15.9,111v61.5H187v-62.2c0-49.2-41.6-88.7-91.6-85.2C50.5,28.2,15.9,66,15.9,111z"/>
				</defs>
				<clipPath id="SVGID_5_">
					<use xlink:href="#SVGID_4_"  style="overflow:visible;"/>
				</clipPath>
				<rect x="16" y="155" class="st2" width="183" height="18"/>
			</g>
		</g>
	</g>
</g>
<g>
	<g id="bridge">
		
			<linearGradient id="SVGID_6_" gradientUnits="userSpaceOnUse" x1="105.7" y1="-513.5" x2="177.2" y2="-513.5" gradientTransform="matrix(1 0 0 -1 0 -420)">
			<stop  offset="0" style="stop-color:#2E3192"/>
			<stop  offset="1" style="stop-color:#2F0B81"/>
		</linearGradient>
		
			<linearGradient id="SVGID_7_" gradientUnits="userSpaceOnUse" x1="105.2" y1="-513.5" x2="177.7" y2="-513.5" gradientTransform="matrix(1 0 0 -1 0 -420)">
			<stop  offset="0" style="stop-color:#4C3EA1"/>
			<stop  offset="1" style="stop-color:#2E3192"/>
		</linearGradient>
		<path class="st3" d="M177.2,136.9c-49.3-60.7-71.5-86.8-71.5-86.8"/>
		
			<linearGradient id="SVGID_8_" gradientUnits="userSpaceOnUse" x1="105.7" y1="-515.8" x2="165.9" y2="-515.8" gradientTransform="matrix(1 0 0 -1 0 -420)">
			<stop  offset="0" style="stop-color:#2E3192"/>
			<stop  offset="1" style="stop-color:#2F0B81"/>
		</linearGradient>
		
			<linearGradient id="SVGID_9_" gradientUnits="userSpaceOnUse" x1="105.2" y1="-515.8" x2="166.4" y2="-515.8" gradientTransform="matrix(1 0 0 -1 0 -420)">
			<stop  offset="0" style="stop-color:#4C3EA1"/>
			<stop  offset="1" style="stop-color:#2E3192"/>
		</linearGradient>
		<path class="st4" d="M165.9,136.9c-23.1-31.6-60.2-82.2-60.2-82.2"/>
		
			<linearGradient id="SVGID_10_" gradientUnits="userSpaceOnUse" x1="105.1" y1="-518.85" x2="155.5" y2="-518.85" gradientTransform="matrix(1 0 0 -1 0 -420)">
			<stop  offset="0" style="stop-color:#2E3192"/>
			<stop  offset="1" style="stop-color:#2F0B81"/>
		</linearGradient>
		
			<linearGradient id="SVGID_11_" gradientUnits="userSpaceOnUse" x1="104.6" y1="-518.85" x2="156" y2="-518.85" gradientTransform="matrix(1 0 0 -1 0 -420)">
			<stop  offset="0" style="stop-color:#4C3EA1"/>
			<stop  offset="1" style="stop-color:#2E3192"/>
		</linearGradient>
		<path class="st5" d="M155.5,136.9c-22.4-34.3-50.4-76.1-50.4-76.1"/>
		
			<linearGradient id="SVGID_12_" gradientUnits="userSpaceOnUse" x1="104.4" y1="-521.1" x2="146.2118" y2="-521.1" gradientTransform="matrix(1 0 0 -1 0 -420)">
			<stop  offset="0" style="stop-color:#2E3192"/>
			<stop  offset="1" style="stop-color:#2F0B81"/>
		</linearGradient>
		
			<linearGradient id="SVGID_13_" gradientUnits="userSpaceOnUse" x1="103.9" y1="-521.1" x2="146.7127" y2="-521.1" gradientTransform="matrix(1 0 0 -1 0 -420)">
			<stop  offset="0" style="stop-color:#4C3EA1"/>
			<stop  offset="1" style="stop-color:#2E3192"/>
		</linearGradient>
		<path class="st6" d="M146.3,136.9c-17.7-31.6-41.9-71.6-41.9-71.6"/>
		
			<linearGradient id="SVGID_14_" gradientUnits="userSpaceOnUse" x1="103.1" y1="-523.45" x2="136.4744" y2="-523.45" gradientTransform="matrix(1 0 0 -1 0 -420)">
			<stop  offset="0" style="stop-color:#2E3192"/>
			<stop  offset="1" style="stop-color:#2F0B81"/>
		</linearGradient>
		
			<linearGradient id="SVGID_15_" gradientUnits="userSpaceOnUse" x1="102.6" y1="-523.45" x2="136.9735" y2="-523.45" gradientTransform="matrix(1 0 0 -1 0 -420)">
			<stop  offset="0" style="stop-color:#4C3EA1"/>
			<stop  offset="1" style="stop-color:#2E3192"/>
		</linearGradient>
		<path class="st7" d="M136.4,136.9C122,108.6,103.1,70,103.1,70"/>
		
			<linearGradient id="SVGID_16_" gradientUnits="userSpaceOnUse" x1="102.4184" y1="-526.05" x2="127.7712" y2="-526.05" gradientTransform="matrix(1 0 0 -1 0 -420)">
			<stop  offset="0" style="stop-color:#2E3192"/>
			<stop  offset="1" style="stop-color:#2F0B81"/>
		</linearGradient>
		
			<linearGradient id="SVGID_17_" gradientUnits="userSpaceOnUse" x1="101.9217" y1="-526.05" x2="128.2732" y2="-526.05" gradientTransform="matrix(1 0 0 -1 0 -420)">
			<stop  offset="0" style="stop-color:#4C3EA1"/>
			<stop  offset="1" style="stop-color:#2E3192"/>
		</linearGradient>
		<path class="st8" d="M127.9,136.9c-10.5-27.7-25.3-61.7-25.3-61.7"/>
		
			<linearGradient id="SVGID_18_" gradientUnits="userSpaceOnUse" x1="101.7597" y1="-529.05" x2="117.8911" y2="-529.05" gradientTransform="matrix(1 0 0 -1 0 -420)">
			<stop  offset="0" style="stop-color:#2E3192"/>
			<stop  offset="1" style="stop-color:#2F0B81"/>
		</linearGradient>
		
			<linearGradient id="SVGID_19_" gradientUnits="userSpaceOnUse" x1="101.2637" y1="-529.05" x2="118.3926" y2="-529.05" gradientTransform="matrix(1 0 0 -1 0 -420)">
			<stop  offset="0" style="stop-color:#4C3EA1"/>
			<stop  offset="1" style="stop-color:#2E3192"/>
		</linearGradient>
		<path class="st9" d="M117.9,136.9c-6.5-27.7-16.1-55.7-16.1-55.7"/>
		
			<linearGradient id="SVGID_20_" gradientUnits="userSpaceOnUse" x1="18.8" y1="-512.7" x2="90.3" y2="-512.7" gradientTransform="matrix(1 0 0 -1 0 -420)">
			<stop  offset="0" style="stop-color:#2E3192"/>
			<stop  offset="1" style="stop-color:#2F0B81"/>
		</linearGradient>
		
			<linearGradient id="SVGID_21_" gradientUnits="userSpaceOnUse" x1="18.3" y1="-512.7" x2="90.8" y2="-512.7" gradientTransform="matrix(1 0 0 -1 0 -420)">
			<stop  offset="0" style="stop-color:#4C3EA1"/>
			<stop  offset="1" style="stop-color:#2E3192"/>
		</linearGradient>
		<path class="st10" d="M18.8,136.7c49.3-60.6,71.5-88,71.5-88"/>
		
			<linearGradient id="SVGID_22_" gradientUnits="userSpaceOnUse" x1="31.4" y1="-515.05" x2="90.3" y2="-515.05" gradientTransform="matrix(1 0 0 -1 0 -420)">
			<stop  offset="0" style="stop-color:#2E3192"/>
			<stop  offset="1" style="stop-color:#2F0B81"/>
		</linearGradient>
		
			<linearGradient id="SVGID_23_" gradientUnits="userSpaceOnUse" x1="30.9" y1="-515.05" x2="90.8" y2="-515.05" gradientTransform="matrix(1 0 0 -1 0 -420)">
			<stop  offset="0" style="stop-color:#4C3EA1"/>
			<stop  offset="1" style="stop-color:#2E3192"/>
		</linearGradient>
		<path class="st11" d="M31.4,136.7c23.1-31.6,58.9-83.3,58.9-83.3"/>
		
			<linearGradient id="SVGID_24_" gradientUnits="userSpaceOnUse" x1="41.9" y1="-518.05" x2="91.1" y2="-518.05" gradientTransform="matrix(1 0 0 -1 0 -420)">
			<stop  offset="0" style="stop-color:#2E3192"/>
			<stop  offset="1" style="stop-color:#2F0B81"/>
		</linearGradient>
		
			<linearGradient id="SVGID_25_" gradientUnits="userSpaceOnUse" x1="41.4" y1="-518.05" x2="91.6" y2="-518.05" gradientTransform="matrix(1 0 0 -1 0 -420)">
			<stop  offset="0" style="stop-color:#4C3EA1"/>
			<stop  offset="1" style="stop-color:#2E3192"/>
		</linearGradient>
		<path class="st12" d="M41.9,136.7c22.4-34.3,49.2-77.3,49.2-77.3"/>
		
			<linearGradient id="SVGID_26_" gradientUnits="userSpaceOnUse" x1="49.9" y1="-520.3" x2="91.7117" y2="-520.3" gradientTransform="matrix(1 0 0 -1 0 -420)">
			<stop  offset="0" style="stop-color:#2E3192"/>
			<stop  offset="1" style="stop-color:#2F0B81"/>
		</linearGradient>
		
			<linearGradient id="SVGID_27_" gradientUnits="userSpaceOnUse" x1="49.4" y1="-520.3" x2="92.2127" y2="-520.3" gradientTransform="matrix(1 0 0 -1 0 -420)">
			<stop  offset="0" style="stop-color:#4C3EA1"/>
			<stop  offset="1" style="stop-color:#2E3192"/>
		</linearGradient>
		<path class="st13" d="M49.9,136.7c17.7-31.6,41.9-72.8,41.9-72.8"/>
		
			<linearGradient id="SVGID_28_" gradientUnits="userSpaceOnUse" x1="59.6" y1="-522.65" x2="92.9743" y2="-522.65" gradientTransform="matrix(1 0 0 -1 0 -420)">
			<stop  offset="0" style="stop-color:#2E3192"/>
			<stop  offset="1" style="stop-color:#2F0B81"/>
		</linearGradient>
		
			<linearGradient id="SVGID_29_" gradientUnits="userSpaceOnUse" x1="59.1" y1="-522.65" x2="93.4734" y2="-522.65" gradientTransform="matrix(1 0 0 -1 0 -420)">
			<stop  offset="0" style="stop-color:#4C3EA1"/>
			<stop  offset="1" style="stop-color:#2E3192"/>
		</linearGradient>
		<path class="st14" d="M59.6,136.7c14.5-28.4,33.3-68.1,33.3-68.1"/>
		
			<linearGradient id="SVGID_30_" gradientUnits="userSpaceOnUse" x1="68.3" y1="-525.85" x2="93.6528" y2="-525.85" gradientTransform="matrix(1 0 0 -1 0 -420)">
			<stop  offset="0" style="stop-color:#2E3192"/>
			<stop  offset="1" style="stop-color:#2F0B81"/>
		</linearGradient>
		
			<linearGradient id="SVGID_31_" gradientUnits="userSpaceOnUse" x1="67.8" y1="-525.85" x2="94.1514" y2="-525.85" gradientTransform="matrix(1 0 0 -1 0 -420)">
			<stop  offset="0" style="stop-color:#4C3EA1"/>
			<stop  offset="1" style="stop-color:#2E3192"/>
		</linearGradient>
		<path class="st15" d="M68.3,137.9c10.5-27.7,25.3-64.1,25.3-64.1"/>
		
			<linearGradient id="SVGID_32_" gradientUnits="userSpaceOnUse" x1="78.1565" y1="-528.25" x2="94.2878" y2="-528.25" gradientTransform="matrix(1 0 0 -1 0 -420)">
			<stop  offset="0" style="stop-color:#2E3192"/>
			<stop  offset="1" style="stop-color:#2F0B81"/>
		</linearGradient>
		
			<linearGradient id="SVGID_33_" gradientUnits="userSpaceOnUse" x1="77.6603" y1="-528.25" x2="94.7893" y2="-528.25" gradientTransform="matrix(1 0 0 -1 0 -420)">
			<stop  offset="0" style="stop-color:#4C3EA1"/>
			<stop  offset="1" style="stop-color:#2E3192"/>
		</linearGradient>
		<path class="st16" d="M78.2,136.7c6.5-27.7,16.1-56.9,16.1-56.9"/>
		
			<linearGradient id="SVGID_34_" gradientUnits="userSpaceOnUse" x1="17.6" y1="-560" x2="178.4" y2="-560" gradientTransform="matrix(1 0 0 -1 0 -420)">
			<stop  offset="0" style="stop-color:#2E3192"/>
			<stop  offset="1" style="stop-color:#2F0B81"/>
		</linearGradient>
		<rect x="17.6" y="137" class="st17" width="160.8" height="6"/>
		
			<linearGradient id="SVGID_35_" gradientUnits="userSpaceOnUse" x1="89.1" y1="-521" x2="114.2578" y2="-521" gradientTransform="matrix(1 0 0 -1 0 -420)">
			<stop  offset="0" style="stop-color:#2E3192"/>
			<stop  offset="1" style="stop-color:#2F0B81"/>
		</linearGradient>
		<polygon class="st18" points="89.1,47 92.4,47 114.3,155 104.9,155 		"/>
		
			<linearGradient id="SVGID_36_" gradientUnits="userSpaceOnUse" x1="9011.0078" y1="-521" x2="9036.166" y2="-521" gradientTransform="matrix(-1 0 0 -1 9118 -420)">
			<stop  offset="0" style="stop-color:#2E3192"/>
			<stop  offset="1" style="stop-color:#2F0B81"/>
		</linearGradient>
		<polygon class="st19" points="106.9,47 103.7,47 81.9,155 91.1,155 		"/>
		
			<linearGradient id="SVGID_37_" gradientUnits="userSpaceOnUse" x1="95.0495" y1="-472.4" x2="101.0238" y2="-472.4" gradientTransform="matrix(1 0 0 -1 0 -420)">
			<stop  offset="0" style="stop-color:#2E3192"/>
			<stop  offset="1" style="stop-color:#2F0B81"/>
		</linearGradient>
		<polygon class="st20" points="95.1,49.4 96.1,55.4 99.9,55.4 101.1,49.4 		"/>
	</g>
	<g id="Warstwa_10">
		<polyline class="st21" points="116,133.3 113,136.2 113,173 116,173 116,133 		"/>
		
			<linearGradient id="SVGID_38_" gradientUnits="userSpaceOnUse" x1="116" y1="-47.42" x2="152" y2="-47.42" gradientTransform="matrix(1 0 0 -1 0 105.58)">
			<stop  offset="0" style="stop-color:#2E60E8"/>
			<stop  offset="1" style="stop-color:#2E74DB"/>
		</linearGradient>
		<rect x="116" y="133" class="st22" width="36" height="40"/>
		<rect x="116" y="133" class="st23" width="36" height="3"/>
		<rect x="119" y="150" class="st24" width="8" height="3"/>
		<rect x="119" y="155" class="st24" width="8" height="3"/>
		<rect x="119" y="160" class="st24" width="8" height="3"/>
		<rect x="119" y="140" class="st24" width="8" height="3"/>
		<rect x="119" y="145" class="st24" width="8" height="3"/>
		<rect x="130" y="150" class="st24" width="8" height="3"/>
		<rect x="130" y="155" class="st24" width="8" height="3"/>
		<rect x="130" y="160" class="st24" width="8" height="3"/>
		<rect x="130" y="140" class="st24" width="8" height="3"/>
		<rect x="130" y="145" class="st24" width="8" height="3"/>
		<rect x="141" y="150" class="st24" width="8" height="3"/>
		<rect x="141" y="155" class="st24" width="8" height="3"/>
		<rect x="141" y="160" class="st24" width="8" height="3"/>
		<rect x="119" y="165" class="st24" width="8" height="3"/>
		<rect x="130" y="165" class="st24" width="8" height="3"/>
		<rect x="141" y="165" class="st24" width="8" height="3"/>
		<rect x="141" y="140" class="st24" width="8" height="3"/>
		<rect x="141" y="145" class="st24" width="8" height="3"/>
	</g>
	<g id="building_-_right">
		
			<linearGradient id="SVGID_39_" gradientUnits="userSpaceOnUse" x1="148" y1="3952.5" x2="197" y2="3952.5" gradientTransform="matrix(1 0 0 1 0 -3854)">
			<stop  offset="0" style="stop-color:#2E65CA"/>
			<stop  offset="1" style="stop-color:#2E74DB"/>
		</linearGradient>
		<polygon class="st25" points="148,33 152.8,25 192,25 197,33 197,172 148,172 		"/>
		<polygon class="st24" points="153,25 168,66 168,172 180,172 180,66 192,25 		"/>
		
			<linearGradient id="SVGID_40_" gradientUnits="userSpaceOnUse" x1="197.0031" y1="3956.5" x2="199.9949" y2="3956.5" gradientTransform="matrix(1 0 0 1 0 -3854)">
			<stop  offset="0" style="stop-color:#4C3EA1"/>
			<stop  offset="1" style="stop-color:#2E3192"/>
		</linearGradient>
		<polygon class="st26" points="197,172 200,172 200,37 197,33 		"/>
		<g id="center" class="st27">
			<polygon class="st28" points="159,31 187,31 186,35 160,35 			"/>
			<polygon class="st28" points="161,38 185,38 184,42 162,42 			"/>
			<polygon class="st28" points="164,45 183,45 182,49 165,49 			"/>
			<polygon class="st28" points="166,52 181,52 180,56 167,56 			"/>
			<polygon class="st28" points="169,59 178,59 177,63 170,63 			"/>
			<rect x="171" y="66" class="st28" width="6" height="4"/>
			<rect x="171" y="73" class="st28" width="6" height="4"/>
			<rect x="171" y="80" class="st28" width="6" height="4"/>
			<rect x="171" y="87" class="st28" width="6" height="4"/>
			<rect x="171" y="94" class="st28" width="6" height="4"/>
			<rect x="171" y="101" class="st28" width="6" height="4"/>
			<rect x="171" y="108" class="st28" width="6" height="4"/>
			<rect x="171" y="115" class="st28" width="6" height="4"/>
			<rect x="171" y="122" class="st28" width="6" height="4"/>
			<rect x="171" y="129" class="st28" width="6" height="4"/>
			<rect x="171" y="136" class="st28" width="6" height="4"/>
			<rect x="171" y="143" class="st28" width="6" height="4"/>
			<rect x="171" y="150" class="st28" width="6" height="4"/>
			<rect x="171" y="157" class="st28" width="6" height="4"/>
			<rect x="171" y="164" class="st28" width="6" height="4"/>
		</g>
		<g id="left">
			<rect x="152" y="132" class="st29" width="2" height="2"/>
			<rect x="152" y="127" class="st29" width="2" height="2"/>
			<rect x="152" y="122" class="st29" width="2" height="2"/>
			<rect x="152" y="117" class="st28" width="2" height="2"/>
			<rect x="152" y="112" class="st29" width="2" height="2"/>
			<rect x="152" y="107" class="st29" width="2" height="2"/>
			<rect x="152" y="102" class="st29" width="2" height="2"/>
			<rect x="152" y="97" class="st29" width="2" height="2"/>
			<rect x="152" y="92" class="st29" width="2" height="2"/>
			<rect x="152" y="87" class="st29" width="2" height="2"/>
			<rect x="157" y="92" class="st29" width="2" height="2"/>
			<rect x="157" y="87" class="st29" width="2" height="2"/>
			<rect x="162" y="92" class="st29" width="2" height="2"/>
			<rect x="162" y="87" class="st29" width="2" height="2"/>
			<rect x="152" y="167" class="st29" width="2" height="2"/>
			<rect x="152" y="162" class="st29" width="2" height="2"/>
			<rect x="152" y="157" class="st29" width="2" height="2"/>
			<rect x="152" y="152" class="st29" width="2" height="2"/>
			<rect x="152" y="147" class="st29" width="2" height="2"/>
			<rect x="152" y="142" class="st29" width="2" height="2"/>
			<rect x="152" y="137" class="st29" width="2" height="2"/>
			<rect x="157" y="132" class="st29" width="2" height="2"/>
			<rect x="157" y="127" class="st29" width="2" height="2"/>
			<rect x="157" y="122" class="st29" width="2" height="2"/>
			<rect x="157" y="117" class="st29" width="2" height="2"/>
			<rect x="157" y="112" class="st29" width="2" height="2"/>
			<rect x="157" y="107" class="st29" width="2" height="2"/>
			<rect x="157" y="102" class="st29" width="2" height="2"/>
			<rect x="157" y="97" class="st28" width="2" height="2"/>
			<rect x="157" y="167" class="st29" width="2" height="2"/>
			<rect x="157" y="162" class="st29" width="2" height="2"/>
			<rect x="157" y="157" class="st28" width="2" height="2"/>
			<rect x="157" y="152" class="st29" width="2" height="2"/>
			<rect x="157" y="147" class="st29" width="2" height="2"/>
			<rect x="157" y="142" class="st29" width="2" height="2"/>
			<rect x="157" y="137" class="st29" width="2" height="2"/>
			<rect x="162" y="132" class="st29" width="2" height="2"/>
			<rect x="162" y="127" class="st29" width="2" height="2"/>
			<rect x="162" y="122" class="st29" width="2" height="2"/>
			<rect x="162" y="117" class="st29" width="2" height="2"/>
			<rect x="162" y="112" class="st29" width="2" height="2"/>
			<rect x="162" y="107" class="st29" width="2" height="2"/>
			<rect x="162" y="102" class="st29" width="2" height="2"/>
			<rect x="162" y="97" class="st28" width="2" height="2"/>
			<rect x="162" y="167" class="st29" width="2" height="2"/>
			<rect x="162" y="162" class="st29" width="2" height="2"/>
			<rect x="162" y="157" class="st28" width="2" height="2"/>
			<rect x="162" y="152" class="st29" width="2" height="2"/>
			<rect x="162" y="147" class="st29" width="2" height="2"/>
			<rect x="162" y="142" class="st29" width="2" height="2"/>
			<rect x="162" y="137" class="st29" width="2" height="2"/>
			<rect x="152" y="77" class="st29" width="2" height="2"/>
			<rect x="152" y="72" class="st29" width="2" height="2"/>
			<rect x="152" y="67" class="st29" width="2" height="2"/>
			<rect x="152" y="62" class="st29" width="2" height="2"/>
			<rect x="152" y="57" class="st29" width="2" height="2"/>
			<rect x="152" y="52" class="st29" width="2" height="2"/>
			<rect x="152" y="47" class="st29" width="2" height="2"/>
			<rect x="152" y="82" class="st29" width="2" height="2"/>
			<rect x="157" y="77" class="st29" width="2" height="2"/>
			<rect x="157" y="72" class="st29" width="2" height="2"/>
			<rect x="157" y="67" class="st29" width="2" height="2"/>
			<rect x="157" y="62" class="st29" width="2" height="2"/>
			<rect x="157" y="57" class="st29" width="2" height="2"/>
			<rect x="157" y="82" class="st29" width="2" height="2"/>
			<rect x="162" y="77" class="st29" width="2" height="2"/>
			<rect x="162" y="72" class="st29" width="2" height="2"/>
			<rect x="162" y="67" class="st29" width="2" height="2"/>
			<rect x="162" y="82" class="st29" width="2" height="2"/>
		</g>
		<g id="left_kopia">
			<rect x="183" y="82" class="st29" width="2" height="2"/>
			<rect x="183" y="87" class="st29" width="2" height="2"/>
			<rect x="183" y="92" class="st29" width="2" height="2"/>
			<rect x="183" y="97" class="st28" width="2" height="2"/>
			<rect x="183" y="102" class="st29" width="2" height="2"/>
			<rect x="183" y="107" class="st29" width="2" height="2"/>
			<rect x="183" y="112" class="st29" width="2" height="2"/>
			<rect x="183" y="117" class="st29" width="2" height="2"/>
			<rect x="183" y="122" class="st29" width="2" height="2"/>
			<rect x="183" y="127" class="st29" width="2" height="2"/>
			<rect x="188" y="122" class="st29" width="2" height="2"/>
			<rect x="188" y="127" class="st29" width="2" height="2"/>
			<rect x="193" y="122" class="st29" width="2" height="2"/>
			<rect x="193" y="127" class="st29" width="2" height="2"/>
			<rect x="183" y="62" class="st29" width="2" height="2"/>
			<rect x="183" y="67" class="st29" width="2" height="2"/>
			<rect x="183" y="72" class="st29" width="2" height="2"/>
			<rect x="183" y="77" class="st29" width="2" height="2"/>
			<rect x="188" y="82" class="st29" width="2" height="2"/>
			<rect x="188" y="87" class="st29" width="2" height="2"/>
			<rect x="188" y="92" class="st29" width="2" height="2"/>
			<rect x="188" y="97" class="st29" width="2" height="2"/>
			<rect x="188" y="102" class="st29" width="2" height="2"/>
			<rect x="188" y="107" class="st29" width="2" height="2"/>
			<rect x="188" y="112" class="st29" width="2" height="2"/>
			<rect x="188" y="117" class="st28" width="2" height="2"/>
			<rect x="188" y="57" class="st28" width="2" height="2"/>
			<rect x="188" y="62" class="st29" width="2" height="2"/>
			<rect x="188" y="67" class="st29" width="2" height="2"/>
			<rect x="188" y="72" class="st29" width="2" height="2"/>
			<rect x="188" y="77" class="st29" width="2" height="2"/>
			<rect x="193" y="82" class="st29" width="2" height="2"/>
			<rect x="193" y="87" class="st29" width="2" height="2"/>
			<rect x="193" y="92" class="st29" width="2" height="2"/>
			<rect x="193" y="97" class="st29" width="2" height="2"/>
			<rect x="193" y="102" class="st29" width="2" height="2"/>
			<rect x="193" y="107" class="st29" width="2" height="2"/>
			<rect x="193" y="112" class="st29" width="2" height="2"/>
			<rect x="193" y="117" class="st28" width="2" height="2"/>
			<rect x="193" y="47" class="st29" width="2" height="2"/>
			<rect x="193" y="52" class="st29" width="2" height="2"/>
			<rect x="193" y="57" class="st28" width="2" height="2"/>
			<rect x="193" y="62" class="st29" width="2" height="2"/>
			<rect x="193" y="67" class="st29" width="2" height="2"/>
			<rect x="193" y="72" class="st29" width="2" height="2"/>
			<rect x="193" y="77" class="st29" width="2" height="2"/>
			<rect x="183" y="137" class="st29" width="2" height="2"/>
			<rect x="183" y="142" class="st29" width="2" height="2"/>
			<rect x="183" y="147" class="st29" width="2" height="2"/>
			<rect x="183" y="152" class="st29" width="2" height="2"/>
			<rect x="183" y="157" class="st29" width="2" height="2"/>
			<rect x="183" y="162" class="st29" width="2" height="2"/>
			<rect x="183" y="167" class="st29" width="2" height="2"/>
			<rect x="183" y="132" class="st29" width="2" height="2"/>
			<rect x="188" y="137" class="st29" width="2" height="2"/>
			<rect x="188" y="142" class="st29" width="2" height="2"/>
			<rect x="188" y="147" class="st29" width="2" height="2"/>
			<rect x="188" y="152" class="st29" width="2" height="2"/>
			<rect x="188" y="157" class="st29" width="2" height="2"/>
			<rect x="188" y="132" class="st29" width="2" height="2"/>
			<rect x="193" y="137" class="st29" width="2" height="2"/>
			<rect x="193" y="142" class="st29" width="2" height="2"/>
			<rect x="193" y="147" class="st29" width="2" height="2"/>
			<rect x="193" y="152" class="st29" width="2" height="2"/>
			<rect x="193" y="157" class="st29" width="2" height="2"/>
			<rect x="188" y="162" class="st29" width="2" height="2"/>
			<rect x="193" y="162" class="st29" width="2" height="2"/>
			<rect x="188" y="167" class="st29" width="2" height="2"/>
			<rect x="193" y="167" class="st29" width="2" height="2"/>
			<rect x="193" y="132" class="st29" width="2" height="2"/>
		</g>
	</g>
	<g id="bilding_-_left">
		<g id="Warstwa_6">
			
				<linearGradient id="SVGID_41_" gradientUnits="userSpaceOnUse" x1="21.9534" y1="3414.8" x2="51" y2="3414.8" gradientTransform="matrix(1 0 0 1 0 -3282)">
				<stop  offset="0" style="stop-color:#4C3EA1"/>
				<stop  offset="1" style="stop-color:#2E3192"/>
			</linearGradient>
			<polygon class="st30" points="36.5,93.5 22,109 22,172.1 51,172.1 51,109.3 			"/>
			<polygon class="st31" points="36.5,93.5 22,109 22,172.1 51,172.1 51,109.3 			"/>
			<path class="st31" d="M45.7,171.7v-17.2c0-2.8-5.1-8.7-9.3-8.7s-9.3,5.9-9.3,8.7v17.2H45.7z"/>
			<path class="st31" d="M41.8,171.6v-10c0-1.6-3-5.1-5.4-5.1s-5.4,3.4-5.4,5.1v10H41.8z"/>
			<g>
				<circle class="st24" cx="36.5" cy="117.9" r="9.2"/>
				<circle class="st32" cx="36.5" cy="117.9" r="7.9"/>
				<g class="st33">
					<ellipse class="st34" cx="36.5" cy="117.9" rx="1.9" ry="7.5"/>
					<ellipse class="st34" cx="36.5" cy="117.9" rx="7.5" ry="1.9"/>
					
						<ellipse transform="matrix(0.7071 -0.7071 0.7071 0.7071 -72.6633 60.3358)" class="st35" cx="36.5" cy="117.9" rx="1.9" ry="7.5"/>
					
						<ellipse transform="matrix(0.7071 -0.7071 0.7071 0.7071 -72.6633 60.3358)" class="st35" cx="36.5" cy="117.9" rx="7.5" ry="1.9"/>
					
						<ellipse transform="matrix(0.3913 -0.9203 0.9203 0.3913 -86.2608 105.3303)" class="st36" cx="36.5" cy="117.9" rx="1.9" ry="7.5"/>
					
						<ellipse transform="matrix(0.3913 -0.9203 0.9203 0.3913 -86.2608 105.3303)" class="st36" cx="36.5" cy="117.9" rx="7.5" ry="1.9"/>
					
						<ellipse transform="matrix(0.9274 -0.3741 0.3741 0.9274 -41.4547 22.2163)" class="st37" cx="36.5" cy="117.9" rx="7.5" ry="1.9"/>
					
						<ellipse transform="matrix(0.9274 -0.3741 0.3741 0.9274 -41.4547 22.2163)" class="st37" cx="36.5" cy="117.9" rx="1.9" ry="7.5"/>
				</g>
			</g>
			<rect x="22" y="131" class="st24" width="29" height="1"/>
		</g>
		<g id="Warstwa_5">
			<rect x="0.2" y="110.6" class="st31" width="21.9" height="2.1"/>
			
				<linearGradient id="SVGID_42_" gradientUnits="userSpaceOnUse" x1="4.018264e-02" y1="3422.5" x2="22.0402" y2="3422.5" gradientTransform="matrix(1 0 0 1 0 -3282)">
				<stop  offset="0" style="stop-color:#451088"/>
				<stop  offset="1" style="stop-color:#593179"/>
			</linearGradient>
			<rect y="110" class="st38" width="22" height="61"/>
			
				<linearGradient id="SVGID_43_" gradientUnits="userSpaceOnUse" x1="0" y1="3423.5" x2="22" y2="3423.5" gradientTransform="matrix(1 0 0 1 0 -3282)">
				<stop  offset="0" style="stop-color:#4C3EA1"/>
				<stop  offset="1" style="stop-color:#2E3192"/>
			</linearGradient>
			<polygon class="st39" points="22,120 22,111 0,111 0,172 22,172 			"/>
			<rect y="113" class="st24" width="2" height="59"/>
			<rect x="20" y="110" class="st40" width="2" height="62"/>
			<rect x="2" y="144" class="st24" width="18" height="1"/>
			<path class="st31" d="M14,166v-12.2c0-2-3.5-6.2-3.5-6.2S7,151.7,7,153.8V166H14z"/>
			<path class="st41" d="M10.5,147.6c0,0-3.5,4.5-3.5,6.1v0.9c0-1.6,3.5-6.1,3.5-6.1s3.5,4.5,3.5,6.1v-0.9
				C14,152.1,10.5,147.6,10.5,147.6z"/>
			<path class="st31" d="M14,142v-15c0-2.5-3.5-7.6-3.5-7.6S7,124.5,7,127v15H14z"/>
			<path class="st41" d="M10.5,119.4c0,0-3.5,5.4-3.5,7.3v1.1c0-1.9,3.5-7.3,3.5-7.3s3.5,5.4,3.5,7.3v-1.1
				C14,124.7,10.5,119.4,10.5,119.4z"/>
			<g>
				
					<linearGradient id="SVGID_44_" gradientUnits="userSpaceOnUse" x1="70" y1="3346.95" x2="87.8611" y2="3346.95" gradientTransform="matrix(1 0 0 1 -68 -3282)">
					<stop  offset="0" style="stop-color:#4C3EA1"/>
					<stop  offset="1" style="stop-color:#2E3192"/>
				</linearGradient>
				<path class="st42" d="M11,36.9L11,36.9c-4,12.6-9,43-9,43L2.1,93h9H20V80C19.9,80,16,52.4,11,36.9z"/>
				<path class="st43" d="M11.3,37L11.3,37C5.5,57,2,80.1,2,80.1l0.1,13.1h9.2H20V80C20,80,15.9,50.9,11.3,37z"/>
				<path class="st44" d="M11.3,37C13.9,52.5,16,79,16,79l0.2,13.8l3.8,0.4V80C19.9,79.9,17,59,11.3,37z"/>
				<path d="M11.5,71.2"/>
				
					<linearGradient id="SVGID_45_" gradientUnits="userSpaceOnUse" x1="86.6" y1="3354.8" x2="86.6" y2="3354.8" gradientTransform="matrix(1 0 0 1 -68 -3282)">
					<stop  offset="0" style="stop-color:#3651BF"/>
					<stop  offset="1" style="stop-color:#2E5BDB"/>
				</linearGradient>
				<path class="st45" d="M18.6,72.8"/>
				<path class="st44" d="M11,36.9C9,52,7,79.1,7,79.1L7.1,93H2L1.9,79.9C1.9,79.9,6,55,11,36.9z"/>
				
					<linearGradient id="SVGID_46_" gradientUnits="userSpaceOnUse" x1="74" y1="3374.1499" x2="84" y2="3374.1499" gradientTransform="matrix(1 0 0 1 -68 -3282)">
					<stop  offset="0" style="stop-color:#4C3EA1"/>
					<stop  offset="1" style="stop-color:#2E3192"/>
				</linearGradient>
				<polyline class="st46" points="16,112 16,84.7 11,72.3 6,84.7 6,112 				"/>
				
					<linearGradient id="SVGID_47_" gradientUnits="userSpaceOnUse" x1="70" y1="3372.5" x2="75.7076" y2="3372.5" gradientTransform="matrix(1 0 0 1 -68 -3282)">
					<stop  offset="0" style="stop-color:#4C3EA1"/>
					<stop  offset="1" style="stop-color:#2E3192"/>
				</linearGradient>
				<polygon class="st47" points="7.7,80.7 7.7,80.5 4,68 2,80 2,84 2,91.5 2,113 6,113 6,85 				"/>
				<g>
					<path class="st31" d="M5.6,111.7V85.5c0-1.4-1.2-2.5-1.2-2.5s-1.2,1.1-1.2,2.5v26.2"/>
					<path class="st41" d="M4.3,83c0,0-1.2,1.1-1.2,2.5v0.8c0-1.4,1.2-2.5,1.2-2.5s1.2,1.1,1.2,2.5v-0.8C5.6,84.1,4.3,83,4.3,83z"/>
					<g>
						<path class="st41" d="M4.5,87.4v24.5"/>
					</g>
				</g>
				<g>
					<path class="st31" d="M14,112V82.8c0-1.6-2.5-2.8-2.5-2.8S9,81.2,9,82.8V112"/>
					<path class="st41" d="M11.1,80.6c0,0-2.4,1.2-2.4,2.7v0.8c0-1.5,2.4-2.7,2.4-2.7s2.4,1.2,2.4,2.7v-0.8
						C13.5,81.8,11.1,80.6,11.1,80.6z"/>
				</g>
				
					<linearGradient id="SVGID_48_" gradientUnits="userSpaceOnUse" x1="82.5851" y1="3375.1001" x2="88" y2="3375.1001" gradientTransform="matrix(1 0 0 1 -68 -3282)">
					<stop  offset="0" style="stop-color:#4C3EA1"/>
					<stop  offset="1" style="stop-color:#2E3192"/>
				</linearGradient>
				<polygon class="st48" points="18.5,73.2 18.1,73.3 14.6,81.1 16,84.8 16,85.8 16,91.5 16,113 20,113 20,91.5 20,85.8 20,84.3 
									"/>
				<g>
					<path class="st31" d="M19.2,111.7V85.5c0-1.4-1.2-2.5-1.2-2.5s-1.2,1.1-1.2,2.5v26.2"/>
					<path class="st41" d="M18,83c0,0-1.2,1.1-1.2,2.5v0.8c0-1.4,1.2-2.5,1.2-2.5s1.2,1.1,1.2,2.5v-0.8C19.2,84.1,18,83,18,83z"/>
					<g>
						<path class="st41" d="M18.6,111.9"/>
					</g>
				</g>
				
					<linearGradient id="SVGID_49_" gradientUnits="userSpaceOnUse" x1="17.2" y1="3394.2" x2="17.2" y2="3394.2" gradientTransform="matrix(1 0 0 1 0 -3282)">
					<stop  offset="0" style="stop-color:#3651BF"/>
					<stop  offset="1" style="stop-color:#2E5BDB"/>
				</linearGradient>
				<path class="st49" d="M17.2,112.2"/>
				
					<linearGradient id="SVGID_50_" gradientUnits="userSpaceOnUse" x1="3.946187e-02" y1="3394" x2="22.0395" y2="3394" gradientTransform="matrix(1 0 0 1 0 -3282)">
					<stop  offset="0" style="stop-color:#2E3192"/>
					<stop  offset="1" style="stop-color:#2F0B81"/>
				</linearGradient>
				<rect y="110" class="st50" width="22" height="4"/>
			</g>
			
				<linearGradient id="SVGID_51_" gradientUnits="userSpaceOnUse" x1="10.5" y1="3317.5" x2="11.5" y2="3317.5" gradientTransform="matrix(1 0 0 1 0 -3282)">
				<stop  offset="0" style="stop-color:#4C3EA1"/>
				<stop  offset="1" style="stop-color:#2E3192"/>
			</linearGradient>
			<line class="st51" x1="11" y1="39" x2="11" y2="32"/>
			
				<linearGradient id="SVGID_52_" gradientUnits="userSpaceOnUse" x1="8" y1="3316.5" x2="14" y2="3316.5" gradientTransform="matrix(1 0 0 1 0 -3282)">
				<stop  offset="0" style="stop-color:#4C3EA1"/>
				<stop  offset="1" style="stop-color:#2E3192"/>
			</linearGradient>
			<line class="st52" x1="8.5" y1="34.5" x2="13.5" y2="34.5"/>
		</g>
		<g id="Warstwa_5_kopia">
			<rect x="51.2" y="110.6" class="st31" width="21.9" height="2.1"/>
			
				<linearGradient id="SVGID_53_" gradientUnits="userSpaceOnUse" x1="51.0402" y1="3422.5" x2="73.0402" y2="3422.5" gradientTransform="matrix(1 0 0 1 0 -3282)">
				<stop  offset="0" style="stop-color:#451088"/>
				<stop  offset="1" style="stop-color:#593179"/>
			</linearGradient>
			<rect x="51" y="110" class="st53" width="22" height="61"/>
			
				<linearGradient id="SVGID_54_" gradientUnits="userSpaceOnUse" x1="51" y1="3423.5" x2="73" y2="3423.5" gradientTransform="matrix(1 0 0 1 0 -3282)">
				<stop  offset="0" style="stop-color:#4C3EA1"/>
				<stop  offset="1" style="stop-color:#2E3192"/>
			</linearGradient>
			<polygon class="st54" points="73,120 73,111 51,111 51,172 73,172 			"/>
			<rect x="51" y="113" class="st24" width="2" height="59"/>
			<rect x="71" y="110" class="st40" width="2" height="62"/>
			<rect x="53" y="144" class="st24" width="18" height="1"/>
			<path class="st31" d="M65,166v-12.2c0-2-3.5-6.2-3.5-6.2s-3.5,4.2-3.5,6.2V166H65z"/>
			<path class="st41" d="M61.5,147.5c0,0-3.5,4.5-3.5,6.1v0.9c0-1.6,3.5-6.1,3.5-6.1s3.5,4.5,3.5,6.1v-0.9
				C65,152,61.5,147.5,61.5,147.5z"/>
			<path class="st31" d="M65,142v-15c0-2.5-3.5-7.6-3.5-7.6S58,124.5,58,127v15H65z"/>
			<path class="st41" d="M61.5,119.4c0,0-3.5,5.4-3.5,7.3v1.1c0-1.9,3.5-7.3,3.5-7.3s3.5,5.4,3.5,7.3v-1.1
				C65,124.7,61.5,119.4,61.5,119.4z"/>
			<g>
				
					<linearGradient id="SVGID_55_" gradientUnits="userSpaceOnUse" x1="121" y1="3346.95" x2="139.0596" y2="3346.95" gradientTransform="matrix(1 0 0 1 -68 -3282)">
					<stop  offset="0" style="stop-color:#4C3EA1"/>
					<stop  offset="1" style="stop-color:#2E3192"/>
				</linearGradient>
				<path class="st55" d="M62,36.9L62,36.9C58,49.6,53,80,53,80l0.1,13h9h9l0.1-13.1C71.1,79.9,67,52.4,62,36.9z"/>
				<path class="st43" d="M62.3,36.8L62.3,36.8c-5.8,20-9.3,43.1-9.3,43.1L53.1,93h9.2H71V80C71,80,66.9,50.7,62.3,36.8z"/>
				<path class="st44" d="M62.5,36.8C65,52.3,67,79.1,67,79.1L66.9,93H71V80C71,80,68.3,55.2,62.5,36.8z"/>
				<path d="M62.5,71.2"/>
				
					<linearGradient id="SVGID_56_" gradientUnits="userSpaceOnUse" x1="137.6" y1="3354.8" x2="137.6" y2="3354.8" gradientTransform="matrix(1 0 0 1 -68 -3282)">
					<stop  offset="0" style="stop-color:#3651BF"/>
					<stop  offset="1" style="stop-color:#2E5BDB"/>
				</linearGradient>
				<path class="st56" d="M69.6,72.8"/>
				<path class="st44" d="M62,36.9c-2.8,15.5-4,42.3-4,42.3L58.1,93H53l-0.1-13.1C52.9,79.9,57,56,62,36.9z"/>
				
					<linearGradient id="SVGID_57_" gradientUnits="userSpaceOnUse" x1="121" y1="3375.2" x2="126.7076" y2="3375.2" gradientTransform="matrix(1 0 0 1 -68 -3282)">
					<stop  offset="0" style="stop-color:#4C3EA1"/>
					<stop  offset="1" style="stop-color:#2E3192"/>
				</linearGradient>
				<polygon class="st57" points="58.7,80.7 58.7,80.5 55.6,73.4 54.7,73.4 53,84.3 53,85.8 53,91.5 53,113 57,113 57,91.5 57,85.8 
					57,85 				"/>
				
					<linearGradient id="SVGID_58_" gradientUnits="userSpaceOnUse" x1="125" y1="3374.1499" x2="135" y2="3374.1499" gradientTransform="matrix(1 0 0 1 -68 -3282)">
					<stop  offset="0" style="stop-color:#4C3EA1"/>
					<stop  offset="1" style="stop-color:#2E3192"/>
				</linearGradient>
				<polyline class="st58" points="67,112 67,84.7 62,72.3 57,84.7 57,112 				"/>
				<g>
					<path class="st31" d="M56.6,111.7V85.5c0-1.4-1.2-2.5-1.2-2.5s-1.2,1.1-1.2,2.5v26.2"/>
					<path class="st41" d="M55.3,83c0,0-1.2,1.1-1.2,2.5v0.8c0-1.4,1.2-2.5,1.2-2.5s1.2,1.1,1.2,2.5v-0.8C56.6,84.1,55.3,83,55.3,83
						z"/>
					<g>
						<path class="st41" d="M55.5,87.4v24.5"/>
					</g>
				</g>
				<g>
					<path class="st31" d="M65,113V83.8c0-1.6-2.5-2.8-2.5-2.8S60,82.2,60,83.8V113"/>
					<path class="st41" d="M62.5,81c0,0-2.4,1.2-2.4,2.7v0.8c0-1.5,2.4-2.7,2.4-2.7s2.4,1.2,2.4,2.7v-0.8C64.9,82.2,62.5,81,62.5,81
						z"/>
				</g>
				
					<linearGradient id="SVGID_59_" gradientUnits="userSpaceOnUse" x1="133.5851" y1="3375.1001" x2="139" y2="3375.1001" gradientTransform="matrix(1 0 0 1 -68 -3282)">
					<stop  offset="0" style="stop-color:#4C3EA1"/>
					<stop  offset="1" style="stop-color:#2E3192"/>
				</linearGradient>
				<polygon class="st59" points="69.5,73.2 69.1,73.3 65.6,81.1 67,84.8 67,85.8 67,91.5 67,113 71,113 71,91.5 71,85.8 71,84.3 
									"/>
				<g>
					<path class="st31" d="M70,112V85.5c0.2-1.4-1-2.5-1-2.5s-1.2,1.1-1,2.5V112"/>
					<path class="st41" d="M69,83c0,0-1.2,1.1-1.2,2.5v0.8c0-1.4,1.2-2.5,1.2-2.5s1.2,1.1,1.2,2.5v-0.8C70.2,84.1,69,83,69,83z"/>
					<g>
						<path class="st41" d="M69.6,111.9"/>
					</g>
				</g>
				
					<linearGradient id="SVGID_60_" gradientUnits="userSpaceOnUse" x1="68.2" y1="3394.2" x2="68.2" y2="3394.2" gradientTransform="matrix(1 0 0 1 0 -3282)">
					<stop  offset="0" style="stop-color:#3651BF"/>
					<stop  offset="1" style="stop-color:#2E5BDB"/>
				</linearGradient>
				<path class="st60" d="M68.2,112.2"/>
				
					<linearGradient id="SVGID_61_" gradientUnits="userSpaceOnUse" x1="51.0395" y1="3393" x2="73.0395" y2="3393" gradientTransform="matrix(1 0 0 1 0 -3282)">
					<stop  offset="0" style="stop-color:#2E3192"/>
					<stop  offset="1" style="stop-color:#2F0B81"/>
				</linearGradient>
				<rect x="51" y="109" class="st61" width="22" height="4"/>
			</g>
			
				<linearGradient id="SVGID_62_" gradientUnits="userSpaceOnUse" x1="61.5" y1="3317.5" x2="62.5" y2="3317.5" gradientTransform="matrix(1 0 0 1 0 -3282)">
				<stop  offset="0" style="stop-color:#4C3EA1"/>
				<stop  offset="1" style="stop-color:#2E3192"/>
			</linearGradient>
			<line class="st62" x1="62" y1="39" x2="62" y2="32"/>
			
				<linearGradient id="SVGID_63_" gradientUnits="userSpaceOnUse" x1="59" y1="3316.5" x2="65" y2="3316.5" gradientTransform="matrix(1 0 0 1 0 -3282)">
				<stop  offset="0" style="stop-color:#4C3EA1"/>
				<stop  offset="1" style="stop-color:#2E3192"/>
			</linearGradient>
			<line class="st63" x1="59.5" y1="34.5" x2="64.5" y2="34.5"/>
		</g>
	</g>
</g>
<g id="Warstwa_7">
</g>
</svg>