<svg xmlns="http://www.w3.org/2000/svg" xmlns:xlink="http://www.w3.org/1999/xlink" id="Warstwa_1" x="0" y="0" version="1.1" viewBox="0 0 200 172" style="enable-background:new 0 0 200 172" xml:space="preserve"><style type="text/css">.st0{fill:url(#SVGID_1_)}.st1,.st2{opacity:.2;clip-path:url(#SVGID_3_);enable-background:new}.st2{clip-path:url(#SVGID_5_)}.st3{fill:url(#SVGID_6_);stroke:url(#SVGID_7_)}.st3,.st4,.st5,.st6,.st7,.st8,.st9{stroke-linecap:round;stroke-miterlimit:10}.st4{fill:url(#SVGID_8_);stroke:url(#SVGID_9_)}.st5{fill:url(#SVGID_10_);stroke:url(#SVGID_11_)}.st6{fill:url(#SVGID_12_);stroke:url(#SVGID_13_)}.st7{fill:url(#SVGID_14_);stroke:url(#SVGID_15_)}.st8{fill:url(#SVGID_16_);stroke:url(#SVGID_17_)}.st9{fill:url(#SVGID_18_);stroke:url(#SVGID_19_)}.st10{fill:url(#SVGID_20_);stroke:url(#SVGID_21_)}.st10,.st11,.st12,.st13,.st14,.st15,.st16{stroke-linecap:round;stroke-miterlimit:10}.st11{fill:url(#SVGID_22_);stroke:url(#SVGID_23_)}.st12{fill:url(#SVGID_24_);stroke:url(#SVGID_25_)}.st13{fill:url(#SVGID_26_);stroke:url(#SVGID_27_)}.st14{fill:url(#SVGID_28_);stroke:url(#SVGID_29_)}.st15{fill:url(#SVGID_30_);stroke:url(#SVGID_31_)}.st16{fill:url(#SVGID_32_);stroke:url(#SVGID_33_)}.st17{fill:url(#SVGID_34_)}.st18{fill:url(#SVGID_35_)}.st19{fill:url(#SVGID_36_)}.st20{fill:url(#SVGID_37_)}.st21{fill:#373e9b}.st22{fill:url(#SVGID_38_)}.st23,.st24{opacity:.2;enable-background:new}.st24{opacity:.1;fill:#fff}.st25{fill:url(#SVGID_39_)}.st26{fill:url(#SVGID_40_)}.st27{opacity:.2}.st28,.st29{fill:#fff}.st29{opacity:.3;enable-background:new}.st30{fill:url(#SVGID_41_)}.st31,.st32{opacity:.3;enable-background:new}.st32{opacity:.44}.st33{opacity:.5}.st34{stroke-miterlimit:10}.st34,.st35,.st36,.st37{opacity:.3;fill:none;stroke:#fff;enable-background:new}.st35{stroke-miterlimit:9.9999}.st36{stroke-miterlimit:10.0003}.st37{stroke-miterlimit:10.0001}.st38{fill:url(#SVGID_42_)}.st39{fill:url(#SVGID_43_)}.st40,.st41{enable-background:new}.st40{opacity:.2;fill:#fff}.st41{opacity:.1}.st42{fill:url(#SVGID_44_)}.st43,.st44{opacity:.15;enable-background:new}.st44{opacity:.13}.st45{fill:url(#SVGID_45_)}.st46{fill:url(#SVGID_46_)}.st47{fill:url(#SVGID_47_)}.st48{fill:url(#SVGID_48_)}.st49{fill:url(#SVGID_49_)}.st50{fill:url(#SVGID_50_)}.st51,.st52{fill:none;stroke:url(#SVGID_51_);stroke-linecap:round;stroke-linejoin:round;stroke-miterlimit:10}.st52{stroke:url(#SVGID_52_)}.st53{fill:url(#SVGID_53_)}.st54{fill:url(#SVGID_54_)}.st55{fill:url(#SVGID_55_)}.st56{fill:url(#SVGID_56_)}.st57{fill:url(#SVGID_57_)}.st58{fill:url(#SVGID_58_)}.st59{fill:url(#SVGID_59_)}.st60{fill:url(#SVGID_60_)}.st61{fill:url(#SVGID_61_)}.st62,.st63{fill:none;stroke:url(#SVGID_62_);stroke-linecap:round;stroke-linejoin:round;stroke-miterlimit:10}.st63{stroke:url(#SVGID_63_)}</style><g id="bg"><linearGradient id="SVGID_1_" x1="101.5" x2="101.5" y1="-593" y2="-445.384" gradientTransform="matrix(1 0 0 -1 0 -420)" gradientUnits="userSpaceOnUse"><stop offset="0" style="stop-color:#1d7ee8"/><stop offset="1" style="stop-color:#2ea7db"/></linearGradient><path d="M16,111.5V173h171v-62.2c0-49.2-41.6-88.7-91.5-85.2C50.6,28.7,16,66.5,16,111.5z" class="st0"/><g><g><g><defs><path id="SVGID_2_" d="M15.9,111v61.5H187v-62.2c0-49.2-41.6-88.7-91.6-85.2C50.5,28.2,15.9,66,15.9,111z"/></defs><clipPath id="SVGID_3_"><use xlink:href="#SVGID_2_" style="overflow:visible"/></clipPath><polygon points="151.3 55 142 104 124 104 124 60 95 60 95 103.6 95 104 82 104 82 91 58 91 58 132.4 50 144.5 50 75 16 75 16 172 187 172 188.6 55" class="st1"/></g></g><g><g><defs><path id="SVGID_4_" d="M15.9,111v61.5H187v-62.2c0-49.2-41.6-88.7-91.6-85.2C50.5,28.2,15.9,66,15.9,111z"/></defs><clipPath id="SVGID_5_"><use xlink:href="#SVGID_4_" style="overflow:visible"/></clipPath><rect width="183" height="18" x="16" y="155" class="st2"/></g></g></g></g><g><g id="bridge"><linearGradient id="SVGID_6_" x1="105.7" x2="177.2" y1="-513.5" y2="-513.5" gradientTransform="matrix(1 0 0 -1 0 -420)" gradientUnits="userSpaceOnUse"><stop offset="0" style="stop-color:#2e3192"/><stop offset="1" style="stop-color:#2f0b81"/></linearGradient><linearGradient id="SVGID_7_" x1="105.2" x2="177.7" y1="-513.5" y2="-513.5" gradientTransform="matrix(1 0 0 -1 0 -420)" gradientUnits="userSpaceOnUse"><stop offset="0" style="stop-color:#4c3ea1"/><stop offset="1" style="stop-color:#2e3192"/></linearGradient><path d="M177.2,136.9c-49.3-60.7-71.5-86.8-71.5-86.8" class="st3"/><linearGradient id="SVGID_8_" x1="105.7" x2="165.9" y1="-515.8" y2="-515.8" gradientTransform="matrix(1 0 0 -1 0 -420)" gradientUnits="userSpaceOnUse"><stop offset="0" style="stop-color:#2e3192"/><stop offset="1" style="stop-color:#2f0b81"/></linearGradient><linearGradient id="SVGID_9_" x1="105.2" x2="166.4" y1="-515.8" y2="-515.8" gradientTransform="matrix(1 0 0 -1 0 -420)" gradientUnits="userSpaceOnUse"><stop offset="0" style="stop-color:#4c3ea1"/><stop offset="1" style="stop-color:#2e3192"/></linearGradient><path d="M165.9,136.9c-23.1-31.6-60.2-82.2-60.2-82.2" class="st4"/><linearGradient id="SVGID_10_" x1="105.1" x2="155.5" y1="-518.85" y2="-518.85" gradientTransform="matrix(1 0 0 -1 0 -420)" gradientUnits="userSpaceOnUse"><stop offset="0" style="stop-color:#2e3192"/><stop offset="1" style="stop-color:#2f0b81"/></linearGradient><linearGradient id="SVGID_11_" x1="104.6" x2="156" y1="-518.85" y2="-518.85" gradientTransform="matrix(1 0 0 -1 0 -420)" gradientUnits="userSpaceOnUse"><stop offset="0" style="stop-color:#4c3ea1"/><stop offset="1" style="stop-color:#2e3192"/></linearGradient><path d="M155.5,136.9c-22.4-34.3-50.4-76.1-50.4-76.1" class="st5"/><linearGradient id="SVGID_12_" x1="104.4" x2="146.212" y1="-521.1" y2="-521.1" gradientTransform="matrix(1 0 0 -1 0 -420)" gradientUnits="userSpaceOnUse"><stop offset="0" style="stop-color:#2e3192"/><stop offset="1" style="stop-color:#2f0b81"/></linearGradient><linearGradient id="SVGID_13_" x1="103.9" x2="146.713" y1="-521.1" y2="-521.1" gradientTransform="matrix(1 0 0 -1 0 -420)" gradientUnits="userSpaceOnUse"><stop offset="0" style="stop-color:#4c3ea1"/><stop offset="1" style="stop-color:#2e3192"/></linearGradient><path d="M146.3,136.9c-17.7-31.6-41.9-71.6-41.9-71.6" class="st6"/><linearGradient id="SVGID_14_" x1="103.1" x2="136.474" y1="-523.45" y2="-523.45" gradientTransform="matrix(1 0 0 -1 0 -420)" gradientUnits="userSpaceOnUse"><stop offset="0" style="stop-color:#2e3192"/><stop offset="1" style="stop-color:#2f0b81"/></linearGradient><linearGradient id="SVGID_15_" x1="102.6" x2="136.974" y1="-523.45" y2="-523.45" gradientTransform="matrix(1 0 0 -1 0 -420)" gradientUnits="userSpaceOnUse"><stop offset="0" style="stop-color:#4c3ea1"/><stop offset="1" style="stop-color:#2e3192"/></linearGradient><path d="M136.4,136.9C122,108.6,103.1,70,103.1,70" class="st7"/><linearGradient id="SVGID_16_" x1="102.418" x2="127.771" y1="-526.05" y2="-526.05" gradientTransform="matrix(1 0 0 -1 0 -420)" gradientUnits="userSpaceOnUse"><stop offset="0" style="stop-color:#2e3192"/><stop offset="1" style="stop-color:#2f0b81"/></linearGradient><linearGradient id="SVGID_17_" x1="101.922" x2="128.273" y1="-526.05" y2="-526.05" gradientTransform="matrix(1 0 0 -1 0 -420)" gradientUnits="userSpaceOnUse"><stop offset="0" style="stop-color:#4c3ea1"/><stop offset="1" style="stop-color:#2e3192"/></linearGradient><path d="M127.9,136.9c-10.5-27.7-25.3-61.7-25.3-61.7" class="st8"/><linearGradient id="SVGID_18_" x1="101.76" x2="117.891" y1="-529.05" y2="-529.05" gradientTransform="matrix(1 0 0 -1 0 -420)" gradientUnits="userSpaceOnUse"><stop offset="0" style="stop-color:#2e3192"/><stop offset="1" style="stop-color:#2f0b81"/></linearGradient><linearGradient id="SVGID_19_" x1="101.264" x2="118.393" y1="-529.05" y2="-529.05" gradientTransform="matrix(1 0 0 -1 0 -420)" gradientUnits="userSpaceOnUse"><stop offset="0" style="stop-color:#4c3ea1"/><stop offset="1" style="stop-color:#2e3192"/></linearGradient><path d="M117.9,136.9c-6.5-27.7-16.1-55.7-16.1-55.7" class="st9"/><linearGradient id="SVGID_20_" x1="18.8" x2="90.3" y1="-512.7" y2="-512.7" gradientTransform="matrix(1 0 0 -1 0 -420)" gradientUnits="userSpaceOnUse"><stop offset="0" style="stop-color:#2e3192"/><stop offset="1" style="stop-color:#2f0b81"/></linearGradient><linearGradient id="SVGID_21_" x1="18.3" x2="90.8" y1="-512.7" y2="-512.7" gradientTransform="matrix(1 0 0 -1 0 -420)" gradientUnits="userSpaceOnUse"><stop offset="0" style="stop-color:#4c3ea1"/><stop offset="1" style="stop-color:#2e3192"/></linearGradient><path d="M18.8,136.7c49.3-60.6,71.5-88,71.5-88" class="st10"/><linearGradient id="SVGID_22_" x1="31.4" x2="90.3" y1="-515.05" y2="-515.05" gradientTransform="matrix(1 0 0 -1 0 -420)" gradientUnits="userSpaceOnUse"><stop offset="0" style="stop-color:#2e3192"/><stop offset="1" style="stop-color:#2f0b81"/></linearGradient><linearGradient id="SVGID_23_" x1="30.9" x2="90.8" y1="-515.05" y2="-515.05" gradientTransform="matrix(1 0 0 -1 0 -420)" gradientUnits="userSpaceOnUse"><stop offset="0" style="stop-color:#4c3ea1"/><stop offset="1" style="stop-color:#2e3192"/></linearGradient><path d="M31.4,136.7c23.1-31.6,58.9-83.3,58.9-83.3" class="st11"/><linearGradient id="SVGID_24_" x1="41.9" x2="91.1" y1="-518.05" y2="-518.05" gradientTransform="matrix(1 0 0 -1 0 -420)" gradientUnits="userSpaceOnUse"><stop offset="0" style="stop-color:#2e3192"/><stop offset="1" style="stop-color:#2f0b81"/></linearGradient><linearGradient id="SVGID_25_" x1="41.4" x2="91.6" y1="-518.05" y2="-518.05" gradientTransform="matrix(1 0 0 -1 0 -420)" gradientUnits="userSpaceOnUse"><stop offset="0" style="stop-color:#4c3ea1"/><stop offset="1" style="stop-color:#2e3192"/></linearGradient><path d="M41.9,136.7c22.4-34.3,49.2-77.3,49.2-77.3" class="st12"/><linearGradient id="SVGID_26_" x1="49.9" x2="91.712" y1="-520.3" y2="-520.3" gradientTransform="matrix(1 0 0 -1 0 -420)" gradientUnits="userSpaceOnUse"><stop offset="0" style="stop-color:#2e3192"/><stop offset="1" style="stop-color:#2f0b81"/></linearGradient><linearGradient id="SVGID_27_" x1="49.4" x2="92.213" y1="-520.3" y2="-520.3" gradientTransform="matrix(1 0 0 -1 0 -420)" gradientUnits="userSpaceOnUse"><stop offset="0" style="stop-color:#4c3ea1"/><stop offset="1" style="stop-color:#2e3192"/></linearGradient><path d="M49.9,136.7c17.7-31.6,41.9-72.8,41.9-72.8" class="st13"/><linearGradient id="SVGID_28_" x1="59.6" x2="92.974" y1="-522.65" y2="-522.65" gradientTransform="matrix(1 0 0 -1 0 -420)" gradientUnits="userSpaceOnUse"><stop offset="0" style="stop-color:#2e3192"/><stop offset="1" style="stop-color:#2f0b81"/></linearGradient><linearGradient id="SVGID_29_" x1="59.1" x2="93.473" y1="-522.65" y2="-522.65" gradientTransform="matrix(1 0 0 -1 0 -420)" gradientUnits="userSpaceOnUse"><stop offset="0" style="stop-color:#4c3ea1"/><stop offset="1" style="stop-color:#2e3192"/></linearGradient><path d="M59.6,136.7c14.5-28.4,33.3-68.1,33.3-68.1" class="st14"/><linearGradient id="SVGID_30_" x1="68.3" x2="93.653" y1="-525.85" y2="-525.85" gradientTransform="matrix(1 0 0 -1 0 -420)" gradientUnits="userSpaceOnUse"><stop offset="0" style="stop-color:#2e3192"/><stop offset="1" style="stop-color:#2f0b81"/></linearGradient><linearGradient id="SVGID_31_" x1="67.8" x2="94.151" y1="-525.85" y2="-525.85" gradientTransform="matrix(1 0 0 -1 0 -420)" gradientUnits="userSpaceOnUse"><stop offset="0" style="stop-color:#4c3ea1"/><stop offset="1" style="stop-color:#2e3192"/></linearGradient><path d="M68.3,137.9c10.5-27.7,25.3-64.1,25.3-64.1" class="st15"/><linearGradient id="SVGID_32_" x1="78.156" x2="94.288" y1="-528.25" y2="-528.25" gradientTransform="matrix(1 0 0 -1 0 -420)" gradientUnits="userSpaceOnUse"><stop offset="0" style="stop-color:#2e3192"/><stop offset="1" style="stop-color:#2f0b81"/></linearGradient><linearGradient id="SVGID_33_" x1="77.66" x2="94.789" y1="-528.25" y2="-528.25" gradientTransform="matrix(1 0 0 -1 0 -420)" gradientUnits="userSpaceOnUse"><stop offset="0" style="stop-color:#4c3ea1"/><stop offset="1" style="stop-color:#2e3192"/></linearGradient><path d="M78.2,136.7c6.5-27.7,16.1-56.9,16.1-56.9" class="st16"/><linearGradient id="SVGID_34_" x1="17.6" x2="178.4" y1="-560" y2="-560" gradientTransform="matrix(1 0 0 -1 0 -420)" gradientUnits="userSpaceOnUse"><stop offset="0" style="stop-color:#2e3192"/><stop offset="1" style="stop-color:#2f0b81"/></linearGradient><rect width="160.8" height="6" x="17.6" y="137" class="st17"/><linearGradient id="SVGID_35_" x1="89.1" x2="114.258" y1="-521" y2="-521" gradientTransform="matrix(1 0 0 -1 0 -420)" gradientUnits="userSpaceOnUse"><stop offset="0" style="stop-color:#2e3192"/><stop offset="1" style="stop-color:#2f0b81"/></linearGradient><polygon points="89.1 47 92.4 47 114.3 155 104.9 155" class="st18"/><linearGradient id="SVGID_36_" x1="9011.008" x2="9036.166" y1="-521" y2="-521" gradientTransform="matrix(-1 0 0 -1 9118 -420)" gradientUnits="userSpaceOnUse"><stop offset="0" style="stop-color:#2e3192"/><stop offset="1" style="stop-color:#2f0b81"/></linearGradient><polygon points="106.9 47 103.7 47 81.9 155 91.1 155" class="st19"/><linearGradient id="SVGID_37_" x1="95.049" x2="101.024" y1="-472.4" y2="-472.4" gradientTransform="matrix(1 0 0 -1 0 -420)" gradientUnits="userSpaceOnUse"><stop offset="0" style="stop-color:#2e3192"/><stop offset="1" style="stop-color:#2f0b81"/></linearGradient><polygon points="95.1 49.4 96.1 55.4 99.9 55.4 101.1 49.4" class="st20"/></g><g id="Warstwa_10"><polyline points="116 133.3 113 136.2 113 173 116 173 116 133" class="st21"/><linearGradient id="SVGID_38_" x1="116" x2="152" y1="-47.42" y2="-47.42" gradientTransform="matrix(1 0 0 -1 0 105.58)" gradientUnits="userSpaceOnUse"><stop offset="0" style="stop-color:#2e60e8"/><stop offset="1" style="stop-color:#2e74db"/></linearGradient><rect width="36" height="40" x="116" y="133" class="st22"/><rect width="36" height="3" x="116" y="133" class="st23"/><rect width="8" height="3" x="119" y="150" class="st24"/><rect width="8" height="3" x="119" y="155" class="st24"/><rect width="8" height="3" x="119" y="160" class="st24"/><rect width="8" height="3" x="119" y="140" class="st24"/><rect width="8" height="3" x="119" y="145" class="st24"/><rect width="8" height="3" x="130" y="150" class="st24"/><rect width="8" height="3" x="130" y="155" class="st24"/><rect width="8" height="3" x="130" y="160" class="st24"/><rect width="8" height="3" x="130" y="140" class="st24"/><rect width="8" height="3" x="130" y="145" class="st24"/><rect width="8" height="3" x="141" y="150" class="st24"/><rect width="8" height="3" x="141" y="155" class="st24"/><rect width="8" height="3" x="141" y="160" class="st24"/><rect width="8" height="3" x="119" y="165" class="st24"/><rect width="8" height="3" x="130" y="165" class="st24"/><rect width="8" height="3" x="141" y="165" class="st24"/><rect width="8" height="3" x="141" y="140" class="st24"/><rect width="8" height="3" x="141" y="145" class="st24"/></g><g id="building_-_right"><linearGradient id="SVGID_39_" x1="148" x2="197" y1="3952.5" y2="3952.5" gradientTransform="matrix(1 0 0 1 0 -3854)" gradientUnits="userSpaceOnUse"><stop offset="0" style="stop-color:#2e65ca"/><stop offset="1" style="stop-color:#2e74db"/></linearGradient><polygon points="148 33 152.8 25 192 25 197 33 197 172 148 172" class="st25"/><polygon points="153 25 168 66 168 172 180 172 180 66 192 25" class="st24"/><linearGradient id="SVGID_40_" x1="197.003" x2="199.995" y1="3956.5" y2="3956.5" gradientTransform="matrix(1 0 0 1 0 -3854)" gradientUnits="userSpaceOnUse"><stop offset="0" style="stop-color:#4c3ea1"/><stop offset="1" style="stop-color:#2e3192"/></linearGradient><polygon points="197 172 200 172 200 37 197 33" class="st26"/><g id="center" class="st27"><polygon points="159 31 187 31 186 35 160 35" class="st28"/><polygon points="161 38 185 38 184 42 162 42" class="st28"/><polygon points="164 45 183 45 182 49 165 49" class="st28"/><polygon points="166 52 181 52 180 56 167 56" class="st28"/><polygon points="169 59 178 59 177 63 170 63" class="st28"/><rect width="6" height="4" x="171" y="66" class="st28"/><rect width="6" height="4" x="171" y="73" class="st28"/><rect width="6" height="4" x="171" y="80" class="st28"/><rect width="6" height="4" x="171" y="87" class="st28"/><rect width="6" height="4" x="171" y="94" class="st28"/><rect width="6" height="4" x="171" y="101" class="st28"/><rect width="6" height="4" x="171" y="108" class="st28"/><rect width="6" height="4" x="171" y="115" class="st28"/><rect width="6" height="4" x="171" y="122" class="st28"/><rect width="6" height="4" x="171" y="129" class="st28"/><rect width="6" height="4" x="171" y="136" class="st28"/><rect width="6" height="4" x="171" y="143" class="st28"/><rect width="6" height="4" x="171" y="150" class="st28"/><rect width="6" height="4" x="171" y="157" class="st28"/><rect width="6" height="4" x="171" y="164" class="st28"/></g><g id="left"><rect width="2" height="2" x="152" y="132" class="st29"/><rect width="2" height="2" x="152" y="127" class="st29"/><rect width="2" height="2" x="152" y="122" class="st29"/><rect width="2" height="2" x="152" y="117" class="st28"/><rect width="2" height="2" x="152" y="112" class="st29"/><rect width="2" height="2" x="152" y="107" class="st29"/><rect width="2" height="2" x="152" y="102" class="st29"/><rect width="2" height="2" x="152" y="97" class="st29"/><rect width="2" height="2" x="152" y="92" class="st29"/><rect width="2" height="2" x="152" y="87" class="st29"/><rect width="2" height="2" x="157" y="92" class="st29"/><rect width="2" height="2" x="157" y="87" class="st29"/><rect width="2" height="2" x="162" y="92" class="st29"/><rect width="2" height="2" x="162" y="87" class="st29"/><rect width="2" height="2" x="152" y="167" class="st29"/><rect width="2" height="2" x="152" y="162" class="st29"/><rect width="2" height="2" x="152" y="157" class="st29"/><rect width="2" height="2" x="152" y="152" class="st29"/><rect width="2" height="2" x="152" y="147" class="st29"/><rect width="2" height="2" x="152" y="142" class="st29"/><rect width="2" height="2" x="152" y="137" class="st29"/><rect width="2" height="2" x="157" y="132" class="st29"/><rect width="2" height="2" x="157" y="127" class="st29"/><rect width="2" height="2" x="157" y="122" class="st29"/><rect width="2" height="2" x="157" y="117" class="st29"/><rect width="2" height="2" x="157" y="112" class="st29"/><rect width="2" height="2" x="157" y="107" class="st29"/><rect width="2" height="2" x="157" y="102" class="st29"/><rect width="2" height="2" x="157" y="97" class="st28"/><rect width="2" height="2" x="157" y="167" class="st29"/><rect width="2" height="2" x="157" y="162" class="st29"/><rect width="2" height="2" x="157" y="157" class="st28"/><rect width="2" height="2" x="157" y="152" class="st29"/><rect width="2" height="2" x="157" y="147" class="st29"/><rect width="2" height="2" x="157" y="142" class="st29"/><rect width="2" height="2" x="157" y="137" class="st29"/><rect width="2" height="2" x="162" y="132" class="st29"/><rect width="2" height="2" x="162" y="127" class="st29"/><rect width="2" height="2" x="162" y="122" class="st29"/><rect width="2" height="2" x="162" y="117" class="st29"/><rect width="2" height="2" x="162" y="112" class="st29"/><rect width="2" height="2" x="162" y="107" class="st29"/><rect width="2" height="2" x="162" y="102" class="st29"/><rect width="2" height="2" x="162" y="97" class="st28"/><rect width="2" height="2" x="162" y="167" class="st29"/><rect width="2" height="2" x="162" y="162" class="st29"/><rect width="2" height="2" x="162" y="157" class="st28"/><rect width="2" height="2" x="162" y="152" class="st29"/><rect width="2" height="2" x="162" y="147" class="st29"/><rect width="2" height="2" x="162" y="142" class="st29"/><rect width="2" height="2" x="162" y="137" class="st29"/><rect width="2" height="2" x="152" y="77" class="st29"/><rect width="2" height="2" x="152" y="72" class="st29"/><rect width="2" height="2" x="152" y="67" class="st29"/><rect width="2" height="2" x="152" y="62" class="st29"/><rect width="2" height="2" x="152" y="57" class="st29"/><rect width="2" height="2" x="152" y="52" class="st29"/><rect width="2" height="2" x="152" y="47" class="st29"/><rect width="2" height="2" x="152" y="82" class="st29"/><rect width="2" height="2" x="157" y="77" class="st29"/><rect width="2" height="2" x="157" y="72" class="st29"/><rect width="2" height="2" x="157" y="67" class="st29"/><rect width="2" height="2" x="157" y="62" class="st29"/><rect width="2" height="2" x="157" y="57" class="st29"/><rect width="2" height="2" x="157" y="82" class="st29"/><rect width="2" height="2" x="162" y="77" class="st29"/><rect width="2" height="2" x="162" y="72" class="st29"/><rect width="2" height="2" x="162" y="67" class="st29"/><rect width="2" height="2" x="162" y="82" class="st29"/></g><g id="left_kopia"><rect width="2" height="2" x="183" y="82" class="st29"/><rect width="2" height="2" x="183" y="87" class="st29"/><rect width="2" height="2" x="183" y="92" class="st29"/><rect width="2" height="2" x="183" y="97" class="st28"/><rect width="2" height="2" x="183" y="102" class="st29"/><rect width="2" height="2" x="183" y="107" class="st29"/><rect width="2" height="2" x="183" y="112" class="st29"/><rect width="2" height="2" x="183" y="117" class="st29"/><rect width="2" height="2" x="183" y="122" class="st29"/><rect width="2" height="2" x="183" y="127" class="st29"/><rect width="2" height="2" x="188" y="122" class="st29"/><rect width="2" height="2" x="188" y="127" class="st29"/><rect width="2" height="2" x="193" y="122" class="st29"/><rect width="2" height="2" x="193" y="127" class="st29"/><rect width="2" height="2" x="183" y="62" class="st29"/><rect width="2" height="2" x="183" y="67" class="st29"/><rect width="2" height="2" x="183" y="72" class="st29"/><rect width="2" height="2" x="183" y="77" class="st29"/><rect width="2" height="2" x="188" y="82" class="st29"/><rect width="2" height="2" x="188" y="87" class="st29"/><rect width="2" height="2" x="188" y="92" class="st29"/><rect width="2" height="2" x="188" y="97" class="st29"/><rect width="2" height="2" x="188" y="102" class="st29"/><rect width="2" height="2" x="188" y="107" class="st29"/><rect width="2" height="2" x="188" y="112" class="st29"/><rect width="2" height="2" x="188" y="117" class="st28"/><rect width="2" height="2" x="188" y="57" class="st28"/><rect width="2" height="2" x="188" y="62" class="st29"/><rect width="2" height="2" x="188" y="67" class="st29"/><rect width="2" height="2" x="188" y="72" class="st29"/><rect width="2" height="2" x="188" y="77" class="st29"/><rect width="2" height="2" x="193" y="82" class="st29"/><rect width="2" height="2" x="193" y="87" class="st29"/><rect width="2" height="2" x="193" y="92" class="st29"/><rect width="2" height="2" x="193" y="97" class="st29"/><rect width="2" height="2" x="193" y="102" class="st29"/><rect width="2" height="2" x="193" y="107" class="st29"/><rect width="2" height="2" x="193" y="112" class="st29"/><rect width="2" height="2" x="193" y="117" class="st28"/><rect width="2" height="2" x="193" y="47" class="st29"/><rect width="2" height="2" x="193" y="52" class="st29"/><rect width="2" height="2" x="193" y="57" class="st28"/><rect width="2" height="2" x="193" y="62" class="st29"/><rect width="2" height="2" x="193" y="67" class="st29"/><rect width="2" height="2" x="193" y="72" class="st29"/><rect width="2" height="2" x="193" y="77" class="st29"/><rect width="2" height="2" x="183" y="137" class="st29"/><rect width="2" height="2" x="183" y="142" class="st29"/><rect width="2" height="2" x="183" y="147" class="st29"/><rect width="2" height="2" x="183" y="152" class="st29"/><rect width="2" height="2" x="183" y="157" class="st29"/><rect width="2" height="2" x="183" y="162" class="st29"/><rect width="2" height="2" x="183" y="167" class="st29"/><rect width="2" height="2" x="183" y="132" class="st29"/><rect width="2" height="2" x="188" y="137" class="st29"/><rect width="2" height="2" x="188" y="142" class="st29"/><rect width="2" height="2" x="188" y="147" class="st29"/><rect width="2" height="2" x="188" y="152" class="st29"/><rect width="2" height="2" x="188" y="157" class="st29"/><rect width="2" height="2" x="188" y="132" class="st29"/><rect width="2" height="2" x="193" y="137" class="st29"/><rect width="2" height="2" x="193" y="142" class="st29"/><rect width="2" height="2" x="193" y="147" class="st29"/><rect width="2" height="2" x="193" y="152" class="st29"/><rect width="2" height="2" x="193" y="157" class="st29"/><rect width="2" height="2" x="188" y="162" class="st29"/><rect width="2" height="2" x="193" y="162" class="st29"/><rect width="2" height="2" x="188" y="167" class="st29"/><rect width="2" height="2" x="193" y="167" class="st29"/><rect width="2" height="2" x="193" y="132" class="st29"/></g></g><g id="bilding_-_left"><g id="Warstwa_6"><linearGradient id="SVGID_41_" x1="21.953" x2="51" y1="3414.8" y2="3414.8" gradientTransform="matrix(1 0 0 1 0 -3282)" gradientUnits="userSpaceOnUse"><stop offset="0" style="stop-color:#4c3ea1"/><stop offset="1" style="stop-color:#2e3192"/></linearGradient><polygon points="36.5 93.5 22 109 22 172.1 51 172.1 51 109.3" class="st30"/><polygon points="36.5 93.5 22 109 22 172.1 51 172.1 51 109.3" class="st31"/><path d="M45.7,171.7v-17.2c0-2.8-5.1-8.7-9.3-8.7s-9.3,5.9-9.3,8.7v17.2H45.7z" class="st31"/><path d="M41.8,171.6v-10c0-1.6-3-5.1-5.4-5.1s-5.4,3.4-5.4,5.1v10H41.8z" class="st31"/><g><circle cx="36.5" cy="117.9" r="9.2" class="st24"/><circle cx="36.5" cy="117.9" r="7.9" class="st32"/><g class="st33"><ellipse cx="36.5" cy="117.9" class="st34" rx="1.9" ry="7.5"/><ellipse cx="36.5" cy="117.9" class="st34" rx="7.5" ry="1.9"/><ellipse cx="36.5" cy="117.9" class="st35" rx="1.9" ry="7.5" transform="matrix(0.7071 -0.7071 0.7071 0.7071 -72.6633 60.3358)"/><ellipse cx="36.5" cy="117.9" class="st35" rx="7.5" ry="1.9" transform="matrix(0.7071 -0.7071 0.7071 0.7071 -72.6633 60.3358)"/><ellipse cx="36.5" cy="117.9" class="st36" rx="1.9" ry="7.5" transform="matrix(0.3913 -0.9203 0.9203 0.3913 -86.2608 105.3303)"/><ellipse cx="36.5" cy="117.9" class="st36" rx="7.5" ry="1.9" transform="matrix(0.3913 -0.9203 0.9203 0.3913 -86.2608 105.3303)"/><ellipse cx="36.5" cy="117.9" class="st37" rx="7.5" ry="1.9" transform="matrix(0.9274 -0.3741 0.3741 0.9274 -41.4547 22.2163)"/><ellipse cx="36.5" cy="117.9" class="st37" rx="1.9" ry="7.5" transform="matrix(0.9274 -0.3741 0.3741 0.9274 -41.4547 22.2163)"/></g></g><rect width="29" height="1" x="22" y="131" class="st24"/></g><g id="Warstwa_5"><rect width="21.9" height="2.1" x=".2" y="110.6" class="st31"/><linearGradient id="SVGID_42_" x1=".04" x2="22.04" y1="3422.5" y2="3422.5" gradientTransform="matrix(1 0 0 1 0 -3282)" gradientUnits="userSpaceOnUse"><stop offset="0" style="stop-color:#451088"/><stop offset="1" style="stop-color:#593179"/></linearGradient><rect width="22" height="61" y="110" class="st38"/><linearGradient id="SVGID_43_" x1="0" x2="22" y1="3423.5" y2="3423.5" gradientTransform="matrix(1 0 0 1 0 -3282)" gradientUnits="userSpaceOnUse"><stop offset="0" style="stop-color:#4c3ea1"/><stop offset="1" style="stop-color:#2e3192"/></linearGradient><polygon points="22 120 22 111 0 111 0 172 22 172" class="st39"/><rect width="2" height="59" y="113" class="st24"/><rect width="2" height="62" x="20" y="110" class="st40"/><rect width="18" height="1" x="2" y="144" class="st24"/><path d="M14,166v-12.2c0-2-3.5-6.2-3.5-6.2S7,151.7,7,153.8V166H14z" class="st31"/><path d="M10.5,147.6c0,0-3.5,4.5-3.5,6.1v0.9c0-1.6,3.5-6.1,3.5-6.1s3.5,4.5,3.5,6.1v-0.9 C14,152.1,10.5,147.6,10.5,147.6z" class="st41"/><path d="M14,142v-15c0-2.5-3.5-7.6-3.5-7.6S7,124.5,7,127v15H14z" class="st31"/><path d="M10.5,119.4c0,0-3.5,5.4-3.5,7.3v1.1c0-1.9,3.5-7.3,3.5-7.3s3.5,5.4,3.5,7.3v-1.1 C14,124.7,10.5,119.4,10.5,119.4z" class="st41"/><g><linearGradient id="SVGID_44_" x1="70" x2="87.861" y1="3346.95" y2="3346.95" gradientTransform="matrix(1 0 0 1 -68 -3282)" gradientUnits="userSpaceOnUse"><stop offset="0" style="stop-color:#4c3ea1"/><stop offset="1" style="stop-color:#2e3192"/></linearGradient><path d="M11,36.9L11,36.9c-4,12.6-9,43-9,43L2.1,93h9H20V80C19.9,80,16,52.4,11,36.9z" class="st42"/><path d="M11.3,37L11.3,37C5.5,57,2,80.1,2,80.1l0.1,13.1h9.2H20V80C20,80,15.9,50.9,11.3,37z" class="st43"/><path d="M11.3,37C13.9,52.5,16,79,16,79l0.2,13.8l3.8,0.4V80C19.9,79.9,17,59,11.3,37z" class="st44"/><path d="M11.5,71.2"/><linearGradient id="SVGID_45_" x1="86.6" x2="86.6" y1="3354.8" y2="3354.8" gradientTransform="matrix(1 0 0 1 -68 -3282)" gradientUnits="userSpaceOnUse"><stop offset="0" style="stop-color:#3651bf"/><stop offset="1" style="stop-color:#2e5bdb"/></linearGradient><path d="M18.6,72.8" class="st45"/><path d="M11,36.9C9,52,7,79.1,7,79.1L7.1,93H2L1.9,79.9C1.9,79.9,6,55,11,36.9z" class="st44"/><linearGradient id="SVGID_46_" x1="74" x2="84" y1="3374.15" y2="3374.15" gradientTransform="matrix(1 0 0 1 -68 -3282)" gradientUnits="userSpaceOnUse"><stop offset="0" style="stop-color:#4c3ea1"/><stop offset="1" style="stop-color:#2e3192"/></linearGradient><polyline points="16 112 16 84.7 11 72.3 6 84.7 6 112" class="st46"/><linearGradient id="SVGID_47_" x1="70" x2="75.708" y1="3372.5" y2="3372.5" gradientTransform="matrix(1 0 0 1 -68 -3282)" gradientUnits="userSpaceOnUse"><stop offset="0" style="stop-color:#4c3ea1"/><stop offset="1" style="stop-color:#2e3192"/></linearGradient><polygon points="7.7 80.7 7.7 80.5 4 68 2 80 2 84 2 91.5 2 113 6 113 6 85" class="st47"/><g><path d="M5.6,111.7V85.5c0-1.4-1.2-2.5-1.2-2.5s-1.2,1.1-1.2,2.5v26.2" class="st31"/><path d="M4.3,83c0,0-1.2,1.1-1.2,2.5v0.8c0-1.4,1.2-2.5,1.2-2.5s1.2,1.1,1.2,2.5v-0.8C5.6,84.1,4.3,83,4.3,83z" class="st41"/><g><path d="M4.5,87.4v24.5" class="st41"/></g></g><g><path d="M14,112V82.8c0-1.6-2.5-2.8-2.5-2.8S9,81.2,9,82.8V112" class="st31"/><path d="M11.1,80.6c0,0-2.4,1.2-2.4,2.7v0.8c0-1.5,2.4-2.7,2.4-2.7s2.4,1.2,2.4,2.7v-0.8 C13.5,81.8,11.1,80.6,11.1,80.6z" class="st41"/></g><linearGradient id="SVGID_48_" x1="82.585" x2="88" y1="3375.1" y2="3375.1" gradientTransform="matrix(1 0 0 1 -68 -3282)" gradientUnits="userSpaceOnUse"><stop offset="0" style="stop-color:#4c3ea1"/><stop offset="1" style="stop-color:#2e3192"/></linearGradient><polygon points="18.5 73.2 18.1 73.3 14.6 81.1 16 84.8 16 85.8 16 91.5 16 113 20 113 20 91.5 20 85.8 20 84.3" class="st48"/><g><path d="M19.2,111.7V85.5c0-1.4-1.2-2.5-1.2-2.5s-1.2,1.1-1.2,2.5v26.2" class="st31"/><path d="M18,83c0,0-1.2,1.1-1.2,2.5v0.8c0-1.4,1.2-2.5,1.2-2.5s1.2,1.1,1.2,2.5v-0.8C19.2,84.1,18,83,18,83z" class="st41"/><g><path d="M18.6,111.9" class="st41"/></g></g><linearGradient id="SVGID_49_" x1="17.2" x2="17.2" y1="3394.2" y2="3394.2" gradientTransform="matrix(1 0 0 1 0 -3282)" gradientUnits="userSpaceOnUse"><stop offset="0" style="stop-color:#3651bf"/><stop offset="1" style="stop-color:#2e5bdb"/></linearGradient><path d="M17.2,112.2" class="st49"/><linearGradient id="SVGID_50_" x1=".039" x2="22.04" y1="3394" y2="3394" gradientTransform="matrix(1 0 0 1 0 -3282)" gradientUnits="userSpaceOnUse"><stop offset="0" style="stop-color:#2e3192"/><stop offset="1" style="stop-color:#2f0b81"/></linearGradient><rect width="22" height="4" y="110" class="st50"/></g><linearGradient id="SVGID_51_" x1="10.5" x2="11.5" y1="3317.5" y2="3317.5" gradientTransform="matrix(1 0 0 1 0 -3282)" gradientUnits="userSpaceOnUse"><stop offset="0" style="stop-color:#4c3ea1"/><stop offset="1" style="stop-color:#2e3192"/></linearGradient><line x1="11" x2="11" y1="39" y2="32" class="st51"/><linearGradient id="SVGID_52_" x1="8" x2="14" y1="3316.5" y2="3316.5" gradientTransform="matrix(1 0 0 1 0 -3282)" gradientUnits="userSpaceOnUse"><stop offset="0" style="stop-color:#4c3ea1"/><stop offset="1" style="stop-color:#2e3192"/></linearGradient><line x1="8.5" x2="13.5" y1="34.5" y2="34.5" class="st52"/></g><g id="Warstwa_5_kopia"><rect width="21.9" height="2.1" x="51.2" y="110.6" class="st31"/><linearGradient id="SVGID_53_" x1="51.04" x2="73.04" y1="3422.5" y2="3422.5" gradientTransform="matrix(1 0 0 1 0 -3282)" gradientUnits="userSpaceOnUse"><stop offset="0" style="stop-color:#451088"/><stop offset="1" style="stop-color:#593179"/></linearGradient><rect width="22" height="61" x="51" y="110" class="st53"/><linearGradient id="SVGID_54_" x1="51" x2="73" y1="3423.5" y2="3423.5" gradientTransform="matrix(1 0 0 1 0 -3282)" gradientUnits="userSpaceOnUse"><stop offset="0" style="stop-color:#4c3ea1"/><stop offset="1" style="stop-color:#2e3192"/></linearGradient><polygon points="73 120 73 111 51 111 51 172 73 172" class="st54"/><rect width="2" height="59" x="51" y="113" class="st24"/><rect width="2" height="62" x="71" y="110" class="st40"/><rect width="18" height="1" x="53" y="144" class="st24"/><path d="M65,166v-12.2c0-2-3.5-6.2-3.5-6.2s-3.5,4.2-3.5,6.2V166H65z" class="st31"/><path d="M61.5,147.5c0,0-3.5,4.5-3.5,6.1v0.9c0-1.6,3.5-6.1,3.5-6.1s3.5,4.5,3.5,6.1v-0.9 C65,152,61.5,147.5,61.5,147.5z" class="st41"/><path d="M65,142v-15c0-2.5-3.5-7.6-3.5-7.6S58,124.5,58,127v15H65z" class="st31"/><path d="M61.5,119.4c0,0-3.5,5.4-3.5,7.3v1.1c0-1.9,3.5-7.3,3.5-7.3s3.5,5.4,3.5,7.3v-1.1 C65,124.7,61.5,119.4,61.5,119.4z" class="st41"/><g><linearGradient id="SVGID_55_" x1="121" x2="139.06" y1="3346.95" y2="3346.95" gradientTransform="matrix(1 0 0 1 -68 -3282)" gradientUnits="userSpaceOnUse"><stop offset="0" style="stop-color:#4c3ea1"/><stop offset="1" style="stop-color:#2e3192"/></linearGradient><path d="M62,36.9L62,36.9C58,49.6,53,80,53,80l0.1,13h9h9l0.1-13.1C71.1,79.9,67,52.4,62,36.9z" class="st55"/><path d="M62.3,36.8L62.3,36.8c-5.8,20-9.3,43.1-9.3,43.1L53.1,93h9.2H71V80C71,80,66.9,50.7,62.3,36.8z" class="st43"/><path d="M62.5,36.8C65,52.3,67,79.1,67,79.1L66.9,93H71V80C71,80,68.3,55.2,62.5,36.8z" class="st44"/><path d="M62.5,71.2"/><linearGradient id="SVGID_56_" x1="137.6" x2="137.6" y1="3354.8" y2="3354.8" gradientTransform="matrix(1 0 0 1 -68 -3282)" gradientUnits="userSpaceOnUse"><stop offset="0" style="stop-color:#3651bf"/><stop offset="1" style="stop-color:#2e5bdb"/></linearGradient><path d="M69.6,72.8" class="st56"/><path d="M62,36.9c-2.8,15.5-4,42.3-4,42.3L58.1,93H53l-0.1-13.1C52.9,79.9,57,56,62,36.9z" class="st44"/><linearGradient id="SVGID_57_" x1="121" x2="126.708" y1="3375.2" y2="3375.2" gradientTransform="matrix(1 0 0 1 -68 -3282)" gradientUnits="userSpaceOnUse"><stop offset="0" style="stop-color:#4c3ea1"/><stop offset="1" style="stop-color:#2e3192"/></linearGradient><polygon points="58.7 80.7 58.7 80.5 55.6 73.4 54.7 73.4 53 84.3 53 85.8 53 91.5 53 113 57 113 57 91.5 57 85.8 57 85" class="st57"/><linearGradient id="SVGID_58_" x1="125" x2="135" y1="3374.15" y2="3374.15" gradientTransform="matrix(1 0 0 1 -68 -3282)" gradientUnits="userSpaceOnUse"><stop offset="0" style="stop-color:#4c3ea1"/><stop offset="1" style="stop-color:#2e3192"/></linearGradient><polyline points="67 112 67 84.7 62 72.3 57 84.7 57 112" class="st58"/><g><path d="M56.6,111.7V85.5c0-1.4-1.2-2.5-1.2-2.5s-1.2,1.1-1.2,2.5v26.2" class="st31"/><path d="M55.3,83c0,0-1.2,1.1-1.2,2.5v0.8c0-1.4,1.2-2.5,1.2-2.5s1.2,1.1,1.2,2.5v-0.8C56.6,84.1,55.3,83,55.3,83 z" class="st41"/><g><path d="M55.5,87.4v24.5" class="st41"/></g></g><g><path d="M65,113V83.8c0-1.6-2.5-2.8-2.5-2.8S60,82.2,60,83.8V113" class="st31"/><path d="M62.5,81c0,0-2.4,1.2-2.4,2.7v0.8c0-1.5,2.4-2.7,2.4-2.7s2.4,1.2,2.4,2.7v-0.8C64.9,82.2,62.5,81,62.5,81 z" class="st41"/></g><linearGradient id="SVGID_59_" x1="133.585" x2="139" y1="3375.1" y2="3375.1" gradientTransform="matrix(1 0 0 1 -68 -3282)" gradientUnits="userSpaceOnUse"><stop offset="0" style="stop-color:#4c3ea1"/><stop offset="1" style="stop-color:#2e3192"/></linearGradient><polygon points="69.5 73.2 69.1 73.3 65.6 81.1 67 84.8 67 85.8 67 91.5 67 113 71 113 71 91.5 71 85.8 71 84.3" class="st59"/><g><path d="M70,112V85.5c0.2-1.4-1-2.5-1-2.5s-1.2,1.1-1,2.5V112" class="st31"/><path d="M69,83c0,0-1.2,1.1-1.2,2.5v0.8c0-1.4,1.2-2.5,1.2-2.5s1.2,1.1,1.2,2.5v-0.8C70.2,84.1,69,83,69,83z" class="st41"/><g><path d="M69.6,111.9" class="st41"/></g></g><linearGradient id="SVGID_60_" x1="68.2" x2="68.2" y1="3394.2" y2="3394.2" gradientTransform="matrix(1 0 0 1 0 -3282)" gradientUnits="userSpaceOnUse"><stop offset="0" style="stop-color:#3651bf"/><stop offset="1" style="stop-color:#2e5bdb"/></linearGradient><path d="M68.2,112.2" class="st60"/><linearGradient id="SVGID_61_" x1="51.039" x2="73.04" y1="3393" y2="3393" gradientTransform="matrix(1 0 0 1 0 -3282)" gradientUnits="userSpaceOnUse"><stop offset="0" style="stop-color:#2e3192"/><stop offset="1" style="stop-color:#2f0b81"/></linearGradient><rect width="22" height="4" x="51" y="109" class="st61"/></g><linearGradient id="SVGID_62_" x1="61.5" x2="62.5" y1="3317.5" y2="3317.5" gradientTransform="matrix(1 0 0 1 0 -3282)" gradientUnits="userSpaceOnUse"><stop offset="0" style="stop-color:#4c3ea1"/><stop offset="1" style="stop-color:#2e3192"/></linearGradient><line x1="62" x2="62" y1="39" y2="32" class="st62"/><linearGradient id="SVGID_63_" x1="59" x2="65" y1="3316.5" y2="3316.5" gradientTransform="matrix(1 0 0 1 0 -3282)" gradientUnits="userSpaceOnUse"><stop offset="0" style="stop-color:#4c3ea1"/><stop offset="1" style="stop-color:#2e3192"/></linearGradient><line x1="59.5" x2="64.5" y1="34.5" y2="34.5" class="st63"/></g></g></g></svg>