<svg id="Warstwa_1" data-name="Warstwa 1" xmlns="http://www.w3.org/2000/svg" xmlns:xlink="http://www.w3.org/1999/xlink" viewBox="0 0 200 172"><defs><style>.cls-1,.cls-47,.cls-48,.cls-49,.cls-50,.cls-51{fill:none;}.cls-2{fill:url(#Gradient_bez_nazwy_118);}.cls-26,.cls-3,.cls-65{opacity:0.2;}.cls-4,.cls-77{opacity:0.3;}.cls-5{fill:url(#Gradient_bez_nazwy_23);}.cls-6{fill:url(#Gradient_bez_nazwy_51);}.cls-7{fill:url(#Gradient_bez_nazwy_152);}.cls-8{fill:url(#Gradient_bez_nazwy_152-2);}.cls-9{fill:url(#Gradient_bez_nazwy_152-3);}.cls-10,.cls-26,.cls-30,.cls-46,.cls-64,.cls-92{fill:#fff;}.cls-10,.cls-44{opacity:0.1;}.cls-11{fill:url(#Gradient_bez_nazwy_101);}.cls-12{fill:url(#Gradient_bez_nazwy_101-2);}.cls-13{fill:url(#Gradient_bez_nazwy_101-3);}.cls-14{fill:url(#Gradient_bez_nazwy_101-4);}.cls-15{fill:url(#Gradient_bez_nazwy_101-5);}.cls-16{fill:url(#Gradient_bez_nazwy_101-6);}.cls-17{fill:url(#Gradient_bez_nazwy_72);}.cls-18{fill:url(#Gradient_bez_nazwy_51-2);}.cls-19{opacity:0.05;}.cls-20{clip-path:url(#clip-path);}.cls-21{fill:url(#Gradient_bez_nazwy_72-2);}.cls-22{fill:url(#Gradient_bez_nazwy_101-7);}.cls-23{clip-path:url(#clip-path-2);}.cls-24{fill:url(#Gradient_bez_nazwy_48);}.cls-25{fill:url(#Gradient_bez_nazwy_151);}.cls-26,.cls-30,.cls-64,.cls-65,.cls-78,.cls-79,.cls-80,.cls-81,.cls-82,.cls-83,.cls-84,.cls-85,.cls-86,.cls-87,.cls-88,.cls-89,.cls-90,.cls-92{isolation:isolate;}.cls-27{fill:url(#Gradient_bez_nazwy_151-2);}.cls-28{fill:url(#Gradient_bez_nazwy_151-3);}.cls-29{fill:url(#Gradient_bez_nazwy_151-4);}.cls-30{opacity:0.1;}.cls-31{fill:url(#Gradient_bez_nazwy_151-5);}.cls-32{fill:url(#Gradient_bez_nazwy_151-6);}.cls-33{fill:url(#Gradient_bez_nazwy_151-7);}.cls-34{fill:url(#Gradient_bez_nazwy_151-8);}.cls-35{fill:url(#Gradient_bez_nazwy_151-9);}.cls-36{fill:url(#Gradient_bez_nazwy_151-10);}.cls-37{fill:url(#Gradient_bez_nazwy_151-11);}.cls-38{fill:url(#Gradient_bez_nazwy_151-12);}.cls-39{fill:url(#Gradient_bez_nazwy_151-13);}.cls-40{fill:url(#Gradient_bez_nazwy_151-14);}.cls-41{fill:url(#Gradient_bez_nazwy_151-15);}.cls-42{fill:url(#Gradient_bez_nazwy_151-16);}.cls-43{fill:url(#Gradient_bez_nazwy_151-17);}.cls-45{opacity:0.95;}.cls-47,.cls-48,.cls-49,.cls-50,.cls-51{stroke-linecap:round;stroke-linejoin:round;}.cls-47,.cls-48,.cls-49,.cls-50{stroke-width:0.2px;opacity:0.4;}.cls-47{stroke:url(#Gradient_bez_nazwy_131);}.cls-48{stroke:url(#Gradient_bez_nazwy_131-2);}.cls-49{stroke:url(#Gradient_bez_nazwy_131-3);}.cls-50{stroke:url(#Gradient_bez_nazwy_131-4);}.cls-51{stroke-width:0.21px;stroke:url(#Gradient_bez_nazwy_131-5);}.cls-52{fill:url(#Gradient_bez_nazwy_151-18);}.cls-53{fill:url(#Gradient_bez_nazwy_151-19);}.cls-54{fill:url(#Gradient_bez_nazwy_151-20);}.cls-55{fill:url(#Gradient_bez_nazwy_151-21);}.cls-56{fill:url(#Gradient_bez_nazwy_151-22);}.cls-57{fill:url(#Gradient_bez_nazwy_151-23);}.cls-58{fill:url(#Gradient_bez_nazwy_151-24);}.cls-59{fill:url(#Gradient_bez_nazwy_151-25);}.cls-60{fill:url(#Gradient_bez_nazwy_151-26);}.cls-61{fill:url(#Gradient_bez_nazwy_151-27);}.cls-62{fill:url(#Gradient_bez_nazwy_151-28);}.cls-63{fill:url(#Gradient_bez_nazwy_151-29);}.cls-64{opacity:0.15;}.cls-66{fill:url(#Gradient_bez_nazwy_151-30);}.cls-67{fill:url(#Gradient_bez_nazwy_151-31);}.cls-68{fill:url(#Gradient_bez_nazwy_151-32);}.cls-69{fill:url(#Gradient_bez_nazwy_151-33);}.cls-70{fill:url(#Gradient_bez_nazwy_151-34);}.cls-71{fill:url(#Gradient_bez_nazwy_151-35);}.cls-72{fill:url(#Gradient_bez_nazwy_151-36);}.cls-73{fill:#373e9b;}.cls-74{fill:url(#Gradient_bez_nazwy_101-8);}.cls-75{fill:url(#Gradient_bez_nazwy_48-2);}.cls-76{fill:url(#Gradient_bez_nazwy_51-3);}.cls-77{fill:url(#Gradient_bez_nazwy_101-9);}.cls-78,.cls-79,.cls-80,.cls-81,.cls-82,.cls-83,.cls-84,.cls-85,.cls-86,.cls-87,.cls-88,.cls-89,.cls-90,.cls-92{opacity:0.2;}.cls-78{fill:url(#Gradient_bez_nazwy_101-10);}.cls-79{fill:url(#Gradient_bez_nazwy_101-11);}.cls-80{fill:url(#Gradient_bez_nazwy_101-12);}.cls-81{fill:url(#Gradient_bez_nazwy_101-13);}.cls-82{fill:url(#Gradient_bez_nazwy_101-14);}.cls-83{fill:url(#Gradient_bez_nazwy_101-15);}.cls-84{fill:url(#Gradient_bez_nazwy_101-16);}.cls-85{fill:url(#Gradient_bez_nazwy_101-17);}.cls-86{fill:url(#Gradient_bez_nazwy_101-18);}.cls-87{fill:url(#Gradient_bez_nazwy_101-19);}.cls-88{fill:url(#Gradient_bez_nazwy_101-20);}.cls-89{fill:url(#Gradient_bez_nazwy_101-21);}.cls-90{fill:url(#Gradient_bez_nazwy_101-22);}.cls-91{opacity:0.6;}</style><linearGradient id="Gradient_bez_nazwy_118" x1="100.28" y1="172" x2="100.28" y2="25" gradientUnits="userSpaceOnUse"><stop offset="0" stop-color="#1d7ee8"/><stop offset="1" stop-color="#2ea7db"/></linearGradient><linearGradient id="Gradient_bez_nazwy_23" x1="-2595.99" y1="130.5" x2="-2585.01" y2="130.5" gradientTransform="translate(2658.99)" gradientUnits="userSpaceOnUse"><stop offset="0" stop-color="#2e40bf"/><stop offset="1" stop-color="#593192"/></linearGradient><linearGradient id="Gradient_bez_nazwy_51" x1="7910.99" y1="130" x2="7934.99" y2="130" gradientTransform="matrix(1, 0, 0, -1, -7868.99, 260)" gradientUnits="userSpaceOnUse"><stop offset="0" stop-color="#3651bf"/><stop offset="1" stop-color="#2e5bdb"/></linearGradient><linearGradient id="Gradient_bez_nazwy_152" x1="255.61" y1="61.9" x2="255.61" y2="26.87" gradientTransform="translate(-170.11)" gradientUnits="userSpaceOnUse"><stop offset="0" stop-color="#2e59bf"/><stop offset="1" stop-color="#593192"/></linearGradient><linearGradient id="Gradient_bez_nazwy_152-2" x1="263.21" y1="85.58" x2="239.37" y2="85.61" xlink:href="#Gradient_bez_nazwy_152"/><linearGradient id="Gradient_bez_nazwy_152-3" x1="231.11" y1="139" x2="267.11" y2="139" xlink:href="#Gradient_bez_nazwy_152"/><linearGradient id="Gradient_bez_nazwy_101" x1="241.11" y1="142" x2="281.11" y2="142" gradientTransform="translate(-170.11)" gradientUnits="userSpaceOnUse"><stop offset="0" stop-color="#2e60e8"/><stop offset="1" stop-color="#2e74db"/></linearGradient><linearGradient id="Gradient_bez_nazwy_101-2" x1="247.11" y1="63" x2="256.11" y2="63" xlink:href="#Gradient_bez_nazwy_101"/><linearGradient id="Gradient_bez_nazwy_101-3" x1="247.11" y1="76" x2="256.11" y2="76" xlink:href="#Gradient_bez_nazwy_101"/><linearGradient id="Gradient_bez_nazwy_101-4" x1="247.11" y1="69" x2="262.11" y2="69" xlink:href="#Gradient_bez_nazwy_101"/><linearGradient id="Gradient_bez_nazwy_101-5" x1="247.11" y1="82" x2="263.11" y2="82" xlink:href="#Gradient_bez_nazwy_101"/><linearGradient id="Gradient_bez_nazwy_101-6" x1="259.11" y1="65" x2="264.11" y2="65" xlink:href="#Gradient_bez_nazwy_101"/><linearGradient id="Gradient_bez_nazwy_72" x1="1918.67" y1="92.5" x2="1928.67" y2="92.5" gradientTransform="matrix(-1, 0, 0, 1, 1931.67, 0)" gradientUnits="userSpaceOnUse"><stop offset="0" stop-color="#4c3ea1"/><stop offset="1" stop-color="#2e3192"/></linearGradient><linearGradient id="Gradient_bez_nazwy_51-2" x1="1887.98" y1="107.5" x2="1931.67" y2="107.5" gradientTransform="matrix(-1, 0, 0, 1, 1931.67, 0)" xlink:href="#Gradient_bez_nazwy_51"/><clipPath id="clip-path"><polygon class="cls-1" points="12.36 42.76 43.82 42.76 31.6 171.75 0.14 171.75 12.36 42.76"/></clipPath><linearGradient id="Gradient_bez_nazwy_72-2" x1="-361.05" y1="104" x2="-353.05" y2="104" gradientTransform="translate(398.05)" xlink:href="#Gradient_bez_nazwy_72"/><linearGradient id="Gradient_bez_nazwy_101-7" x1="-387.76" y1="116.5" x2="-349.85" y2="116.5" gradientTransform="translate(398.05)" xlink:href="#Gradient_bez_nazwy_101"/><clipPath id="clip-path-2"><polygon class="cls-1" points="37.76 61 10.29 61 21 172 48.21 172 37.76 61"/></clipPath><linearGradient id="Gradient_bez_nazwy_48" x1="14374.79" y1="320" x2="14402.65" y2="320" gradientTransform="matrix(-1, 0, 0, 1, 14443.53, -164)" gradientUnits="userSpaceOnUse"><stop offset="0" stop-color="#2e3192"/><stop offset="1" stop-color="#2f0b81"/></linearGradient><linearGradient id="Gradient_bez_nazwy_151" x1="3413.22" y1="82.28" x2="3436.22" y2="82.28" gradientTransform="matrix(1, 0, 0, -1, -3303.22, 164.56)" gradientUnits="userSpaceOnUse"><stop offset="0" stop-color="#451088"/><stop offset="1" stop-color="#593179"/></linearGradient><linearGradient id="Gradient_bez_nazwy_151-2" x1="3424.77" y1="71" x2="3424.77" y2="40" gradientTransform="matrix(-1, 0, 0, 1, 3546.22, 0)" xlink:href="#Gradient_bez_nazwy_151"/><linearGradient id="Gradient_bez_nazwy_151-3" x1="3416.72" y1="64.15" x2="3433.72" y2="64.15" gradientTransform="matrix(-1, 0, 0, 1, 3546.22, 0)" xlink:href="#Gradient_bez_nazwy_151"/><linearGradient id="Gradient_bez_nazwy_151-4" x1="3416.22" y1="83.5" x2="3433.22" y2="83.5" gradientTransform="matrix(1, 0, 0, -1, -3303.22, 167)" xlink:href="#Gradient_bez_nazwy_151"/><linearGradient id="Gradient_bez_nazwy_151-5" x1="3424.67" y1="90.16" x2="3424.67" y2="89.37" gradientTransform="matrix(1, 0, 0, -1, -3303.12, 179.53)" xlink:href="#Gradient_bez_nazwy_151"/><linearGradient id="Gradient_bez_nazwy_151-6" x1="3421.68" y1="83.4" x2="3427.65" y2="83.4" gradientTransform="matrix(-1, 0, 0, 1, 3546.22, 0)" xlink:href="#Gradient_bez_nazwy_151"/><linearGradient id="Gradient_bez_nazwy_151-7" x1="3424.72" y1="72" x2="3424.72" y2="70" gradientTransform="matrix(-1, 0, 0, 1, 3546.22, 0)" xlink:href="#Gradient_bez_nazwy_151"/><linearGradient id="Gradient_bez_nazwy_151-8" x1="3412.22" y1="111.5" x2="3437.22" y2="111.5" gradientTransform="matrix(1, 0, 0, -1, -3303.22, 223)" xlink:href="#Gradient_bez_nazwy_151"/><linearGradient id="Gradient_bez_nazwy_151-9" x1="3424.72" y1="124" x2="3424.72" y2="123" gradientTransform="matrix(1, 0, 0, -1, -3303.22, 247)" xlink:href="#Gradient_bez_nazwy_151"/><linearGradient id="Gradient_bez_nazwy_151-10" x1="3421.22" y1="115" x2="3428.22" y2="115" gradientTransform="matrix(-1, 0, 0, 1, 3546.22, 0)" xlink:href="#Gradient_bez_nazwy_151"/><linearGradient id="Gradient_bez_nazwy_151-11" x1="3424.72" y1="102" x2="3424.72" y2="98" gradientTransform="matrix(1, 0, 0, -1, -3303.22, 200)" xlink:href="#Gradient_bez_nazwy_151"/><linearGradient id="Gradient_bez_nazwy_151-12" x1="3412.22" y1="147.52" x2="3437.22" y2="147.52" gradientTransform="matrix(1, 0, 0, -1, -3303.22, 295.03)" xlink:href="#Gradient_bez_nazwy_151"/><linearGradient id="Gradient_bez_nazwy_151-13" x1="3424.72" y1="164" x2="3424.72" y2="163" gradientTransform="matrix(1, 0, 0, -1, -3303.22, 327)" xlink:href="#Gradient_bez_nazwy_151"/><linearGradient id="Gradient_bez_nazwy_151-14" x1="3432.21" y1="152.89" x2="3416.34" y2="153.2" gradientTransform="matrix(-1, 0, 0, 1, 3546.22, 0)" xlink:href="#Gradient_bez_nazwy_151"/><linearGradient id="Gradient_bez_nazwy_151-15" x1="3424.72" y1="138" x2="3424.72" y2="136" gradientTransform="matrix(1, 0, 0, -1, -3303.22, 274)" xlink:href="#Gradient_bez_nazwy_151"/><linearGradient id="Gradient_bez_nazwy_151-16" x1="3411.1" y1="92.5" x2="3438.32" y2="92.5" gradientTransform="matrix(-1, 0, 0, 1, 3546.22, 0)" xlink:href="#Gradient_bez_nazwy_151"/><linearGradient id="Gradient_bez_nazwy_151-17" x1="3410.91" y1="128.5" x2="3438.47" y2="128.5" gradientTransform="matrix(-1, 0, 0, 1, 3546.22, 0)" xlink:href="#Gradient_bez_nazwy_151"/><linearGradient id="Gradient_bez_nazwy_131" x1="-662.09" y1="-5344.51" x2="-661.76" y2="-5344.51" gradientTransform="matrix(0, -1, -1, 0, -5223.34, -598.5)" gradientUnits="userSpaceOnUse"><stop offset="0" stop-color="#4531a7"/><stop offset="1" stop-color="#423179"/></linearGradient><linearGradient id="Gradient_bez_nazwy_131-2" x1="-667.17" y1="-5344.51" x2="-666.84" y2="-5344.51" xlink:href="#Gradient_bez_nazwy_131"/><linearGradient id="Gradient_bez_nazwy_131-3" x1="4859.31" y1="-11.9" x2="4859.64" y2="-11.9" gradientTransform="matrix(1, 0, 0, -1, -4740.84, 54)" xlink:href="#Gradient_bez_nazwy_131"/><linearGradient id="Gradient_bez_nazwy_131-4" x1="4864.38" y1="-11.9" x2="4864.71" y2="-11.9" gradientTransform="matrix(1, 0, 0, -1, -4740.84, 54)" xlink:href="#Gradient_bez_nazwy_131"/><linearGradient id="Gradient_bez_nazwy_131-5" x1="-5903.18" y1="65.79" x2="-5901.98" y2="65.79" gradientTransform="matrix(-1, 0, 0, 1, -5781.84, 0)" xlink:href="#Gradient_bez_nazwy_131"/><linearGradient id="Gradient_bez_nazwy_151-18" x1="130" y1="132.5" x2="133.38" y2="132.5" gradientTransform="matrix(1, 0, 0, 1, 0, 0)" xlink:href="#Gradient_bez_nazwy_151"/><linearGradient id="Gradient_bez_nazwy_151-19" x1="126" y1="132.5" x2="129.36" y2="132.5" gradientTransform="matrix(1, 0, 0, 1, 0, 0)" xlink:href="#Gradient_bez_nazwy_151"/><linearGradient id="Gradient_bez_nazwy_151-20" x1="113.64" y1="132.5" x2="117" y2="132.5" gradientTransform="matrix(1, 0, 0, 1, 0, 0)" xlink:href="#Gradient_bez_nazwy_151"/><linearGradient id="Gradient_bez_nazwy_151-21" x1="109.64" y1="132.5" x2="113" y2="132.5" gradientTransform="matrix(1, 0, 0, 1, 0, 0)" xlink:href="#Gradient_bez_nazwy_151"/><linearGradient id="Gradient_bez_nazwy_151-22" x1="109.61" y1="96.51" x2="113" y2="96.51" gradientTransform="matrix(1, 0, 0, 1, 0, 0)" xlink:href="#Gradient_bez_nazwy_151"/><linearGradient id="Gradient_bez_nazwy_151-23" x1="129.99" y1="96.49" x2="133.35" y2="96.49" gradientTransform="matrix(1, 0, 0, 1, 0, 0)" xlink:href="#Gradient_bez_nazwy_151"/><linearGradient id="Gradient_bez_nazwy_151-24" x1="126" y1="96.49" x2="129.33" y2="96.49" gradientTransform="matrix(1, 0, 0, 1, 0, 0)" xlink:href="#Gradient_bez_nazwy_151"/><linearGradient id="Gradient_bez_nazwy_151-25" x1="113.68" y1="96.49" x2="117" y2="96.49" gradientTransform="matrix(1, 0, 0, 1, 0, 0)" xlink:href="#Gradient_bez_nazwy_151"/><linearGradient id="Gradient_bez_nazwy_151-26" x1="110" y1="113" x2="113" y2="113" gradientTransform="matrix(1, 0, 0, 1, 0, 0)" xlink:href="#Gradient_bez_nazwy_151"/><linearGradient id="Gradient_bez_nazwy_151-27" x1="114" y1="113" x2="117" y2="113" gradientTransform="matrix(1, 0, 0, 1, 0, 0)" xlink:href="#Gradient_bez_nazwy_151"/><linearGradient id="Gradient_bez_nazwy_151-28" x1="126" y1="113" x2="129" y2="113" gradientTransform="matrix(1, 0, 0, 1, 0, 0)" xlink:href="#Gradient_bez_nazwy_151"/><linearGradient id="Gradient_bez_nazwy_151-29" x1="130" y1="113" x2="133" y2="113" gradientTransform="matrix(1, 0, 0, 1, 0, 0)" xlink:href="#Gradient_bez_nazwy_151"/><linearGradient id="Gradient_bez_nazwy_151-30" x1="110" y1="149" x2="113" y2="149" gradientTransform="matrix(1, 0, 0, 1, 0, 0)" xlink:href="#Gradient_bez_nazwy_151"/><linearGradient id="Gradient_bez_nazwy_151-31" x1="114" y1="149" x2="117" y2="149" gradientTransform="matrix(1, 0, 0, 1, 0, 0)" xlink:href="#Gradient_bez_nazwy_151"/><linearGradient id="Gradient_bez_nazwy_151-32" x1="126" y1="149" x2="129" y2="149" gradientTransform="matrix(1, 0, 0, 1, 0, 0)" xlink:href="#Gradient_bez_nazwy_151"/><linearGradient id="Gradient_bez_nazwy_151-33" x1="130" y1="149" x2="133" y2="149" gradientTransform="matrix(1, 0, 0, 1, 0, 0)" xlink:href="#Gradient_bez_nazwy_151"/><linearGradient id="Gradient_bez_nazwy_151-34" x1="3424.72" y1="95" x2="3424.72" y2="93" gradientTransform="matrix(-1, 0, 0, 1, 3546.22, 0)" xlink:href="#Gradient_bez_nazwy_151"/><linearGradient id="Gradient_bez_nazwy_151-35" x1="3424.69" y1="131" x2="3424.69" y2="129" gradientTransform="matrix(-1, 0, 0, 1, 3546.22, 0)" xlink:href="#Gradient_bez_nazwy_151"/><linearGradient id="Gradient_bez_nazwy_151-36" x1="3424.72" y1="172" x2="3424.72" y2="164" gradientTransform="matrix(1, 0, 0, -1, -3303.22, 336)" xlink:href="#Gradient_bez_nazwy_151"/><linearGradient id="Gradient_bez_nazwy_101-8" x1="-120.6" y1="118" x2="-90.6" y2="118" gradientTransform="translate(256.6)" xlink:href="#Gradient_bez_nazwy_101"/><linearGradient id="Gradient_bez_nazwy_48-2" x1="9450.61" y1="312" x2="9478.47" y2="312" gradientTransform="translate(-9309.42 -164)" xlink:href="#Gradient_bez_nazwy_48"/><linearGradient id="Gradient_bez_nazwy_51-3" x1="3346.22" y1="115.5" x2="3380.19" y2="115.5" gradientTransform="matrix(-1, 0, 0, 1, 3546.22, 0)" xlink:href="#Gradient_bez_nazwy_51"/><linearGradient id="Gradient_bez_nazwy_101-9" x1="3346.22" y1="63.91" x2="3380.19" y2="63.91" gradientTransform="matrix(-1, 0, 0, 1, 3546.22, 0)" xlink:href="#Gradient_bez_nazwy_101"/><linearGradient id="Gradient_bez_nazwy_101-10" x1="3346.22" y1="71.61" x2="3380.19" y2="71.61" gradientTransform="matrix(-1, 0, 0, 1, 3546.22, 0)" xlink:href="#Gradient_bez_nazwy_101"/><linearGradient id="Gradient_bez_nazwy_101-11" x1="3346.22" y1="79.1" x2="3380.19" y2="79.1" gradientTransform="matrix(-1, 0, 0, 1, 3546.22, 0)" xlink:href="#Gradient_bez_nazwy_101"/><linearGradient id="Gradient_bez_nazwy_101-12" x1="3346.22" y1="86.6" x2="3380.19" y2="86.6" gradientTransform="matrix(-1, 0, 0, 1, 3546.22, 0)" xlink:href="#Gradient_bez_nazwy_101"/><linearGradient id="Gradient_bez_nazwy_101-13" x1="3346.22" y1="94.18" x2="3380.19" y2="94.18" gradientTransform="matrix(-1, 0, 0, 1, 3546.22, 0)" xlink:href="#Gradient_bez_nazwy_101"/><linearGradient id="Gradient_bez_nazwy_101-14" x1="3346.22" y1="101.48" x2="3380.19" y2="101.48" gradientTransform="matrix(-1, 0, 0, 1, 3546.22, 0)" xlink:href="#Gradient_bez_nazwy_101"/><linearGradient id="Gradient_bez_nazwy_101-15" x1="3346.22" y1="109.17" x2="3380.19" y2="109.17" gradientTransform="matrix(-1, 0, 0, 1, 3546.22, 0)" xlink:href="#Gradient_bez_nazwy_101"/><linearGradient id="Gradient_bez_nazwy_101-16" x1="3346.22" y1="116.62" x2="3380.19" y2="116.62" gradientTransform="matrix(-1, 0, 0, 1, 3546.22, 0)" xlink:href="#Gradient_bez_nazwy_101"/><linearGradient id="Gradient_bez_nazwy_101-17" x1="3346.22" y1="124.24" x2="3380.19" y2="124.24" gradientTransform="matrix(-1, 0, 0, 1, 3546.22, 0)" xlink:href="#Gradient_bez_nazwy_101"/><linearGradient id="Gradient_bez_nazwy_101-18" x1="3346.22" y1="131.68" x2="3380.19" y2="131.68" gradientTransform="matrix(-1, 0, 0, 1, 3546.22, 0)" xlink:href="#Gradient_bez_nazwy_101"/><linearGradient id="Gradient_bez_nazwy_101-19" x1="3346.22" y1="139.62" x2="3380.19" y2="139.62" gradientTransform="matrix(-1, 0, 0, 1, 3546.22, 0)" xlink:href="#Gradient_bez_nazwy_101"/><linearGradient id="Gradient_bez_nazwy_101-20" x1="3346.22" y1="147.78" x2="3380.19" y2="147.78" gradientTransform="matrix(-1, 0, 0, 1, 3546.22, 0)" xlink:href="#Gradient_bez_nazwy_101"/><linearGradient id="Gradient_bez_nazwy_101-21" x1="3346.22" y1="155.45" x2="3380.19" y2="155.45" gradientTransform="matrix(-1, 0, 0, 1, 3546.22, 0)" xlink:href="#Gradient_bez_nazwy_101"/><linearGradient id="Gradient_bez_nazwy_101-22" x1="3346.22" y1="162.92" x2="3380.19" y2="162.92" gradientTransform="matrix(-1, 0, 0, 1, 3546.22, 0)" xlink:href="#Gradient_bez_nazwy_101"/></defs><path class="cls-2" d="M15.29,110.51V172h170V109.81a84.92,84.92,0,0,0-91-84.6C49.65,28.29,15.29,65.83,15.29,110.51Z"/><polygon class="cls-3" points="199.77 121.46 171.51 121.46 171.51 89.23 149.22 89.23 149.22 107.93 142.85 107.93 143 76 124 76 124 108 113 108 113 84 97 84 97 96 88 96 88 57 73 57 73 96 67 96 67 75 55 75 55 106 38 106 38.16 96 16.26 96 16.26 121.46 7.5 121.46 0.58 172 199.77 172 199.77 121.46"/><polygon class="cls-3" points="199.73 172 0.29 172 2.68 156 199.73 156 199.73 172"/><polygon class="cls-4" points="59 95 58.98 83 58 83 58 95 57 95 57 100 60 100 60 95 59 95"/><polygon class="cls-5" points="66.08 99 66.08 143.5 66 147.47 66 162 69 159.78 69 143.5 69 131.97 69 104.96 66.08 99"/><rect class="cls-6" x="42" y="99" width="24" height="62" transform="translate(108 260) rotate(-180)"/><rect class="cls-4" x="42" y="99" width="24" height="3" transform="translate(108 201) rotate(-180)"/><rect class="cls-7" x="85" y="26.87" width="1" height="35.03"/><polygon class="cls-8" points="90 59.11 87.39 50.93 87 50.93 87 55 84 55 84 42.39 83.74 42.39 81 47.97 81 128.78 90 128.78 90 59.11"/><rect class="cls-9" x="61" y="117" width="36" height="44"/><rect class="cls-3" x="61" y="117" width="36" height="3"/><rect class="cls-10" x="65" y="123" width="9" height="3"/><rect class="cls-10" x="77" y="123" width="9" height="3"/><rect class="cls-10" x="65" y="128" width="9" height="3"/><rect class="cls-10" x="65" y="133" width="9" height="3"/><rect class="cls-10" x="65" y="138" width="9" height="3"/><rect class="cls-10" x="65" y="143" width="9" height="3"/><rect class="cls-10" x="65" y="148" width="9" height="3"/><rect class="cls-11" x="71" y="122" width="40" height="40"/><rect class="cls-3" x="71" y="122" width="40" height="3"/><rect class="cls-10" x="75" y="128" width="9" height="3"/><rect class="cls-10" x="87" y="128" width="9" height="3"/><rect class="cls-10" x="99" y="128" width="9" height="3"/><rect class="cls-10" x="75" y="133" width="9" height="3"/><rect class="cls-10" x="87" y="133" width="9" height="3"/><rect class="cls-10" x="99" y="133" width="9" height="3"/><rect class="cls-10" x="75" y="138" width="9" height="3"/><rect class="cls-10" x="87" y="138" width="9" height="3"/><rect class="cls-10" x="99" y="138" width="9" height="3"/><rect class="cls-10" x="75" y="143" width="9" height="3"/><rect class="cls-10" x="87" y="143" width="9" height="3"/><rect class="cls-10" x="99" y="143" width="9" height="3"/><rect class="cls-10" x="75" y="148" width="9" height="3"/><rect class="cls-10" x="87" y="148" width="9" height="3"/><rect class="cls-10" x="99" y="148" width="9" height="3"/><rect class="cls-10" x="75" y="153" width="9" height="3"/><rect class="cls-10" x="87" y="153" width="9" height="3"/><rect class="cls-10" x="99" y="153" width="9" height="3"/><rect class="cls-4" x="84" y="55" width="3" height="47"/><rect class="cls-12" x="77" y="62" width="9" height="2"/><rect class="cls-13" x="77" y="75" width="9" height="2"/><rect class="cls-14" x="77" y="68" width="15" height="2"/><rect class="cls-15" x="77" y="81" width="16" height="2"/><rect class="cls-16" x="89" y="64" width="5" height="2"/><polygon class="cls-17" points="3 142 3 43 13 43 3 142"/><polygon class="cls-18" points="12.22 43 43.69 43 31.46 172 0 172 12.22 43"/><polygon class="cls-19" points="12.08 43 43.73 43 31.46 172 0 172 12.08 43"/><g class="cls-20"><rect class="cls-10" x="-2.45" y="49" width="46.97" height="3" transform="translate(42.07 101) rotate(-180)"/><rect class="cls-10" x="-2.45" y="55" width="46.97" height="3" transform="translate(42.07 113) rotate(-180)"/><rect class="cls-10" x="-2.45" y="61" width="46.97" height="3" transform="translate(42.07 125) rotate(-180)"/><rect class="cls-10" x="-2.45" y="67" width="46.97" height="3" transform="translate(42.07 137) rotate(-180)"/><rect class="cls-10" x="-2.31" y="73" width="46.9" height="3" transform="translate(42.28 149) rotate(-180)"/><rect class="cls-10" x="-2.31" y="79" width="46.9" height="3" transform="translate(42.28 161) rotate(-180)"/><rect class="cls-10" x="-2.31" y="85" width="46.9" height="3" transform="translate(42.28 173) rotate(-180)"/><rect class="cls-10" x="-2.31" y="91" width="46.9" height="3" transform="translate(42.28 185) rotate(-180)"/><rect class="cls-10" x="-2.31" y="97" width="46.9" height="3" transform="translate(42.28 197) rotate(-180)"/><rect class="cls-10" x="-2.31" y="103" width="46.9" height="3" transform="translate(42.28 209) rotate(-180)"/><rect class="cls-10" x="-2.31" y="109" width="46.9" height="3" transform="translate(42.28 221) rotate(-180)"/><rect class="cls-10" x="-2.31" y="115" width="46.9" height="3" transform="translate(42.28 233) rotate(-180)"/><rect class="cls-10" x="-2.31" y="121" width="46.9" height="3" transform="translate(42.28 245) rotate(-180)"/><rect class="cls-10" x="-2.31" y="127" width="46.9" height="3" transform="translate(42.28 257) rotate(-180)"/><rect class="cls-10" x="-2.31" y="133" width="46.9" height="3" transform="translate(42.28 269) rotate(-180)"/><rect class="cls-10" x="-2.31" y="139" width="46.9" height="3" transform="translate(42.28 281) rotate(-180)"/><rect class="cls-10" x="-2.31" y="145" width="46.9" height="3" transform="translate(42.28 293) rotate(-180)"/><rect class="cls-10" x="-2.31" y="151" width="46.9" height="3" transform="translate(42.28 305) rotate(-180)"/><rect class="cls-10" x="-2.31" y="157" width="46.9" height="3" transform="translate(42.28 317) rotate(-180)"/><rect class="cls-10" x="-2.31" y="163" width="46.9" height="3" transform="translate(42.28 329) rotate(-180)"/></g><polygon class="cls-21" points="45 147 45 61 37 61 45 147"/><polygon class="cls-22" points="37.76 61 10.29 61 21 172 48.21 172 37.76 61"/><g class="cls-23"><rect class="cls-10" x="9.65" y="69" width="40.55" height="3"/><rect class="cls-10" x="7.78" y="75" width="40.6" height="3"/><rect class="cls-10" x="7.98" y="81" width="40.21" height="3"/><rect class="cls-10" x="6.67" y="87" width="40.55" height="3"/><rect class="cls-10" x="9.45" y="93" width="40.55" height="3"/><rect class="cls-10" x="9.65" y="99" width="40.55" height="3"/><rect class="cls-10" x="9.65" y="105" width="40.55" height="3"/><rect class="cls-10" x="9.65" y="111" width="40.55" height="3"/><rect class="cls-10" x="9.65" y="117" width="40.55" height="3"/><rect class="cls-10" x="9.65" y="123" width="40.55" height="3"/><rect class="cls-10" x="9.65" y="129" width="40.55" height="3"/><rect class="cls-10" x="9.65" y="135" width="40.55" height="3"/><rect class="cls-10" x="9.65" y="141" width="40.55" height="3"/><rect class="cls-10" x="9.65" y="147" width="40.55" height="3"/><rect class="cls-10" x="9.65" y="153" width="40.55" height="3"/><rect class="cls-10" x="9.65" y="159" width="40.55" height="3"/><rect class="cls-10" x="9.65" y="165" width="40.55" height="3"/></g><path class="cls-24" d="M59.64,161.18a1.27,1.27,0,0,1,0-.9l.45-1.05-.9,1.24a1.12,1.12,0,0,1-1.5.3c-.49-.3-1-.68-1.61-1a1.14,1.14,0,0,1-.38-1.54s0-.07.07-.11l.19-.22-.19.11a1.1,1.1,0,0,1-1.54-.38c0-.07-.07-.11-.11-.19l-.11-.33A62.48,62.48,0,0,0,46.87,172H42.78a47.3,47.3,0,0,1,9.95-15.66l-.3.26a1.21,1.21,0,0,1-.94.3,1.11,1.11,0,0,1-.79-.52l-.11-.19.08.26a1.13,1.13,0,0,1-.87,1.32h-.11c-.64,0-1.31.11-1.88.15a1.13,1.13,0,0,1-1.2-.94l-.22-1.51-.08,1.17a1.29,1.29,0,0,1-.41.79,1.21,1.21,0,0,1-.87.22,31.85,31.85,0,0,1-3.94-.94c2.48-5.86,7.77-5.67,10.44-5.18a9.19,9.19,0,0,0-2.93-1.61h0a.54.54,0,0,1-.37-.61l.11-.9-.3.79a.54.54,0,0,1-.64.34,10,10,0,0,0-2.82-.26.55.55,0,0,1-.56-.53h0l0-.94L43.79,149a.55.55,0,0,1-.45.45,10.46,10.46,0,0,0-2.4.75,7.16,7.16,0,0,1,.34-1.24,7.25,7.25,0,0,1,9.27-4.36,5.93,5.93,0,0,1,1.84,1,8.72,8.72,0,0,1,.15-5.6,8.69,8.69,0,0,1,4.14,4,7.3,7.3,0,0,1,.41,3.6,7.37,7.37,0,0,1,2.25-2.85A8.83,8.83,0,0,1,65,143.53a8.81,8.81,0,0,1-3,5,6.46,6.46,0,0,1-1,.6,7.24,7.24,0,0,1,7.81,6.61,7,7,0,0,1-.41,3,11.27,11.27,0,0,1-.53,1.17,9.51,9.51,0,0,0-1.39-2.11.56.56,0,0,1-.07-.64l.56-1-.64.68a.58.58,0,0,1-.79,0,12.4,12.4,0,0,0-2.33-1.61.51.51,0,0,1-.26-.68l.3-.79-.45.76a.51.51,0,0,1-.64.22h0a9.79,9.79,0,0,0-2.55-.56,8.3,8.3,0,0,1,4.81,8.45,35.55,35.55,0,0,1-3.95-.94A.87.87,0,0,1,59.64,161.18Z"/><rect class="cls-25" x="110" y="71.56" width="23" height="21.44" transform="translate(243 164.56) rotate(-180)"/><rect class="cls-26" x="110" y="72" width="23" height="21" transform="translate(243 165) rotate(-180)"/><path class="cls-27" d="M110.9,63h5.18l1.42-3.08V56h1L120,49.69a2.59,2.59,0,0,1-1.21-2.11c.08-1.3,2.2-2.16,2.2-2.16V40h1v5.44s2.14.79,2.22,2.1a2.58,2.58,0,0,1-1.21,2.1L124.59,56h.91v3.8l1.32,3.2H132l1.3,8H109.6Z"/><path class="cls-4" d="M120.49,59.41h2V55.06a1.32,1.32,0,0,0-2,0Z"/><polygon class="cls-28" points="129.5 71 121.47 57.31 112.5 71 129.5 71"/><polygon class="cls-26" points="129.5 71 121.47 57.31 112.5 71 129.5 71"/><rect class="cls-29" x="113" y="74" width="17" height="19" transform="translate(243 167) rotate(-180)"/><path class="cls-30" d="M117.37,89.37h8.36V79.29c0-1.5-2.2-3.06-4.18-3.06-1.56,0-4.18,1.06-4.18,3.06Z"/><rect class="cls-31" x="116.97" y="89.37" width="9.16" height="0.8" transform="translate(243.1 179.53) rotate(-180)"/><path class="cls-32" d="M118.57,89.37h6V79.68a3.37,3.37,0,0,0-3-2.25,3,3,0,0,0-3,2.25Z"/><polygon class="cls-33" points="133 72 134.04 70 108.96 70 109.96 72 133 72"/><rect class="cls-34" x="109" y="94" width="25" height="35" transform="translate(243 223) rotate(-180)"/><path class="cls-30" d="M117,123h9V109.19c0-2-2.37-4.19-4.5-4.19-1.68,0-4.5,1.45-4.5,4.19Z"/><rect class="cls-35" x="117" y="123" width="9" height="1" transform="translate(243 247) rotate(-180)"/><path class="cls-36" d="M118,123h7V110a3.54,3.54,0,0,0-7,0Z"/><rect class="cls-37" x="119" y="98" width="5" height="4" transform="translate(243 200) rotate(-180)"/><rect class="cls-38" x="109" y="130" width="25" height="35.03" transform="translate(243 295.03) rotate(-180)"/><path class="cls-30" d="M117,163h9V144.76a4.9,4.9,0,0,0-4.5-4.76,4.56,4.56,0,0,0-4.5,4.76Z"/><rect class="cls-39" x="117" y="163" width="9" height="1" transform="translate(243 327) rotate(-180)"/><path class="cls-40" d="M118,163h7V146.21a3.75,3.75,0,0,0-3.5-3.21c-1.31,0-3,.36-3.5,3.21Z"/><rect class="cls-41" x="119" y="136" width="5" height="2" transform="translate(243 274) rotate(-180)"/><path class="cls-4" d="M123.11,147.24s-1.73.7-1.92,1.13-1.85-.94-2-1.13a2,2,0,0,1-.27-.34l4.34.12Z"/><path class="cls-4" d="M124.13,149.51a3,3,0,0,0-.46-1.29c-.32-.29-2,1.09-2,1.09l1.89,2Z"/><path class="cls-4" d="M121.84,151.47a12.24,12.24,0,0,0-1.18-1.5l-1.68,1.5,2.34,1.23S122.05,151.88,121.84,151.47Z"/><path class="cls-4" d="M124.14,153.56a3,3,0,0,0-.47-1.29c-.32-.3-2,1.09-2,1.09l1.89,2Z"/><path class="cls-4" d="M121.84,155.48a12.38,12.38,0,0,0-1.19-1.51L119,155.48l2.36,1.24S122.05,155.9,121.84,155.48Z"/><path class="cls-4" d="M119.73,162.11s1.8-.67,2-1.09,1.92.91,2.11,1.09a1.64,1.64,0,0,1,.28.33l-4.5-.12Z"/><path class="cls-4" d="M119,159.89a3.09,3.09,0,0,0,.46,1.28c.32.29,2-1.09,2-1.09l-1.88-2Z"/><path class="cls-4" d="M121.37,158a11.12,11.12,0,0,0,1.15,1.45l1.62-1.45-2.27-1.2S121.17,157.63,121.37,158Z"/><path class="cls-4" d="M124,146a2.59,2.59,0,0,0-2.5-2,2.26,2.26,0,0,0-2.5,2Z"/><path class="cls-4" d="M118.57,89.37h6V79.68a3.37,3.37,0,0,0-3-2.25,3,3,0,0,0-3,2.25Z"/><rect class="cls-30" x="119" y="98" width="5" height="4" transform="translate(243 200) rotate(-180)"/><rect class="cls-30" x="119" y="136" width="5" height="2" transform="translate(243 274) rotate(-180)"/><polygon class="cls-42" points="133.82 92 135.12 93 107.9 93 109.16 92 133.82 92"/><polygon class="cls-43" points="134 128 135.31 129 107.75 129 109.02 128 134 128"/><polygon class="cls-30" points="133.82 92 135.12 93 107.9 93 109.16 92 133.82 92"/><rect class="cls-30" x="116.97" y="89.37" width="9.16" height="0.8" transform="translate(243.1 179.53) rotate(-180)"/><rect class="cls-30" x="117" y="123" width="9" height="1" transform="translate(243 247) rotate(-180)"/><rect class="cls-30" x="117" y="163" width="9" height="1" transform="translate(243 327) rotate(-180)"/><path class="cls-26" d="M118.8,47.58c.08-1.3,2-1.95,2-1.95l1.28,0s2,.63,2.07,1.94c0,.65-1.36-.48-2.72-.47S118.76,48.24,118.8,47.58Z"/><circle class="cls-44" cx="121.17" cy="66.02" r="3.55"/><circle class="cls-44" cx="121.17" cy="66.02" r="3.39"/><g class="cls-45"><circle class="cls-46" cx="121.17" cy="66.02" r="2.9"/><path class="cls-47" d="M121.17,63.49v0Z"/><path class="cls-48" d="M121.17,68.57v0Z"/><path class="cls-49" d="M118.56,65.9h0Z"/><path class="cls-50" d="M123.64,65.9h0Z"/><polyline class="cls-51" points="121.23 64.56 121.23 66.03 120.24 67.03"/></g><path class="cls-4" d="M118,123h7V110a3.54,3.54,0,0,0-7,0Z"/><polygon class="cls-30" points="134 128 135.31 129 107.75 129 109.02 128 134 128"/><polygon class="cls-52" points="130 134 133.01 134 133.38 131 130 131 130 134"/><polygon class="cls-53" points="126 134 129 134 129.36 131 126 131 126 134"/><polygon class="cls-54" points="117 134 114 134 113.64 131 117 131 117 134"/><polygon class="cls-55" points="113 134 110 134 109.64 131 113 131 113 134"/><polygon class="cls-56" points="113 98 110 98 109.61 95.01 113 95.01 113 98"/><polygon class="cls-57" points="129.99 97.99 133 97.99 133.35 95 130 95 129.99 97.99"/><polygon class="cls-58" points="126 97.99 129 97.99 129.33 95 126 95 126 97.99"/><polygon class="cls-59" points="117 97.99 114 97.99 113.68 95 117 95 117 97.99"/><rect class="cls-60" x="110" y="98" width="3" height="30"/><rect class="cls-61" x="114" y="98" width="3" height="30"/><rect class="cls-62" x="126" y="98" width="3" height="30"/><rect class="cls-63" x="130" y="98" width="3" height="30"/><polygon class="cls-64" points="113 98 110 98 109.61 95.01 113 95.01 113 98"/><polygon class="cls-64" points="129.99 97.99 133 97.99 133.35 95 130 95 129.99 97.99"/><polygon class="cls-64" points="126 97.99 129 97.99 129.33 95 126 95 126 97.99"/><polygon class="cls-64" points="117 97.99 114 97.99 113.68 95 117 95 117 97.99"/><g class="cls-65"><rect class="cls-46" x="110" y="98" width="3" height="30"/></g><g class="cls-65"><rect class="cls-46" x="114" y="98" width="3" height="30"/></g><g class="cls-65"><rect class="cls-46" x="126" y="98" width="3" height="30"/></g><g class="cls-65"><rect class="cls-46" x="130" y="98" width="3" height="30"/></g><rect class="cls-66" x="110" y="134" width="3" height="30"/><rect class="cls-67" x="114" y="134" width="3" height="30"/><rect class="cls-68" x="126" y="134" width="3" height="30"/><rect class="cls-69" x="130" y="134" width="3" height="30"/><polygon class="cls-64" points="130 134 133.01 134 133.38 131 130 131 130 134"/><polygon class="cls-64" points="126 134 129 134 129.36 131 126 131 126 134"/><polygon class="cls-64" points="117 134 114 134 113.64 131 117 131 117 134"/><polygon class="cls-64" points="113 134 110 134 109.64 131 113 131 113 134"/><g class="cls-65"><rect class="cls-46" x="110" y="134" width="3" height="30"/></g><g class="cls-65"><rect class="cls-46" x="114" y="134" width="3" height="30"/></g><g class="cls-65"><rect class="cls-46" x="126" y="134" width="3" height="30"/></g><g class="cls-65"><rect class="cls-46" x="130" y="134" width="3" height="30"/></g><polygon class="cls-70" points="133.98 95 135.11 93 107.9 93 108.99 95 133.98 95"/><polygon class="cls-71" points="134 131 135.31 129 107.75 129 109 131 134 131"/><rect class="cls-72" x="96" y="164" width="51" height="8" transform="translate(243 336) rotate(-180)"/><rect class="cls-26" x="96" y="164" width="51" height="4" transform="translate(243 332) rotate(-180)"/><polygon class="cls-4" points="156 70 155.98 58 155 58 155 70 154 70 154 75 157 75 157 70 156 70"/><polygon class="cls-4" points="163 70 162.98 58 162 58 162 70 161 70 161 75 164 75 164 70 163 70"/><polyline class="cls-73" points="165.93 74.13 168.93 76.49 168.93 162.13 165.93 162.13 165.93 74.13"/><rect class="cls-74" x="136" y="74" width="30" height="88"/><rect class="cls-4" x="136" y="74" width="30" height="3"/><rect class="cls-10" x="139" y="81" width="6" height="3" transform="translate(284 165) rotate(-180)"/><rect class="cls-10" x="139" y="86" width="6" height="3" transform="translate(284 175) rotate(-180)"/><rect class="cls-10" x="139" y="91" width="6" height="3" transform="translate(284 185) rotate(-180)"/><rect class="cls-10" x="139" y="96" width="6" height="3" transform="translate(284 195) rotate(-180)"/><rect class="cls-10" x="139" y="101" width="6" height="3" transform="translate(284 205) rotate(-180)"/><rect class="cls-10" x="139" y="106" width="6" height="3" transform="translate(284 215) rotate(-180)"/><rect class="cls-10" x="139" y="111" width="6" height="3" transform="translate(284 225) rotate(-180)"/><rect class="cls-10" x="148" y="81" width="6" height="3" transform="translate(302 165) rotate(-180)"/><rect class="cls-10" x="148" y="86" width="6" height="3" transform="translate(302 175) rotate(-180)"/><rect class="cls-10" x="148" y="91" width="6" height="3" transform="translate(302 185) rotate(-180)"/><rect class="cls-10" x="148" y="96" width="6" height="3" transform="translate(302 195) rotate(-180)"/><rect class="cls-10" x="148" y="101" width="6" height="3" transform="translate(302 205) rotate(-180)"/><rect class="cls-10" x="148" y="106" width="6" height="3" transform="translate(302 215) rotate(-180)"/><rect class="cls-10" x="148" y="111" width="6" height="3" transform="translate(302 225) rotate(-180)"/><rect class="cls-10" x="157" y="81" width="6" height="3" transform="translate(320 165) rotate(-180)"/><rect class="cls-10" x="157" y="86" width="6" height="3" transform="translate(320 175) rotate(-180)"/><rect class="cls-10" x="157" y="91" width="6" height="3" transform="translate(320 185) rotate(-180)"/><rect class="cls-10" x="157" y="96" width="6" height="3" transform="translate(320 195) rotate(-180)"/><rect class="cls-10" x="157" y="101" width="6" height="3" transform="translate(320 205) rotate(-180)"/><rect class="cls-10" x="157" y="106" width="6" height="3" transform="translate(320 215) rotate(-180)"/><rect class="cls-10" x="157" y="111" width="6" height="3" transform="translate(320 225) rotate(-180)"/><rect class="cls-10" x="139" y="116" width="6" height="3" transform="translate(284 235) rotate(-180)"/><rect class="cls-10" x="139" y="121" width="6" height="3" transform="translate(284 245) rotate(-180)"/><rect class="cls-10" x="139" y="126" width="6" height="3" transform="translate(284 255) rotate(-180)"/><rect class="cls-10" x="139" y="131" width="6" height="3" transform="translate(284 265) rotate(-180)"/><rect class="cls-10" x="139" y="136" width="6" height="3" transform="translate(284 275) rotate(-180)"/><rect class="cls-10" x="139" y="141" width="6" height="3" transform="translate(284 285) rotate(-180)"/><rect class="cls-10" x="148" y="116" width="6" height="3" transform="translate(302 235) rotate(-180)"/><rect class="cls-10" x="148" y="121" width="6" height="3" transform="translate(302 245) rotate(-180)"/><rect class="cls-10" x="148" y="126" width="6" height="3" transform="translate(302 255) rotate(-180)"/><rect class="cls-10" x="148" y="131" width="6" height="3" transform="translate(302 265) rotate(-180)"/><rect class="cls-10" x="148" y="136" width="6" height="3" transform="translate(302 275) rotate(-180)"/><rect class="cls-10" x="148" y="141" width="6" height="3" transform="translate(302 285) rotate(-180)"/><rect class="cls-10" x="157" y="116" width="6" height="3" transform="translate(320 235) rotate(-180)"/><rect class="cls-10" x="157" y="121" width="6" height="3" transform="translate(320 245) rotate(-180)"/><rect class="cls-10" x="157" y="126" width="6" height="3" transform="translate(320 255) rotate(-180)"/><rect class="cls-10" x="157" y="131" width="6" height="3" transform="translate(320 265) rotate(-180)"/><rect class="cls-10" x="157" y="136" width="6" height="3" transform="translate(320 275) rotate(-180)"/><rect class="cls-10" x="157" y="141" width="6" height="3" transform="translate(320 285) rotate(-180)"/><rect class="cls-10" x="139" y="146" width="6" height="3" transform="translate(284 295) rotate(-180)"/><rect class="cls-10" x="148" y="146" width="6" height="3" transform="translate(302 295) rotate(-180)"/><rect class="cls-10" x="157" y="146" width="6" height="3" transform="translate(320 295) rotate(-180)"/><rect class="cls-10" x="139" y="151" width="6" height="3" transform="translate(284 305) rotate(-180)"/><rect class="cls-10" x="148" y="151" width="6" height="3" transform="translate(302 305) rotate(-180)"/><rect class="cls-10" x="157" y="151" width="6" height="3" transform="translate(320 305) rotate(-180)"/><path class="cls-75" d="M150.28,153.18a1.27,1.27,0,0,0,0-.9l-.45-1.05.9,1.24a1.13,1.13,0,0,0,1.51.3c.48-.3,1-.68,1.61-1a1.14,1.14,0,0,0,.38-1.54s0-.07-.08-.11l-.19-.22.19.11a1.1,1.1,0,0,0,1.54-.38,1.18,1.18,0,0,0,.11-.19l.12-.33A62.45,62.45,0,0,1,163.05,164h4.1a47.49,47.49,0,0,0-10-15.66l.3.26a1.22,1.22,0,0,0,.94.3,1.09,1.09,0,0,0,.79-.52l.11-.19-.07.26a1.13,1.13,0,0,0,.86,1.32h.12c.63,0,1.31.11,1.87.15a1.14,1.14,0,0,0,1.21-.94l.22-1.51.08,1.17a1.2,1.2,0,0,0,.41.79,1.17,1.17,0,0,0,.86.22,32,32,0,0,0,4-.94c-2.48-5.86-7.78-5.67-10.45-5.18a9.41,9.41,0,0,1,2.93-1.61h0a.54.54,0,0,0,.38-.61l-.11-.9.3.79a.54.54,0,0,0,.64.34,9.92,9.92,0,0,1,2.81-.26.56.56,0,0,0,.57-.53h0l0-.94.19,1.17a.58.58,0,0,0,.45.45,10.39,10.39,0,0,1,2.41.75,8.17,8.17,0,0,0-.34-1.24,7.26,7.26,0,0,0-9.28-4.36,6,6,0,0,0-1.84,1,8.65,8.65,0,0,0-.15-5.6,8.69,8.69,0,0,0-4.13,4,7.3,7.3,0,0,0-.41,3.6,7.3,7.3,0,0,0-2.26-2.85,8.8,8.8,0,0,0-5.63-1.24,8.81,8.81,0,0,0,3,5,5.71,5.71,0,0,0,1.05.6,7.23,7.23,0,0,0-7.81,6.61,6.81,6.81,0,0,0,.41,3c.15.41.34.79.52,1.17a9.88,9.88,0,0,1,1.39-2.11.57.57,0,0,0,.08-.64l-.56-1,.63.68a.58.58,0,0,0,.79,0,13.08,13.08,0,0,1,2.33-1.61.51.51,0,0,0,.26-.68l-.3-.79.45.76a.52.52,0,0,0,.64.22h0a9.86,9.86,0,0,1,2.56-.56,8.3,8.3,0,0,0-4.81,8.45,35.37,35.37,0,0,0,3.94-.94A.85.85,0,0,0,150.28,153.18Z"/><path class="cls-19" d="M166,172h34V65.21s-2.46-6.45-17-6.2-17,6.2-17,6.2Z"/><path class="cls-76" d="M166,172h34V65.21s-2.46-6.45-17-6.2-17,6.2-17,6.2Z"/><path class="cls-77" d="M166,68.82s4.16-4.91,17-5c12.21-.13,17,5,17,5V65.21s-2.46-6.45-17-6.2-17,6.2-17,6.2Z"/><path class="cls-78" d="M166,76.28s4.16-4.91,17-5c12.21-.14,17,5,17,5V72.67s-2.46-6-17-5.72-17,5.72-17,5.72Z"/><path class="cls-79" d="M166,83.44s4.16-4.25,17-4.39c12.21-.13,17,4.39,17,4.39V79.83s-2.46-5.31-17-5.06-17,5.06-17,5.06Z"/><path class="cls-80" d="M166,90.77s4.16-3.76,17-3.9c12.21-.13,17,3.9,17,3.9V87.16s-2.46-5-17-4.73-17,4.73-17,4.73Z"/><path class="cls-81" d="M166,98.27s4.16-4.1,17-4.23c12.21-.14,17,4.23,17,4.23V94.66s-2.26-4.58-17-4.57c-14.53,0-17,4.57-17,4.57Z"/><path class="cls-82" d="M166,105.57s4.16-3.76,17-3.9c12.21-.13,17,3.9,17,3.9V102s-2.95-4.57-17-4.57c-14.53,0-17,4.57-17,4.57Z"/><path class="cls-83" d="M166,113.09s4.16-3.76,17-3.9c12.21-.14,17,3.9,17,3.9v-3.61s-2.95-4.24-17-4.24c-14.53,0-17,4.24-17,4.24Z"/><path class="cls-84" d="M166,120.22s4.16-2.62,17-2.76c12.21-.13,17,2.76,17,2.76v-3.61S197.05,113,183,113c-14.53,0-17,3.59-17,3.59Z"/><path class="cls-85" d="M166,127.68s4.16-2.46,17-2.6c12.21-.13,17,2.6,17,2.6v-3.61s-2.95-3.27-17-3.27c-14.53,0-17,3.27-17,3.27Z"/><path class="cls-86" d="M166,135s4.16-2,17-2.11c12.21-.13,17,2.11,17,2.11v-3.61s-2.95-3.1-17-3.1c-14.53,0-17,3.1-17,3.1Z"/><path class="cls-87" d="M166,142.89s4.16-2,17-2.1c12.21-.14,17,2.1,17,2.1v-3.61s-2.95-2.93-17-2.93c-14.53,0-17,2.93-17,2.93Z"/><path class="cls-88" d="M166,150.89s4.16-1.64,17-1.78c12.21-.13,17,1.78,17,1.78v-3.61s-2.95-2.61-17-2.61c-14.53,0-17,2.61-17,2.61Z"/><path class="cls-89" d="M166,158.39s4.16-1.31,17-1.45c12.21-.13,17,1.45,17,1.45v-3.61s-2.95-2.27-17-2.27c-14.53,0-17,2.27-17,2.27Z"/><path class="cls-90" d="M166,165.62s4.16-1.15,17-1.28c12.21-.14,17,1.28,17,1.28v-3.77s-2.95-1.62-17-1.62c-14.53,0-17,1.62-17,1.62Z"/><g class="cls-91"><path class="cls-4" d="M166,68.82s4.16-4.91,17-5c12.21-.13,17,5,17,5V65.21s-2.46-6.45-17-6.2-17,6.2-17,6.2Z"/><path class="cls-92" d="M166,76.28s4.16-4.91,17-5c12.21-.14,17,5,17,5V72.67s-2.46-6-17-5.72-17,5.72-17,5.72Z"/><path class="cls-92" d="M166,83.44s4.16-4.25,17-4.39c12.21-.13,17,4.39,17,4.39V79.83s-2.46-5.31-17-5.06-17,5.06-17,5.06Z"/><path class="cls-92" d="M166,90.77s4.16-3.76,17-3.9c12.21-.13,17,3.9,17,3.9V87.16s-2.46-5-17-4.73-17,4.73-17,4.73Z"/><path class="cls-92" d="M166,98.27s4.16-4.1,17-4.23c12.21-.14,17,4.23,17,4.23V94.66s-2.26-4.58-17-4.57c-14.53,0-17,4.57-17,4.57Z"/><path class="cls-92" d="M166,105.57s4.16-3.76,17-3.9c12.21-.13,17,3.9,17,3.9V102s-2.95-4.57-17-4.57c-14.53,0-17,4.57-17,4.57Z"/><path class="cls-92" d="M166,113.09s4.16-3.76,17-3.9c12.21-.14,17,3.9,17,3.9v-3.61s-2.95-4.24-17-4.24c-14.53,0-17,4.24-17,4.24Z"/><path class="cls-92" d="M166,120.22s4.16-2.62,17-2.76c12.21-.13,17,2.76,17,2.76v-3.61S197.05,113,183,113c-14.53,0-17,3.59-17,3.59Z"/><path class="cls-92" d="M166,127.68s4.16-2.46,17-2.6c12.21-.13,17,2.6,17,2.6v-3.61s-2.95-3.27-17-3.27c-14.53,0-17,3.27-17,3.27Z"/><path class="cls-92" d="M166,135s4.16-2,17-2.11c12.21-.13,17,2.11,17,2.11v-3.61s-2.95-3.1-17-3.1c-14.53,0-17,3.1-17,3.1Z"/><path class="cls-92" d="M166,142.89s4.16-2,17-2.1c12.21-.14,17,2.1,17,2.1v-3.61s-2.95-2.93-17-2.93c-14.53,0-17,2.93-17,2.93Z"/><path class="cls-92" d="M166,150.89s4.16-1.64,17-1.78c12.21-.13,17,1.78,17,1.78v-3.61s-2.95-2.61-17-2.61c-14.53,0-17,2.61-17,2.61Z"/><path class="cls-92" d="M166,158.39s4.16-1.31,17-1.45c12.21-.13,17,1.45,17,1.45v-3.61s-2.95-2.27-17-2.27c-14.53,0-17,2.27-17,2.27Z"/><path class="cls-92" d="M166,165.62s4.16-1.15,17-1.28c12.21-.14,17,1.28,17,1.28v-3.77s-2.95-1.62-17-1.62c-14.53,0-17,1.62-17,1.62Z"/></g></svg>